<svg width="254" height="273" viewBox="0 0 254 273" fill="none" xmlns="http://www.w3.org/2000/svg">
<path d="M24.5226 226.364L21.2286 239H17.5026L15.4866 230.684L13.3986 239H9.67255L6.46855 226.364H9.76255L11.5806 235.562L13.8306 226.364H17.2146L19.3746 235.562L21.2106 226.364H24.5226ZM35.5342 233.816C35.5342 234.104 35.5162 234.404 35.4802 234.716H28.5142C28.5622 235.34 28.7602 235.82 29.1082 236.156C29.4682 236.48 29.9062 236.642 30.4222 236.642C31.1902 236.642 31.7242 236.318 32.0242 235.67H35.3002C35.1322 236.33 34.8262 236.924 34.3822 237.452C33.9502 237.98 33.4042 238.394 32.7442 238.694C32.0842 238.994 31.3462 239.144 30.5302 239.144C29.5462 239.144 28.6702 238.934 27.9022 238.514C27.1342 238.094 26.5342 237.494 26.1022 236.714C25.6702 235.934 25.4542 235.022 25.4542 233.978C25.4542 232.934 25.6642 232.022 26.0842 231.242C26.5162 230.462 27.1162 229.862 27.8842 229.442C28.6522 229.022 29.5342 228.812 30.5302 228.812C31.5022 228.812 32.3662 229.016 33.1222 229.424C33.8782 229.832 34.4662 230.414 34.8862 231.17C35.3182 231.926 35.5342 232.808 35.5342 233.816ZM32.3842 233.006C32.3842 232.478 32.2042 232.058 31.8442 231.746C31.4842 231.434 31.0342 231.278 30.4942 231.278C29.9782 231.278 29.5402 231.428 29.1802 231.728C28.8322 232.028 28.6162 232.454 28.5322 233.006H32.3842ZM40.3604 233.978C40.3604 232.934 40.5704 232.022 40.9904 231.242C41.4224 230.462 42.0164 229.862 42.7724 229.442C43.5404 229.022 44.4164 228.812 45.4004 228.812C46.6604 228.812 47.7104 229.142 48.5504 229.802C49.4024 230.462 49.9604 231.392 50.2244 232.592H46.9484C46.6724 231.824 46.1384 231.44 45.3464 231.44C44.7824 231.44 44.3324 231.662 43.9964 232.106C43.6604 232.538 43.4924 233.162 43.4924 233.978C43.4924 234.794 43.6604 235.424 43.9964 235.868C44.3324 236.3 44.7824 236.516 45.3464 236.516C46.1384 236.516 46.6724 236.132 46.9484 235.364H50.2244C49.9604 236.54 49.4024 237.464 48.5504 238.136C47.6984 238.808 46.6484 239.144 45.4004 239.144C44.4164 239.144 43.5404 238.934 42.7724 238.514C42.0164 238.094 41.4224 237.494 40.9904 236.714C40.5704 235.934 40.3604 235.022 40.3604 233.978ZM56.4429 239.144C55.4589 239.144 54.5709 238.934 53.7789 238.514C52.9989 238.094 52.3809 237.494 51.9249 236.714C51.4809 235.934 51.2589 235.022 51.2589 233.978C51.2589 232.946 51.4869 232.04 51.9429 231.26C52.3989 230.468 53.0229 229.862 53.8149 229.442C54.6069 229.022 55.4949 228.812 56.4789 228.812C57.4629 228.812 58.3509 229.022 59.1429 229.442C59.9349 229.862 60.5589 230.468 61.0149 231.26C61.4709 232.04 61.6989 232.946 61.6989 233.978C61.6989 235.01 61.4649 235.922 60.9969 236.714C60.5409 237.494 59.9109 238.094 59.1069 238.514C58.3149 238.934 57.4269 239.144 56.4429 239.144ZM56.4429 236.48C57.0309 236.48 57.5289 236.264 57.9369 235.832C58.3569 235.4 58.5669 234.782 58.5669 233.978C58.5669 233.174 58.3629 232.556 57.9549 232.124C57.5589 231.692 57.0669 231.476 56.4789 231.476C55.8789 231.476 55.3809 231.692 54.9849 232.124C54.5889 232.544 54.3909 233.162 54.3909 233.978C54.3909 234.782 54.5829 235.4 54.9669 235.832C55.3629 236.264 55.8549 236.48 56.4429 236.48ZM73.2498 228.956V239H70.1718V237.632C69.8598 238.076 69.4338 238.436 68.8938 238.712C68.3658 238.976 67.7778 239.108 67.1298 239.108C66.3618 239.108 65.6838 238.94 65.0958 238.604C64.5078 238.256 64.0518 237.758 63.7278 237.11C63.4038 236.462 63.2418 235.7 63.2418 234.824V228.956H66.3018V234.41C66.3018 235.082 66.4758 235.604 66.8238 235.976C67.1718 236.348 67.6398 236.534 68.2278 236.534C68.8278 236.534 69.3018 236.348 69.6498 235.976C69.9978 235.604 70.1718 235.082 70.1718 234.41V228.956H73.2498ZM78.5387 225.68V239H75.4607V225.68H78.5387ZM80.1573 233.96C80.1573 232.928 80.3493 232.022 80.7333 231.242C81.1293 230.462 81.6633 229.862 82.3353 229.442C83.0073 229.022 83.7573 228.812 84.5853 228.812C85.2453 228.812 85.8453 228.95 86.3853 229.226C86.9373 229.502 87.3693 229.874 87.6813 230.342V225.68H90.7593V239H87.6813V237.56C87.3933 238.04 86.9793 238.424 86.4393 238.712C85.9113 239 85.2933 239.144 84.5853 239.144C83.7573 239.144 83.0073 238.934 82.3353 238.514C81.6633 238.082 81.1293 237.476 80.7333 236.696C80.3493 235.904 80.1573 234.992 80.1573 233.96ZM87.6813 233.978C87.6813 233.21 87.4653 232.604 87.0333 232.16C86.6133 231.716 86.0973 231.494 85.4853 231.494C84.8733 231.494 84.3513 231.716 83.9193 232.16C83.4993 232.592 83.2893 233.192 83.2893 233.96C83.2893 234.728 83.4993 235.34 83.9193 235.796C84.3513 236.24 84.8733 236.462 85.4853 236.462C86.0973 236.462 86.6133 236.24 87.0333 235.796C87.4653 235.352 87.6813 234.746 87.6813 233.978ZM99.1061 228.848C100.282 228.848 101.218 229.232 101.914 230C102.622 230.756 102.976 231.8 102.976 233.132V239H99.9161V233.546C99.9161 232.874 99.7421 232.352 99.3941 231.98C99.0461 231.608 98.5781 231.422 97.9901 231.422C97.4021 231.422 96.9341 231.608 96.5861 231.98C96.2381 232.352 96.0641 232.874 96.0641 233.546V239H92.9861V228.956H96.0641V230.288C96.3761 229.844 96.7961 229.496 97.3241 229.244C97.8521 228.98 98.4461 228.848 99.1061 228.848ZM110.713 236.39V239H109.147C108.031 239 107.161 238.73 106.537 238.19C105.913 237.638 105.601 236.744 105.601 235.508V231.512H104.377V228.956H105.601V226.508H108.679V228.956H110.695V231.512H108.679V235.544C108.679 235.844 108.751 236.06 108.895 236.192C109.039 236.324 109.279 236.39 109.615 236.39H110.713ZM115.63 233.978C115.63 232.934 115.84 232.022 116.26 231.242C116.692 230.462 117.286 229.862 118.042 229.442C118.81 229.022 119.686 228.812 120.67 228.812C121.93 228.812 122.98 229.142 123.82 229.802C124.672 230.462 125.23 231.392 125.494 232.592H122.218C121.942 231.824 121.408 231.44 120.616 231.44C120.052 231.44 119.602 231.662 119.266 232.106C118.93 232.538 118.762 233.162 118.762 233.978C118.762 234.794 118.93 235.424 119.266 235.868C119.602 236.3 120.052 236.516 120.616 236.516C121.408 236.516 121.942 236.132 122.218 235.364H125.494C125.23 236.54 124.672 237.464 123.82 238.136C122.968 238.808 121.918 239.144 120.67 239.144C119.686 239.144 118.81 238.934 118.042 238.514C117.286 238.094 116.692 237.494 116.26 236.714C115.84 235.934 115.63 235.022 115.63 233.978ZM131.712 239.144C130.728 239.144 129.84 238.934 129.048 238.514C128.268 238.094 127.65 237.494 127.194 236.714C126.75 235.934 126.528 235.022 126.528 233.978C126.528 232.946 126.756 232.04 127.212 231.26C127.668 230.468 128.292 229.862 129.084 229.442C129.876 229.022 130.764 228.812 131.748 228.812C132.732 228.812 133.62 229.022 134.412 229.442C135.204 229.862 135.828 230.468 136.284 231.26C136.74 232.04 136.968 232.946 136.968 233.978C136.968 235.01 136.734 235.922 136.266 236.714C135.81 237.494 135.18 238.094 134.376 238.514C133.584 238.934 132.696 239.144 131.712 239.144ZM131.712 236.48C132.3 236.48 132.798 236.264 133.206 235.832C133.626 235.4 133.836 234.782 133.836 233.978C133.836 233.174 133.632 232.556 133.224 232.124C132.828 231.692 132.336 231.476 131.748 231.476C131.148 231.476 130.65 231.692 130.254 232.124C129.858 232.544 129.66 233.162 129.66 233.978C129.66 234.782 129.852 235.4 130.236 235.832C130.632 236.264 131.124 236.48 131.712 236.48ZM144.721 228.848C145.897 228.848 146.833 229.232 147.529 230C148.237 230.756 148.591 231.8 148.591 233.132V239H145.531V233.546C145.531 232.874 145.357 232.352 145.009 231.98C144.661 231.608 144.193 231.422 143.605 231.422C143.017 231.422 142.549 231.608 142.201 231.98C141.853 232.352 141.679 232.874 141.679 233.546V239H138.601V228.956H141.679V230.288C141.991 229.844 142.411 229.496 142.939 229.244C143.467 228.98 144.061 228.848 144.721 228.848ZM156.85 228.848C158.026 228.848 158.962 229.232 159.658 230C160.366 230.756 160.72 231.8 160.72 233.132V239H157.66V233.546C157.66 232.874 157.486 232.352 157.138 231.98C156.79 231.608 156.322 231.422 155.734 231.422C155.146 231.422 154.678 231.608 154.33 231.98C153.982 232.352 153.808 232.874 153.808 233.546V239H150.73V228.956H153.808V230.288C154.12 229.844 154.54 229.496 155.068 229.244C155.596 228.98 156.19 228.848 156.85 228.848ZM172.327 233.816C172.327 234.104 172.309 234.404 172.273 234.716H165.307C165.355 235.34 165.553 235.82 165.901 236.156C166.261 236.48 166.699 236.642 167.215 236.642C167.983 236.642 168.517 236.318 168.817 235.67H172.093C171.925 236.33 171.619 236.924 171.175 237.452C170.743 237.98 170.197 238.394 169.537 238.694C168.877 238.994 168.139 239.144 167.323 239.144C166.339 239.144 165.463 238.934 164.695 238.514C163.927 238.094 163.327 237.494 162.895 236.714C162.463 235.934 162.247 235.022 162.247 233.978C162.247 232.934 162.457 232.022 162.877 231.242C163.309 230.462 163.909 229.862 164.677 229.442C165.445 229.022 166.327 228.812 167.323 228.812C168.295 228.812 169.159 229.016 169.915 229.424C170.671 229.832 171.259 230.414 171.679 231.17C172.111 231.926 172.327 232.808 172.327 233.816ZM169.177 233.006C169.177 232.478 168.997 232.058 168.637 231.746C168.277 231.434 167.827 231.278 167.287 231.278C166.771 231.278 166.333 231.428 165.973 231.728C165.625 232.028 165.409 232.454 165.325 233.006H169.177ZM173.339 233.978C173.339 232.934 173.549 232.022 173.969 231.242C174.401 230.462 174.995 229.862 175.751 229.442C176.519 229.022 177.395 228.812 178.379 228.812C179.639 228.812 180.689 229.142 181.529 229.802C182.381 230.462 182.939 231.392 183.203 232.592H179.927C179.651 231.824 179.117 231.44 178.325 231.44C177.761 231.44 177.311 231.662 176.975 232.106C176.639 232.538 176.471 233.162 176.471 233.978C176.471 234.794 176.639 235.424 176.975 235.868C177.311 236.3 177.761 236.516 178.325 236.516C179.117 236.516 179.651 236.132 179.927 235.364H183.203C182.939 236.54 182.381 237.464 181.529 238.136C180.677 238.808 179.627 239.144 178.379 239.144C177.395 239.144 176.519 238.934 175.751 238.514C174.995 238.094 174.401 237.494 173.969 236.714C173.549 235.934 173.339 235.022 173.339 233.978ZM190.447 236.39V239H188.881C187.765 239 186.895 238.73 186.271 238.19C185.647 237.638 185.335 236.744 185.335 235.508V231.512H184.111V228.956H185.335V226.508H188.413V228.956H190.429V231.512H188.413V235.544C188.413 235.844 188.485 236.06 188.629 236.192C188.773 236.324 189.013 236.39 189.349 236.39H190.447ZM201.574 236.39V239H200.008C198.892 239 198.022 238.73 197.398 238.19C196.774 237.638 196.462 236.744 196.462 235.508V231.512H195.238V228.956H196.462V226.508H199.54V228.956H201.556V231.512H199.54V235.544C199.54 235.844 199.612 236.06 199.756 236.192C199.9 236.324 200.14 236.39 200.476 236.39H201.574ZM207.861 239.144C206.877 239.144 205.989 238.934 205.197 238.514C204.417 238.094 203.799 237.494 203.343 236.714C202.899 235.934 202.677 235.022 202.677 233.978C202.677 232.946 202.905 232.04 203.361 231.26C203.817 230.468 204.441 229.862 205.233 229.442C206.025 229.022 206.913 228.812 207.897 228.812C208.881 228.812 209.769 229.022 210.561 229.442C211.353 229.862 211.977 230.468 212.433 231.26C212.889 232.04 213.117 232.946 213.117 233.978C213.117 235.01 212.883 235.922 212.415 236.714C211.959 237.494 211.329 238.094 210.525 238.514C209.733 238.934 208.845 239.144 207.861 239.144ZM207.861 236.48C208.449 236.48 208.947 236.264 209.355 235.832C209.775 235.4 209.985 234.782 209.985 233.978C209.985 233.174 209.781 232.556 209.373 232.124C208.977 231.692 208.485 231.476 207.897 231.476C207.297 231.476 206.799 231.692 206.403 232.124C206.007 232.544 205.809 233.162 205.809 233.978C205.809 234.782 206.001 235.4 206.385 235.832C206.781 236.264 207.273 236.48 207.861 236.48ZM224.162 236.39V239H222.596C221.48 239 220.61 238.73 219.986 238.19C219.362 237.638 219.05 236.744 219.05 235.508V231.512H217.826V228.956H219.05V226.508H222.128V228.956H224.144V231.512H222.128V235.544C222.128 235.844 222.2 236.06 222.344 236.192C222.488 236.324 222.728 236.39 223.064 236.39H224.162ZM232.051 228.848C233.203 228.848 234.127 229.232 234.823 230C235.519 230.756 235.867 231.8 235.867 233.132V239H232.807V233.546C232.807 232.874 232.633 232.352 232.285 231.98C231.937 231.608 231.469 231.422 230.881 231.422C230.293 231.422 229.825 231.608 229.477 231.98C229.129 232.352 228.955 232.874 228.955 233.546V239H225.877V225.68H228.955V230.306C229.267 229.862 229.693 229.508 230.233 229.244C230.773 228.98 231.379 228.848 232.051 228.848ZM247.474 233.816C247.474 234.104 247.456 234.404 247.42 234.716H240.454C240.502 235.34 240.7 235.82 241.048 236.156C241.408 236.48 241.846 236.642 242.362 236.642C243.13 236.642 243.664 236.318 243.964 235.67H247.24C247.072 236.33 246.766 236.924 246.322 237.452C245.89 237.98 245.344 238.394 244.684 238.694C244.024 238.994 243.286 239.144 242.47 239.144C241.486 239.144 240.61 238.934 239.842 238.514C239.074 238.094 238.474 237.494 238.042 236.714C237.61 235.934 237.394 235.022 237.394 233.978C237.394 232.934 237.604 232.022 238.024 231.242C238.456 230.462 239.056 229.862 239.824 229.442C240.592 229.022 241.474 228.812 242.47 228.812C243.442 228.812 244.306 229.016 245.062 229.424C245.818 229.832 246.406 230.414 246.826 231.17C247.258 231.926 247.474 232.808 247.474 233.816ZM244.324 233.006C244.324 232.478 244.144 232.058 243.784 231.746C243.424 231.434 242.974 231.278 242.434 231.278C241.918 231.278 241.48 231.428 241.12 231.728C240.772 232.028 240.556 232.454 240.472 233.006H244.324ZM97.7401 266.144C96.8641 266.144 96.0841 265.994 95.4001 265.694C94.7161 265.394 94.1761 264.986 93.7801 264.47C93.3841 263.942 93.1621 263.354 93.1141 262.706H96.1561C96.1921 263.054 96.3541 263.336 96.6421 263.552C96.9301 263.768 97.2841 263.876 97.7041 263.876C98.0881 263.876 98.3821 263.804 98.5861 263.66C98.8021 263.504 98.9101 263.306 98.9101 263.066C98.9101 262.778 98.7601 262.568 98.4601 262.436C98.1601 262.292 97.6741 262.136 97.0021 261.968C96.2821 261.8 95.6821 261.626 95.2021 261.446C94.7221 261.254 94.3081 260.96 93.9601 260.564C93.6121 260.156 93.4381 259.61 93.4381 258.926C93.4381 258.35 93.5941 257.828 93.9061 257.36C94.2301 256.88 94.6981 256.502 95.3101 256.226C95.9341 255.95 96.6721 255.812 97.5241 255.812C98.7841 255.812 99.7741 256.124 100.494 256.748C101.226 257.372 101.646 258.2 101.754 259.232H98.9101C98.8621 258.884 98.7061 258.608 98.4421 258.404C98.1901 258.2 97.8541 258.098 97.4341 258.098C97.0741 258.098 96.7981 258.17 96.6061 258.314C96.4141 258.446 96.3181 258.632 96.3181 258.872C96.3181 259.16 96.4681 259.376 96.7681 259.52C97.0801 259.664 97.5601 259.808 98.2081 259.952C98.9521 260.144 99.5581 260.336 100.026 260.528C100.494 260.708 100.902 261.008 101.25 261.428C101.61 261.836 101.796 262.388 101.808 263.084C101.808 263.672 101.64 264.2 101.304 264.668C100.98 265.124 100.506 265.484 99.8821 265.748C99.2701 266.012 98.5561 266.144 97.7401 266.144ZM113.159 260.816C113.159 261.104 113.141 261.404 113.105 261.716H106.139C106.187 262.34 106.385 262.82 106.733 263.156C107.093 263.48 107.531 263.642 108.047 263.642C108.815 263.642 109.349 263.318 109.649 262.67H112.925C112.757 263.33 112.451 263.924 112.007 264.452C111.575 264.98 111.029 265.394 110.369 265.694C109.709 265.994 108.971 266.144 108.155 266.144C107.171 266.144 106.295 265.934 105.527 265.514C104.759 265.094 104.159 264.494 103.727 263.714C103.295 262.934 103.079 262.022 103.079 260.978C103.079 259.934 103.289 259.022 103.709 258.242C104.141 257.462 104.741 256.862 105.509 256.442C106.277 256.022 107.159 255.812 108.155 255.812C109.127 255.812 109.991 256.016 110.747 256.424C111.503 256.832 112.091 257.414 112.511 258.17C112.943 258.926 113.159 259.808 113.159 260.816ZM110.009 260.006C110.009 259.478 109.829 259.058 109.469 258.746C109.109 258.434 108.659 258.278 108.119 258.278C107.603 258.278 107.165 258.428 106.805 258.728C106.457 259.028 106.241 259.454 106.157 260.006H110.009ZM117.861 257.63C118.221 257.078 118.671 256.646 119.211 256.334C119.751 256.01 120.351 255.848 121.011 255.848V259.106H120.165C119.397 259.106 118.821 259.274 118.437 259.61C118.053 259.934 117.861 260.51 117.861 261.338V266H114.783V255.956H117.861V257.63ZM127 263.12L129.178 255.956H132.454L128.89 266H125.092L121.528 255.956H124.822L127 263.12ZM143.218 260.816C143.218 261.104 143.2 261.404 143.164 261.716H136.198C136.246 262.34 136.444 262.82 136.792 263.156C137.152 263.48 137.59 263.642 138.106 263.642C138.874 263.642 139.408 263.318 139.708 262.67H142.984C142.816 263.33 142.51 263.924 142.066 264.452C141.634 264.98 141.088 265.394 140.428 265.694C139.768 265.994 139.03 266.144 138.214 266.144C137.23 266.144 136.354 265.934 135.586 265.514C134.818 265.094 134.218 264.494 133.786 263.714C133.354 262.934 133.138 262.022 133.138 260.978C133.138 259.934 133.348 259.022 133.768 258.242C134.2 257.462 134.8 256.862 135.568 256.442C136.336 256.022 137.218 255.812 138.214 255.812C139.186 255.812 140.05 256.016 140.806 256.424C141.562 256.832 142.15 257.414 142.57 258.17C143.002 258.926 143.218 259.808 143.218 260.816ZM140.068 260.006C140.068 259.478 139.888 259.058 139.528 258.746C139.168 258.434 138.718 258.278 138.178 258.278C137.662 258.278 137.224 258.428 136.864 258.728C136.516 259.028 136.3 259.454 136.216 260.006H140.068ZM147.92 257.63C148.28 257.078 148.73 256.646 149.27 256.334C149.81 256.01 150.41 255.848 151.07 255.848V259.106H150.224C149.456 259.106 148.88 259.274 148.496 259.61C148.112 259.934 147.92 260.51 147.92 261.338V266H144.842V255.956H147.92V257.63ZM156.627 266.144C155.751 266.144 154.971 265.994 154.287 265.694C153.603 265.394 153.063 264.986 152.667 264.47C152.271 263.942 152.049 263.354 152.001 262.706H155.043C155.079 263.054 155.241 263.336 155.529 263.552C155.817 263.768 156.171 263.876 156.591 263.876C156.975 263.876 157.269 263.804 157.473 263.66C157.689 263.504 157.797 263.306 157.797 263.066C157.797 262.778 157.647 262.568 157.347 262.436C157.047 262.292 156.561 262.136 155.889 261.968C155.169 261.8 154.569 261.626 154.089 261.446C153.609 261.254 153.195 260.96 152.847 260.564C152.499 260.156 152.325 259.61 152.325 258.926C152.325 258.35 152.481 257.828 152.793 257.36C153.117 256.88 153.585 256.502 154.197 256.226C154.821 255.95 155.559 255.812 156.411 255.812C157.671 255.812 158.661 256.124 159.381 256.748C160.113 257.372 160.533 258.2 160.641 259.232H157.797C157.749 258.884 157.593 258.608 157.329 258.404C157.077 258.2 156.741 258.098 156.321 258.098C155.961 258.098 155.685 258.17 155.493 258.314C155.301 258.446 155.205 258.632 155.205 258.872C155.205 259.16 155.355 259.376 155.655 259.52C155.967 259.664 156.447 259.808 157.095 259.952C157.839 260.144 158.445 260.336 158.913 260.528C159.381 260.708 159.789 261.008 160.137 261.428C160.497 261.836 160.683 262.388 160.695 263.084C160.695 263.672 160.527 264.2 160.191 264.668C159.867 265.124 159.393 265.484 158.769 265.748C158.157 266.012 157.443 266.144 156.627 266.144Z" fill="#505050"/>
<path d="M95.8466 208.168C94.2626 208.168 92.8066 207.8 91.4786 207.064C90.1666 206.328 89.1186 205.304 88.3346 203.992C87.5666 202.664 87.1826 201.176 87.1826 199.528C87.1826 197.88 87.5666 196.4 88.3346 195.088C89.1186 193.776 90.1666 192.752 91.4786 192.016C92.8066 191.28 94.2626 190.912 95.8466 190.912C97.4306 190.912 98.8786 191.28 100.191 192.016C101.519 192.752 102.559 193.776 103.311 195.088C104.079 196.4 104.463 197.88 104.463 199.528C104.463 201.176 104.079 202.664 103.311 203.992C102.543 205.304 101.503 206.328 100.191 207.064C98.8786 207.8 97.4306 208.168 95.8466 208.168ZM95.8466 204.424C97.1906 204.424 98.2626 203.976 99.0626 203.08C99.8786 202.184 100.287 201 100.287 199.528C100.287 198.04 99.8786 196.856 99.0626 195.976C98.2626 195.08 97.1906 194.632 95.8466 194.632C94.4866 194.632 93.3986 195.072 92.5826 195.952C91.7826 196.832 91.3826 198.024 91.3826 199.528C91.3826 201.016 91.7826 202.208 92.5826 203.104C93.3986 203.984 94.4866 204.424 95.8466 204.424ZM112.842 208.192C111.53 208.192 110.346 207.912 109.29 207.352C108.25 206.792 107.426 205.992 106.818 204.952C106.226 203.912 105.93 202.696 105.93 201.304C105.93 199.928 106.234 198.72 106.842 197.68C107.45 196.624 108.282 195.816 109.338 195.256C110.394 194.696 111.578 194.416 112.89 194.416C114.202 194.416 115.386 194.696 116.442 195.256C117.498 195.816 118.33 196.624 118.938 197.68C119.546 198.72 119.85 199.928 119.85 201.304C119.85 202.68 119.538 203.896 118.914 204.952C118.306 205.992 117.466 206.792 116.394 207.352C115.338 207.912 114.154 208.192 112.842 208.192ZM112.842 204.64C113.626 204.64 114.29 204.352 114.834 203.776C115.394 203.2 115.674 202.376 115.674 201.304C115.674 200.232 115.402 199.408 114.858 198.832C114.33 198.256 113.674 197.968 112.89 197.968C112.09 197.968 111.426 198.256 110.898 198.832C110.37 199.392 110.106 200.216 110.106 201.304C110.106 202.376 110.362 203.2 110.874 203.776C111.402 204.352 112.058 204.64 112.842 204.64ZM126.131 196.504C126.531 195.88 127.083 195.376 127.787 194.992C128.491 194.608 129.315 194.416 130.259 194.416C131.363 194.416 132.363 194.696 133.259 195.256C134.155 195.816 134.859 196.616 135.371 197.656C135.899 198.696 136.163 199.904 136.163 201.28C136.163 202.656 135.899 203.872 135.371 204.928C134.859 205.968 134.155 206.776 133.259 207.352C132.363 207.912 131.363 208.192 130.259 208.192C129.331 208.192 128.507 208 127.787 207.616C127.083 207.232 126.531 206.736 126.131 206.128V214.384H122.027V194.608H126.131V196.504ZM131.987 201.28C131.987 200.256 131.699 199.456 131.123 198.88C130.563 198.288 129.867 197.992 129.035 197.992C128.219 197.992 127.523 198.288 126.947 198.88C126.387 199.472 126.107 200.28 126.107 201.304C126.107 202.328 126.387 203.136 126.947 203.728C127.523 204.32 128.219 204.616 129.035 204.616C129.851 204.616 130.547 204.32 131.123 203.728C131.699 203.12 131.987 202.304 131.987 201.28ZM143.764 208.192C142.596 208.192 141.556 207.992 140.644 207.592C139.732 207.192 139.012 206.648 138.484 205.96C137.956 205.256 137.66 204.472 137.596 203.608H141.652C141.7 204.072 141.916 204.448 142.3 204.736C142.684 205.024 143.156 205.168 143.716 205.168C144.228 205.168 144.62 205.072 144.892 204.88C145.18 204.672 145.324 204.408 145.324 204.088C145.324 203.704 145.124 203.424 144.724 203.248C144.324 203.056 143.676 202.848 142.78 202.624C141.82 202.4 141.02 202.168 140.38 201.928C139.74 201.672 139.188 201.28 138.724 200.752C138.26 200.208 138.028 199.48 138.028 198.568C138.028 197.8 138.236 197.104 138.652 196.48C139.084 195.84 139.708 195.336 140.524 194.968C141.356 194.6 142.34 194.416 143.476 194.416C145.156 194.416 146.476 194.832 147.436 195.664C148.412 196.496 148.972 197.6 149.116 198.976H145.324C145.26 198.512 145.052 198.144 144.7 197.872C144.364 197.6 143.916 197.464 143.356 197.464C142.876 197.464 142.508 197.56 142.252 197.752C141.996 197.928 141.868 198.176 141.868 198.496C141.868 198.88 142.068 199.168 142.468 199.36C142.884 199.552 143.524 199.744 144.388 199.936C145.38 200.192 146.188 200.448 146.812 200.704C147.436 200.944 147.98 201.344 148.444 201.904C148.924 202.448 149.172 203.184 149.188 204.112C149.188 204.896 148.964 205.6 148.516 206.224C148.084 206.832 147.452 207.312 146.62 207.664C145.804 208.016 144.852 208.192 143.764 208.192ZM157.099 190.552L156.619 202.048H153.139L152.659 190.552H157.099ZM154.939 208.192C154.219 208.192 153.627 207.984 153.163 207.568C152.715 207.136 152.491 206.608 152.491 205.984C152.491 205.344 152.715 204.808 153.163 204.376C153.627 203.944 154.219 203.728 154.939 203.728C155.643 203.728 156.219 203.944 156.667 204.376C157.131 204.808 157.363 205.344 157.363 205.984C157.363 206.608 157.131 207.136 156.667 207.568C156.219 207.984 155.643 208.192 154.939 208.192Z" fill="black"/>
<path d="M67.0759 95.073C93.2382 95.073 114.447 73.7902 114.447 47.5365C114.447 21.2828 93.2382 0 67.0759 0C40.9137 0 19.705 21.2828 19.705 47.5365C19.705 73.7902 40.9137 95.073 67.0759 95.073Z" fill="#F2F2F2"/>
<path d="M2 11.4138C2 28.7095 12.8126 42.7049 26.1749 42.7049L2 11.4138Z" fill="#2F2E41"/>
<path d="M26.1749 42.7048C26.1749 25.2148 38.2412 11.0621 53.1528 11.0621L26.1749 42.7048Z" fill="#6C63FF"/>
<path d="M10.759 12.9817C10.759 29.4107 17.654 42.7049 26.1749 42.7049L10.759 12.9817Z" fill="#6C63FF"/>
<path d="M26.1749 42.7049C26.1749 20.3566 40.1216 2.27258 57.3571 2.27258L26.1749 42.7049Z" fill="#2F2E41"/>
<path d="M21.0892 42.9254C21.0892 42.9254 24.5176 42.8195 25.5508 42.0811C26.584 41.3428 30.8246 40.4612 31.0809 41.6453C31.3372 42.8294 36.2331 47.5345 32.3625 47.5659C28.4918 47.5972 23.3688 46.9608 22.3376 46.3305C21.3063 45.7001 21.0892 42.9254 21.0892 42.9254Z" fill="#A8A8A8"/>
<path opacity="0.2" d="M32.4316 47.1538C28.5609 47.1851 23.4379 46.5487 22.4066 45.9184C21.6213 45.4383 21.3083 43.7157 21.2036 42.921C21.1311 42.9241 21.0892 42.9255 21.0892 42.9255C21.0892 42.9255 21.3063 45.7002 22.3376 46.3306C23.3688 46.9609 28.4918 47.5973 32.3625 47.5659C33.4798 47.5569 33.8657 47.158 33.8445 46.5672C33.6893 46.9241 33.2632 47.147 32.4316 47.1538Z" fill="black"/>
<path d="M46.1705 100.416C69.1392 100.416 87.7591 97.8738 87.7591 94.7381C87.7591 91.6025 69.1392 89.0605 46.1705 89.0605C23.2017 89.0605 4.58185 91.6025 4.58185 94.7381C4.58185 97.8738 23.2017 100.416 46.1705 100.416Z" fill="#3F3D56"/>
<path opacity="0.1" d="M46.1704 99.5049C65.4544 99.5049 81.0871 97.3708 81.0871 94.7382C81.0871 92.1056 65.4544 89.9714 46.1704 89.9714C26.8865 89.9714 11.2538 92.1056 11.2538 94.7382C11.2538 97.3708 26.8865 99.5049 46.1704 99.5049Z" fill="black"/>
<path d="M188.061 156C222.821 156 251 152.153 251 147.408C251 142.662 222.821 138.815 188.061 138.815C153.301 138.815 125.122 142.662 125.122 147.408C125.122 152.153 153.301 156 188.061 156Z" fill="#3F3D56"/>
<path d="M71.0792 149.222C91.9599 149.222 108.887 146.911 108.887 144.06C108.887 141.21 91.9599 138.899 71.0792 138.899C50.1985 138.899 33.2714 141.21 33.2714 144.06C33.2714 146.911 50.1985 149.222 71.0792 149.222Z" fill="#3F3D56"/>
<path d="M104.884 139.708C124.9 144.841 163.375 133.013 167.6 119.622" stroke="#2F2E41" stroke-width="2" stroke-miterlimit="10"/>
<path d="M70.8568 57.8026C70.8568 57.8026 99.7686 49.7682 101.548 75.6566C103.327 101.545 77.7511 108.91 97.7671 114.043" stroke="#2F2E41" stroke-width="2" stroke-miterlimit="10"/>
<path d="M42.924 119.909C42.924 119.909 51.6136 117.494 52.1483 125.275C52.6831 133.056 44.9961 135.269 51.012 136.812" stroke="#2F2E41" stroke-width="2" stroke-miterlimit="10"/>
<path d="M175.183 125.702L173.431 136.926C173.431 136.926 164.806 141.524 170.871 141.66C176.935 141.795 205.506 141.66 205.506 141.66C205.506 141.66 211.031 141.66 202.271 136.791L200.519 125.025L175.183 125.702Z" fill="#2F2E41"/>
<path opacity="0.1" d="M169.651 141.538C171.028 140.308 173.431 139.027 173.431 139.027L175.183 127.802L200.519 127.826L202.271 138.891C204.314 140.027 205.579 140.897 206.32 141.565C207.445 141.307 208.674 140.35 202.271 136.791L200.519 125.025L175.183 125.702L173.431 136.926C173.431 136.926 166.184 140.79 169.651 141.538Z" fill="black"/>
<path d="M240.777 47.467H134.656C132.44 47.467 130.643 49.2702 130.643 51.4944V123.23C130.643 125.454 132.44 127.257 134.656 127.257H240.777C242.993 127.257 244.79 125.454 244.79 123.23V51.4944C244.79 49.2702 242.993 47.467 240.777 47.467Z" fill="#2F2E41"/>
<path d="M240.949 51.7269H134.484V111.502H240.949V51.7269Z" fill="#3F3D56"/>
<path d="M187.716 50.5098C188.089 50.5098 188.39 50.2071 188.39 49.8337C188.39 49.4602 188.089 49.1575 187.716 49.1575C187.344 49.1575 187.043 49.4602 187.043 49.8337C187.043 50.2071 187.344 50.5098 187.716 50.5098Z" fill="#F2F2F2"/>
<path d="M244.79 116.235V123.229C244.79 123.758 244.686 124.282 244.485 124.771C244.283 125.259 243.987 125.703 243.615 126.077C243.242 126.451 242.799 126.748 242.312 126.95C241.826 127.153 241.304 127.257 240.777 127.257H134.656C134.129 127.257 133.607 127.153 133.12 126.95C132.633 126.748 132.191 126.451 131.818 126.077C131.446 125.703 131.15 125.259 130.948 124.771C130.747 124.282 130.643 123.758 130.643 123.229V116.235H244.79Z" fill="#2F2E41"/>
<path d="M217.5 148.962V150.315H144.995V149.233L145.095 148.962L146.882 144.094H216.017L217.5 148.962Z" fill="#2F2E41"/>
<path d="M245.402 147.638C245.27 148.205 244.771 148.803 243.645 149.368C239.602 151.397 231.381 148.827 231.381 148.827C231.381 148.827 225.047 147.745 225.047 144.905C225.225 144.783 225.41 144.672 225.602 144.574C227.302 143.672 232.938 141.445 242.931 144.668C243.667 144.9 244.325 145.333 244.83 145.917C245.235 146.393 245.553 146.996 245.402 147.638Z" fill="#2F2E41"/>
<path opacity="0.1" d="M245.402 147.638C240.453 149.541 236.042 149.683 231.515 146.528C229.233 144.938 227.158 144.544 225.602 144.574C227.302 143.671 232.938 141.445 242.931 144.668C243.667 144.9 244.325 145.333 244.83 145.917C245.235 146.393 245.553 146.996 245.402 147.638Z" fill="black"/>
<path d="M239.197 146.528C240.165 146.528 240.949 146.286 240.949 145.987C240.949 145.688 240.165 145.446 239.197 145.446C238.23 145.446 237.445 145.688 237.445 145.987C237.445 146.286 238.23 146.528 239.197 146.528Z" fill="#F2F2F2"/>
<path d="M187.716 124.349C189.131 124.349 190.277 123.199 190.277 121.78C190.277 120.361 189.131 119.21 187.716 119.21C186.302 119.21 185.156 120.361 185.156 121.78C185.156 123.199 186.302 124.349 187.716 124.349Z" fill="#F2F2F2"/>
<path opacity="0.1" d="M217.5 148.962V150.315H144.995V149.233L145.095 148.962H217.5Z" fill="black"/>
<path d="M72.4136 35.485H26.1545V89.4936H72.4136V35.485Z" fill="#2F2E41"/>
<path d="M77.084 30.1288H21.4842V49.3219H77.084V30.1288Z" fill="#3F3D56"/>
<path d="M77.084 52.8927H21.4842V72.0858H77.084V52.8927Z" fill="#3F3D56"/>
<path d="M77.084 75.6566H21.4842V94.8498H77.084V75.6566Z" fill="#3F3D56"/>
<path opacity="0.4" d="M65.964 33.4764H62.4056V37.0473H65.964V33.4764Z" fill="#6C63FF"/>
<path opacity="0.8" d="M71.0791 33.4764H67.5208V37.0473H71.0791V33.4764Z" fill="#6C63FF"/>
<path d="M76.1943 33.4764H72.6359V37.0473H76.1943V33.4764Z" fill="#6C63FF"/>
<path opacity="0.4" d="M65.964 56.0172H62.4056V59.588H65.964V56.0172Z" fill="#6C63FF"/>
<path opacity="0.8" d="M71.0791 56.0172H67.5208V59.588H71.0791V56.0172Z" fill="#6C63FF"/>
<path d="M76.1943 56.0172H72.6359V59.588H76.1943V56.0172Z" fill="#6C63FF"/>
<path opacity="0.4" d="M65.964 78.5579H62.4056V82.1287H65.964V78.5579Z" fill="#6C63FF"/>
<path opacity="0.8" d="M71.0791 78.5579H67.5208V82.1287H71.0791V78.5579Z" fill="#6C63FF"/>
<path d="M76.1943 78.5579H72.6359V82.1287H76.1943V78.5579Z" fill="#6C63FF"/>
<path d="M72.4136 137.7C82.1169 137.7 89.9831 129.806 89.9831 120.069C89.9831 110.331 82.1169 102.438 72.4136 102.438C62.7102 102.438 54.8441 110.331 54.8441 120.069C54.8441 129.806 62.7102 137.7 72.4136 137.7Z" fill="#2F2E41"/>
<path d="M69.7447 133.906H64.4072V143.502H69.7447V133.906Z" fill="#2F2E41"/>
<path d="M80.4199 133.906H75.0823V143.502H80.4199V133.906Z" fill="#2F2E41"/>
<path d="M68.8551 145.288C71.3117 145.288 73.3031 144.538 73.3031 143.614C73.3031 142.689 71.3117 141.94 68.8551 141.94C66.3986 141.94 64.4072 142.689 64.4072 143.614C64.4072 144.538 66.3986 145.288 68.8551 145.288Z" fill="#2F2E41"/>
<path d="M79.5303 145.064C81.9869 145.064 83.9783 144.315 83.9783 143.391C83.9783 142.466 81.9869 141.717 79.5303 141.717C77.0738 141.717 75.0823 142.466 75.0823 143.391C75.0823 144.315 77.0738 145.064 79.5303 145.064Z" fill="#2F2E41"/>
<path d="M72.8583 121.631C76.1747 121.631 78.8631 118.933 78.8631 115.605C78.8631 112.277 76.1747 109.579 72.8583 109.579C69.542 109.579 66.8536 112.277 66.8536 115.605C66.8536 118.933 69.542 121.631 72.8583 121.631Z" fill="white"/>
<path d="M72.8583 117.614C73.9638 117.614 74.8599 116.714 74.8599 115.605C74.8599 114.496 73.9638 113.597 72.8583 113.597C71.7529 113.597 70.8568 114.496 70.8568 115.605C70.8568 116.714 71.7529 117.614 72.8583 117.614Z" fill="#3F3D56"/>
<path d="M55.3705 103.672C53.9519 97.2968 58.4867 90.8545 65.4995 89.2832C72.5122 87.7118 79.3472 91.6064 80.7658 97.982C82.1845 104.358 77.5369 106.709 70.5242 108.28C63.5115 109.852 56.7892 110.048 55.3705 103.672Z" fill="#6C63FF"/>
<path d="M88.892 116.552C93.3524 114.636 96.4823 111.944 95.883 110.539C95.2837 109.134 91.1821 109.548 86.7218 111.464C82.2614 113.38 79.1315 116.072 79.7308 117.477C80.3301 118.882 84.4317 118.468 88.892 116.552Z" fill="#2F2E41"/>
<path d="M55.977 128.381C60.4373 126.465 63.5673 123.773 62.968 122.368C62.3687 120.963 58.267 121.376 53.8067 123.292C49.3464 125.208 46.2164 127.9 46.8157 129.305C47.415 130.71 51.5167 130.296 55.977 128.381Z" fill="#2F2E41"/>
<path d="M82.6439 125.202C82.6439 126.927 78.2162 130.335 73.3031 130.335C68.39 130.335 63.74 127.151 63.74 125.425C63.74 123.699 68.39 124.086 73.3031 124.086C78.2162 124.086 82.6439 123.476 82.6439 125.202Z" fill="white"/>
</svg>
