<svg width="272" height="312" viewBox="0 0 272 312" fill="none" xmlns="http://www.w3.org/2000/svg">
<path d="M43.4764 236.364L39.1024 244.824V249H36.0244V244.824L31.6504 236.364H35.1424L37.5904 241.656L40.0204 236.364H43.4764ZM49.2886 249.144C48.3046 249.144 47.4166 248.934 46.6246 248.514C45.8446 248.094 45.2266 247.494 44.7706 246.714C44.3266 245.934 44.1046 245.022 44.1046 243.978C44.1046 242.946 44.3326 242.04 44.7886 241.26C45.2446 240.468 45.8686 239.862 46.6606 239.442C47.4526 239.022 48.3406 238.812 49.3246 238.812C50.3086 238.812 51.1966 239.022 51.9886 239.442C52.7806 239.862 53.4046 240.468 53.8606 241.26C54.3166 242.04 54.5446 242.946 54.5446 243.978C54.5446 245.01 54.3106 245.922 53.8426 246.714C53.3866 247.494 52.7566 248.094 51.9526 248.514C51.1606 248.934 50.2726 249.144 49.2886 249.144ZM49.2886 246.48C49.8766 246.48 50.3746 246.264 50.7826 245.832C51.2026 245.4 51.4126 244.782 51.4126 243.978C51.4126 243.174 51.2086 242.556 50.8006 242.124C50.4046 241.692 49.9126 241.476 49.3246 241.476C48.7246 241.476 48.2266 241.692 47.8306 242.124C47.4346 242.544 47.2366 243.162 47.2366 243.978C47.2366 244.782 47.4286 245.4 47.8126 245.832C48.2086 246.264 48.7006 246.48 49.2886 246.48ZM66.0955 238.956V249H63.0175V247.632C62.7055 248.076 62.2795 248.436 61.7395 248.712C61.2115 248.976 60.6235 249.108 59.9755 249.108C59.2075 249.108 58.5295 248.94 57.9415 248.604C57.3535 248.256 56.8975 247.758 56.5735 247.11C56.2495 246.462 56.0875 245.7 56.0875 244.824V238.956H59.1475V244.41C59.1475 245.082 59.3215 245.604 59.6695 245.976C60.0175 246.348 60.4855 246.534 61.0735 246.534C61.6735 246.534 62.1475 246.348 62.4955 245.976C62.8435 245.604 63.0175 245.082 63.0175 244.41V238.956H66.0955ZM69.0084 236.364H72.1584L70.1424 241.188H68.0724L69.0084 236.364ZM77.0446 235.68V249H73.9666V235.68H77.0446ZM82.3532 235.68V249H79.2752V235.68H82.3532ZM91.4762 240.378C91.7642 239.91 92.1782 239.532 92.7182 239.244C93.2582 238.956 93.8762 238.812 94.5722 238.812C95.4002 238.812 96.1502 239.022 96.8222 239.442C97.4942 239.862 98.0222 240.462 98.4062 241.242C98.8022 242.022 99.0002 242.928 99.0002 243.96C99.0002 244.992 98.8022 245.904 98.4062 246.696C98.0222 247.476 97.4942 248.082 96.8222 248.514C96.1502 248.934 95.4002 249.144 94.5722 249.144C93.8642 249.144 93.2462 249.006 92.7182 248.73C92.1902 248.442 91.7762 248.064 91.4762 247.596V249H88.3982V235.68H91.4762V240.378ZM95.8682 243.96C95.8682 243.192 95.6522 242.592 95.2202 242.16C94.8002 241.716 94.2782 241.494 93.6542 241.494C93.0422 241.494 92.5202 241.716 92.0882 242.16C91.6682 242.604 91.4582 243.21 91.4582 243.978C91.4582 244.746 91.6682 245.352 92.0882 245.796C92.5202 246.24 93.0422 246.462 93.6542 246.462C94.2662 246.462 94.7882 246.24 95.2202 245.796C95.6522 245.34 95.8682 244.728 95.8682 243.96ZM110.083 243.816C110.083 244.104 110.065 244.404 110.029 244.716H103.063C103.111 245.34 103.309 245.82 103.657 246.156C104.017 246.48 104.455 246.642 104.971 246.642C105.739 246.642 106.273 246.318 106.573 245.67H109.849C109.681 246.33 109.375 246.924 108.931 247.452C108.499 247.98 107.953 248.394 107.293 248.694C106.633 248.994 105.895 249.144 105.079 249.144C104.095 249.144 103.219 248.934 102.451 248.514C101.683 248.094 101.083 247.494 100.651 246.714C100.219 245.934 100.003 245.022 100.003 243.978C100.003 242.934 100.213 242.022 100.633 241.242C101.065 240.462 101.665 239.862 102.433 239.442C103.201 239.022 104.083 238.812 105.079 238.812C106.051 238.812 106.915 239.016 107.671 239.424C108.427 239.832 109.015 240.414 109.435 241.17C109.867 241.926 110.083 242.808 110.083 243.816ZM106.933 243.006C106.933 242.478 106.753 242.058 106.393 241.746C106.033 241.434 105.583 241.278 105.043 241.278C104.527 241.278 104.089 241.428 103.729 241.728C103.381 242.028 103.165 242.454 103.081 243.006H106.933ZM121.641 238.848C122.817 238.848 123.753 239.232 124.449 240C125.157 240.756 125.511 241.8 125.511 243.132V249H122.451V243.546C122.451 242.874 122.277 242.352 121.929 241.98C121.581 241.608 121.113 241.422 120.525 241.422C119.937 241.422 119.469 241.608 119.121 241.98C118.773 242.352 118.599 242.874 118.599 243.546V249H115.521V238.956H118.599V240.288C118.911 239.844 119.331 239.496 119.859 239.244C120.387 238.98 120.981 238.848 121.641 238.848ZM132.222 249.144C131.238 249.144 130.35 248.934 129.558 248.514C128.778 248.094 128.16 247.494 127.704 246.714C127.26 245.934 127.038 245.022 127.038 243.978C127.038 242.946 127.266 242.04 127.722 241.26C128.178 240.468 128.802 239.862 129.594 239.442C130.386 239.022 131.274 238.812 132.258 238.812C133.242 238.812 134.13 239.022 134.922 239.442C135.714 239.862 136.338 240.468 136.794 241.26C137.25 242.04 137.478 242.946 137.478 243.978C137.478 245.01 137.244 245.922 136.776 246.714C136.32 247.494 135.69 248.094 134.886 248.514C134.094 248.934 133.206 249.144 132.222 249.144ZM132.222 246.48C132.81 246.48 133.308 246.264 133.716 245.832C134.136 245.4 134.346 244.782 134.346 243.978C134.346 243.174 134.142 242.556 133.734 242.124C133.338 241.692 132.846 241.476 132.258 241.476C131.658 241.476 131.16 241.692 130.764 242.124C130.368 242.544 130.17 243.162 130.17 243.978C130.17 244.782 130.362 245.4 130.746 245.832C131.142 246.264 131.634 246.48 132.222 246.48ZM144.709 246.39V249H143.143C142.027 249 141.157 248.73 140.533 248.19C139.909 247.638 139.597 246.744 139.597 245.508V241.512H138.373V238.956H139.597V236.508H142.675V238.956H144.691V241.512H142.675V245.544C142.675 245.844 142.747 246.06 142.891 246.192C143.035 246.324 143.275 246.39 143.611 246.39H144.709ZM147.972 237.912C147.432 237.912 146.988 237.756 146.64 237.444C146.304 237.12 146.136 236.724 146.136 236.256C146.136 235.776 146.304 235.38 146.64 235.068C146.988 234.744 147.432 234.582 147.972 234.582C148.5 234.582 148.932 234.744 149.268 235.068C149.616 235.38 149.79 235.776 149.79 236.256C149.79 236.724 149.616 237.12 149.268 237.444C148.932 237.756 148.5 237.912 147.972 237.912ZM149.502 238.956V249H146.424V238.956H149.502ZM156.772 241.512H155.116V249H152.038V241.512H150.922V238.956H152.038V238.668C152.038 237.432 152.392 236.496 153.1 235.86C153.808 235.212 154.846 234.888 156.214 234.888C156.442 234.888 156.61 234.894 156.718 234.906V237.516C156.13 237.48 155.716 237.564 155.476 237.768C155.236 237.972 155.116 238.338 155.116 238.866V238.956H156.772V241.512ZM159.767 237.912C159.227 237.912 158.783 237.756 158.435 237.444C158.099 237.12 157.931 236.724 157.931 236.256C157.931 235.776 158.099 235.38 158.435 235.068C158.783 234.744 159.227 234.582 159.767 234.582C160.295 234.582 160.727 234.744 161.063 235.068C161.411 235.38 161.585 235.776 161.585 236.256C161.585 236.724 161.411 237.12 161.063 237.444C160.727 237.756 160.295 237.912 159.767 237.912ZM161.297 238.956V249H158.219V238.956H161.297ZM172.995 243.816C172.995 244.104 172.977 244.404 172.941 244.716H165.975C166.023 245.34 166.221 245.82 166.569 246.156C166.929 246.48 167.367 246.642 167.883 246.642C168.651 246.642 169.185 246.318 169.485 245.67H172.761C172.593 246.33 172.287 246.924 171.843 247.452C171.411 247.98 170.865 248.394 170.205 248.694C169.545 248.994 168.807 249.144 167.991 249.144C167.007 249.144 166.131 248.934 165.363 248.514C164.595 248.094 163.995 247.494 163.563 246.714C163.131 245.934 162.915 245.022 162.915 243.978C162.915 242.934 163.125 242.022 163.545 241.242C163.977 240.462 164.577 239.862 165.345 239.442C166.113 239.022 166.995 238.812 167.991 238.812C168.963 238.812 169.827 239.016 170.583 239.424C171.339 239.832 171.927 240.414 172.347 241.17C172.779 241.926 172.995 242.808 172.995 243.816ZM169.845 243.006C169.845 242.478 169.665 242.058 169.305 241.746C168.945 241.434 168.495 241.278 167.955 241.278C167.439 241.278 167.001 241.428 166.641 241.728C166.293 242.028 166.077 242.454 165.993 243.006H169.845ZM174.007 243.96C174.007 242.928 174.199 242.022 174.583 241.242C174.979 240.462 175.513 239.862 176.185 239.442C176.857 239.022 177.607 238.812 178.435 238.812C179.095 238.812 179.695 238.95 180.235 239.226C180.787 239.502 181.219 239.874 181.531 240.342V235.68H184.609V249H181.531V247.56C181.243 248.04 180.829 248.424 180.289 248.712C179.761 249 179.143 249.144 178.435 249.144C177.607 249.144 176.857 248.934 176.185 248.514C175.513 248.082 174.979 247.476 174.583 246.696C174.199 245.904 174.007 244.992 174.007 243.96ZM181.531 243.978C181.531 243.21 181.315 242.604 180.883 242.16C180.463 241.716 179.947 241.494 179.335 241.494C178.723 241.494 178.201 241.716 177.769 242.16C177.349 242.592 177.139 243.192 177.139 243.96C177.139 244.728 177.349 245.34 177.769 245.796C178.201 246.24 178.723 246.462 179.335 246.462C179.947 246.462 180.463 246.24 180.883 245.796C181.315 245.352 181.531 244.746 181.531 243.978ZM205.068 238.956L202.35 249H198.948L197.364 242.484L195.726 249H192.342L189.606 238.956H192.684L194.106 246.138L195.798 238.956H199.056L200.766 246.102L202.17 238.956H205.068ZM212.416 238.848C213.568 238.848 214.492 239.232 215.188 240C215.884 240.756 216.232 241.8 216.232 243.132V249H213.172V243.546C213.172 242.874 212.998 242.352 212.65 241.98C212.302 241.608 211.834 241.422 211.246 241.422C210.658 241.422 210.19 241.608 209.842 241.98C209.494 242.352 209.32 242.874 209.32 243.546V249H206.242V235.68H209.32V240.306C209.632 239.862 210.058 239.508 210.598 239.244C211.138 238.98 211.744 238.848 212.416 238.848ZM227.839 243.816C227.839 244.104 227.821 244.404 227.785 244.716H220.819C220.867 245.34 221.065 245.82 221.413 246.156C221.773 246.48 222.211 246.642 222.727 246.642C223.495 246.642 224.029 246.318 224.329 245.67H227.605C227.437 246.33 227.131 246.924 226.687 247.452C226.255 247.98 225.709 248.394 225.049 248.694C224.389 248.994 223.651 249.144 222.835 249.144C221.851 249.144 220.975 248.934 220.207 248.514C219.439 248.094 218.839 247.494 218.407 246.714C217.975 245.934 217.759 245.022 217.759 243.978C217.759 242.934 217.969 242.022 218.389 241.242C218.821 240.462 219.421 239.862 220.189 239.442C220.957 239.022 221.839 238.812 222.835 238.812C223.807 238.812 224.671 239.016 225.427 239.424C226.183 239.832 226.771 240.414 227.191 241.17C227.623 241.926 227.839 242.808 227.839 243.816ZM224.689 243.006C224.689 242.478 224.509 242.058 224.149 241.746C223.789 241.434 223.339 241.278 222.799 241.278C222.283 241.278 221.845 241.428 221.485 241.728C221.137 242.028 220.921 242.454 220.837 243.006H224.689ZM235.583 238.848C236.759 238.848 237.695 239.232 238.391 240C239.099 240.756 239.453 241.8 239.453 243.132V249H236.393V243.546C236.393 242.874 236.219 242.352 235.871 241.98C235.523 241.608 235.055 241.422 234.467 241.422C233.879 241.422 233.411 241.608 233.063 241.98C232.715 242.352 232.541 242.874 232.541 243.546V249H229.463V238.956H232.541V240.288C232.853 239.844 233.273 239.496 233.801 239.244C234.329 238.98 234.923 238.848 235.583 238.848ZM28.1659 276.144C27.2899 276.144 26.5099 275.994 25.8259 275.694C25.1419 275.394 24.6019 274.986 24.2059 274.47C23.8099 273.942 23.5879 273.354 23.5399 272.706H26.5819C26.6179 273.054 26.7799 273.336 27.0679 273.552C27.3559 273.768 27.7099 273.876 28.1299 273.876C28.5139 273.876 28.8079 273.804 29.0119 273.66C29.2279 273.504 29.3359 273.306 29.3359 273.066C29.3359 272.778 29.1859 272.568 28.8859 272.436C28.5859 272.292 28.0999 272.136 27.4279 271.968C26.7079 271.8 26.1079 271.626 25.6279 271.446C25.1479 271.254 24.7339 270.96 24.3859 270.564C24.0379 270.156 23.8639 269.61 23.8639 268.926C23.8639 268.35 24.0199 267.828 24.3319 267.36C24.6559 266.88 25.1239 266.502 25.7359 266.226C26.3599 265.95 27.0979 265.812 27.9499 265.812C29.2099 265.812 30.1999 266.124 30.9199 266.748C31.6519 267.372 32.0719 268.2 32.1799 269.232H29.3359C29.2879 268.884 29.1319 268.608 28.8679 268.404C28.6159 268.2 28.2799 268.098 27.8599 268.098C27.4999 268.098 27.2239 268.17 27.0319 268.314C26.8399 268.446 26.7439 268.632 26.7439 268.872C26.7439 269.16 26.8939 269.376 27.1939 269.52C27.5059 269.664 27.9859 269.808 28.6339 269.952C29.3779 270.144 29.9839 270.336 30.4519 270.528C30.9199 270.708 31.3279 271.008 31.6759 271.428C32.0359 271.836 32.2219 272.388 32.2339 273.084C32.2339 273.672 32.0659 274.2 31.7299 274.668C31.4059 275.124 30.9319 275.484 30.3079 275.748C29.6959 276.012 28.9819 276.144 28.1659 276.144ZM38.689 276.144C37.705 276.144 36.817 275.934 36.025 275.514C35.245 275.094 34.627 274.494 34.171 273.714C33.727 272.934 33.505 272.022 33.505 270.978C33.505 269.946 33.733 269.04 34.189 268.26C34.645 267.468 35.269 266.862 36.061 266.442C36.853 266.022 37.741 265.812 38.725 265.812C39.709 265.812 40.597 266.022 41.389 266.442C42.181 266.862 42.805 267.468 43.261 268.26C43.717 269.04 43.945 269.946 43.945 270.978C43.945 272.01 43.711 272.922 43.243 273.714C42.787 274.494 42.157 275.094 41.353 275.514C40.561 275.934 39.673 276.144 38.689 276.144ZM38.689 273.48C39.277 273.48 39.775 273.264 40.183 272.832C40.603 272.4 40.813 271.782 40.813 270.978C40.813 270.174 40.609 269.556 40.201 269.124C39.805 268.692 39.313 268.476 38.725 268.476C38.125 268.476 37.627 268.692 37.231 269.124C36.835 269.544 36.637 270.162 36.637 270.978C36.637 271.782 36.829 272.4 37.213 272.832C37.609 273.264 38.101 273.48 38.689 273.48ZM58.3939 265.848C59.6419 265.848 60.6319 266.226 61.3639 266.982C62.1079 267.738 62.4799 268.788 62.4799 270.132V276H59.4199V270.546C59.4199 269.898 59.2459 269.4 58.8979 269.052C58.5619 268.692 58.0939 268.512 57.4939 268.512C56.8939 268.512 56.4199 268.692 56.0719 269.052C55.7359 269.4 55.5679 269.898 55.5679 270.546V276H52.5079V270.546C52.5079 269.898 52.3339 269.4 51.9859 269.052C51.6499 268.692 51.1819 268.512 50.5819 268.512C49.9819 268.512 49.5079 268.692 49.1599 269.052C48.8239 269.4 48.6559 269.898 48.6559 270.546V276H45.5779V265.956H48.6559V267.216C48.9679 266.796 49.3759 266.466 49.8799 266.226C50.3839 265.974 50.9539 265.848 51.5899 265.848C52.3459 265.848 53.0179 266.01 53.6059 266.334C54.2059 266.658 54.6739 267.12 55.0099 267.72C55.3579 267.168 55.8319 266.718 56.4319 266.37C57.0319 266.022 57.6859 265.848 58.3939 265.848ZM74.1006 270.816C74.1006 271.104 74.0826 271.404 74.0466 271.716H67.0806C67.1286 272.34 67.3266 272.82 67.6746 273.156C68.0346 273.48 68.4726 273.642 68.9886 273.642C69.7566 273.642 70.2906 273.318 70.5906 272.67H73.8666C73.6986 273.33 73.3926 273.924 72.9486 274.452C72.5166 274.98 71.9706 275.394 71.3106 275.694C70.6506 275.994 69.9126 276.144 69.0966 276.144C68.1126 276.144 67.2366 275.934 66.4686 275.514C65.7006 275.094 65.1006 274.494 64.6686 273.714C64.2366 272.934 64.0206 272.022 64.0206 270.978C64.0206 269.934 64.2306 269.022 64.6506 268.242C65.0826 267.462 65.6826 266.862 66.4506 266.442C67.2186 266.022 68.1006 265.812 69.0966 265.812C70.0686 265.812 70.9326 266.016 71.6886 266.424C72.4446 266.832 73.0326 267.414 73.4526 268.17C73.8846 268.926 74.1006 269.808 74.1006 270.816ZM70.9506 270.006C70.9506 269.478 70.7706 269.058 70.4106 268.746C70.0506 268.434 69.6006 268.278 69.0606 268.278C68.5446 268.278 68.1066 268.428 67.7466 268.728C67.3986 269.028 67.1826 269.454 67.0986 270.006H70.9506ZM80.2964 276.144C79.3124 276.144 78.4244 275.934 77.6324 275.514C76.8524 275.094 76.2344 274.494 75.7784 273.714C75.3344 272.934 75.1124 272.022 75.1124 270.978C75.1124 269.946 75.3404 269.04 75.7964 268.26C76.2524 267.468 76.8764 266.862 77.6684 266.442C78.4604 266.022 79.3484 265.812 80.3324 265.812C81.3164 265.812 82.2044 266.022 82.9964 266.442C83.7884 266.862 84.4124 267.468 84.8684 268.26C85.3244 269.04 85.5524 269.946 85.5524 270.978C85.5524 272.01 85.3184 272.922 84.8504 273.714C84.3944 274.494 83.7644 275.094 82.9604 275.514C82.1684 275.934 81.2804 276.144 80.2964 276.144ZM80.2964 273.48C80.8844 273.48 81.3824 273.264 81.7904 272.832C82.2104 272.4 82.4204 271.782 82.4204 270.978C82.4204 270.174 82.2164 269.556 81.8084 269.124C81.4124 268.692 80.9204 268.476 80.3324 268.476C79.7324 268.476 79.2344 268.692 78.8384 269.124C78.4424 269.544 78.2444 270.162 78.2444 270.978C78.2444 271.782 78.4364 272.4 78.8204 272.832C79.2164 273.264 79.7084 273.48 80.2964 273.48ZM93.3053 265.848C94.4813 265.848 95.4173 266.232 96.1133 267C96.8213 267.756 97.1753 268.8 97.1753 270.132V276H94.1153V270.546C94.1153 269.874 93.9413 269.352 93.5933 268.98C93.2453 268.608 92.7773 268.422 92.1893 268.422C91.6013 268.422 91.1333 268.608 90.7853 268.98C90.4373 269.352 90.2633 269.874 90.2633 270.546V276H87.1853V265.956H90.2633V267.288C90.5753 266.844 90.9953 266.496 91.5233 266.244C92.0513 265.98 92.6453 265.848 93.3053 265.848ZM108.782 270.816C108.782 271.104 108.764 271.404 108.728 271.716H101.762C101.81 272.34 102.008 272.82 102.356 273.156C102.716 273.48 103.154 273.642 103.67 273.642C104.438 273.642 104.972 273.318 105.272 272.67H108.548C108.38 273.33 108.074 273.924 107.63 274.452C107.198 274.98 106.652 275.394 105.992 275.694C105.332 275.994 104.594 276.144 103.778 276.144C102.794 276.144 101.918 275.934 101.15 275.514C100.382 275.094 99.7822 274.494 99.3502 273.714C98.9182 272.934 98.7022 272.022 98.7022 270.978C98.7022 269.934 98.9122 269.022 99.3322 268.242C99.7642 267.462 100.364 266.862 101.132 266.442C101.9 266.022 102.782 265.812 103.778 265.812C104.75 265.812 105.614 266.016 106.37 266.424C107.126 266.832 107.714 267.414 108.134 268.17C108.566 268.926 108.782 269.808 108.782 270.816ZM105.632 270.006C105.632 269.478 105.452 269.058 105.092 268.746C104.732 268.434 104.282 268.278 103.742 268.278C103.226 268.278 102.788 268.428 102.428 268.728C102.08 269.028 101.864 269.454 101.78 270.006H105.632ZM117.298 267.378C117.598 266.91 118.012 266.532 118.54 266.244C119.068 265.956 119.686 265.812 120.394 265.812C121.222 265.812 121.972 266.022 122.644 266.442C123.316 266.862 123.844 267.462 124.228 268.242C124.624 269.022 124.822 269.928 124.822 270.96C124.822 271.992 124.624 272.904 124.228 273.696C123.844 274.476 123.316 275.082 122.644 275.514C121.972 275.934 121.222 276.144 120.394 276.144C119.698 276.144 119.08 276 118.54 275.712C118.012 275.424 117.598 275.052 117.298 274.596V280.788H114.22V265.956H117.298V267.378ZM121.69 270.96C121.69 270.192 121.474 269.592 121.042 269.16C120.622 268.716 120.1 268.494 119.476 268.494C118.864 268.494 118.342 268.716 117.91 269.16C117.49 269.604 117.28 270.21 117.28 270.978C117.28 271.746 117.49 272.352 117.91 272.796C118.342 273.24 118.864 273.462 119.476 273.462C120.088 273.462 120.61 273.24 121.042 272.796C121.474 272.34 121.69 271.728 121.69 270.96ZM131.009 276.144C130.025 276.144 129.137 275.934 128.345 275.514C127.565 275.094 126.947 274.494 126.491 273.714C126.047 272.934 125.825 272.022 125.825 270.978C125.825 269.946 126.053 269.04 126.509 268.26C126.965 267.468 127.589 266.862 128.381 266.442C129.173 266.022 130.061 265.812 131.045 265.812C132.029 265.812 132.917 266.022 133.709 266.442C134.501 266.862 135.125 267.468 135.581 268.26C136.037 269.04 136.265 269.946 136.265 270.978C136.265 272.01 136.031 272.922 135.563 273.714C135.107 274.494 134.477 275.094 133.673 275.514C132.881 275.934 131.993 276.144 131.009 276.144ZM131.009 273.48C131.597 273.48 132.095 273.264 132.503 272.832C132.923 272.4 133.133 271.782 133.133 270.978C133.133 270.174 132.929 269.556 132.521 269.124C132.125 268.692 131.633 268.476 131.045 268.476C130.445 268.476 129.947 268.692 129.551 269.124C129.155 269.544 128.957 270.162 128.957 270.978C128.957 271.782 129.149 272.4 129.533 272.832C129.929 273.264 130.421 273.48 131.009 273.48ZM141.984 276.144C141.108 276.144 140.328 275.994 139.644 275.694C138.96 275.394 138.42 274.986 138.024 274.47C137.628 273.942 137.406 273.354 137.358 272.706H140.4C140.436 273.054 140.598 273.336 140.886 273.552C141.174 273.768 141.528 273.876 141.948 273.876C142.332 273.876 142.626 273.804 142.83 273.66C143.046 273.504 143.154 273.306 143.154 273.066C143.154 272.778 143.004 272.568 142.704 272.436C142.404 272.292 141.918 272.136 141.246 271.968C140.526 271.8 139.926 271.626 139.446 271.446C138.966 271.254 138.552 270.96 138.204 270.564C137.856 270.156 137.682 269.61 137.682 268.926C137.682 268.35 137.838 267.828 138.15 267.36C138.474 266.88 138.942 266.502 139.554 266.226C140.178 265.95 140.916 265.812 141.768 265.812C143.028 265.812 144.018 266.124 144.738 266.748C145.47 267.372 145.89 268.2 145.998 269.232H143.154C143.106 268.884 142.95 268.608 142.686 268.404C142.434 268.2 142.098 268.098 141.678 268.098C141.318 268.098 141.042 268.17 140.85 268.314C140.658 268.446 140.562 268.632 140.562 268.872C140.562 269.16 140.712 269.376 141.012 269.52C141.324 269.664 141.804 269.808 142.452 269.952C143.196 270.144 143.802 270.336 144.27 270.528C144.738 270.708 145.146 271.008 145.494 271.428C145.854 271.836 146.04 272.388 146.052 273.084C146.052 273.672 145.884 274.2 145.548 274.668C145.224 275.124 144.75 275.484 144.126 275.748C143.514 276.012 142.8 276.144 141.984 276.144ZM153.533 273.39V276H151.967C150.851 276 149.981 275.73 149.357 275.19C148.733 274.638 148.421 273.744 148.421 272.508V268.512H147.197V265.956H148.421V263.508H151.499V265.956H153.515V268.512H151.499V272.544C151.499 272.844 151.571 273.06 151.715 273.192C151.859 273.324 152.099 273.39 152.435 273.39H153.533ZM159.334 276.144C158.458 276.144 157.678 275.994 156.994 275.694C156.31 275.394 155.77 274.986 155.374 274.47C154.978 273.942 154.756 273.354 154.708 272.706H157.75C157.786 273.054 157.948 273.336 158.236 273.552C158.524 273.768 158.878 273.876 159.298 273.876C159.682 273.876 159.976 273.804 160.18 273.66C160.396 273.504 160.504 273.306 160.504 273.066C160.504 272.778 160.354 272.568 160.054 272.436C159.754 272.292 159.268 272.136 158.596 271.968C157.876 271.8 157.276 271.626 156.796 271.446C156.316 271.254 155.902 270.96 155.554 270.564C155.206 270.156 155.032 269.61 155.032 268.926C155.032 268.35 155.188 267.828 155.5 267.36C155.824 266.88 156.292 266.502 156.904 266.226C157.528 265.95 158.266 265.812 159.118 265.812C160.378 265.812 161.368 266.124 162.088 266.748C162.82 267.372 163.24 268.2 163.348 269.232H160.504C160.456 268.884 160.3 268.608 160.036 268.404C159.784 268.2 159.448 268.098 159.028 268.098C158.668 268.098 158.392 268.17 158.2 268.314C158.008 268.446 157.912 268.632 157.912 268.872C157.912 269.16 158.062 269.376 158.362 269.52C158.674 269.664 159.154 269.808 159.802 269.952C160.546 270.144 161.152 270.336 161.62 270.528C162.088 270.708 162.496 271.008 162.844 271.428C163.204 271.836 163.39 272.388 163.402 273.084C163.402 273.672 163.234 274.2 162.898 274.668C162.574 275.124 162.1 275.484 161.476 275.748C160.864 276.012 160.15 276.144 159.334 276.144ZM168.487 270.96C168.487 269.928 168.679 269.022 169.063 268.242C169.459 267.462 169.993 266.862 170.665 266.442C171.337 266.022 172.087 265.812 172.915 265.812C173.623 265.812 174.241 265.956 174.769 266.244C175.309 266.532 175.723 266.91 176.011 267.378V265.956H179.089V276H176.011V274.578C175.711 275.046 175.291 275.424 174.751 275.712C174.223 276 173.605 276.144 172.897 276.144C172.081 276.144 171.337 275.934 170.665 275.514C169.993 275.082 169.459 274.476 169.063 273.696C168.679 272.904 168.487 271.992 168.487 270.96ZM176.011 270.978C176.011 270.21 175.795 269.604 175.363 269.16C174.943 268.716 174.427 268.494 173.815 268.494C173.203 268.494 172.681 268.716 172.249 269.16C171.829 269.592 171.619 270.192 171.619 270.96C171.619 271.728 171.829 272.34 172.249 272.796C172.681 273.24 173.203 273.462 173.815 273.462C174.427 273.462 174.943 273.24 175.363 272.796C175.795 272.352 176.011 271.746 176.011 270.978ZM187.436 265.848C188.612 265.848 189.548 266.232 190.244 267C190.952 267.756 191.306 268.8 191.306 270.132V276H188.246V270.546C188.246 269.874 188.072 269.352 187.724 268.98C187.376 268.608 186.908 268.422 186.32 268.422C185.732 268.422 185.264 268.608 184.916 268.98C184.568 269.352 184.394 269.874 184.394 270.546V276H181.316V265.956H184.394V267.288C184.706 266.844 185.126 266.496 185.654 266.244C186.182 265.98 186.776 265.848 187.436 265.848ZM206.728 270.816C206.728 271.104 206.71 271.404 206.674 271.716H199.708C199.756 272.34 199.954 272.82 200.302 273.156C200.662 273.48 201.1 273.642 201.616 273.642C202.384 273.642 202.918 273.318 203.218 272.67H206.494C206.326 273.33 206.02 273.924 205.576 274.452C205.144 274.98 204.598 275.394 203.938 275.694C203.278 275.994 202.54 276.144 201.724 276.144C200.74 276.144 199.864 275.934 199.096 275.514C198.328 275.094 197.728 274.494 197.296 273.714C196.864 272.934 196.648 272.022 196.648 270.978C196.648 269.934 196.858 269.022 197.278 268.242C197.71 267.462 198.31 266.862 199.078 266.442C199.846 266.022 200.728 265.812 201.724 265.812C202.696 265.812 203.56 266.016 204.316 266.424C205.072 266.832 205.66 267.414 206.08 268.17C206.512 268.926 206.728 269.808 206.728 270.816ZM203.578 270.006C203.578 269.478 203.398 269.058 203.038 268.746C202.678 268.434 202.228 268.278 201.688 268.278C201.172 268.278 200.734 268.428 200.374 268.728C200.026 269.028 199.81 269.454 199.726 270.006H203.578ZM212.869 273.12L215.047 265.956H218.323L214.759 276H210.961L207.397 265.956H210.691L212.869 273.12ZM229.087 270.816C229.087 271.104 229.069 271.404 229.033 271.716H222.067C222.115 272.34 222.313 272.82 222.661 273.156C223.021 273.48 223.459 273.642 223.975 273.642C224.743 273.642 225.277 273.318 225.577 272.67H228.853C228.685 273.33 228.379 273.924 227.935 274.452C227.503 274.98 226.957 275.394 226.297 275.694C225.637 275.994 224.899 276.144 224.083 276.144C223.099 276.144 222.223 275.934 221.455 275.514C220.687 275.094 220.087 274.494 219.655 273.714C219.223 272.934 219.007 272.022 219.007 270.978C219.007 269.934 219.217 269.022 219.637 268.242C220.069 267.462 220.669 266.862 221.437 266.442C222.205 266.022 223.087 265.812 224.083 265.812C225.055 265.812 225.919 266.016 226.675 266.424C227.431 266.832 228.019 267.414 228.439 268.17C228.871 268.926 229.087 269.808 229.087 270.816ZM225.937 270.006C225.937 269.478 225.757 269.058 225.397 268.746C225.037 268.434 224.587 268.278 224.047 268.278C223.531 268.278 223.093 268.428 222.733 268.728C222.385 269.028 222.169 269.454 222.085 270.006H225.937ZM236.831 265.848C238.007 265.848 238.943 266.232 239.639 267C240.347 267.756 240.701 268.8 240.701 270.132V276H237.641V270.546C237.641 269.874 237.467 269.352 237.119 268.98C236.771 268.608 236.303 268.422 235.715 268.422C235.127 268.422 234.659 268.608 234.311 268.98C233.963 269.352 233.789 269.874 233.789 270.546V276H230.711V265.956H233.789V267.288C234.101 266.844 234.521 266.496 235.049 266.244C235.577 265.98 236.171 265.848 236.831 265.848ZM248.438 273.39V276H246.872C245.756 276 244.886 275.73 244.262 275.19C243.638 274.638 243.326 273.744 243.326 272.508V268.512H242.102V265.956H243.326V263.508H246.404V265.956H248.42V268.512H246.404V272.544C246.404 272.844 246.476 273.06 246.62 273.192C246.764 273.324 247.004 273.39 247.34 273.39H248.438Z" fill="#505050"/>
<path fill-rule="evenodd" clip-rule="evenodd" d="M90.3366 116.11C91.3748 123.896 92.4128 131.681 93.451 139.467L94.2892 145.755C94.3951 146.548 94.2951 148.113 94.6983 148.823C94.8407 149.074 95.215 149.193 95.4901 149.34C96.4373 149.849 97.3847 150.357 98.3319 150.866C106.345 155.168 114.358 159.47 122.37 163.772C130.06 167.9 137.75 172.029 145.44 176.157C146.235 176.585 147.522 177.7 148.381 177.406C149.198 177.127 150.033 176.438 150.774 176.004C152.197 175.17 153.62 174.336 155.043 173.502C163.655 168.455 172.266 163.409 180.877 158.362C184.43 156.28 187.983 154.198 191.536 152.116C192.508 151.546 193.48 150.976 194.452 150.406C194.96 150.109 195.026 150.119 195.227 149.613C195.975 147.723 196.321 145.557 196.851 143.595C197.434 141.433 198.017 139.271 198.601 137.109C198.861 136.145 198.739 136.02 198.314 135.089C197.475 133.246 196.635 131.403 195.796 129.56C193.932 125.469 192.069 121.379 190.205 117.288C189.452 115.634 187.636 114.47 186.33 113.253L166.039 94.3621C165.524 93.8821 165.008 93.4024 164.493 92.9225C164.408 95.8065 163.838 98.9068 164.674 101.693C166.046 106.265 167.417 110.837 168.789 115.409C169.452 117.619 170.115 119.829 170.778 122.039C170.901 122.449 171.651 124.078 171.45 124.439C171.339 124.639 170.392 124.841 170.187 124.919C169.306 125.255 168.424 125.59 167.543 125.925C165.087 126.86 162.631 127.794 160.176 128.728C157.967 129.568 155.758 130.409 153.549 131.249C152.8 131.534 151.921 132.061 151.13 132.017C150.422 131.978 149.618 131.628 148.933 131.452C147.729 131.142 146.525 130.831 145.321 130.521C142.957 129.912 140.592 129.303 138.227 128.694C135.567 128.009 133.32 125.996 131.045 124.506C127.134 121.946 123.223 119.385 119.312 116.824C118.417 116.238 118.414 115.904 118.057 114.833C117.255 112.428 116.453 110.023 115.652 107.617C115.224 106.333 114.697 105.043 114.374 103.728C113.84 101.558 113.524 99.3119 113.102 97.1179C112.974 96.4559 112.847 95.7938 112.72 95.1319C111.082 95.7964 109.444 96.4612 107.806 97.126C107.569 97.2222 106.412 97.5095 106.309 97.7455C106.244 97.8947 106.588 98.5717 106.637 98.7172C107.995 102.739 109.353 106.761 110.711 110.783C111.139 112.048 111.566 113.313 111.993 114.579C110.972 112.975 109.951 111.37 108.93 109.766C108.128 112.464 107.326 115.162 106.524 117.86C104.628 115.672 102.733 113.485 100.837 111.297C100.18 113.485 99.5241 115.672 98.8679 117.86C96.8263 115.162 94.7847 112.464 92.7429 109.766C92.5003 111.174 92.2575 112.582 92.0146 113.99C91.9414 114.415 91.956 115.634 91.6732 115.97C91.4402 116.247 90.7695 116.11 90.3366 116.11Z" fill="#1E6BFF"/>
<path fill-rule="evenodd" clip-rule="evenodd" d="M219.603 132.939C219.489 136.604 219.568 141.362 217.562 144.584C217.239 145.104 216.142 146.724 216.02 145.299C215.9 143.9 216.244 142.515 215.903 141.099C215.72 140.342 215.107 138.688 214.058 139.372C213.523 139.721 213.383 140.581 213.173 141.125C212.864 141.929 212.518 142.72 212.192 143.518C211.054 146.302 209.876 149.626 207.347 151.469C207.678 149.067 208.58 146.503 207.974 144.076C207.767 143.249 207.141 141.738 206.063 142.223C205.013 142.695 204.332 144.802 203.837 145.741C202.333 148.586 200.796 151.378 199.104 154.117C198.253 155.494 197.334 156.753 196.22 157.932C195.524 158.669 194.656 159.915 193.558 160.025C193.558 157.924 194.25 155.894 194.881 153.916C195.559 151.789 196.178 149.644 196.845 147.513C197.423 145.664 197.897 143.83 198.282 141.934C198.441 141.15 198.567 140.338 199.236 139.832C199.836 139.377 200.785 139.16 201.455 138.826C203.214 137.947 205.023 136.999 206.656 135.907C207.327 135.458 207.905 134.879 208.607 134.477C209.408 134.019 210.155 133.633 210.895 133.074C214.09 130.664 216.971 127.7 218.911 124.171C219.226 125.589 219.644 126.974 219.69 128.436C219.737 129.934 219.65 131.442 219.603 132.939ZM193.308 149.785C192.797 148.922 192.018 149.276 191.332 149.692C190.268 150.337 189.2 150.978 188.13 151.616C185.953 152.913 183.816 154.278 181.689 155.655C177.359 158.458 172.878 160.752 168.313 163.125C163.901 165.417 159.663 168.146 155.529 170.904C154.535 171.567 153.549 172.245 152.595 172.964C151.748 173.602 151.071 174.498 150.179 175.066C149.251 175.657 148.613 175.177 147.725 174.741C146.615 174.196 145.457 173.739 144.322 173.247C139.742 171.261 135.148 169.199 130.693 166.945C126.264 164.705 122.068 162.124 117.824 159.561C115.803 158.34 113.817 157.042 111.823 155.776C109.702 154.429 107.505 153.42 105.28 152.275C104.295 151.768 103.423 151.08 102.412 150.62C101.349 150.135 100.226 149.788 99.2736 149.09C98.8468 148.776 98.4868 148.402 97.999 148.18C97.5984 147.999 97.1439 147.968 96.7484 147.775C95.9438 147.382 95.7135 146.585 95.5577 145.755C94.5556 140.432 94.023 134.961 93.4422 129.578C93.1158 126.55 92.7516 123.535 92.3005 120.524C92.0971 119.167 92.5062 118.115 92.721 116.794C92.9717 115.252 93.0707 113.677 93.2387 112.124C94.0315 113.593 94.7171 115.134 95.7257 116.474C96.4692 117.462 97.7393 118.863 99.1085 118.83C101.236 118.778 101.139 115.128 101.225 113.68C102.194 114.545 102.488 115.954 103.293 116.959C104.027 117.877 105.027 119.015 106.155 119.426C108.53 120.291 108.302 115.882 108.171 114.632C108.105 114.004 107.751 113.012 108.591 113.298C109.365 113.562 110.118 114.653 110.768 115.154C111.893 116.02 113.126 116.739 114.279 117.566C115.71 118.591 117.254 119.332 118.713 120.287C119.625 120.885 120.62 121.019 121.615 121.458C123.072 122.102 124.36 123.061 125.747 123.833C128.494 125.361 131.541 126.73 134.545 127.651C135.517 127.949 136.813 128.789 137.55 127.926C138.004 127.395 138.303 126.584 138.688 125.988C139.176 125.234 139.694 124.501 140.231 123.782C142.143 121.226 144.264 118.813 146.62 116.658C149.36 114.151 152.357 111.895 155.563 110.016C156.94 109.209 162.691 105.59 163.955 108.137C162.916 108.072 162.016 108.452 161.128 108.928C160.911 109.044 159.793 109.842 160.054 109.139C159.73 109.199 159.445 109.623 159.199 109.811C158.774 110.137 158.129 110.513 157.637 110.782C157.15 111.048 156.549 111.113 156.106 111.436C155.944 111.554 155.846 111.745 155.691 111.873L155.249 111.876C155.182 112.122 155.116 112.367 155.05 112.612C154.8 111.81 154.443 112.853 154.025 113.192C153.773 113.395 153.375 113.605 153.079 113.737C152.858 113.835 152.824 113.607 152.609 113.78C152.418 113.934 152.297 114.274 152.092 114.468C151.84 114.704 151.518 114.888 151.237 115.09C150.699 115.478 150.131 115.782 149.586 116.149C148.853 116.643 148.469 117.492 147.757 118.008C147.42 118.253 146.897 118.282 146.714 118.438C146.257 118.832 146.408 119.428 145.555 119.454C145.632 119.578 145.679 119.713 145.695 119.858C145.492 119.823 145.311 119.739 145.153 119.605C145.188 120.456 144.351 120.76 143.85 121.284C143.561 121.586 143.2 122.011 142.996 122.374C142.963 122.435 142.898 122.92 142.884 122.926C142.806 122.963 142.335 122.549 142.38 122.584C142.248 123.37 141.487 124.113 141.154 124.841C140.979 125.225 140.8 125.841 140.455 126.111C140.361 126.184 140.071 126.107 139.832 126.362C139.657 126.549 139.454 126.895 139.383 127.142C139.335 127.308 139.393 127.736 139.324 127.836C139.199 128.017 139.005 127.835 138.809 127.969C138.446 128.217 138.437 128.605 137.907 128.656C138.272 129.543 140.478 129.817 141.28 130.069C143.547 130.783 145.926 131.496 148.045 132.589C148.594 132.871 149.112 133.104 149.209 133.755C149.345 134.661 148.883 135.866 148.795 136.782C148.556 139.253 148.507 141.798 148.557 144.28C148.605 146.631 148.681 149.004 148.79 151.353C148.892 153.53 149.331 155.664 149.568 157.826C149.633 158.419 149.589 161.095 150.61 160.96C151.461 160.848 150.924 159.02 150.908 158.496C150.872 157.337 151.116 156.153 151.106 154.983C151.101 154.421 151.347 153.936 151.37 153.398C151.394 152.866 151.13 152.446 151.209 151.895C151.285 151.366 152.849 148.323 151.347 148.68C151.435 148.245 151.512 147.806 151.628 147.378C151.788 147.522 151.918 147.691 152.016 147.883C152.149 146.949 152.105 146.016 152.187 145.081C152.225 144.657 152.396 144.193 152.338 143.766C152.349 143.589 152.326 143.416 152.27 143.245C152.178 143.148 152.064 143.096 151.928 143.091C151.856 142.857 151.838 142.793 151.965 142.564C152.019 142.408 152.127 142.311 152.289 142.272C152.597 142.236 152.632 142.059 152.394 141.742C152.518 141.115 152.534 140.72 152.445 140.094C152.37 139.569 152.646 138.552 152.364 138.084C152.035 137.538 151.872 138.068 151.81 137.31C151.797 137.15 151.787 136.816 151.851 136.656C151.922 136.482 152.134 136.553 152.161 136.491C152.346 136.07 152.358 135.241 151.706 135.313C151.731 135.012 151.757 134.711 151.782 134.411C152.254 134.953 152.089 134.494 152.356 134.192C152.716 133.786 153.068 133.716 153.583 133.555C154.955 133.127 156.277 132.483 157.617 131.961C160.456 130.855 163.347 129.867 166.102 128.56C171.897 125.81 177.578 122.826 183.409 120.148C182.992 119.375 183.251 119.338 183.556 118.612C183.962 118.894 183.876 118.697 184.166 118.68C184.139 118.438 184.215 118.365 184.391 118.461C184.532 118.504 184.676 118.519 184.824 118.506C185.185 118.568 185.48 118.767 185.808 118.842C185.916 118.922 186.034 118.981 186.163 119.021C186.279 118.995 186.378 118.938 186.46 118.849C186.991 118.948 187.17 119.348 187.193 119.927C187.197 120.028 186.889 120.131 186.977 120.266C187.131 120.503 187.546 120.447 187.784 120.477C187.732 120.723 187.68 120.968 187.628 121.214C188.67 120.733 188.398 122.239 188.715 122.733C188.803 122.871 188.999 122.761 189.101 122.921C189.234 123.13 189.194 123.425 189.308 123.633C189.564 124.103 189.821 124.046 190.077 124.584C191.413 127.395 193.191 130.014 194.474 132.885C195.084 134.251 195.635 135.641 196.273 136.996C196.859 138.242 197.195 139.302 196.777 140.664C195.807 143.822 194.769 147.037 193.498 150.088C193.435 149.987 193.371 149.886 193.308 149.785ZM125.65 173.358C125.559 173.513 125.468 173.668 125.377 173.823C125.175 172.66 125.713 173.2 125.65 173.358ZM121.372 171.181C121.08 171.094 121.206 170.618 121.215 170.414C121.4 170.644 121.581 170.878 121.734 171.131C121.613 171.147 121.492 171.164 121.372 171.181ZM109.646 166.712C109.952 166.54 110.172 166.417 110.52 166.222C110.167 166.91 110.167 166.91 109.646 166.712ZM91.1989 106.132C90.731 107.28 92.1577 114.371 90.8294 114.603C90.6389 113.98 90.6151 112.267 89.8265 112.062C88.848 111.808 88.9445 113.572 88.8108 114.118C86.802 112.72 85.9097 110.021 84.9501 107.882C83.7268 105.156 82.7643 102.32 81.8451 99.4797C81.0592 97.0509 80.4093 94.5793 79.615 92.1544C79.116 90.6315 78.5781 89.1048 78.2426 87.5351C78.1697 87.1941 77.8829 86.3293 78.1266 86.0051C78.4808 85.5337 79.7556 86.0736 80.1665 86.1974C82.8315 86.9994 85.5961 87.3445 88.3342 87.8105C91.3763 88.3278 94.4117 88.8627 97.4722 89.2639C98.237 89.3641 99.0021 89.459 99.7678 89.5513C100.264 89.6112 101.016 89.5513 101.488 89.774C102.442 90.2244 102.645 91.9481 103 92.8424C104.323 96.1788 105.88 99.4097 107.272 102.716C108.527 105.694 109.478 108.863 111.282 111.575C109.937 110.978 108.232 107.826 106.729 109.643C106.083 110.424 106.246 111.454 106.297 112.389C106.372 113.741 106.396 115.103 106.396 116.457C104.925 116.075 103.936 114.405 103.164 113.222C102.109 111.607 101.445 110.084 100.978 108.232C100.776 107.43 100.239 107.41 99.7627 106.931C99.4565 106.622 99.3025 106.206 98.8632 106.655C98.3111 107.219 98.6784 108.781 98.7738 109.447C99.0002 111.031 99.7428 113.469 99.021 114.958C98.0466 116.967 95.4359 111.912 95.1301 111.182C94.9745 110.81 92.1968 103.682 91.1989 106.132ZM89.375 71.6982C89.5395 71.7234 89.7037 71.7486 89.8682 71.7737C89.7357 71.8907 89.4598 72.3011 89.2345 72.1926C89.2813 72.0279 89.3281 71.8632 89.375 71.6982ZM98.0878 69.8286C98.0364 69.8852 97.9845 69.9417 97.9329 69.9983C97.6971 69.7035 97.7806 69.2736 97.7806 68.9326C98.0924 69.1209 98.1685 69.4976 98.0878 69.8286ZM98.7919 73.1002V74.064C98.1387 73.781 98.1258 73.6348 98.7919 73.1002ZM99.5851 74.3256C99.1275 74.2001 99.0728 74.0988 99.1371 73.3955C99.3268 73.7895 99.4517 74.0491 99.5851 74.3256ZM102.219 81.4635C102.027 81.957 100.906 80.781 100.947 80.429C100.987 80.0932 101.159 79.993 101.396 80.2089C101.475 80.2805 101.358 80.5388 101.408 80.6285C101.589 80.9531 101.954 81.2187 102.219 81.4635ZM102.232 84.4367C101.951 85.138 101.45 84.0336 102.184 84.0034C102.232 84.1445 102.248 84.2888 102.232 84.4367ZM101.687 83.3309C101.578 83.1859 101.472 83.0389 101.37 82.8893C101.748 82.9656 102.048 83.5164 102.447 83.1489C102.4 83.7094 102.001 83.7249 101.687 83.3309ZM77.2427 74.2213C76.6347 73.5578 80.5987 73.0921 81.0769 72.9781C84.5472 72.1506 87.8236 70.9532 91.0683 69.4838C92.6162 68.783 94.1562 68.0736 95.6677 67.2966C96.3205 66.9612 97.2152 66.6768 97.7603 66.1733C98.1495 65.8139 98.1339 65.542 98.6397 65.3278C99.0691 65.1465 99.0905 65.3177 99.2872 64.9896C99.4053 64.7927 99.539 64.0713 99.4698 63.8578C99.2815 63.2753 99.003 63.7476 98.6121 63.3461C98.3306 63.0567 98.3988 62.2338 98.4756 61.893C98.5754 62.0553 98.6327 62.2316 98.648 62.4215C99.0721 62.2124 98.9011 61.4942 99.3651 61.3765C99.854 61.2527 99.8034 61.6336 99.931 62.0229C100.3 61.4804 100.004 61.0178 99.8043 60.488C100.821 60.2976 101.913 60.1132 102.921 60.4514C103.649 60.6958 104.273 61.2967 105.042 61.4128C105.796 61.5264 105.94 61.1691 106.496 60.8067C106.947 60.5125 107.334 60.859 107.566 60.6367C107.423 61.387 106.193 61.2844 106.344 62.222C106.413 62.644 106.93 63.0231 107.165 63.3514C107.461 63.7635 107.696 64.2192 107.897 64.6836C108.68 66.49 109.015 68.5863 109.344 70.5181C110.154 75.2864 110.257 80.1488 111.019 84.9324C111.383 87.2109 111.747 89.4907 111.936 91.7915C111.983 92.3668 112.334 93.6717 112.047 94.2251C111.804 94.6924 111.263 94.6937 110.788 94.8068C109.86 95.0275 108.987 95.3274 108.096 95.6597C107.298 95.9574 107.066 96.14 106.553 95.3886C106.057 94.6615 105.812 93.7948 105.457 92.9977C105.005 91.9821 104.459 91.0021 103.935 90.0223C104.965 90.0223 105.557 89.4664 105.53 88.4201C105.5 87.2612 104.547 86.9862 104.154 86.0338C103.772 86.5301 103.74 86.5441 103.467 86.073C103.156 85.5342 102.946 84.5483 102.755 83.9371C102.892 84.0826 103.028 84.228 103.164 84.3733C103.508 83.9003 102.969 83.1548 102.789 82.7095C102.512 82.0217 102.463 81.2782 102.199 80.5924C102.055 80.2181 101.722 79.9235 101.641 79.533C101.586 79.2716 101.805 79.0229 101.753 78.7575C101.663 78.2955 101.14 77.7998 100.977 77.33C100.727 76.6072 100.456 75.9709 100.146 75.2667C99.726 74.3136 99.8236 73.3135 99.7468 72.2991C99.6671 71.2474 99.3303 70.2411 99.2113 69.194C99.129 68.4706 99.3865 67.5597 98.8392 66.9802C98.7751 67.9434 99.0512 67.9285 98.1462 68.1018C97.1159 68.2989 96.3686 69.0665 95.3945 69.2955C95.1937 69.3427 95.0474 68.4656 95.1257 69.6621C94.6584 69.3171 93.6612 69.7455 94.0332 69.9502C93.7513 70.2519 93.1959 70.0432 93.1031 70.4951C92.1448 69.5635 90.6081 72.7347 89.4668 71.0805C89.2785 72.2016 88.4667 72.8644 87.3769 73.0127C86.8289 73.0871 86.4912 73.2697 86.0049 73.434C85.9062 73.467 85.8699 73.609 85.7531 73.6473C85.5746 73.7055 85.3126 73.5298 85.1839 73.564C84.9221 73.6335 84.6309 73.9781 84.2654 74.0465C83.8463 74.125 83.3891 74.089 82.9695 74.0404C82.445 73.9796 82.2142 73.9175 81.7006 74.0903C81.2386 74.2458 80.7437 74.6813 80.315 74.2071C79.6415 75.3724 78.0356 75.0876 77.2427 74.2213ZM108.38 60.1594C107.871 60.0984 108.225 59.66 108.461 59.5283C109.102 59.1709 108.931 60.2255 108.38 60.1594ZM80.1573 64.341C83.1489 60.0251 88.2659 57.0597 92.7682 54.5646C95.2274 53.2018 97.7376 51.8808 100.32 50.7654C101.604 50.2111 102.902 49.6782 104.213 49.1913C104.913 48.9312 105.622 48.6947 106.331 48.4593C106.527 48.3944 106.883 48.1949 107.088 48.2143C107.053 48.2108 107.598 48.3591 107.491 48.4057C107.842 48.2528 108.01 47.8541 108.423 47.6946C108.887 47.5152 109.478 47.4411 109.975 47.4249C110.415 47.4104 110.796 47.5922 111.215 47.6064C111.491 47.6156 111.725 47.4848 111.994 47.4656C112.132 47.4559 112.12 47.6624 112.203 47.6745C112.239 47.6797 112.607 47.5417 112.61 47.5441C112.744 47.6301 112.863 47.9656 112.984 48.0966C113.331 48.4725 113.84 48.7343 114.303 48.9321C114.866 49.1727 116.239 49.4146 115.603 50.3049C116.055 50.24 116.265 50.6486 115.699 50.7521C115.392 50.8083 115.261 50.5274 115.034 50.3358C114.508 49.8939 113.231 49.2648 112.473 49.2932C112.046 49.3092 111.717 49.6327 111.324 49.7502C110.937 49.8657 110.745 49.6865 110.406 49.715C110.009 49.748 109.753 50.0838 109.375 50.1435C109.021 50.1995 108.824 49.958 108.507 49.9748C108.131 49.9947 107.767 50.3216 107.407 50.4314C106.836 50.6059 106.416 50.7249 105.859 51.0143C104.778 51.5754 103.57 51.7885 102.456 52.2715C101.565 52.6576 100.555 52.8608 99.7312 53.2878C98.8147 53.7623 97.894 54.235 96.9964 54.7506C96.3481 55.1231 95.0299 55.2513 94.315 55.1566C94.3047 56.473 93.6568 55.5501 93.0038 56.1267C93.1582 56.263 93.3337 56.3632 93.5295 56.4273C92.8218 56.7099 92.1677 57.0617 91.4822 57.3865C90.7736 57.7225 90.0176 57.7965 89.5521 58.4319C89.1234 59.0175 89.2687 58.7154 88.6288 58.946C88.3352 59.0519 88.08 59.3747 87.8684 59.5915C87.5049 59.9643 87.4244 60.5286 87.2168 59.7626C87.1562 59.856 86.9177 60.4508 86.8714 60.4659C86.6113 60.1898 86.5739 60.5171 86.4284 60.6341C86.505 60.8885 86.3956 61.0552 86.1003 61.1341C85.9509 61.2453 85.7995 61.3542 85.6466 61.4607C85.0918 61.8455 84.3857 62.1756 83.995 62.749C83.7069 62.579 83.6002 62.2856 83.7756 61.9862C83.225 62.4937 82.5681 63.015 82.4192 63.7961C82.3507 63.7301 82.2708 63.6824 82.1803 63.653C81.9567 63.804 82.2479 64.2537 82.3896 64.355C83.0078 64.1148 82.2352 64.2019 82.6506 64.2406C82.7689 64.2516 82.8906 64.3401 83.0212 64.3417C83.4042 64.3467 83.764 64.3283 84.1438 64.2699C84.9812 64.1409 85.8041 63.9005 86.6148 63.6594C87.4977 63.3969 88.3807 63.1348 89.2442 62.8128C89.9551 62.5477 90.6542 62.2522 91.3531 61.9577C91.6322 61.84 91.9112 61.7208 92.1907 61.604C92.7216 61.3822 93.0016 61.0178 92.9275 61.6421C93.3503 61.5719 93.7167 60.9742 94.0413 60.7303C94.4981 60.3876 95.0117 60.1318 95.5529 59.9568C95.7721 59.886 95.9331 59.7958 96.1597 59.7952C96.2708 59.795 96.3373 60.1082 96.4073 60.0911C96.893 59.9735 96.6716 59.7044 96.8899 59.3168C97.3674 58.4696 98.6537 58.001 99.4436 57.5197C99.945 57.2141 100.301 56.8031 100.764 56.4647C100.98 56.3066 101.138 56.2366 101.364 56.1696C101.538 56.1182 101.751 56.5172 101.864 56.1162C101.46 55.9511 101.127 55.7474 100.738 55.6269C100.463 55.5414 100.793 55.2489 100.357 55.423C100.182 55.493 100.122 55.8316 100.058 55.9734C99.5709 55.5387 98.2024 55.9891 97.6249 56.1711C97.5851 56.1836 97.4068 56.0896 97.3228 56.0952C96.9894 56.1175 96.7573 56.5662 96.5379 56.7596C95.9545 57.2734 95.3217 57.4882 94.6033 57.7816C94.7945 56.737 96.1995 56.3092 97.0196 55.9091C98.2184 55.3241 99.3344 54.5776 100.647 54.263C101.521 54.0532 102.679 53.8846 103.057 54.9009C103.283 55.5101 103.311 57.0236 102.547 57.3047C102.466 57.0203 102.725 56.7773 102.802 56.5306C102.041 56.8211 101.916 57.7352 101.338 58.2123C101.013 58.4803 100.897 58.5662 100.74 58.8252C100.584 59.0825 100.509 59.3225 100.144 59.5961C99.5464 58.3271 99.6475 60.0653 99.3445 60.2834C99.4663 60.1957 98.8508 60.4519 98.9243 60.4247C98.8958 60.4352 98.6276 60.0008 98.4537 60.01C98.1372 60.0266 98.198 60.3751 98.0456 60.5505C97.5286 61.1442 96.8608 61.5336 96.0289 61.4402C96.0094 61.8626 96.1398 62.3672 95.563 62.4057L95.4873 61.4693C95.1734 61.7869 94.7602 62.0886 94.5047 62.4563C94.2139 62.8747 94.245 63.1324 93.7627 63.4113C93.2587 63.7029 92.1863 64.2774 91.5865 64.327C91.7348 64.1166 91.7086 63.9265 91.5082 63.7572C91.2066 64.0682 90.7612 64.0989 90.4401 64.3797C91.5548 64.8455 89.5836 64.8214 89.3336 64.8741C89.1663 64.9095 89.0201 65.062 88.8506 65.0964C88.6255 65.1421 88.5964 64.9054 88.4026 64.9804C88.1191 65.0902 88.2342 65.4002 87.9376 65.556C87.7245 65.668 87.3631 65.6664 87.1227 65.7727C86.5498 66.0265 85.3294 66.5885 84.9422 65.9068C84.746 67.0763 82.742 66.3645 82.0002 66.2857C80.9844 66.1779 79.2149 65.701 80.1573 64.341ZM84.4242 52.3758C84.5679 52.2531 84.7119 52.2621 84.8558 52.403C84.6554 51.3446 86.2053 50.8308 86.8814 50.3808C87.7783 49.7841 88.834 48.6262 90.0076 48.7179C89.8074 48.8662 89.6077 49.0145 89.4078 49.1628C89.6932 49.1998 89.9785 49.2368 90.2635 49.2737C90.1027 49.51 89.9417 49.746 89.7805 49.9821C89.5172 48.5304 88.143 50.3631 87.7453 50.6302C87.3447 50.8991 86.9453 51.0994 86.5894 51.4273C86.2368 51.7522 85.9185 52.3371 85.3355 52.0449C85.2824 52.8739 84.6158 52.649 84.1549 53.1082C84.1357 52.8201 84.3006 52.6165 84.4242 52.3758ZM90.5129 48.2373C91.9315 47.706 93.1666 46.7236 94.5033 46.0218C95.7802 45.3514 97.0828 44.7494 98.3809 44.124C99.0393 43.8066 100.246 42.9859 100.998 43.4041C102.014 43.9689 100.616 44.1511 100.253 44.3467C100.118 43.477 99.6477 44.2649 99.9288 44.7488C99.1537 44.4141 97.4635 45.7235 96.7241 46.0846C96.5567 46.1664 96.6318 46.2136 96.4415 46.3099C96.3946 46.3335 95.9095 46.444 95.7706 46.4906C95.0745 46.7236 94.6158 46.5385 94.3159 47.3787C94.2531 47.181 94.1903 46.983 94.1275 46.785C93.6918 47.7635 92.3672 48.1918 91.5202 48.7704C91.3019 48.9196 90.6785 49.4982 90.4016 49.3785C90.0161 49.2118 90.1708 48.3653 90.5129 48.2373ZM116.104 51.1874C116.703 51.227 116.125 51.5063 116.29 51.6909C116.271 51.6701 116.65 51.9937 116.601 51.9049C116.668 52.0243 116.829 52.0199 116.911 52.2627C117.194 53.0977 115.957 53.9605 115.54 54.4343C114.729 55.3559 114.26 56.5229 113.415 57.415C113.033 57.8179 112.653 58.0961 112.124 58.2464C111.754 58.3516 111.362 58.239 111.022 58.5951C110.747 58.8819 110.81 59.0449 110.507 59.1973C109.973 59.4662 109.738 59.2304 109.218 59.8114C108.772 58.5964 110.056 58.5984 110.726 57.9194C111.65 56.982 112.664 56.0364 113.531 55.0336C114.302 54.1427 114.61 53.3615 114.976 52.2791C115.091 51.9379 115.217 51.2062 115.535 50.992C116.03 50.6586 115.733 51.1626 116.104 51.1874ZM119.049 82.7486C120.62 80.9916 122.569 79.414 124.681 78.3557C125.436 77.9772 126.51 77.4807 127.293 78.0632C128.06 78.6341 127.895 79.7732 127.586 80.548C127.289 80.4316 127.569 79.3427 127.415 79.0736C127.08 78.4865 126.356 78.7982 125.863 78.9951C125.286 79.2256 124.771 79.4803 124.314 79.8987C124.129 80.0683 123.774 80.2203 123.655 80.3369C123.476 80.2627 123.371 80.3168 123.34 80.4988C123.376 80.6103 123.372 80.7201 123.326 80.8282C123.3 80.8626 123.068 80.7217 123.035 80.7499C122.885 80.8787 122.744 81.0303 122.596 81.15C122.298 81.3904 122.045 81.5041 121.772 81.8393C121.243 82.487 120.544 82.8665 120.013 83.4836C119.893 83.6232 119.75 83.9808 119.723 84.0121C119.454 84.3254 119.056 84.5732 118.754 84.9048C118.23 85.4777 117.671 85.8623 117.067 86.3536C116.807 86.5649 116.504 86.7926 116.331 87.0866C116.252 87.2207 116.208 87.9557 116.205 87.9588C115.612 88.6081 115.728 87.303 115.772 87.1394C116.253 85.3786 117.88 84.0567 119.049 82.7486ZM115.816 94.6545C115.889 94.931 115.95 95.1596 116.025 95.4403C115.555 95.0551 115.555 95.0551 115.816 94.6545ZM115.308 95.5601C115.136 95.734 114.962 95.9069 114.788 96.0786C114.403 95.6724 115.379 95.4906 115.308 95.5601ZM115.065 88.5685C114.881 89.3118 114.208 90.2128 113.746 90.7995C113.797 90.7347 113.351 90.8649 113.3 90.8944C113.136 90.9898 113.53 91.608 112.959 91.3317C112.757 91.4463 113.155 91.9131 112.88 92.1221C112.085 90.3097 114.257 88.7395 115.098 87.3942C115.509 87.7718 115.168 88.1517 115.065 88.5685ZM109.898 98.3671C110.478 98.5163 110.78 98.4225 111.171 97.8529C111.407 97.5107 111.493 96.9048 112.031 97.4167L112.126 96.7585C112.895 97.0737 112.83 98.2129 113.166 98.8442C113.329 98.13 113.716 96.1348 114.901 96.4548C116.231 96.8142 114.017 99.1019 113.812 99.6624C113.36 98.9606 113.537 99.6134 113.192 99.7122C112.896 99.7973 112.434 99.5795 112.074 99.5991C110.98 99.6586 110.019 100.151 109.02 100.568C108.766 99.8853 108.514 99.203 108.261 98.5207C108.849 98.566 110.066 96.9997 110.238 98.1381C109.802 98.0622 109.679 98.0815 109.466 98.4787C109.602 98.4098 109.746 98.3726 109.898 98.3671ZM112.354 107.273C112.353 107.267 113.486 107.337 113.587 107.3C114.363 107.017 114.076 106.137 114.235 105.515C114.555 105.809 114.385 106.346 114.484 106.726C114.599 107.173 114.935 107.554 114.966 108.033C115.036 109.113 114.15 108.873 113.478 109.223C112.903 109.522 112.84 109.897 112.355 109.092C112.224 108.874 111.941 108.307 111.97 108.028C111.999 107.752 112.436 107.522 112.354 107.273ZM113.268 111.948L112.954 111.597C113.889 111.883 113.338 111.453 113.553 110.865C114.269 111.342 114.854 111.833 115.421 110.877L116.401 114.83C115.743 114.985 114.894 113.968 114.442 113.619C114.182 113.417 112.735 112.639 113.603 112.412C113.491 112.258 113.38 112.103 113.268 111.948ZM119.665 99.5355C119.121 100.053 118.573 100.342 117.981 100.749C117.461 101.106 117.64 101.516 117.19 101.914C116.891 102.179 116.19 102.448 115.82 102.65C115.162 103.01 114.572 103.078 113.895 102.676C114.079 104.159 113.064 104.275 111.799 104.569C111.196 104.709 110.839 104.923 110.404 104.371C110.107 103.993 109.99 103.308 110.36 102.963C110.949 102.413 112.516 102.603 113.27 102.257C113.843 101.995 114.426 100.518 115.133 101.056C114.768 100.475 115.193 100.319 115.51 99.9045C115.857 99.4506 116.07 98.9199 116.43 98.4697C117.112 97.614 118.16 96.7532 119.129 96.2372C119.982 95.7833 120.43 96.1046 120.558 97.0579C120.622 97.5372 120.619 98.2512 120.351 98.6765C120.266 98.8121 119.983 98.8136 119.898 98.9409C119.749 99.1634 119.885 99.3259 119.665 99.5355ZM129.674 88.0308C130.354 88.5575 130.288 89.6644 130.395 90.4182C130.546 91.4807 130.437 92.5088 130.42 93.591C130.403 94.7247 129.847 95.4632 129.585 96.5259C129.294 97.708 128.919 98.3341 128.266 99.3261C128.974 99.4375 127.92 101.551 127.747 101.825C127.558 102.122 126.037 103.491 126.689 103.491C126.33 103.965 125.938 104.452 125.58 104.913C125.439 105.095 125.191 105.166 125.08 105.294C124.854 105.555 124.84 105.787 124.678 106.091C124.432 106.553 124.351 106.429 124.027 106.764C123.804 106.995 123.657 107.3 123.438 107.522C122.731 108.236 122.641 107.651 122.246 107.101C122.185 107.249 122.077 107.341 121.923 107.378C121.799 106.756 122.651 106.128 123.01 105.75C123.596 105.13 124.133 104.448 124.652 103.77C125.763 102.319 126.762 100.776 127.549 99.1245C128.388 97.3664 129.057 95.4637 129.405 93.5457C129.67 92.0838 129.922 89.576 127.969 89.2041C126.548 88.9338 124.982 89.797 123.811 90.4959C123.097 90.9215 122.379 91.3448 121.699 91.8237C120.961 92.343 120.323 93.078 119.522 93.4947C119.96 93.2668 118.515 93.9528 118.736 93.7598C118.632 93.85 118.722 94.1254 118.653 94.2496C118.564 94.4113 118.254 94.571 118.115 94.6755C117.747 94.9516 117.16 95.234 116.993 95.6899C114.662 94.0269 119.298 91.0747 120.486 90.3228C122.843 88.8316 126.944 85.9179 129.674 88.0308ZM135.961 71.8579C135.939 70.6605 136.914 69.0258 137.573 68.0493C137.895 67.5713 138.41 67.5903 138.599 67.0266C138.707 66.702 138.565 66.3616 138.597 66.0357C138.641 65.5949 138.832 65.2414 139.052 64.8625C141.046 61.4376 143.468 58.4061 146.048 55.418C147.32 53.9449 148.526 52.4152 149.897 51.0314C150.471 50.4535 152.011 48.3758 152.892 48.5836C153.358 48.6936 153.63 49.4056 153.841 49.769C154.189 50.3699 154.572 50.9327 154.995 51.4853C156.112 52.9441 157.401 54.2247 158.923 55.2587C159.873 55.9049 160.833 56.533 161.762 57.21C162.527 57.7671 163.684 58.4041 164.23 59.1864C164.777 59.9689 163.974 60.6315 163.536 61.2811C162.854 62.2915 162.227 63.3385 161.543 64.3478C161.271 64.1522 161.341 63.755 161.154 63.5045C160.989 63.2825 160.755 63.1921 160.527 63.055C160.089 62.7927 159.66 62.472 159.264 62.9115C158.572 63.6806 159.524 65.4986 160.549 65.2991C160.67 66.0582 158.622 67.3084 158.109 67.7262C156.534 69.0076 154.909 70.1217 152.829 70.2376C151.987 70.2845 151.111 70.2206 150.311 69.9388C149.928 69.8039 149.504 69.6186 149.21 69.3244C148.858 68.9722 148.769 68.4481 148.427 68.0994C148.131 67.7968 147.725 67.7502 147.429 67.4466C147.133 67.1428 146.987 66.6628 146.867 66.2693C146.632 65.5004 146.587 64.6895 146.362 63.9188C146.226 63.4553 146.114 62.8356 145.671 63.281C145.028 63.928 145.351 65.9626 145.516 66.7379C145.751 67.8439 146.304 68.7355 146.882 69.687C147.51 70.7193 147.741 71.6768 147.854 72.8712C148.064 75.107 148.706 77.2525 149.704 79.2641C150.124 80.1111 150.628 80.9076 151.081 81.7351C151.293 82.1212 151.768 83.4386 152.345 83.4316C153.265 83.4202 151.954 80.7346 151.772 80.2837C150.763 77.7867 149.799 75.1621 149.583 72.4584C151.029 72.8309 152.606 73.1844 154.103 72.9484C153.136 75.1101 154.146 77.2624 154.023 79.4875C153.961 80.6033 153.916 81.6328 153.939 82.7453C153.96 83.721 153.519 84.6961 153.138 85.5784C152.382 87.3303 151.43 89.4916 150.025 90.8336C148.85 91.9556 147.279 92.0433 145.745 91.785C142.254 91.197 139.96 88.5135 138.495 85.4659C137.554 83.5081 136.835 81.4182 136.388 79.2919C135.871 76.8312 136.007 74.3539 135.961 71.8579ZM140.495 55.2743C137.237 52.9172 141.971 50.2406 144.38 50.6051C144.946 50.6904 145.985 50.924 145.933 51.6616C145.889 52.2645 144.884 52.9365 144.498 53.3086C143.397 54.3704 142.276 56.5629 140.495 55.2743ZM164.193 107.647C164.081 107.547 163.169 107.792 163.53 107.253C163.83 106.805 164.663 107.367 164.965 107.482C164.716 107.654 164.499 107.921 164.193 107.647ZM150.628 136.154C150.348 136.189 150.056 135.433 151.065 135.998C150.919 136.05 150.774 136.102 150.628 136.154ZM150.599 148.461C150.634 148.8 150.738 149.023 150.497 149.269C150.294 149.018 150.268 148.665 150.599 148.461ZM151.009 153.546C150.979 153.73 150.95 153.915 150.92 154.099C150.687 153.981 150.454 153.863 150.221 153.745C150.484 153.679 150.747 153.612 151.009 153.546ZM151.294 149.258C151.642 149.388 151.48 148.973 151.732 148.914C151.823 149.347 151.711 149.717 151.463 150.074C151.439 149.99 151.312 149.265 151.294 149.258ZM160.172 118.573C159.685 118.511 159.611 119.026 159.248 119.226C159.013 119.355 158.299 119.258 158.166 119.505C158.342 119.555 158.518 119.606 158.694 119.657C158.291 119.874 157.888 120.091 157.486 120.308C158.454 120.308 159.464 119.846 160.426 119.982C160.832 120.039 161.13 120.177 161.385 120.507C161.54 120.708 161.676 121.031 161.701 121.277C161.728 121.543 161.521 121.727 161.558 121.854C161.991 121.865 161.94 122.577 161.843 122.866C161.632 123.495 160.793 124.479 160.042 124.081C160.356 124.527 160.276 124.781 159.811 125.04C159.853 124.893 159.884 124.635 159.647 124.66C159.586 124.907 159.609 125.299 159.407 125.486C159.181 125.694 158.98 125.451 158.764 125.586C158.507 125.747 158.584 126 158.383 126.174C158.116 126.405 158.078 126.241 157.76 126.286C157.278 126.354 157.585 126.055 157.199 126.445C157.065 126.58 157.088 126.931 156.871 127.128C156.455 127.507 155.345 127.901 154.947 127.416C153.988 128.934 151.116 129.299 149.779 128.1C147.646 126.188 151.622 122.299 152.935 121.067C154.253 119.83 155.716 118.761 157.197 117.73C158.038 117.144 158.902 116.613 159.783 116.091C160.327 115.768 161.01 115.18 161.678 115.237C162.278 115.287 162.79 115.753 163.421 115.845C163.877 115.911 164.764 116.021 164.188 116.64C163.919 116.929 162.861 117.397 162.501 117.467C162.29 117.509 162.067 117.429 161.857 117.472C161.502 117.545 161.259 117.845 160.873 117.807C160.995 118.379 160.772 118.649 160.172 118.573ZM166.483 97.304C166.483 97.7522 165.665 97.6405 165.494 97.4882C165.213 97.2377 165.203 96.4887 165.099 96.1481C165.574 96.2678 166.482 96.7057 166.483 97.304ZM159.892 82.517C161.611 81.1045 163.418 79.8095 165.328 78.6689C166.012 78.2605 166.978 77.4367 167.827 77.5395C168.184 77.5828 168.92 77.9921 168.652 78.4434C168.602 78.5278 168.205 78.5617 168.083 78.623C167.944 78.6923 167.835 78.8835 167.706 78.978C166.814 79.6327 165.741 80.035 164.846 80.7055C164.11 81.2561 163.424 81.8721 162.632 82.3446C161.872 82.7976 161.078 83.0844 160.356 83.5862C160.37 83.5761 159.418 83.9187 159.605 83.9811C158.768 83.7013 159.652 82.7149 159.892 82.517ZM171.35 81.9909C172.371 81.584 173.37 81.0903 174.439 80.8168C174.972 80.6803 175.519 80.5777 176.071 80.6392C176.165 80.4749 176.29 80.4386 176.446 80.5303C176.568 80.7175 176.729 80.8612 176.928 80.9616C177.233 81.1957 178.354 81.5017 178.13 82.0186C177.982 82.3605 176.858 82.389 176.549 82.4658C175.619 82.6974 174.752 83.2185 173.794 83.3465C173.704 83.3585 173.411 83.2495 173.408 83.2502C173.034 83.3318 172.723 83.7196 172.402 83.9056C171.71 84.3057 170.717 84.3728 170.221 85.0634C171.828 86.153 173.223 85.0724 174.636 84.2497C175.482 83.7571 176.391 83.4016 177.316 83.0857C177.8 82.9208 178.287 82.7493 178.777 82.6045C178.98 82.5305 179.189 82.4774 179.403 82.4448C179.602 82.4052 179.744 82.4776 179.83 82.6622C180.422 82.6425 180.473 82.2709 180.83 82.9641C181.332 83.9415 180.563 83.8918 179.841 84.0119C178.838 84.1781 177.819 84.5526 176.831 84.8009C176.603 84.8582 174.606 85.3213 174.604 85.3377C174.513 85.9682 180.246 85.3843 180.738 85.2898C181.606 85.1227 182.538 84.6482 183.437 84.7626C184.127 84.8504 185.7 85.8632 184.599 86.536C184.382 85.4983 183.638 86.3554 183.249 86.7056C182.732 87.1717 181.99 87.1269 181.28 87.3096C180.309 87.5589 177.824 88.4947 177.135 87.3017C177.353 88.3473 173.391 87.816 172.846 87.7814C172.316 87.7475 171.63 87.8604 171.117 87.709C170.782 87.6103 170.596 87.3927 170.281 87.3437C170.204 87.4268 170.111 87.4835 170.004 87.5134C169.844 87.4327 169.7 87.3299 169.571 87.2054C168.51 86.7178 166.869 86.4483 167.458 84.895C168.014 83.43 170.001 82.5286 171.35 81.9909ZM181.294 82.8963C181.321 82.805 181.347 82.7138 181.373 82.6224C181.377 82.9022 182.044 83.0216 181.967 83.3841C181.796 84.1867 181.026 82.9807 180.96 82.8492C181.071 82.865 181.183 82.8805 181.294 82.8963ZM185.368 84.2298C185.445 84.5586 186.332 85.2586 186.112 85.42C185.763 84.9444 184.796 85.1603 185.368 84.2298ZM170.401 114.229C170.726 113.585 171.708 114.682 171.605 113.582C172.139 113.63 171.805 114.037 172.445 113.858C172.685 113.791 172.847 113.525 173.139 113.464C173.217 113.448 173.554 113.474 173.67 113.471C174.055 113.459 175.563 113.416 174.525 112.912C175.106 112.527 175.177 112.722 175.702 113.074C175.567 112.347 176.339 112.76 176.698 112.851C176.442 112.436 177.077 111.994 177.284 111.714C177.21 112.146 177.249 112.629 177.874 112.353C178.029 112.284 177.995 111.979 178.118 111.929C178.344 111.838 178.471 112.004 178.552 111.995C178.632 111.986 178.8 112.03 178.968 111.967C179.186 111.885 179.081 111.593 179.357 111.549C179.537 111.521 179.669 111.785 179.888 111.788C180.001 111.789 180.19 111.674 180.275 111.68C180.29 111.681 180.398 111.422 180.53 111.416C180.723 111.407 180.801 111.924 180.872 112.024C181.209 112.503 181.659 112.815 182.177 113.071C181.239 113.93 179.349 113.839 178.171 114.129C177.532 114.286 176.988 114.512 176.404 114.804C176.263 114.896 176.141 115.008 176.04 115.141C175.957 115.086 175.874 115.032 175.792 114.977C175.472 114.996 175.169 114.838 174.809 114.899C173.696 115.086 172.825 115.92 171.694 116.106C171.185 116.189 170.768 116.306 170.437 115.865C170.146 115.479 170.195 114.64 170.401 114.229ZM168.876 109.094C169.128 109.308 168.825 110.002 169.313 109.927C169.659 109.873 169.59 109.335 169.862 109.222C170.22 109.072 170.435 109.427 170.771 109.394C171.398 109.332 171.362 108.785 170.833 108.545C171.383 108.4 171.559 109.05 172.046 109.045C172.686 109.037 172.533 108.282 173.078 108.157C173.314 108.103 173.235 108.449 173.388 108.492C173.694 108.578 173.907 108.43 174.178 108.3C174.421 108.184 174.593 107.96 174.858 107.884C174.979 107.849 175.285 107.913 175.373 107.848C175.551 107.718 175.711 107.212 175.887 107.145C175.851 107.158 176.426 107.447 176.509 107.474C176.458 107.688 176.341 107.713 176.157 107.55C176.157 108.033 177.498 108.183 177.223 107.587C177.948 107.887 177.408 108.041 177.335 108.46C177.307 108.629 177.209 108.624 177.238 108.802C177.251 108.884 177.631 108.814 177.626 108.925C177.594 109.645 175.3 109.867 174.865 109.93C173.965 110.062 173.114 110.283 172.246 110.555C171.6 110.758 170.487 111.339 169.799 111.302C168.811 111.251 168.682 109.961 168.876 109.094ZM166.667 101.748C166.426 100.948 167.199 99.2933 168.206 99.5001C168.454 99.5508 168.515 99.756 168.707 99.847C168.975 99.9743 169.411 99.9074 169.644 100.039C170.165 100.334 169.902 101.086 170.425 101.357C169.6 101.557 167.05 103.021 166.667 101.748ZM167.621 104.86C167.977 104.669 168.553 104.644 168.795 104.277C168.916 104.361 169.144 104.868 169.36 104.79C169.461 104.754 169.565 104.479 169.558 104.479C169.751 104.474 169.789 104.213 170.084 104.242C170.354 104.269 170.657 104.595 170.898 104.716C170.856 103.91 171.063 103.833 171.716 103.401C171.86 103.307 171.979 102.952 172.111 102.809C171.985 103.654 172.304 103.659 172.979 103.786C173.826 103.945 174.353 104.4 174.692 105.218C173.971 105.077 173.04 105.246 172.756 106.022C172.18 104.97 170.088 106.422 169.411 106.719C168.908 106.94 168.324 107.236 167.902 106.722C167.606 106.36 167.776 105.924 167.782 105.602C167.784 105.501 167.888 105.495 167.878 105.345C167.866 105.153 167.616 105.076 167.621 104.86ZM175.324 121.402C175.133 121.474 174.152 121.515 174.146 121.19C174.141 120.903 175.877 121.192 175.324 121.402ZM173.731 120.351C172.989 120.808 172.158 119.197 171.886 118.733C172.664 118.832 173.044 118.181 173.502 117.686C173.939 118.642 174.601 118.137 175.298 117.818C176.119 117.441 177.02 117.438 177.862 117.136C178.124 117.042 178.366 116.902 178.623 116.794C178.829 116.717 179.035 116.638 179.24 116.556C179.386 116.425 179.437 116.264 179.395 116.072C179.326 115.911 179.373 115.809 179.536 115.767C179.73 115.825 179.928 115.859 180.13 115.868C180.454 115.803 180.92 115.497 180.529 115.167C180.948 114.786 181.368 115.165 181.773 115.332C181.676 115.058 181.581 114.785 181.485 114.511C181.685 114.596 182.28 115.427 182.341 115.423C182.725 115.394 182.685 114.878 182.906 114.67C183.034 114.827 183.07 116 183.572 115.605C183.786 115.436 183.325 114.86 183.211 114.729C183.784 114.859 184.285 115.544 184.44 116.075C184.168 116.115 183.916 116.06 183.685 115.911C183.537 116.651 184.907 116.351 185.129 116.738C185.563 117.495 182.738 118.021 182.369 118.091C181.633 118.231 180.763 118.284 180.088 118.61C179.441 118.923 179.288 119.012 178.532 119.071C177.669 119.138 176.827 119.422 175.992 119.644C175.267 119.836 174.373 119.955 173.731 120.351ZM189.503 93.2499C190.184 93.0047 192.479 91.7322 193.063 92.2981C193.002 92.2382 193.485 93.2361 193.48 93.1734C193.521 93.6925 193.508 93.9014 192.869 94.1501C192.412 94.3281 192.013 93.9497 191.602 94.1C191.149 94.2651 191.466 94.5574 191.233 94.7615C190.978 94.9853 190.486 95.082 190.169 95.18C189.392 95.4199 188.609 95.6205 187.835 95.8791C186.262 96.4052 184.596 96.8947 182.979 97.2668C181.77 97.5449 179.719 98.2359 178.606 97.4197C178.497 97.8837 178.232 97.8203 177.863 97.8879C177.573 97.9408 177.05 98.0841 176.793 98.0915C176.365 98.104 175.175 97.9918 175.338 97.3913C175.293 97.5567 176.264 96.9906 176.096 96.9553C176.509 97.0422 176.375 96.8346 176.713 96.7191C177.154 96.5684 177.615 96.5765 178.065 96.4168C179.201 96.0143 180.153 95.4919 181.352 95.2397C184.09 94.6637 186.861 94.2004 189.503 93.2499ZM79.7563 155.286C79.5345 155.292 79.3619 154.661 80.0367 155.111C79.9433 155.17 79.8499 155.227 79.7563 155.286ZM74.4254 154.47C74.1237 154.547 74.0034 154.379 74.0649 153.965C74.4855 153.799 74.6056 153.967 74.4254 154.47ZM70.3098 153.626C70.2326 153.257 70.506 153.174 70.7539 153.008C70.7289 153.497 70.7289 153.497 70.3098 153.626ZM59.9546 150.591C59.5375 150.499 58.9816 150.091 58.886 150.776C58.8163 150.618 58.4601 149.872 58.613 149.699C58.6929 149.609 58.9952 150.027 58.963 149.985C59.3281 149.247 59.9575 150.138 60.3092 150.402C60.1911 150.465 60.0728 150.528 59.9546 150.591ZM168.414 68.9763C168.558 68.6718 168.728 68.5751 168.923 68.6865C168.617 69.3987 167.578 69.7848 168.414 68.9763ZM175.631 62.2905C175.888 62.7728 175.501 62.9767 175.225 63.3776C175.387 62.9452 175.499 62.6455 175.631 62.2905ZM206.995 109.375C207.923 109.375 209.9 108.885 210.459 109.946C210.83 109.225 211.25 110.577 211.572 110.793C211.608 110.818 211.839 110.641 211.947 110.706C212.109 110.804 212.249 111.072 212.342 111.231C212.622 111.71 212.743 112.281 212.898 112.808C211.278 112.808 209.616 112.431 207.996 112.294C206.933 112.204 205.891 112.201 204.827 112.258C204.615 112.27 204.195 112.2 204.014 112.24C203.831 112.28 203.497 112.654 203.295 112.594C203.61 113.185 207.641 114.615 207.949 113.961C207.584 113.741 206.775 113.571 206.775 113.038C206.776 112.442 207.535 112.443 207.937 112.46C208.816 112.499 210.289 112.791 210.649 113.706C210.804 114.098 210.851 115.085 210.681 115.463C210.572 115.707 210.386 116.001 210.092 116.051C209.972 116.071 209.798 115.911 209.78 115.915C209.176 116.043 208.06 116.527 207.402 115.844C206.927 116.458 204.642 115.788 203.942 115.556C202.718 115.151 201.033 114.594 200.29 113.453C199.384 112.061 201.226 110.885 202.284 110.319C203.729 109.546 205.381 109.376 206.995 109.375ZM213.171 112.593C213.455 112.673 213.74 112.754 214.024 112.834C213.948 113.333 212.826 112.938 213.171 112.593ZM221.769 130.722C221.857 128.724 221.279 126.964 220.946 125.031C220.863 124.552 220.947 123.715 220.583 123.321C220.236 122.944 219.46 123.25 219.429 122.585C219.087 122.985 219.121 123.069 218.699 122.608C218.776 122.806 218.787 123.007 218.733 123.212C218.471 123.062 217.522 122.563 217.602 123.245C216.822 123.072 217.048 122.584 216.602 122.212C216.539 122.159 216.285 122.347 216.186 122.266C216.007 122.121 215.919 121.99 215.768 121.803C215.576 122.035 215.315 122.202 215.08 122.386C214.944 122.089 214.678 121.871 214.359 121.799C214.658 122.423 215.395 123.231 214.384 123.586C213.78 123.797 212.792 123.538 212.153 123.587C209.783 123.771 207.189 123.255 204.898 122.69C202.545 122.11 200.165 121.292 198.049 120.096C197.598 119.841 197.314 119.539 196.926 119.223C196.548 118.915 196.273 118.867 195.82 118.67C195.003 118.316 194.255 117.748 193.634 117.116C192.297 115.755 191.056 113.976 191.428 111.985C191.799 109.999 193.163 108.448 194.624 107.141C196.348 105.597 198.295 104.308 200.361 103.268C201.285 102.804 203.649 101.059 204.562 102.08C205.145 102.732 204.817 103.565 204.02 103.71C203.823 103.746 203.618 103.614 203.419 103.704C203.132 103.834 203.233 103.988 203.115 104.097C202.909 104.286 202.691 104.58 202.384 104.744C201.313 105.315 200.277 105.768 199.253 106.463C198.781 106.784 198.327 106.922 197.911 107.201C197.497 107.479 197.403 107.94 196.847 107.656C197.045 108.465 195.855 109.332 195.388 109.828C194.666 110.595 193.8 111.575 194.137 112.711C194.797 114.935 197.778 116.624 199.687 117.602C202.068 118.822 204.694 119.793 207.346 120.194C208.664 120.394 210.026 120.518 211.354 120.644C212.388 120.743 213.975 120.382 214.719 121.313C214.742 120.227 218.133 120.323 218.855 120.184C217.408 115.237 214.566 110.839 211.528 106.729C210.037 104.712 208.573 102.637 206.873 100.788C205.013 98.7633 202.887 96.954 200.867 95.0911C196.906 91.4374 192.425 88.1765 187.866 85.3038C183.317 82.438 178.607 79.6174 173.623 77.5741C167.932 75.2405 161.939 73.7055 155.941 72.3982C156.754 71.3614 158.078 70.8556 159.12 70.097C159.485 69.8314 159.978 69.194 160.452 69.1069C160.965 69.0124 161.369 69.5646 161.734 69.8417C162.783 70.6371 163.508 70.2993 164.709 70.2514C165.427 70.2228 167.129 70.6229 167.432 69.651C167.835 70.1873 167.251 70.6174 166.952 71.0107C167.169 71.3143 167.345 70.9993 167.56 70.9519C167.626 70.897 167.692 70.8418 167.758 70.7869C167.865 70.6325 167.961 70.6316 168.047 70.7839C168.175 70.9768 168.304 70.9341 168.434 70.6557C168.47 70.6334 168.505 70.6108 168.541 70.5885C168.696 70.5058 168.846 70.375 168.99 70.272C170.082 69.4921 171.054 68.8278 172.259 68.2534C173.271 67.7712 172.727 66.8488 173.394 66.1973C173.544 66.0499 173.798 66.1238 173.96 65.9989C174.118 65.8762 174.142 65.7371 174.257 65.6056C174.534 65.2895 174.204 64.9227 174.911 65.3096L174.656 63.8744C176.042 65.2193 176.037 61.3492 176.226 60.7765C176.201 60.8522 176.351 60.2661 176.351 60.2712C176.391 59.1098 176.55 58.2681 175.19 58.2007C175.705 57.8767 175.862 58.5094 176.1 57.8544C176.219 57.5263 175.847 56.9624 176.44 57.1739C176.565 56.4765 176.441 55.9121 176.286 55.2345C176.127 54.5408 176.22 54.0779 176.227 53.3843C176.236 52.5974 175.867 51.8066 175.749 51.0318C175.657 50.425 175.752 49.468 174.968 49.6909C174.857 49.5183 175.245 48.9874 175.229 48.7249C175.205 48.3171 174.762 47.9028 174.637 47.5113C174.452 47.7016 174.192 47.765 173.942 47.6791C174.177 47.1471 173.956 46.9683 173.73 46.5096C173.601 46.2469 173.679 45.9568 173.402 45.7686C173.244 45.6605 172.974 45.8425 172.849 45.7159C172.583 45.4446 172.681 45.0848 172.498 44.7273C172.268 44.2791 171.743 43.9368 171.381 43.6003C169.346 41.7092 167.137 40.264 164.43 39.525C161.7 38.7795 158.517 38.5124 155.796 39.3723C154.708 39.716 153.743 39.6808 152.764 40.3226C152.446 40.5308 152.412 40.475 152.251 40.8222C152.214 40.9031 152.552 41.1186 152.345 41.251C152.12 41.3947 151.872 41.1024 151.757 40.8598C150.341 41.8849 149.014 43.2514 148.208 44.8183C147.406 46.3753 147.333 48.2045 147.027 49.8965C145.615 48.2839 143.706 47.5108 141.63 48.2861C139.821 48.9616 138.419 50.4465 138.065 52.3701C137.849 53.5429 138.085 54.7305 138.617 55.7886C138.848 56.2457 139.127 56.7519 139.55 57.0597C139.885 57.303 140.459 57.2688 140.616 57.7076C140.858 58.3799 139.462 59.8317 139.099 60.4201C138.444 61.485 137.835 62.5847 137.371 63.7478C135.708 61.399 134.117 58.8338 132.226 56.6681C130.442 54.6241 128.314 52.791 126.228 51.0633C121.898 47.4776 117.396 44.1089 112.552 41.2523C108.042 38.5923 102.595 37.1155 97.3386 37.6376C92.203 38.148 88.2712 41.396 84.9626 45.1421C78.6009 52.3448 74.7045 62.6109 74.3239 72.199C74.2095 75.0792 74.4289 77.9219 75.1402 80.7155C75.4791 82.0458 75.4299 83.3541 75.6267 84.7014C75.849 86.2213 76.2333 87.7357 76.605 89.2245C78.0207 94.896 79.8246 100.563 81.8486 106.047C82.9011 108.898 84.1744 111.686 85.8971 114.201C86.6927 115.362 87.7234 116.271 88.5796 117.374C89.4102 118.444 89.6296 119.757 89.8122 121.069C90.2502 124.216 90.5407 127.377 90.8041 130.542C90.9158 131.884 91.0464 133.214 91.2241 134.546C91.3789 135.707 90.9893 135.65 90.0122 136.045C90.2104 135.001 85.5418 135.711 85.101 135.782C84.6213 135.86 84.1134 135.861 83.7356 135.923C83.3132 135.991 82.8997 136.091 82.4132 136.077C81.6982 136.056 80.3592 135.874 80.0862 136.786C79.8983 135.728 78.6571 136.885 79.5754 136.689C78.6328 136.794 77.671 136.619 76.717 136.708C75.6237 136.809 74.521 136.906 73.4353 137.07C72.6795 137.185 71.9583 137.476 71.2012 137.56C70.2324 137.669 69.2213 137.659 68.2431 137.745C64.6348 138.063 60.8948 138.85 57.3874 139.751C56.5929 139.955 55.68 140.1 54.921 140.428C54.7178 140.516 54.5349 140.712 54.3402 140.787C54.0138 140.913 54.0584 140.826 53.7686 140.884C52.0319 141.231 50.2404 141.798 48.5039 142.243C47.5408 142.49 45.9741 142.712 45.1884 143.385C44.8362 143.686 44.5285 144.22 45.0928 144.562C45.5437 144.835 46.1872 144.399 46.552 144.163C46.227 145.01 45.6139 145.432 45.945 146.396C46.2064 147.158 46.7966 148.096 47.7046 147.605C47.8263 147.888 47.8755 148.451 48.2336 148.555C48.5553 148.648 48.7883 148.24 49.1035 148.336C49.2164 148.371 49.1735 148.584 49.2746 148.64C49.4487 148.735 49.6253 148.776 49.8248 148.844C49.9963 148.902 50.2723 149.021 50.4513 149.034C50.5648 149.042 50.8323 148.848 50.8314 148.848C51.0922 148.887 51.2324 149.386 51.4201 149.531C51.6638 149.718 51.865 149.76 52.1702 149.828C52.8046 149.969 53.6223 150.211 54.0409 149.561C53.9451 150.025 54.5758 149.979 54.854 150.038C54.8232 149.794 54.6882 149.57 54.48 149.436C55.1021 149.477 54.8499 150.096 55.3097 150.259C55.6374 150.375 55.6002 150.08 55.8509 150.047C56.1812 150.004 56.4319 150.244 56.9477 150.023C57.0595 150.519 57.1004 151.02 57.7105 151.094C58.0686 151.138 58.9035 150.491 58.8563 151.029C59.6563 150.795 59.9599 150.954 60.3779 151.659C60.4486 151.226 60.7905 151.351 61.1042 151.325C61.6014 151.282 61.6141 151.322 61.9995 151.041C62.0347 151.015 62.3379 150.32 62.4727 150.752C62.5333 150.945 62.1327 151.4 61.9844 151.516C62.1686 151.609 62.7721 151.936 63.0042 151.876C63.205 151.824 63.2057 151.481 63.447 151.463C63.3879 151.66 63.3291 151.858 63.2698 152.055C63.7392 152.123 64.1314 151.809 64.5022 151.579C64.8557 152.473 65.8661 151.969 66.4156 152.642C66.7063 152.998 66.7199 153.268 67.2738 153.361C67.8406 153.456 68.3356 153.208 68.8173 153.675C68.6646 153.385 68.2842 153.144 68.6622 152.833C68.9194 153.198 69.0522 153.637 69.3488 153.977C69.3898 153.804 69.4307 153.632 69.4716 153.459C70.2448 154.286 71.2183 154.293 72.2088 154.752V154.146C72.918 155.229 72.9558 154.544 73.803 154.102C73.7455 154.42 73.6877 154.738 73.6302 155.056C74.2399 155.01 74.8095 155.733 75.31 155.119C75.6123 155.626 75.9787 155.377 76.4742 155.538C76.7559 155.629 76.9657 155.907 77.2398 156.007C77.6508 156.158 77.7736 156.151 78.1605 156.282C78.5046 156.398 78.7002 156.625 79.1309 156.697C79.4107 156.745 79.6644 156.741 79.9322 156.728C80.0357 156.723 80.0015 156.49 80.2314 156.545C80.5869 156.629 80.8516 157.075 81.1075 157.303C81.4925 156.335 82.5705 157.632 83.0916 157.804C83.1415 157.556 83.1325 157.257 83.3121 157.053C83.523 157.515 83.6035 157.904 84.0412 158.201C84.2938 158.373 84.6648 158.496 84.9566 158.559C85.1411 158.598 85.4762 158.551 85.5921 158.608C85.7899 158.705 85.8627 158.963 86.0624 158.988C86.1799 159.002 86.354 158.693 86.442 158.717C86.8445 158.827 87.068 159.315 87.4745 159.58C88.6839 160.367 90.206 160.443 91.5535 160.616C91.8917 160.659 91.9407 160.567 92.2154 160.765C92.362 160.871 92.2955 161.193 92.4757 161.284C93.155 161.624 93.1554 160.898 93.2978 160.447C93.5225 160.743 93.5612 161.134 93.8685 161.37C94.0363 161.365 94.2043 161.369 94.3719 161.382C94.4664 161.489 94.5285 161.614 94.5574 161.755C94.9642 162.03 95.4252 161.934 95.8454 162.14C95.9832 162.208 96.2273 162.617 96.3971 162.734C96.7009 162.945 97.1708 163.057 97.5179 163.149C98.2459 163.34 99.2898 163.086 99.7229 163.846C100.298 163.229 100.076 163.965 100.466 164.12C100.697 164.211 101.043 163.848 101.299 163.885C101.759 163.949 101.925 164.448 102.073 164.81C102.353 164.748 102.161 163.954 102.153 163.78C102.501 163.739 102.579 164.657 102.639 164.859C103.189 164.594 102.286 163.769 102.878 163.505C102.823 164.207 103.383 164.786 102.383 164.886C102.521 165.309 105.746 165.779 105.97 165.406C106.019 166.096 106.483 165.451 106.654 165.215C106.673 165.618 106.536 166.189 106.988 166.377C107.295 166.504 107.988 166.175 108.108 165.874C108.246 166.334 108.477 166.319 108.763 166.611C108.96 166.811 109.09 167.159 109.296 167.327C109.676 167.636 110.383 167.589 110.826 167.52C111.692 167.385 111.59 167.219 111.898 168.119C111.968 167.777 112.187 167.063 112.568 167.594C112.811 167.932 112.294 168.676 112.145 168.972C112.479 168.789 112.81 168.571 113.19 168.492C113.211 168.609 113.231 168.858 113.175 168.966C113.186 168.944 113.591 169.216 113.741 169.291C113.705 169.273 113.86 168.596 113.856 168.618C114.39 168.948 114.019 169.579 114.493 169.904C114.615 169.989 114.902 169.89 115.05 169.941C115.307 170.031 115.53 170.272 115.759 170.413C115.576 170.168 115.602 169.757 115.615 169.474C115.731 169.538 115.814 169.779 115.932 169.798C115.976 169.805 116.437 169.866 116.434 169.864C116.913 170.2 116.814 170.242 116.403 170.645C116.55 170.876 117.164 170.475 117.331 170.408C117.365 170.499 117.374 170.827 117.44 170.885C117.479 170.983 117.519 171.08 117.559 171.177C117.682 171.085 117.813 171.055 117.954 171.085C118.043 171.116 118.736 171.398 118.783 171.301C118.631 171.252 118.494 171.177 118.371 171.076C118.771 170.716 119.034 170.525 119.403 171.044C119.449 171.11 119.289 171.345 119.337 171.43C119.513 171.748 119.875 172 120.12 172.259C120.222 171.902 119.985 171.007 120.55 171.04C121.001 171.066 121.345 172.159 121.188 172.499C121.368 172.303 122.439 172.108 122.641 172.169C123.213 172.342 123.052 172.871 123.755 172.097C124.235 172.428 123.812 172.553 123.899 172.956C124.025 172.983 124.145 172.951 124.259 172.862C124.174 174.577 125.439 173.267 126.26 173.529C126.583 173.632 126.665 173.998 127.011 174.105C127.194 174.161 127.398 174.027 127.576 174.06C127.719 174.04 127.861 174.014 128.001 173.984C128.18 173.895 128.264 173.995 128.253 174.285C128.54 174.433 128.431 174.491 128.767 174.52C128.983 174.539 129.182 174.314 129.427 174.353C129.851 174.419 129.795 174.744 130.066 174.914C130.31 175.067 130.584 175.062 130.885 175.033C131.037 175.018 131.467 174.821 131.518 174.82C131.839 174.816 131.665 174.747 132.05 175.023C132.35 175.238 132.476 175.377 132.844 175.476C133.266 175.589 134.014 175.836 134.298 175.531C134.682 176.106 134.982 175.684 135.488 175.722C135.747 175.742 135.788 175.843 136.019 175.883C136.392 175.948 136.859 175.892 137.256 176.019C137.882 176.22 137.953 176.322 138.593 176.349C138.709 176.304 138.824 176.258 138.939 176.213C138.974 176.406 139.065 176.563 139.212 176.685C139.57 176.76 139.805 176.579 140.1 176.381C140.321 177.067 141.035 177.127 141.645 177.217C142.631 177.362 143.573 177.442 144.523 177.766C145.326 178.039 146.13 178.346 146.902 178.697C147.581 179.005 148.223 179.466 148.991 179.249C150.733 178.759 152.421 176.971 153.878 175.944C155.604 174.729 157.465 173.727 159.269 172.634C166.448 168.282 174.033 164.6 181.111 160.087C184.976 157.623 188.562 154.695 192.712 152.701C192.122 155.142 191.116 157.621 191.298 160.177C191.371 161.207 191.674 162.424 192.473 163.143C193.461 164.032 194.561 163.466 195.505 162.831C197.529 161.47 198.879 159.484 200.394 157.62C202.186 155.414 203.575 153.044 204.891 150.53C205.206 150.972 204.967 151.713 204.971 152.204C204.977 152.83 205.146 153.434 205.436 153.992C206.186 155.435 207.612 155.785 208.901 154.796C211.381 152.894 212.82 149.507 214.149 146.779C214.907 148.189 215.983 149.964 217.803 148.957C219.305 148.126 220.188 146.269 220.647 144.696C221.988 140.105 221.563 135.428 221.769 130.722Z" fill="black"/>
<path fill-rule="evenodd" clip-rule="evenodd" d="M219.492 103.145C219.32 102.729 219.245 102.797 219.56 102.394C219.806 102.635 219.609 102.835 219.492 103.145ZM227.082 128.326C226.601 126.957 226.898 125.47 226.606 124.065C226.471 123.421 226.259 122.795 226.183 122.139C226.149 121.848 225.89 120.538 226.066 120.331C225.523 120.002 225.521 119.759 225.396 119.114C225.589 118.908 225.565 118.733 225.323 118.588C225.164 118.396 225.006 118.204 224.847 118.013C225.54 118.352 225.13 117.484 225.059 116.984C225.003 116.589 224.966 116.177 224.834 115.798C224.672 115.333 224.312 115.098 225.061 115.098C224.815 114.817 224.446 114.527 224.323 114.184C224.146 113.689 224.438 113.035 224.077 112.599C223.876 112.355 222.84 112.26 223.022 111.733C223.114 111.465 223.534 111.665 223.664 111.477C224.175 110.739 222.667 110.433 222.593 110.119C222.497 109.711 223.042 109.62 223.075 109.239C223.108 108.867 222.528 108.254 222.375 107.921C222.166 107.972 221.938 108.302 221.699 108.144C221.653 108.114 221.722 106.824 221.667 106.653C221.614 106.484 221.505 106.037 221.466 105.955C221.311 105.626 220.869 105.466 220.798 105.079C220.756 104.847 221.663 104.497 220.623 104.486C220.997 103.827 220.312 103.427 220.063 102.865C219.743 102.141 219.554 101.36 219.225 100.633C218.905 99.926 218.548 99.2553 218.087 98.6303C217.669 98.0644 217.489 97.5202 217.155 96.9226C217.088 96.8701 217.022 96.8176 216.955 96.7651C216.677 96.8053 216.587 96.6786 216.687 96.3849C216.474 96.0696 216.316 95.7332 216.129 95.404C215.91 95.0214 215.616 94.7095 215.391 94.3374C215.092 93.8441 215.004 93.2878 214.666 92.793C214.25 92.1842 213.783 91.6474 213.398 91.0159C212.915 90.2246 212.381 89.7329 211.773 89.1202C211.484 88.8284 211.45 88.0995 211.096 87.6852C210.71 87.2339 210.329 87.1116 210.062 86.5192C209.714 85.7486 209.204 85.3806 208.707 84.7145C208.297 84.165 208.097 83.5335 207.645 83.002C207.257 82.5454 206.816 82.1283 206.402 81.6954C205.878 81.1487 205.492 80.4844 204.947 79.9646C205.026 80.0396 204.473 79.6017 204.501 79.6157C204.379 79.5534 203.984 79.5033 204.042 79.5372C203.22 79.054 202.19 77.2854 200.953 78.2225C200.302 78.7153 200.614 79.6192 201.068 80.1101C201.263 80.321 202.277 81.3605 202.496 80.9221C202.733 81.2572 203.461 82.8773 204.067 82.4131C204.005 82.9667 204.326 82.783 204.537 83.1573C204.677 83.4042 204.609 83.5254 204.71 83.9109C204.99 84.9705 206.056 86.0054 206.623 86.9294C208.036 89.2291 209.595 91.4103 211.009 93.7126C212.357 95.9069 213.866 97.989 215.159 100.213C216.63 102.742 218.462 105.129 219.57 107.855C219.607 107.946 219.915 108.091 219.991 108.229C220.125 108.468 220.096 108.881 220.182 109.152C220.479 110.091 220.961 111.015 221.51 111.793C221.992 112.475 222.027 113.403 222.358 114.203C222.826 115.331 223.319 116.447 223.773 117.581C224.48 119.346 224.959 121.037 225.448 122.879C225.764 124.073 226.016 125.267 226.117 126.5C226.209 127.633 226.232 128.814 226.652 129.888C226.938 129.446 227.275 128.873 227.082 128.326Z" fill="black"/>
<path fill-rule="evenodd" clip-rule="evenodd" d="M65.396 152.621C64.8881 152.518 64.4101 152.381 64.3025 151.798C64.2288 152.073 64.1553 152.348 64.0816 152.623C64.7 152.763 65.3186 152.903 65.937 153.043C65.7926 152.789 65.6872 152.679 65.396 152.621Z" fill="black"/>
<path fill-rule="evenodd" clip-rule="evenodd" d="M66.7591 56.9086C66.7976 56.7441 66.8474 56.5829 66.9089 56.4256C66.9507 56.5789 67.1554 56.9105 67.0362 57.0551C66.8844 57.2387 66.7308 57.1348 66.7591 56.9086ZM69.2491 52.1709C69.4158 52.2444 69.7765 52.2586 69.9834 52.3207C69.4466 52.7825 69.3521 52.6467 68.658 52.5931C68.6272 52.1258 68.8171 51.9808 69.2491 52.1709ZM64.5961 63.738C64.668 63.7399 64.7402 63.7417 64.8126 63.7434C64.817 63.54 64.8117 63.3368 64.7964 63.1338C65.5284 63.2937 65.1141 62.0146 64.8842 61.7495C65.5982 61.7734 65.946 59.5128 66.1722 59.0773C66.373 58.6905 66.6005 58.5409 66.7472 58.0693C66.8757 57.6565 67.0146 57.285 67.1998 56.8946C67.6255 55.9968 68.184 55.1815 68.081 54.1353C68.4417 54.9204 68.7589 54.1366 68.9877 53.7612C69.3563 53.1564 70.2556 52.3846 70.3512 51.6662C70.4356 51.0338 69.9657 51.0004 70.2431 50.4139C70.5235 49.8202 70.7541 49.8797 71.2454 49.6898C71.5722 49.5634 71.6372 49.717 71.8677 49.3044C72.0172 49.0373 71.9644 48.8382 72.1558 48.6193C72.2348 48.688 72.3247 48.7164 72.4253 48.7046C72.5807 48.4996 72.6826 48.2712 72.7309 48.0195C72.8576 47.6795 72.9188 47.3674 73.1096 47.0436C73.2905 46.7369 73.6116 45.9164 73.7818 45.7685C73.9625 45.6114 74.9873 45.6913 74.983 45.697C75.4062 45.1645 74.6295 44.6341 75.7051 44.7463C75.4927 44.3508 76.2388 43.8599 76.4554 43.6398C76.9963 43.0906 77.0394 42.8364 77.1536 42.1456C77.2116 41.7934 76.8332 41.8341 77.3404 41.7538C77.5502 41.7207 77.7515 41.9889 77.9028 41.9496C78.5711 41.7763 77.872 41.8093 78.0564 41.537C78.1146 41.4506 78.4119 41.1019 78.409 41.1056C78.3946 41.1231 78.476 40.8022 78.5433 40.7197C78.6711 40.7088 78.7969 40.6865 78.9205 40.6528C78.9833 40.5259 79.0388 40.396 79.0869 40.263C79.5706 39.8596 80.2942 39.6791 80.6287 39.236C80.845 38.9494 80.7803 38.6687 81.0598 38.3831C81.3261 38.1109 81.6783 38.308 81.731 37.6933C81.7981 36.9113 80.9581 36.5633 80.6145 37.3525C79.6826 36.2047 75.7875 40.4159 75.3376 40.9661C73.383 43.3544 71.462 45.8017 69.8587 48.4427C68.2967 51.0161 67.0146 53.7238 66.0125 56.5621C65.5292 57.9306 65.235 59.2929 64.9399 60.7085C64.8408 61.1825 64.1004 63.295 64.4086 63.7677C64.4709 63.7579 64.5335 63.7478 64.5961 63.738Z" fill="black"/>
<path fill-rule="evenodd" clip-rule="evenodd" d="M218.444 122.306C218.773 122.086 218.773 122.086 218.831 121.672C218.39 121.752 218.39 121.752 218.444 122.306Z" fill="black"/>
<path fill-rule="evenodd" clip-rule="evenodd" d="M56.1673 150.224C56.1715 150.224 56.1747 150.225 56.1772 150.228C56.17 150.218 56.1438 150.191 56.1673 150.224Z" fill="black"/>
<path fill-rule="evenodd" clip-rule="evenodd" d="M55.9463 150.447C56.048 150.666 56.2114 150.721 56.4367 150.61C56.5255 150.737 55.6663 149.818 55.9463 150.447Z" fill="black"/>
<path fill-rule="evenodd" clip-rule="evenodd" d="M70.8051 50.1069C70.2895 51.1178 70.9352 50.3826 70.9022 50.7109C70.9238 50.4952 71.0133 50.1879 70.8051 50.1069Z" fill="black"/>
<path fill-rule="evenodd" clip-rule="evenodd" d="M154.628 65.7524C154.851 67.565 157.331 66.7077 157.889 65.6113C158.295 64.8131 159.321 61.659 158.217 60.9926C157.399 60.4987 157.224 62.6276 157.023 63.1032C156.685 63.8996 156.421 63.3352 155.669 63.5396C154.84 63.7651 154.536 65.0008 154.628 65.7524Z" fill="black"/>
<path fill-rule="evenodd" clip-rule="evenodd" d="M151.919 62.4346C152.805 62.6315 153.674 62.53 154.303 61.83C154.652 61.4424 155.116 60.6735 154.488 60.2983C153.919 59.9586 153.274 60.7542 152.675 60.5897C151.86 60.3659 152.28 59.4922 152 58.9152C150.973 59.5067 150.4 62.0973 151.919 62.4346Z" fill="black"/>
<path fill-rule="evenodd" clip-rule="evenodd" d="M152.838 67.0116C151.983 67.0098 151.976 68.0607 152.422 68.5111C152.849 68.9421 153.929 69.3783 154.507 69.0431C155.649 68.3816 153.529 67.0798 152.838 67.0116Z" fill="black"/>
<path fill-rule="evenodd" clip-rule="evenodd" d="M103.123 108.801C103.305 108.889 103.843 109.345 104.07 109.14C103.75 108.817 103.43 108.495 103.11 108.173C102.933 108.367 102.812 108.65 103.123 108.801Z" fill="black"/>
<path fill-rule="evenodd" clip-rule="evenodd" d="M99.0848 62.6969C98.9941 62.7647 98.9031 62.8323 98.8123 62.8999C99.1188 63.1552 99.1111 63.2311 99.42 62.9894C99.3283 62.8686 99.2168 62.7713 99.0848 62.6969Z" fill="black"/>
<path fill-rule="evenodd" clip-rule="evenodd" d="M156.995 122.835C156.823 122.526 156.498 123.095 156.279 123.187C155.922 123.338 155.629 122.542 155.732 123.496C154.925 123.126 154.435 123.974 153.914 124.416C153.179 125.039 152.28 125.378 151.789 126.264C154.098 126.804 156.634 124.814 158.356 123.506C158.637 123.293 160.04 122.216 159.089 122.112C158.7 122.069 157.283 123.353 156.995 122.835Z" fill="black"/>
<path fill-rule="evenodd" clip-rule="evenodd" d="M156.31 120.966C156.762 120.61 155.787 120.577 155.633 120.54C155.646 120.823 155.659 121.106 155.672 121.389C155.891 121.257 156.103 121.116 156.31 120.966Z" fill="black"/>
<path fill-rule="evenodd" clip-rule="evenodd" d="M154.611 122.154C154.746 122.069 155.123 121.806 154.867 121.609C154.635 121.757 154.47 121.997 154.433 122.272C154.492 122.233 154.552 122.193 154.611 122.154Z" fill="black"/>
<path fill-rule="evenodd" clip-rule="evenodd" d="M117.224 99.1833C116.935 99.2967 116.806 99.4758 116.836 99.7213C117.28 99.6305 117.195 99.2111 117.224 99.1833Z" fill="black"/>
<path d="M41.9572 201.152L37.5652 218H32.5972L29.9092 206.912L27.1252 218H22.1572L17.8852 201.152H22.2772L24.7012 213.416L27.7012 201.152H32.2132L35.0932 213.416L37.5412 201.152H41.9572ZM50.1113 218.192C48.7993 218.192 47.6153 217.912 46.5593 217.352C45.5193 216.792 44.6953 215.992 44.0873 214.952C43.4953 213.912 43.1993 212.696 43.1993 211.304C43.1993 209.928 43.5033 208.72 44.1113 207.68C44.7193 206.624 45.5513 205.816 46.6073 205.256C47.6633 204.696 48.8473 204.416 50.1593 204.416C51.4713 204.416 52.6553 204.696 53.7113 205.256C54.7673 205.816 55.5993 206.624 56.2073 207.68C56.8153 208.72 57.1193 209.928 57.1193 211.304C57.1193 212.68 56.8073 213.896 56.1833 214.952C55.5753 215.992 54.7353 216.792 53.6633 217.352C52.6073 217.912 51.4233 218.192 50.1113 218.192ZM50.1113 214.64C50.8953 214.64 51.5593 214.352 52.1033 213.776C52.6633 213.2 52.9433 212.376 52.9433 211.304C52.9433 210.232 52.6713 209.408 52.1273 208.832C51.5993 208.256 50.9433 207.968 50.1593 207.968C49.3593 207.968 48.6953 208.256 48.1673 208.832C47.6393 209.392 47.3753 210.216 47.3753 211.304C47.3753 212.376 47.6313 213.2 48.1433 213.776C48.6713 214.352 49.3273 214.64 50.1113 214.64ZM78.5206 204.608L74.8966 218H70.3606L68.2486 209.312L66.0646 218H61.5526L57.9046 204.608H62.0086L63.9046 214.184L66.1606 204.608H70.5046L72.7846 214.136L74.6566 204.608H78.5206ZM84.5017 214.208L81.8377 221.096H79.2217L80.6137 214.208H84.5017ZM97.5102 218.192C96.3422 218.192 95.3022 217.992 94.3902 217.592C93.4782 217.192 92.7582 216.648 92.2302 215.96C91.7022 215.256 91.4062 214.472 91.3422 213.608H95.3982C95.4462 214.072 95.6622 214.448 96.0462 214.736C96.4302 215.024 96.9022 215.168 97.4622 215.168C97.9742 215.168 98.3662 215.072 98.6382 214.88C98.9262 214.672 99.0702 214.408 99.0702 214.088C99.0702 213.704 98.8702 213.424 98.4702 213.248C98.0702 213.056 97.4222 212.848 96.5262 212.624C95.5662 212.4 94.7662 212.168 94.1262 211.928C93.4862 211.672 92.9342 211.28 92.4702 210.752C92.0062 210.208 91.7742 209.48 91.7742 208.568C91.7742 207.8 91.9822 207.104 92.3982 206.48C92.8302 205.84 93.4542 205.336 94.2702 204.968C95.1022 204.6 96.0862 204.416 97.2222 204.416C98.9022 204.416 100.222 204.832 101.182 205.664C102.158 206.496 102.718 207.6 102.862 208.976H99.0702C99.0062 208.512 98.7982 208.144 98.4462 207.872C98.1102 207.6 97.6622 207.464 97.1022 207.464C96.6222 207.464 96.2542 207.56 95.9982 207.752C95.7422 207.928 95.6142 208.176 95.6142 208.496C95.6142 208.88 95.8142 209.168 96.2142 209.36C96.6302 209.552 97.2702 209.744 98.1342 209.936C99.1262 210.192 99.9342 210.448 100.558 210.704C101.182 210.944 101.726 211.344 102.19 211.904C102.67 212.448 102.918 213.184 102.934 214.112C102.934 214.896 102.71 215.6 102.262 216.224C101.83 216.832 101.198 217.312 100.366 217.664C99.5502 218.016 98.5982 218.192 97.5102 218.192ZM118.669 204.608V218H114.565V216.176C114.149 216.768 113.581 217.248 112.861 217.616C112.157 217.968 111.373 218.144 110.509 218.144C109.485 218.144 108.581 217.92 107.797 217.472C107.013 217.008 106.405 216.344 105.973 215.48C105.541 214.616 105.325 213.6 105.325 212.432V204.608H109.405V211.88C109.405 212.776 109.637 213.472 110.101 213.968C110.565 214.464 111.189 214.712 111.973 214.712C112.773 214.712 113.405 214.464 113.869 213.968C114.333 213.472 114.565 212.776 114.565 211.88V204.608H118.669ZM120.801 211.304C120.801 209.912 121.081 208.696 121.641 207.656C122.217 206.616 123.009 205.816 124.017 205.256C125.041 204.696 126.209 204.416 127.521 204.416C129.201 204.416 130.601 204.856 131.721 205.736C132.857 206.616 133.601 207.856 133.953 209.456H129.585C129.217 208.432 128.505 207.92 127.449 207.92C126.697 207.92 126.097 208.216 125.649 208.808C125.201 209.384 124.977 210.216 124.977 211.304C124.977 212.392 125.201 213.232 125.649 213.824C126.097 214.4 126.697 214.688 127.449 214.688C128.505 214.688 129.217 214.176 129.585 213.152H133.953C133.601 214.72 132.857 215.952 131.721 216.848C130.585 217.744 129.185 218.192 127.521 218.192C126.209 218.192 125.041 217.912 124.017 217.352C123.009 216.792 122.217 215.992 121.641 214.952C121.081 213.912 120.801 212.696 120.801 211.304ZM144.38 204.464C145.916 204.464 147.148 204.976 148.076 206C149.004 207.008 149.468 208.4 149.468 210.176V218H145.388V210.728C145.388 209.832 145.156 209.136 144.692 208.64C144.228 208.144 143.604 207.896 142.82 207.896C142.036 207.896 141.412 208.144 140.948 208.64C140.484 209.136 140.252 209.832 140.252 210.728V218H136.148V200.24H140.252V206.408C140.668 205.816 141.236 205.344 141.956 204.992C142.676 204.64 143.484 204.464 144.38 204.464ZM170.03 211.088C170.03 211.472 170.006 211.872 169.958 212.288H160.67C160.734 213.12 160.998 213.76 161.462 214.208C161.942 214.64 162.526 214.856 163.214 214.856C164.238 214.856 164.95 214.424 165.35 213.56H169.718C169.494 214.44 169.086 215.232 168.494 215.936C167.918 216.64 167.19 217.192 166.31 217.592C165.43 217.992 164.446 218.192 163.358 218.192C162.046 218.192 160.878 217.912 159.854 217.352C158.83 216.792 158.03 215.992 157.454 214.952C156.878 213.912 156.59 212.696 156.59 211.304C156.59 209.912 156.87 208.696 157.43 207.656C158.006 206.616 158.806 205.816 159.83 205.256C160.854 204.696 162.03 204.416 163.358 204.416C164.654 204.416 165.806 204.688 166.814 205.232C167.822 205.776 168.606 206.552 169.166 207.56C169.742 208.568 170.03 209.744 170.03 211.088ZM165.83 210.008C165.83 209.304 165.59 208.744 165.11 208.328C164.63 207.912 164.03 207.704 163.31 207.704C162.622 207.704 162.038 207.904 161.558 208.304C161.094 208.704 160.806 209.272 160.694 210.008H165.83ZM189.283 204.464C190.947 204.464 192.267 204.968 193.243 205.976C194.235 206.984 194.731 208.384 194.731 210.176V218H190.651V210.728C190.651 209.864 190.419 209.2 189.955 208.736C189.507 208.256 188.883 208.016 188.083 208.016C187.283 208.016 186.651 208.256 186.187 208.736C185.739 209.2 185.515 209.864 185.515 210.728V218H181.435V210.728C181.435 209.864 181.203 209.2 180.739 208.736C180.291 208.256 179.667 208.016 178.867 208.016C178.067 208.016 177.435 208.256 176.971 208.736C176.523 209.2 176.299 209.864 176.299 210.728V218H172.195V204.608H176.299V206.288C176.715 205.728 177.259 205.288 177.931 204.968C178.603 204.632 179.363 204.464 180.211 204.464C181.219 204.464 182.115 204.68 182.899 205.112C183.699 205.544 184.323 206.16 184.771 206.96C185.235 206.224 185.867 205.624 186.667 205.16C187.467 204.696 188.339 204.464 189.283 204.464ZM201.705 206.504C202.105 205.88 202.657 205.376 203.361 204.992C204.065 204.608 204.889 204.416 205.833 204.416C206.937 204.416 207.937 204.696 208.833 205.256C209.729 205.816 210.433 206.616 210.945 207.656C211.473 208.696 211.737 209.904 211.737 211.28C211.737 212.656 211.473 213.872 210.945 214.928C210.433 215.968 209.729 216.776 208.833 217.352C207.937 217.912 206.937 218.192 205.833 218.192C204.905 218.192 204.081 218 203.361 217.616C202.657 217.232 202.105 216.736 201.705 216.128V224.384H197.601V204.608H201.705V206.504ZM207.561 211.28C207.561 210.256 207.273 209.456 206.697 208.88C206.137 208.288 205.441 207.992 204.609 207.992C203.793 207.992 203.097 208.288 202.521 208.88C201.961 209.472 201.681 210.28 201.681 211.304C201.681 212.328 201.961 213.136 202.521 213.728C203.097 214.32 203.793 214.616 204.609 214.616C205.425 214.616 206.121 214.32 206.697 213.728C207.273 213.12 207.561 212.304 207.561 211.28ZM221.354 214.52V218H219.266C217.778 218 216.618 217.64 215.786 216.92C214.954 216.184 214.538 214.992 214.538 213.344V208.016H212.906V204.608H214.538V201.344H218.642V204.608H221.33V208.016H218.642V213.392C218.642 213.792 218.738 214.08 218.93 214.256C219.122 214.432 219.442 214.52 219.89 214.52H221.354ZM237.32 204.608L228.92 224.36H224.504L227.576 217.544L222.128 204.608H226.712L229.808 212.984L232.88 204.608H237.32ZM244.204 200.552L243.724 212.048H240.244L239.764 200.552H244.204ZM242.044 218.192C241.324 218.192 240.732 217.984 240.268 217.568C239.82 217.136 239.596 216.608 239.596 215.984C239.596 215.344 239.82 214.808 240.268 214.376C240.732 213.944 241.324 213.728 242.044 213.728C242.748 213.728 243.324 213.944 243.772 214.376C244.236 214.808 244.468 215.344 244.468 215.984C244.468 216.608 244.236 217.136 243.772 217.568C243.324 217.984 242.748 218.192 242.044 218.192Z" fill="black"/>
</svg>
