
<svg width="272" height="312" viewBox="0 0 272 312" fill="none" xmlns="http://www.w3.org/2000/svg">
<path fill-rule="evenodd" clip-rule="evenodd" d="M138.635 86.2841C148.56 85.4946 158.029 89.1932 165.961 94.9578C176.185 102.388 184.851 113.013 190.716 124.209C191.34 124.69 191.955 125.183 192.565 125.68C195.83 128.339 199.019 131.148 201.846 134.275C203.425 136.02 207.564 140.264 205.767 142.94C205.386 143.509 204.759 143.835 204.132 144.06C202.373 144.69 200.539 145.009 198.805 145.746C196.663 146.655 194.443 147.928 193.071 149.87C192.68 150.422 192.579 151.073 192.054 151.317C191.498 151.575 190.449 151.474 189.841 151.534C188.619 151.654 187.397 151.774 186.174 151.893C183.302 152.175 180.301 152.206 177.491 152.899L164.568 156.09C161.925 156.743 158.887 157.103 156.38 158.175C152.64 159.776 149.071 162.12 145.492 164.052C143.761 164.986 142.03 165.92 140.299 166.854C139.454 167.31 138.876 167.316 137.885 167.392L130.737 167.942C129.584 168.031 129.031 168.495 128.879 167.341L127.218 154.656L126.34 147.948C126.287 147.549 126.303 145.572 125.976 145.334C125.771 145.184 124.568 145.506 124.345 145.534L121.101 145.931C118.764 146.217 116.427 146.503 114.091 146.789C113.901 146.812 112.851 146.8 112.733 146.955C112.594 147.137 112.857 148.18 112.881 148.405C113.129 150.76 113.377 153.116 113.625 155.471C113.654 155.744 113.985 157.011 113.81 157.235C113.689 157.391 112.809 157.41 112.63 157.439C110.376 157.807 108.122 158.175 105.868 158.543C104.254 158.807 102.144 158.793 100.618 159.4C99.7417 159.749 98.8747 160.64 98.1176 161.197L87.1245 169.286C85.4571 170.513 83.21 170.201 81.1795 170.355L57.7575 172.14C57.7769 171.41 57.7966 170.681 57.8159 169.951C57.919 166.088 58.0218 162.224 58.1249 158.361L58.2598 153.307C58.2683 152.988 58.1405 152.052 58.3496 151.815C58.6274 151.502 59.8692 151.366 60.2546 151.251C61.5474 150.869 62.84 150.486 64.1325 150.104C67.9248 148.981 71.7166 147.859 75.5087 146.736C79.2567 145.627 83.0041 144.518 86.7518 143.408C88.0342 143.029 89.3164 142.649 90.5986 142.27C90.8948 142.182 91.9294 142.065 92.1352 141.815C92.3947 141.499 92.2787 140.153 92.3201 139.753C92.5236 137.801 92.8136 135.857 93.1669 133.927C95.7148 120.004 101.67 105.861 112.712 96.572C120.01 90.4318 129.166 87.0371 138.635 86.2841ZM140.385 114.206C139.403 113.052 137.752 111.17 136.016 111.482C134.605 111.736 133.837 113.485 133.345 114.648C131.369 119.321 130.755 124.677 130.141 129.671C129.755 132.805 129.445 135.952 129.246 139.103C136.287 138.561 143.328 138.02 150.368 137.478C150.036 135.235 149.77 132.971 149.37 130.738C149.169 129.619 148.615 128.611 148.14 127.578C146.02 122.954 143.705 118.103 140.385 114.206Z" fill="#6C63FF"/>
<path fill-rule="evenodd" clip-rule="evenodd" d="M238.121 23.1096L238.293 23.1126C242.965 23.2369 247.085 26.2435 250.281 29.4254C251.861 30.9987 253.302 32.8493 253.98 35.0027C254.764 37.4903 254.506 40.2265 253.91 42.7231C252.594 48.2404 250.985 53.7861 249.176 59.1632C248.286 61.8083 246.996 64.4018 246.324 67.1091C245.77 69.3395 248.102 70.9641 248.191 73.2562C248.282 75.5684 246.726 77.7407 244.588 78.5671C243.677 78.919 242.576 78.625 241.737 78.9857C240.969 79.3153 240.7 80.2883 240.553 81.0353C240.352 82.0539 240.388 83.0718 240.445 84.0995C240.48 84.7282 240.323 85.7544 240.63 86.3151C240.841 86.7002 241.225 86.8262 241.555 87.0897C242.007 87.4493 242.307 87.8969 242.703 88.3102C243.355 88.9923 243.983 89.3618 244.16 90.3568C244.255 90.1308 244.349 89.9047 244.443 89.679C244.929 90.5685 245.29 90.9951 244.827 91.8396C246.262 91.6988 247.112 94.3014 247.488 95.2884C248.177 97.0947 248.65 98.9716 249.34 100.779C250.286 103.257 251.53 105.702 252.133 108.295C252.64 110.474 253.042 112.712 253.493 114.907C253.746 116.142 253.968 117.397 254.432 118.575C254.613 119.033 254.948 119.341 255.156 119.748C255.44 120.306 255.329 120.601 255.342 121.212C255.366 122.302 256.054 123.009 256.27 124.068C256.501 125.199 256.689 126.342 256.922 127.475C257.392 129.758 258.261 132.037 258.47 134.349C258.713 137.034 259.235 139.686 259.497 142.371C259.726 144.718 259.337 147.237 259.827 149.507C260.261 151.522 259.723 153.364 259.531 155.364C259.482 155.872 260.264 158.896 259.007 158.315C259.243 159.028 259.574 159.368 259.592 160.15C259.609 160.882 259.42 161.634 259.266 162.343C258.968 163.713 258.77 165.207 258.187 166.491C257.528 167.944 256.524 168.118 255.159 168.616C254.234 168.953 252.57 170.157 251.842 168.87C251.407 170.192 250.56 169.278 249.609 169.204C249.615 169.204 249.065 169.408 248.962 169.422C248.628 169.467 248.233 169.309 247.9 169.281C247.071 169.213 246.258 169.323 245.447 169.491C243.578 169.879 241.771 170.414 239.874 170.684C236.17 171.211 232.54 170.962 228.831 171.193C221.571 171.644 214.191 171.265 206.926 171.07C206.146 171.049 205.306 171.158 204.537 171.038C203.707 170.909 203.526 170.516 202.88 170.123C201.805 169.47 200.613 170.105 199.499 170.344C196.226 171.044 192.809 171.096 189.51 171.774C182.808 173.15 176.634 175.866 170.214 178.157C167.431 179.15 164.165 180.758 161.164 180.828C157.527 180.907 158.386 177.325 159.054 175.022C156.953 175.58 153.653 178.129 151.517 176.649C148.972 174.887 152.211 171.956 152.363 169.884C147.814 170.829 142.653 172.9 138.035 171.216C137.147 170.892 136.374 170.208 135.42 170.096C134.428 169.981 133.38 170.331 132.378 170.325C130.094 170.31 127.876 170.006 125.593 170.288C120.503 170.915 115.485 171.258 110.354 171.393C105.188 171.529 100.022 171.835 94.8533 171.822C92.23 171.816 89.5581 171.505 86.9401 171.644C85.9121 171.699 83.6997 172.445 82.9775 171.401C82.2523 172.27 81.6364 171.689 80.7061 171.786C80.8785 171.768 80.2216 172.148 80.1228 172.184C79.6338 172.366 79.1767 172.311 78.6661 172.305C77.3061 172.292 76.0357 172.928 74.6826 172.866C74.3404 172.851 74.0817 172.751 73.7914 172.634C73.7226 172.606 73.7391 172.31 73.6288 172.285C72.9669 172.137 73.138 172.543 72.7177 172.747C72.2518 172.973 71.5625 172.607 71.8276 173.304C70.5635 173.248 69.3658 173.674 68.2157 172.925C68.7594 174.126 66.8599 173.128 66.3635 173.108C65.5384 173.075 64.8159 173.488 63.993 173.583C63.0062 173.696 62.0146 173.239 61.0491 173.518C60.2926 173.737 60.0336 174.263 59.2463 173.994C58.5775 173.766 58.1596 173.269 57.835 172.726C57.3872 171.978 57.3298 171.643 56.2498 171.63C55.4489 171.62 54.6438 171.793 53.8353 171.791C52.9088 171.789 51.8906 171.691 51.0449 172.131C50.1338 172.606 49.5985 173.328 48.5881 173.7C44.0443 175.37 39.0564 174.928 34.3155 174.9C32.3154 174.888 30.8475 175.072 30.286 172.79C29.8116 170.862 29.6214 168.847 29.1688 166.903C28.6142 164.522 28.0046 162.312 26.7739 160.183C25.5803 158.119 24.576 155.986 23.5366 153.841C21.3749 149.381 18.3659 145.586 15.0111 141.961C13.7366 140.584 12.2759 139.049 12.2166 137.066C12.1731 135.354 12.9275 133.58 13.917 132.215C14.8004 130.998 16.2561 129.624 17.9027 129.908C18.8943 130.079 19.5442 130.879 20.2843 131.479C21.0931 132.135 21.9742 132.581 22.949 132.939C25.2222 133.773 27.1285 134.685 29.0971 136.124C31.089 137.581 32.951 139.212 34.6736 140.978C37.9804 144.369 41.3687 147.891 43.2687 152.281C44.0175 154.011 44.4959 155.679 45.0064 157.473C45.5079 159.234 46.8732 158.749 48.4085 158.496C50.2796 158.187 52.16 158.021 54.0435 157.826C54.7525 157.752 55.752 157.731 56.1789 157.061C56.6496 156.322 56.1103 155.365 56.0676 154.599C56.0447 154.189 56.1805 153.887 56.2145 153.488C56.2535 153.034 56.1194 152.62 56.1188 152.168C56.1183 151.195 56.5733 150.329 57.3296 149.741C58.7445 148.638 60.8084 147.981 62.4837 147.375C64.771 146.546 67.222 146.139 69.5775 145.548C72.2298 144.883 74.898 144.283 77.5646 143.678C80.1847 143.084 82.8009 142.474 85.4492 142.016C87.0025 141.748 88.6876 141.846 90.1935 141.356C91.7939 140.834 91.5285 139.224 91.5237 137.797C91.516 135.441 91.8077 133.016 92.1527 130.686C92.8869 125.735 94.6358 120.889 96.2255 116.156C97.7571 111.599 99.6545 107.225 102.787 103.526C105.836 99.9255 109.578 96.667 113.46 93.9914C117.505 91.2034 122.006 89.1892 126.229 86.7002C125.306 85.9945 124.205 85.3923 123.675 84.3054C123.076 83.0785 123.33 81.6114 123.355 80.3C123.384 78.82 123.429 77.5208 123.958 76.1108C124.247 75.3387 125.365 73.874 125.194 73.0344C124.907 71.6244 121.823 70.5946 120.687 70.0145C118.905 69.1045 117.121 68.1801 115.479 67.0312C113.904 65.9292 112.422 64.6026 111.467 62.9109C111.196 62.4309 110.974 61.9267 110.801 61.4035C110.608 60.8196 110.743 60.6207 110.159 60.5779C109.228 60.5094 107.831 61.4444 107.046 61.8574C102.999 63.9869 98.5548 66.8527 93.7799 66.6626C92.0475 66.5938 90.1 66.0495 89.4874 64.2427C88.681 61.864 90.3648 59.4067 91.8422 57.6887C88.9604 58.1416 83.6463 59.5571 81.3723 56.9858C79.8569 55.2726 80.9999 52.5531 82.2707 51.0674C83.9497 49.105 86.3432 47.9102 88.5543 46.6615C85.8412 45.6272 82.8378 44.9658 80.4519 43.235C78.17 41.5799 78.4521 39.037 80.2543 37.0847C82.1812 34.9977 85.5504 33.9288 88.2002 33.154C91.4504 32.2036 94.6794 32.2798 98.0286 32.3435C104.04 32.4578 109.203 34.6736 114.133 38.0237C116.74 39.7951 119.31 41.7068 121.622 43.8523C123.79 45.8644 126.104 47.7355 128.24 49.7693C130.311 51.74 131.939 54.1816 134.124 56.0227C135.982 57.588 138.019 59.8068 140.38 60.5017C142.883 61.2385 145.136 62.4572 147.66 63.1826C150.523 64.0053 152.983 65.3809 155.637 66.6934C166.773 72.2014 178.728 75.786 190.468 79.7403C196.474 81.7628 202.519 83.1884 208.65 84.733C211.729 85.5087 214.588 85.9225 217.765 85.7823C218.497 85.7501 219.197 85.731 219.919 85.8327C220.449 85.9071 220.852 86.1074 221.325 85.7907C222.006 85.336 222.262 84.1524 222.667 83.4785C220.406 82.7775 218.193 82.0191 217.161 79.7021C216.511 78.2419 216.174 76.539 215.889 74.9724C215.736 74.1293 215.732 73.2785 215.602 72.4349C215.53 71.969 215.308 71.4821 215.325 71.0061C215.275 71.2709 213.59 70.3999 213.345 70.2381C212.403 69.6137 212.231 68.3549 212.239 67.2924C212.248 66.0923 212.61 64.7732 213.425 63.8631C213.811 63.4323 214.27 63.1093 214.831 62.947C215.228 62.8317 215.753 62.9826 216.104 62.8665C217.661 62.352 217.835 58.5002 218.056 57.0979C218.542 54.0082 219.027 51.0584 220.077 48.0967C221.992 42.6971 224.457 37.4494 227.392 32.5332C229.907 28.3207 232.42 23.1697 237.95 23.1096H238.121ZM190.314 152.82C188.076 153.207 185.931 153.999 183.769 154.67C181.75 155.297 179.703 155.696 177.632 156.104C173.509 156.915 169.296 157.657 165.233 158.715C164.088 159.012 163.487 159.684 162.488 160.152C161.748 160.498 161.054 160.147 160.284 160.118C158.608 160.054 156.749 160.6 155.137 161.008C151.332 161.969 147.956 163.639 144.512 165.485C144.204 165.65 142.121 166.603 142.22 166.998C142.3 167.32 144.948 166.455 145.37 166.391C147.502 166.066 149.585 165.394 151.702 164.976C153.439 164.633 155.196 164.401 156.926 164.02C158.852 163.597 162.953 162.124 163.116 165.304C163.292 168.741 159.497 169.798 157.216 171.401C157.47 171.839 161.13 170.393 161.584 170.247C163.14 169.745 164.584 168.841 166.168 168.456C168.925 167.785 168.591 170.83 167.069 172.185C165.378 173.689 162.582 174.144 161.645 176.459C162.875 176.903 164.482 176.07 165.612 175.656C167.095 175.112 168.584 174.576 170.076 174.058C173.426 172.894 176.608 171.29 179.975 170.181C186.885 167.907 194.188 167.254 201.411 166.85C200.767 164.353 200.063 161.871 199.485 159.358C199.238 158.283 199.011 157.202 198.823 156.114C198.693 155.358 198.804 153.548 198.283 152.951C197.648 152.224 195.996 153.245 195.096 153.226C194.215 153.207 193.572 152.752 192.758 152.608C191.985 152.472 191.07 152.689 190.314 152.82ZM60.4886 167.271C60.4886 168.465 60.2817 169.912 61.8516 170.052C63.1212 170.165 65.6051 170.31 66.6179 169.407C65.6473 168.934 64.5442 168.851 63.5133 168.578C62.4391 168.294 61.4473 167.827 60.4886 167.271ZM86.3993 145.526C85.9217 145.529 85.1161 146.06 84.6804 146.208C83.8833 146.479 83.0731 146.708 82.2593 146.923C79.8139 147.571 76.6655 147.672 75.5427 150.297C74.9822 151.607 74.5936 154.976 72.646 154.963C70.9149 154.952 69.8782 152.454 68.6433 151.565C67.367 150.646 65.3435 151.272 63.967 151.671C62.5682 152.076 60.3975 152.595 60.5545 154.368C60.6674 155.643 60.8974 156.803 60.8865 158.105C60.873 159.762 60.733 161.416 60.733 163.073C61.715 161.727 62.5717 159.023 64.3115 158.481C66.0691 157.935 67.0634 161.006 67.5205 162.183C68.0871 163.641 68.7992 165.295 68.8425 166.875C68.8561 167.371 68.5549 168.735 68.8999 169.143C69.2062 169.505 70.3842 169.242 70.7649 169.203C73.1207 168.957 75.464 168.652 77.8273 168.448C79.0409 168.343 79.3714 168.076 79.2526 166.771C79.1594 165.745 79.1305 164.768 79.259 163.739C79.8328 159.143 82.6627 154.94 87.4477 154.142C90.3311 153.661 93.6984 154.012 96.577 154.474C97.6865 154.652 98.8911 155.19 100.018 155.143C100.851 155.108 100.583 155.061 100.753 154.277C100.873 153.729 101.128 153.262 101.545 152.882C101.874 152.582 102.292 152.751 102.603 152.359C102.827 152.075 102.794 151.688 102.9 151.361C103.107 150.724 103.481 149.865 104.225 149.704C105.423 149.445 106.697 151.049 107.302 151.877C107.927 152.732 108.115 155.287 109.12 155.621C110.28 156.007 111.659 154.487 111.901 153.53C112.226 152.242 111.816 150.849 111.621 149.573C111.607 149.482 111.55 148.635 111.487 148.579C111.318 148.43 110.043 148.472 109.817 148.461C108.706 148.408 107.594 148.405 106.482 148.403C102.124 148.392 97.8552 147.963 93.526 147.506C94.1547 148.531 95.2313 150.214 94.1263 151.297C93.3074 152.098 91.8295 151.696 90.801 151.861C89.348 152.094 86.8987 153.473 85.514 152.465C83.5627 151.044 85.77 148.603 86.4947 147.26C86.6498 146.972 87.2251 145.959 86.9813 145.621C86.7701 145.328 86.7085 145.523 86.3993 145.526ZM53.9011 161.319C52.9048 161.623 51.901 161.915 50.8831 162.141C49.6891 162.405 47.8377 162.148 47.2568 163.462C46.8148 164.461 47.0342 166.072 47.3933 167.067C47.8045 168.206 48.7695 168.499 49.9085 168.586C51.2377 168.687 52.5844 168.473 53.8979 168.291C54.4156 168.22 54.9676 168.09 55.4936 168.089C55.8057 168.089 56.4357 168.374 56.7133 168.141C57.0727 167.838 56.836 166.119 56.8079 165.708C56.738 164.687 56.5444 163.681 56.4915 162.659C56.4538 161.925 56.7306 160.927 55.8702 160.771C55.3344 160.673 54.3668 161.178 53.9011 161.319ZM134.359 141.122C133.615 141.251 132.874 141.343 132.118 141.332C131.652 141.324 131.094 141.166 130.664 141.422C129.869 141.894 129.987 143.137 130.014 143.913C130.047 144.854 130.13 145.81 130.23 146.746C130.326 147.642 130.817 149.117 130.123 149.884C129.634 149.349 129.392 147.597 128.447 147.661C127.409 147.731 127.889 149.391 127.981 149.986C128.49 153.272 129.071 156.56 129.526 159.855C129.742 161.422 130.021 162.977 130.166 164.551C130.263 165.608 130.296 166.56 131.477 166.779C132.571 166.981 133.801 166.635 134.907 166.608C136.046 166.581 136.699 166.504 137.354 165.474C135.785 165.131 133.299 165.341 132.415 163.681C131.385 161.745 133.559 160.003 134.628 158.68C135.449 157.664 137.128 154.285 138.652 156.292C139.201 157.014 139.3 158.117 139.577 158.957C140.028 160.323 140.579 161.669 141.119 163.001C146.062 160.449 151.134 158.149 156.525 156.716C155.15 154.393 153.449 152.301 152.42 149.784C151.268 146.962 150.313 144.063 149.134 141.25C147.265 142.341 145.268 139.697 143.407 139.59C140.468 139.422 137.241 140.623 134.359 141.122ZM105.079 160.145C104.054 160.756 102.547 161.943 102.301 163.17C101.876 165.292 104.297 163.873 105.044 163.409C106.609 162.437 108.142 162.126 109.939 162.725C112.244 163.493 114.367 164.79 116.841 163.805C118.072 163.314 120.801 162.267 120.065 160.387C119.557 159.091 118.071 160.203 117.285 160.667C115.229 161.884 113.526 161.113 111.471 160.235C109.416 159.357 107.102 158.94 105.079 160.145ZM32.097 149.258C31.2744 150.424 32.9468 150.172 33.681 150.286C35.2163 150.523 36.7975 151.747 36.3744 153.48C35.9619 155.169 34.3456 156.225 34.0377 157.998C33.7731 159.52 34.0281 161.447 35.4984 162.283C36.3242 162.753 38.1291 162.946 38.9603 162.407C40.2294 161.583 38.6532 160.357 37.8136 159.95C36.7009 159.409 35.8022 159.116 36.3529 157.696C37.0241 155.965 38.3278 154.637 38.212 152.656C38.1164 151.015 37.2502 149.15 35.6721 148.468C34.5421 147.98 32.8676 148.165 32.097 149.258ZM144.421 144.227C145.843 144.166 145.9 145.885 145.828 146.73C145.73 147.886 145.94 149.118 145.964 150.277C145.996 151.813 146.318 156.841 143.602 156.095C141.856 155.614 140.419 153.941 139.015 152.866C137.724 151.876 134.441 150.689 134.228 148.812C133.988 146.693 136.577 146.296 138.06 145.96C140.177 145.479 142.233 144.321 144.421 144.227ZM137.493 88.3689C135.238 88.5865 132.995 88.9214 130.849 89.6705C129.397 90.1773 127.166 90.5407 126.137 91.7843C125.247 92.8598 125.633 94.393 125.344 95.6638C124.952 97.3829 123.766 97.1478 122.615 96.0744C121.237 94.7893 120.839 93.8588 118.921 95.0648C114.951 97.5611 111.804 101.247 108.655 104.661C111.09 105.398 115.867 105.577 116.675 108.619C117.117 110.282 115.785 111.492 114.587 112.4C113.041 113.572 111.427 114.656 109.915 115.875C108.504 117.013 105.339 121.543 104.444 117.56C103.889 115.095 104.928 112.547 104.487 110.112C102.573 113.199 100.629 116.279 98.873 119.461C97.3789 122.169 96.51 125.066 95.7934 128.061C96.9106 128.134 98.0735 127.567 99.178 127.902C100.242 128.224 100.739 129.231 100.814 130.273C100.941 132.04 100.125 133.839 99.7143 135.536C99.4324 136.702 99.1089 139.347 97.6891 139.726C96.071 140.158 95.0555 137.669 94.334 136.658C93.6471 137.714 93.6586 139.258 93.5581 140.469C93.4893 141.301 93.025 142.857 93.9611 143.317C94.8371 143.747 96.6843 143.208 97.6212 143.168C99.3594 143.094 101.131 142.954 102.87 143.005C104.513 143.053 106.93 143.932 107.572 141.913C108.009 140.538 108.394 135.598 110.724 138.278C111.76 139.468 112.569 140.825 113.57 142.038C114.578 143.261 115.496 143.341 117.002 143.279C119.985 143.157 122.897 143.73 125.815 144.192C128.376 144.598 128.04 142.425 128.002 140.49C127.944 137.491 128.538 134.354 128.863 131.372C129.634 124.279 131.217 117.272 133.653 110.564C131.615 109.87 127.963 112.67 126.457 110.544C125.218 108.796 126.809 106.389 127.457 104.755C128.264 102.717 128.673 100.588 129.99 98.7817C130.406 98.2114 130.998 97.4472 131.803 97.6392C132.493 97.8042 132.768 98.685 133.157 99.182C134.391 100.759 135.966 101.942 137.063 103.663C137.733 104.715 138.255 105.84 138.473 107.075C138.533 107.415 138.457 108.111 138.696 108.396C139.437 109.279 141.773 109.266 142.811 109.808C146.355 111.657 147.601 117.041 148.977 120.435C149.365 121.391 149.749 122.35 149.955 123.363C150.093 124.04 150.086 124.902 150.453 125.509C151.255 126.835 153.747 125.651 154.97 125.446C157.019 125.101 159.058 124.773 161.116 124.484C162.371 124.308 164.198 123.853 165.155 124.965C166.146 126.118 165.576 127.934 165.078 129.171C164.266 131.19 163.228 133.119 162.37 135.12C161.686 136.716 161.346 138.772 160.031 140.001C158.893 141.067 157.009 141.373 155.668 140.505C154.903 140.01 152.939 135.223 152.421 135.437C153.357 139.135 154.728 142.905 156.178 146.434C156.623 147.518 157.387 149.728 158.511 150.316C159.443 150.803 161.558 149.882 162.512 149.704C163.416 149.534 165.201 148.8 166.066 149.338C167.113 149.99 167.241 151.73 167.359 152.81C167.446 153.611 167.288 154.209 168.262 154.169C168.948 154.141 169.641 153.806 170.3 153.638C171.829 153.248 173.416 152.99 174.973 152.738C178.574 152.157 182.173 151.577 185.772 150.981C188.866 150.469 191.919 150.472 194.715 149.004C196.132 148.26 197.757 148.033 199.266 147.536C200.762 147.042 202.254 146.722 203.82 146.537C207.244 146.132 210.576 145.735 213.959 145.042C215.811 144.662 217.659 144.265 219.501 143.839C221.14 143.461 222.725 142.859 224.357 142.488C225.714 142.18 226.829 142.412 227.41 140.871C227.827 139.766 227.73 138.528 227.837 137.372C228.327 132.089 226.477 126.776 226.098 121.522C225.976 119.82 225.938 118.113 225.81 116.413C225.752 115.634 225.787 113.366 224.878 112.946C224.795 113.569 224.86 114.617 224.152 114.926C224.498 114.775 224.044 116.615 224.019 116.8C223.923 117.535 224.164 118.321 224.037 119.042C224.138 119.296 224.093 119.487 223.905 119.615C223.776 119.72 223.683 119.851 223.624 120.01C223.615 120.524 223.766 120.222 223.773 120.399C223.844 122.167 223.545 124 223.673 125.811C223.808 127.725 224.236 129.603 224.56 131.491C224.852 133.186 225.165 134.884 225.409 136.586C225.579 137.781 225.706 139.153 225.063 140.24C223.842 142.305 220.309 142.08 218.25 142.418C214.83 142.98 211.404 143.486 207.971 143.963C206.653 144.146 205.319 144.564 203.986 144.585C202.561 144.608 201.799 144.032 200.901 142.981C199.091 140.863 197.924 138.458 196.417 136.154C195.571 134.86 194.866 134.519 193.441 134.124C192.118 133.757 191.056 132.791 189.979 131.988C187.717 130.3 184.796 128.466 183.311 125.981C181.749 123.366 183.95 122.498 186.058 121.785C185.545 120.421 184.539 119.326 183.71 118.154C182.768 116.82 181.914 115.435 180.9 114.152C178.832 111.536 176.767 108.934 174.76 106.27C173.045 103.993 171.312 101.836 169.123 99.9908C166.924 98.1378 164.476 96.6192 162.062 95.068C160.801 94.2576 158.587 92.187 156.993 92.3987C155.447 92.6043 154.835 95.4842 154.449 96.6947C154.006 98.0836 153.849 100.02 152.816 101.114C151.299 102.721 149.723 100.189 148.998 99.0229C147.672 96.8859 146.315 94.7681 144.99 92.6293C144.387 91.6542 143.515 90.7263 143.157 89.6208C143.152 89.6075 142.985 88.6568 143.154 88.7899L143.166 88.8006L143.154 88.7878C142.776 88.4125 141.376 88.3346 140.853 88.2892L140.805 88.285C139.704 88.1811 138.591 88.2629 137.493 88.3689ZM122.71 148.29C121.442 148.282 120.178 148.43 118.916 148.533C117.807 148.624 116.791 148.454 115.685 148.387C114.316 148.305 113.639 148.449 113.954 149.862C114.183 150.891 114.459 152.262 115.515 152.696C116.942 153.284 118.864 153.205 120.384 153.427C121.501 153.591 122.614 153.738 123.725 153.924C124.463 154.048 124.842 154.178 125.188 153.341C125.477 152.64 125.291 151.703 125.192 150.979C125.116 150.424 125.162 149.446 124.899 148.952C124.507 148.214 123.481 148.295 122.71 148.29ZM181.815 134.191C183.678 135.893 184.931 138.07 186.338 140.135C187.197 141.395 188.877 143.405 187.657 144.933C186.617 146.236 184.2 145.937 182.746 146C180.461 146.099 178.595 147.131 176.421 147.664C170.944 149.005 175.493 139.8 176.251 137.879C176.783 136.531 177.333 135.189 177.976 133.89C178.267 133.305 178.846 131.596 179.568 131.373C180.615 131.048 181.153 133.585 181.815 134.191ZM134.762 114.837C133.892 116.5 133.75 118.803 133.338 120.621C132.076 126.177 131.339 131.836 130.759 137.499C133.643 136.355 136.688 136.276 139.733 135.996C141.94 135.793 143.966 135.56 146.173 135.655C146.549 135.671 147.631 135.862 147.941 135.542C148.357 135.113 147.853 133.915 147.73 133.463C147.061 131.011 146.767 128.476 146.007 126.039C145.232 123.553 144.29 121.071 143.287 118.668C142.554 116.91 141.547 115.196 139.771 114.334C138.215 113.58 135.728 112.991 134.762 114.837ZM122.883 125.651C124.072 127.442 125.577 129.01 126.738 130.818C127.561 132.101 128.524 134.473 126.547 135.289C125.854 135.575 125.034 135.451 124.307 135.464C123.183 135.483 122.07 135.58 120.943 135.553C119.878 135.527 118.823 135.398 117.761 135.343C117.091 135.308 116.25 135.36 115.66 134.975C114.078 133.944 115.222 131.837 115.731 130.49C116.272 129.058 117.002 127.705 117.707 126.348C118.195 125.407 118.926 123.49 120.037 123.107C121.353 122.653 122.335 124.824 122.883 125.651ZM180.51 105.351C183.122 108.388 185.39 111.701 187.526 115.084C188.568 116.736 189.58 118.406 190.59 120.077C191.252 121.17 191.748 122.569 192.553 123.559C194.391 125.818 194.902 120.889 195.172 119.818C196.171 115.868 197.408 111.95 198.509 108.024H197.381C192.885 108.022 188.575 107.956 184.198 106.631C182.959 106.256 181.829 105.442 180.51 105.351ZM171.014 106.117C172.437 107.167 181.54 113.333 177.711 115.713C176.918 116.205 175.623 115.982 174.728 116.053C173.58 116.143 172.415 116.254 171.281 116.457C169.813 116.721 168.388 117.18 166.913 117.413C165.741 117.598 164.188 117.814 163.14 117.084C161.413 115.88 162.461 113.515 163.032 111.983C163.843 109.808 164.61 106.896 166.622 105.6C167.09 105.299 167.664 104.222 168.167 104.123C168.956 103.969 170.437 105.691 171.014 106.117ZM221.238 54.9655C220.551 55.4906 220.52 56.5813 220.342 57.3511C219.743 59.9404 218.908 62.4609 218.412 65.0778C217.928 67.6302 217.776 70.143 218.014 72.7297C218.172 74.4549 218.19 76.5778 219.239 78.047C220.494 79.8049 222.979 79.7148 224.859 80.2355C226.667 80.7364 228.46 82.288 226.488 83.9008C225.787 84.4738 224.866 84.567 224.173 85.119C223.318 85.8003 222.827 87.0211 222.464 88.0193C222.165 88.8412 222.174 88.9982 223.067 89.2885C223.475 89.421 223.888 89.5052 224.317 89.4697C225.294 89.3884 226.166 88.7429 226.985 88.2579C229.072 87.0209 231.483 85.3695 233.975 85.1827C234.772 85.1232 235.677 85.4492 236.452 85.1904C237.173 84.949 236.952 84.8013 237.077 84.1301C237.574 81.4696 237.775 78.8582 239.132 76.4514C239.801 75.2638 241.572 72.8344 242.758 74.6834C243.253 75.4555 243.433 75.8327 244.532 75.5958C245.426 75.4032 246.409 74.6959 246.231 73.6628C246.064 72.6883 244.783 72.0247 244.006 71.5976C242.971 71.0292 242.246 71.0948 241.119 70.9601C238.024 70.5901 240.194 66.063 240.641 64.3644C240.921 63.2968 241.249 61.9169 240.513 60.9529C239.392 59.4867 236.951 59.9688 235.413 60.1768C233.286 60.4645 230.964 60.6177 228.973 59.6525C226.868 58.6314 225.97 56.3284 223.995 55.2088C223.266 54.795 221.987 54.3912 221.238 54.9655ZM230.48 73.6674C231.943 73.6477 231.232 75.7342 230.831 76.4357C229.987 77.9152 228.179 78.4874 226.591 77.9418C225.335 77.5102 223.977 75.6035 225.944 75.2874C226.887 75.136 227.821 75.1976 228.715 74.749C229.224 74.4934 229.882 73.6753 230.48 73.6674ZM226.809 62.5722C227.718 63.1242 226.166 66.6495 225.905 67.363C225.479 68.5275 225.1 69.2792 226.183 70.1768C226.936 70.801 228.421 71.3397 227.712 72.5836C227.056 73.7346 224.805 73.2519 223.889 72.6888C222.559 71.8699 222.951 70.3014 223.244 69.0141C223.436 68.1708 225.19 61.5894 226.809 62.5722ZM83.6371 39.4251C86.441 40.6228 89.3081 41.7047 92.2749 42.4264C94.8677 43.0573 97.4171 43.7375 100.089 43.5893C102.562 43.4525 102.856 45.8811 101.444 47.5631C100.677 48.4768 99.7871 48.454 98.669 48.4893C97.3603 48.5307 96.1716 48.8938 94.9094 49.219C92.9871 49.7141 91.0408 50.1346 89.178 50.8334C88.2167 51.1942 87.2681 51.6184 86.4107 52.1884C85.8718 52.547 84.669 53.193 85.3052 53.694C86.2248 54.4178 88.9543 53.4262 90.0487 53.3609C92.5968 53.2089 95.1399 52.9789 97.6737 52.6599C98.9147 52.5034 100.247 52.3488 101.423 51.8981C102.191 51.6032 103.043 50.8712 103.914 51.0571C105.751 51.4494 104.84 54.2034 104.006 55.0994C102.768 56.4299 100.887 57.0174 99.2874 57.7734C98.1691 58.302 97.0578 58.8617 95.9719 59.4532C95.459 59.7327 93.0683 60.7795 93.144 61.5743C93.2235 62.4096 95.1105 61.9884 95.5772 61.9124C98.6919 61.4058 101.502 60.2015 104.38 58.969C105.64 58.4295 106.917 57.9118 108.151 57.3136C109.012 56.8955 109.859 56.2586 110.81 56.0686C113.054 55.6205 112.956 58.1267 113.84 59.4806C116.466 63.5043 121.539 65.2208 125.487 67.546C126.98 68.4255 128.405 69.4383 129.775 70.4979C130.754 71.2544 131.145 72.2957 132.238 71.298C133.149 70.4663 133.589 69.2466 134.172 68.1888C134.852 66.9574 135.76 65.8702 136.457 64.6489C137.486 62.8445 137.795 61.1235 135.534 60.4594C133.16 59.7624 131.282 58.723 129.264 57.24C124.313 53.6005 120.205 48.9528 115.268 45.2853C110.695 41.8874 105.845 38.6989 100.112 37.7865C94.6775 36.9213 88.7155 37.1344 83.6371 39.4251ZM231.965 65.5608C231.849 66.5627 231.603 68.6996 230.211 68.7796C228.52 68.8765 229.656 63.7412 230.613 63.1632C232.146 62.2378 232.064 64.7118 231.965 65.5608ZM216.236 65.1517C214.126 65.3265 213.524 67.6377 215.634 68.4561L216.236 65.1517ZM224.06 63.1234C223.789 64.1723 223.886 65.8556 223.044 66.6607C221.857 67.7952 221.341 66.1302 221.35 65.1809C221.358 64.2419 221.823 61.8933 223.08 61.7695C224.154 61.6638 223.26 62.9085 224.06 63.1234ZM246.833 39.7858C246.061 41.391 246.89 42.9752 247.352 44.553C246.405 44.8582 245.129 44.6274 244.551 45.6282C244.186 46.2591 244.25 47.209 244.359 47.8922C244.449 48.4526 244.908 49.2073 244.526 49.7274C244.025 50.4082 242.782 50.0934 242.23 50.8507C241.39 52.0025 241.861 54.6332 243.039 55.5002C244.695 56.7181 243.707 53.7293 243.605 53.185C243.352 51.8216 244.764 52.007 245.729 51.4563C246.247 51.161 246.339 51.1038 246.458 50.4732C246.567 49.8923 246.509 49.4315 246.371 48.8054C245.901 46.6812 246.722 47.0281 248.41 46.5601C249.865 46.156 249.749 44.9929 249.379 43.7702C249.089 42.8118 248.224 41.2396 249.161 40.4225C249.533 40.0982 250.097 40.3033 250.177 39.6265C250.231 39.1696 249.618 38.4205 249.296 38.1578C248.187 37.252 247.284 38.8471 246.833 39.7858Z" fill="black"/>
<path d="M29.1796 236.364V238.83H25.8316V249H22.7536V238.83H19.4056V236.364H29.1796ZM33.8024 240.63C34.1624 240.078 34.6124 239.646 35.1524 239.334C35.6924 239.01 36.2924 238.848 36.9524 238.848V242.106H36.1064C35.3384 242.106 34.7624 242.274 34.3784 242.61C33.9944 242.934 33.8024 243.51 33.8024 244.338V249H30.7244V238.956H33.8024V240.63ZM48.6836 238.956L42.3836 253.77H39.0716L41.3756 248.658L37.2896 238.956H40.7276L43.0496 245.238L45.3536 238.956H48.6836ZM58.6511 241.512H56.9951V249H53.9171V241.512H52.8011V238.956H53.9171V238.668C53.9171 237.432 54.2711 236.496 54.9791 235.86C55.6871 235.212 56.7251 234.888 58.0931 234.888C58.3211 234.888 58.4891 234.894 58.5971 234.906V237.516C58.0091 237.48 57.5951 237.564 57.3551 237.768C57.1151 237.972 56.9951 238.338 56.9951 238.866V238.956H58.6511V241.512ZM64.6694 249.144C63.6854 249.144 62.7974 248.934 62.0054 248.514C61.2254 248.094 60.6074 247.494 60.1514 246.714C59.7074 245.934 59.4854 245.022 59.4854 243.978C59.4854 242.946 59.7134 242.04 60.1694 241.26C60.6254 240.468 61.2494 239.862 62.0414 239.442C62.8334 239.022 63.7214 238.812 64.7054 238.812C65.6894 238.812 66.5774 239.022 67.3694 239.442C68.1614 239.862 68.7854 240.468 69.2414 241.26C69.6974 242.04 69.9254 242.946 69.9254 243.978C69.9254 245.01 69.6914 245.922 69.2234 246.714C68.7674 247.494 68.1374 248.094 67.3334 248.514C66.5414 248.934 65.6534 249.144 64.6694 249.144ZM64.6694 246.48C65.2574 246.48 65.7554 246.264 66.1634 245.832C66.5834 245.4 66.7934 244.782 66.7934 243.978C66.7934 243.174 66.5894 242.556 66.1814 242.124C65.7854 241.692 65.2934 241.476 64.7054 241.476C64.1054 241.476 63.6074 241.692 63.2114 242.124C62.8154 242.544 62.6174 243.162 62.6174 243.978C62.6174 244.782 62.8094 245.4 63.1934 245.832C63.5894 246.264 64.0814 246.48 64.6694 246.48ZM74.6364 235.68V249H71.5584V235.68H74.6364ZM79.945 235.68V249H76.867V235.68H79.945ZM86.7476 249.144C85.7636 249.144 84.8756 248.934 84.0836 248.514C83.3036 248.094 82.6856 247.494 82.2296 246.714C81.7856 245.934 81.5636 245.022 81.5636 243.978C81.5636 242.946 81.7916 242.04 82.2476 241.26C82.7036 240.468 83.3276 239.862 84.1196 239.442C84.9116 239.022 85.7996 238.812 86.7836 238.812C87.7676 238.812 88.6556 239.022 89.4476 239.442C90.2396 239.862 90.8636 240.468 91.3196 241.26C91.7756 242.04 92.0036 242.946 92.0036 243.978C92.0036 245.01 91.7696 245.922 91.3016 246.714C90.8456 247.494 90.2156 248.094 89.4116 248.514C88.6196 248.934 87.7316 249.144 86.7476 249.144ZM86.7476 246.48C87.3356 246.48 87.8336 246.264 88.2416 245.832C88.6616 245.4 88.8716 244.782 88.8716 243.978C88.8716 243.174 88.6676 242.556 88.2596 242.124C87.8636 241.692 87.3716 241.476 86.7836 241.476C86.1836 241.476 85.6856 241.692 85.2896 242.124C84.8936 242.544 84.6956 243.162 84.6956 243.978C84.6956 244.782 84.8876 245.4 85.2716 245.832C85.6676 246.264 86.1596 246.48 86.7476 246.48ZM108.055 238.956L105.337 249H101.935L100.351 242.484L98.7125 249H95.3285L92.5925 238.956H95.6705L97.0925 246.138L98.7845 238.956H102.043L103.753 246.102L105.157 238.956H108.055ZM110.776 237.912C110.236 237.912 109.792 237.756 109.444 237.444C109.108 237.12 108.94 236.724 108.94 236.256C108.94 235.776 109.108 235.38 109.444 235.068C109.792 234.744 110.236 234.582 110.776 234.582C111.304 234.582 111.736 234.744 112.072 235.068C112.42 235.38 112.594 235.776 112.594 236.256C112.594 236.724 112.42 237.12 112.072 237.444C111.736 237.756 111.304 237.912 110.776 237.912ZM112.306 238.956V249H109.228V238.956H112.306ZM120.657 238.848C121.833 238.848 122.769 239.232 123.465 240C124.173 240.756 124.527 241.8 124.527 243.132V249H121.467V243.546C121.467 242.874 121.293 242.352 120.945 241.98C120.597 241.608 120.129 241.422 119.541 241.422C118.953 241.422 118.485 241.608 118.137 241.98C117.789 242.352 117.615 242.874 117.615 243.546V249H114.537V238.956H117.615V240.288C117.927 239.844 118.347 239.496 118.875 239.244C119.403 238.98 119.997 238.848 120.657 238.848ZM130.482 238.812C131.19 238.812 131.808 238.956 132.336 239.244C132.876 239.532 133.29 239.91 133.578 240.378V238.956H136.656V248.982C136.656 249.906 136.47 250.74 136.098 251.484C135.738 252.24 135.18 252.84 134.424 253.284C133.68 253.728 132.75 253.95 131.634 253.95C130.146 253.95 128.94 253.596 128.016 252.888C127.092 252.192 126.564 251.244 126.432 250.044H129.474C129.57 250.428 129.798 250.728 130.158 250.944C130.518 251.172 130.962 251.286 131.49 251.286C132.126 251.286 132.63 251.1 133.002 250.728C133.386 250.368 133.578 249.786 133.578 248.982V247.56C133.278 248.028 132.864 248.412 132.336 248.712C131.808 249 131.19 249.144 130.482 249.144C129.654 249.144 128.904 248.934 128.232 248.514C127.56 248.082 127.026 247.476 126.63 246.696C126.246 245.904 126.054 244.992 126.054 243.96C126.054 242.928 126.246 242.022 126.63 241.242C127.026 240.462 127.56 239.862 128.232 239.442C128.904 239.022 129.654 238.812 130.482 238.812ZM133.578 243.978C133.578 243.21 133.362 242.604 132.93 242.16C132.51 241.716 131.994 241.494 131.382 241.494C130.77 241.494 130.248 241.716 129.816 242.16C129.396 242.592 129.186 243.192 129.186 243.96C129.186 244.728 129.396 245.34 129.816 245.796C130.248 246.24 130.77 246.462 131.382 246.462C131.994 246.462 132.51 246.24 132.93 245.796C133.362 245.352 133.578 244.746 133.578 243.978ZM152.957 238.956L146.657 253.77H143.345L145.649 248.658L141.563 238.956H145.001L147.323 245.238L149.627 238.956H152.957ZM158.642 249.144C157.658 249.144 156.77 248.934 155.978 248.514C155.198 248.094 154.58 247.494 154.124 246.714C153.68 245.934 153.458 245.022 153.458 243.978C153.458 242.946 153.686 242.04 154.142 241.26C154.598 240.468 155.222 239.862 156.014 239.442C156.806 239.022 157.694 238.812 158.678 238.812C159.662 238.812 160.55 239.022 161.342 239.442C162.134 239.862 162.758 240.468 163.214 241.26C163.67 242.04 163.898 242.946 163.898 243.978C163.898 245.01 163.664 245.922 163.196 246.714C162.74 247.494 162.11 248.094 161.306 248.514C160.514 248.934 159.626 249.144 158.642 249.144ZM158.642 246.48C159.23 246.48 159.728 246.264 160.136 245.832C160.556 245.4 160.766 244.782 160.766 243.978C160.766 243.174 160.562 242.556 160.154 242.124C159.758 241.692 159.266 241.476 158.678 241.476C158.078 241.476 157.58 241.692 157.184 242.124C156.788 242.544 156.59 243.162 156.59 243.978C156.59 244.782 156.782 245.4 157.166 245.832C157.562 246.264 158.054 246.48 158.642 246.48ZM175.449 238.956V249H172.371V247.632C172.059 248.076 171.633 248.436 171.093 248.712C170.565 248.976 169.977 249.108 169.329 249.108C168.561 249.108 167.883 248.94 167.295 248.604C166.707 248.256 166.251 247.758 165.927 247.11C165.603 246.462 165.441 245.7 165.441 244.824V238.956H168.501V244.41C168.501 245.082 168.675 245.604 169.023 245.976C169.371 246.348 169.839 246.534 170.427 246.534C171.027 246.534 171.501 246.348 171.849 245.976C172.197 245.604 172.371 245.082 172.371 244.41V238.956H175.449ZM180.738 240.63C181.098 240.078 181.548 239.646 182.088 239.334C182.628 239.01 183.228 238.848 183.888 238.848V242.106H183.042C182.274 242.106 181.698 242.274 181.314 242.61C180.93 242.934 180.738 243.51 180.738 244.338V249H177.66V238.956H180.738V240.63ZM194.214 241.512H192.558V249H189.48V241.512H188.364V238.956H189.48V238.668C189.48 237.432 189.834 236.496 190.542 235.86C191.25 235.212 192.288 234.888 193.656 234.888C193.884 234.888 194.052 234.894 194.16 234.906V237.516C193.572 237.48 193.158 237.564 192.918 237.768C192.678 237.972 192.558 238.338 192.558 238.866V238.956H194.214V241.512ZM198.738 240.63C199.098 240.078 199.548 239.646 200.088 239.334C200.628 239.01 201.228 238.848 201.888 238.848V242.106H201.042C200.274 242.106 199.698 242.274 199.314 242.61C198.93 242.934 198.738 243.51 198.738 244.338V249H195.66V238.956H198.738V240.63ZM204.907 237.912C204.367 237.912 203.923 237.756 203.575 237.444C203.239 237.12 203.071 236.724 203.071 236.256C203.071 235.776 203.239 235.38 203.575 235.068C203.923 234.744 204.367 234.582 204.907 234.582C205.435 234.582 205.867 234.744 206.203 235.068C206.551 235.38 206.725 235.776 206.725 236.256C206.725 236.724 206.551 237.12 206.203 237.444C205.867 237.756 205.435 237.912 204.907 237.912ZM206.437 238.956V249H203.359V238.956H206.437ZM218.136 243.816C218.136 244.104 218.118 244.404 218.082 244.716H211.116C211.164 245.34 211.362 245.82 211.71 246.156C212.07 246.48 212.508 246.642 213.024 246.642C213.792 246.642 214.326 246.318 214.626 245.67H217.902C217.734 246.33 217.428 246.924 216.984 247.452C216.552 247.98 216.006 248.394 215.346 248.694C214.686 248.994 213.948 249.144 213.132 249.144C212.148 249.144 211.272 248.934 210.504 248.514C209.736 248.094 209.136 247.494 208.704 246.714C208.272 245.934 208.056 245.022 208.056 243.978C208.056 242.934 208.266 242.022 208.686 241.242C209.118 240.462 209.718 239.862 210.486 239.442C211.254 239.022 212.136 238.812 213.132 238.812C214.104 238.812 214.968 239.016 215.724 239.424C216.48 239.832 217.068 240.414 217.488 241.17C217.92 241.926 218.136 242.808 218.136 243.816ZM214.986 243.006C214.986 242.478 214.806 242.058 214.446 241.746C214.086 241.434 213.636 241.278 213.096 241.278C212.58 241.278 212.142 241.428 211.782 241.728C211.434 242.028 211.218 242.454 211.134 243.006H214.986ZM225.88 238.848C227.056 238.848 227.992 239.232 228.688 240C229.396 240.756 229.75 241.8 229.75 243.132V249H226.69V243.546C226.69 242.874 226.516 242.352 226.168 241.98C225.82 241.608 225.352 241.422 224.764 241.422C224.176 241.422 223.708 241.608 223.36 241.98C223.012 242.352 222.838 242.874 222.838 243.546V249H219.76V238.956H222.838V240.288C223.15 239.844 223.57 239.496 224.098 239.244C224.626 238.98 225.22 238.848 225.88 238.848ZM231.276 243.96C231.276 242.928 231.468 242.022 231.852 241.242C232.248 240.462 232.782 239.862 233.454 239.442C234.126 239.022 234.876 238.812 235.704 238.812C236.364 238.812 236.964 238.95 237.504 239.226C238.056 239.502 238.488 239.874 238.8 240.342V235.68H241.878V249H238.8V247.56C238.512 248.04 238.098 248.424 237.558 248.712C237.03 249 236.412 249.144 235.704 249.144C234.876 249.144 234.126 248.934 233.454 248.514C232.782 248.082 232.248 247.476 231.852 246.696C231.468 245.904 231.276 244.992 231.276 243.96ZM238.8 243.978C238.8 243.21 238.584 242.604 238.152 242.16C237.732 241.716 237.216 241.494 236.604 241.494C235.992 241.494 235.47 241.716 235.038 242.16C234.618 242.592 234.408 243.192 234.408 243.96C234.408 244.728 234.618 245.34 235.038 245.796C235.47 246.24 235.992 246.462 236.604 246.462C237.216 246.462 237.732 246.24 238.152 245.796C238.584 245.352 238.8 244.746 238.8 243.978ZM248.191 249.144C247.315 249.144 246.535 248.994 245.851 248.694C245.167 248.394 244.627 247.986 244.231 247.47C243.835 246.942 243.613 246.354 243.565 245.706H246.607C246.643 246.054 246.805 246.336 247.093 246.552C247.381 246.768 247.735 246.876 248.155 246.876C248.539 246.876 248.833 246.804 249.037 246.66C249.253 246.504 249.361 246.306 249.361 246.066C249.361 245.778 249.211 245.568 248.911 245.436C248.611 245.292 248.125 245.136 247.453 244.968C246.733 244.8 246.133 244.626 245.653 244.446C245.173 244.254 244.759 243.96 244.411 243.564C244.063 243.156 243.889 242.61 243.889 241.926C243.889 241.35 244.045 240.828 244.357 240.36C244.681 239.88 245.149 239.502 245.761 239.226C246.385 238.95 247.123 238.812 247.975 238.812C249.235 238.812 250.225 239.124 250.945 239.748C251.677 240.372 252.097 241.2 252.205 242.232H249.361C249.313 241.884 249.157 241.608 248.893 241.404C248.641 241.2 248.305 241.098 247.885 241.098C247.525 241.098 247.249 241.17 247.057 241.314C246.865 241.446 246.769 241.632 246.769 241.872C246.769 242.16 246.919 242.376 247.219 242.52C247.531 242.664 248.011 242.808 248.659 242.952C249.403 243.144 250.009 243.336 250.477 243.528C250.945 243.708 251.353 244.008 251.701 244.428C252.061 244.836 252.247 245.388 252.259 246.084C252.259 246.672 252.091 247.2 251.755 247.668C251.431 248.124 250.957 248.484 250.333 248.748C249.721 249.012 249.007 249.144 248.191 249.144ZM32.4158 268.512H30.7598V276H27.6818V268.512H26.5658V265.956H27.6818V265.668C27.6818 264.432 28.0358 263.496 28.7438 262.86C29.4518 262.212 30.4898 261.888 31.8578 261.888C32.0858 261.888 32.2538 261.894 32.3618 261.906V264.516C31.7738 264.48 31.3598 264.564 31.1198 264.768C30.8798 264.972 30.7598 265.338 30.7598 265.866V265.956H32.4158V268.512ZM36.9401 267.63C37.3001 267.078 37.7501 266.646 38.2901 266.334C38.8301 266.01 39.4301 265.848 40.0901 265.848V269.106H39.2441C38.4761 269.106 37.9001 269.274 37.5161 269.61C37.1321 269.934 36.9401 270.51 36.9401 271.338V276H33.8621V265.956H36.9401V267.63ZM46.1333 276.144C45.1493 276.144 44.2613 275.934 43.4693 275.514C42.6893 275.094 42.0713 274.494 41.6153 273.714C41.1713 272.934 40.9493 272.022 40.9493 270.978C40.9493 269.946 41.1773 269.04 41.6333 268.26C42.0893 267.468 42.7133 266.862 43.5053 266.442C44.2973 266.022 45.1853 265.812 46.1693 265.812C47.1533 265.812 48.0413 266.022 48.8333 266.442C49.6253 266.862 50.2493 267.468 50.7053 268.26C51.1613 269.04 51.3893 269.946 51.3893 270.978C51.3893 272.01 51.1553 272.922 50.6873 273.714C50.2313 274.494 49.6013 275.094 48.7973 275.514C48.0053 275.934 47.1173 276.144 46.1333 276.144ZM46.1333 273.48C46.7213 273.48 47.2193 273.264 47.6273 272.832C48.0473 272.4 48.2573 271.782 48.2573 270.978C48.2573 270.174 48.0533 269.556 47.6453 269.124C47.2493 268.692 46.7573 268.476 46.1693 268.476C45.5693 268.476 45.0713 268.692 44.6753 269.124C44.2793 269.544 44.0813 270.162 44.0813 270.978C44.0813 271.782 44.2733 272.4 44.6573 272.832C45.0533 273.264 45.5453 273.48 46.1333 273.48ZM65.8383 265.848C67.0863 265.848 68.0763 266.226 68.8083 266.982C69.5523 267.738 69.9243 268.788 69.9243 270.132V276H66.8643V270.546C66.8643 269.898 66.6903 269.4 66.3423 269.052C66.0063 268.692 65.5383 268.512 64.9383 268.512C64.3383 268.512 63.8643 268.692 63.5163 269.052C63.1803 269.4 63.0123 269.898 63.0123 270.546V276H59.9523V270.546C59.9523 269.898 59.7783 269.4 59.4303 269.052C59.0943 268.692 58.6263 268.512 58.0263 268.512C57.4263 268.512 56.9523 268.692 56.6043 269.052C56.2683 269.4 56.1003 269.898 56.1003 270.546V276H53.0223V265.956H56.1003V267.216C56.4123 266.796 56.8203 266.466 57.3243 266.226C57.8283 265.974 58.3983 265.848 59.0343 265.848C59.7903 265.848 60.4623 266.01 61.0503 266.334C61.6503 266.658 62.1183 267.12 62.4543 267.72C62.8023 267.168 63.2763 266.718 63.8763 266.37C64.4763 266.022 65.1303 265.848 65.8383 265.848ZM79.9774 276.144C79.1014 276.144 78.3214 275.994 77.6374 275.694C76.9534 275.394 76.4134 274.986 76.0174 274.47C75.6214 273.942 75.3994 273.354 75.3514 272.706H78.3934C78.4294 273.054 78.5914 273.336 78.8794 273.552C79.1674 273.768 79.5214 273.876 79.9414 273.876C80.3254 273.876 80.6194 273.804 80.8234 273.66C81.0394 273.504 81.1474 273.306 81.1474 273.066C81.1474 272.778 80.9974 272.568 80.6974 272.436C80.3974 272.292 79.9114 272.136 79.2394 271.968C78.5194 271.8 77.9194 271.626 77.4394 271.446C76.9594 271.254 76.5454 270.96 76.1974 270.564C75.8494 270.156 75.6754 269.61 75.6754 268.926C75.6754 268.35 75.8314 267.828 76.1434 267.36C76.4674 266.88 76.9354 266.502 77.5474 266.226C78.1714 265.95 78.9094 265.812 79.7614 265.812C81.0214 265.812 82.0114 266.124 82.7314 266.748C83.4634 267.372 83.8834 268.2 83.9914 269.232H81.1474C81.0994 268.884 80.9434 268.608 80.6794 268.404C80.4274 268.2 80.0914 268.098 79.6714 268.098C79.3114 268.098 79.0354 268.17 78.8434 268.314C78.6514 268.446 78.5554 268.632 78.5554 268.872C78.5554 269.16 78.7054 269.376 79.0054 269.52C79.3174 269.664 79.7974 269.808 80.4454 269.952C81.1894 270.144 81.7954 270.336 82.2634 270.528C82.7314 270.708 83.1394 271.008 83.4874 271.428C83.8474 271.836 84.0334 272.388 84.0454 273.084C84.0454 273.672 83.8774 274.2 83.5414 274.668C83.2174 275.124 82.7434 275.484 82.1194 275.748C81.5074 276.012 80.7934 276.144 79.9774 276.144ZM95.3965 270.816C95.3965 271.104 95.3785 271.404 95.3425 271.716H88.3765C88.4245 272.34 88.6225 272.82 88.9705 273.156C89.3305 273.48 89.7685 273.642 90.2845 273.642C91.0525 273.642 91.5865 273.318 91.8865 272.67H95.1625C94.9945 273.33 94.6885 273.924 94.2445 274.452C93.8125 274.98 93.2665 275.394 92.6065 275.694C91.9465 275.994 91.2085 276.144 90.3925 276.144C89.4085 276.144 88.5325 275.934 87.7645 275.514C86.9965 275.094 86.3965 274.494 85.9645 273.714C85.5325 272.934 85.3165 272.022 85.3165 270.978C85.3165 269.934 85.5265 269.022 85.9465 268.242C86.3785 267.462 86.9785 266.862 87.7465 266.442C88.5145 266.022 89.3965 265.812 90.3925 265.812C91.3645 265.812 92.2285 266.016 92.9845 266.424C93.7405 266.832 94.3285 267.414 94.7485 268.17C95.1805 268.926 95.3965 269.808 95.3965 270.816ZM92.2465 270.006C92.2465 269.478 92.0665 269.058 91.7065 268.746C91.3465 268.434 90.8965 268.278 90.3565 268.278C89.8405 268.278 89.4025 268.428 89.0425 268.728C88.6945 269.028 88.4785 269.454 88.3945 270.006H92.2465ZM96.4083 270.96C96.4083 269.928 96.6003 269.022 96.9843 268.242C97.3803 267.462 97.9143 266.862 98.5863 266.442C99.2583 266.022 100.008 265.812 100.836 265.812C101.544 265.812 102.162 265.956 102.69 266.244C103.23 266.532 103.644 266.91 103.932 267.378V265.956H107.01V276H103.932V274.578C103.632 275.046 103.212 275.424 102.672 275.712C102.144 276 101.526 276.144 100.818 276.144C100.002 276.144 99.2583 275.934 98.5863 275.514C97.9143 275.082 97.3803 274.476 96.9843 273.696C96.6003 272.904 96.4083 271.992 96.4083 270.96ZM103.932 270.978C103.932 270.21 103.716 269.604 103.284 269.16C102.864 268.716 102.348 268.494 101.736 268.494C101.124 268.494 100.602 268.716 100.17 269.16C99.7503 269.592 99.5403 270.192 99.5403 270.96C99.5403 271.728 99.7503 272.34 100.17 272.796C100.602 273.24 101.124 273.462 101.736 273.462C102.348 273.462 102.864 273.24 103.284 272.796C103.716 272.352 103.932 271.746 103.932 270.978ZM112.315 267.63C112.675 267.078 113.125 266.646 113.665 266.334C114.205 266.01 114.805 265.848 115.465 265.848V269.106H114.619C113.851 269.106 113.275 269.274 112.891 269.61C112.507 269.934 112.315 270.51 112.315 271.338V276H109.237V265.956H112.315V267.63ZM116.324 270.978C116.324 269.934 116.534 269.022 116.954 268.242C117.386 267.462 117.98 266.862 118.736 266.442C119.504 266.022 120.38 265.812 121.364 265.812C122.624 265.812 123.674 266.142 124.514 266.802C125.366 267.462 125.924 268.392 126.188 269.592H122.912C122.636 268.824 122.102 268.44 121.31 268.44C120.746 268.44 120.296 268.662 119.96 269.106C119.624 269.538 119.456 270.162 119.456 270.978C119.456 271.794 119.624 272.424 119.96 272.868C120.296 273.3 120.746 273.516 121.31 273.516C122.102 273.516 122.636 273.132 122.912 272.364H126.188C125.924 273.54 125.366 274.464 124.514 275.136C123.662 275.808 122.612 276.144 121.364 276.144C120.38 276.144 119.504 275.934 118.736 275.514C117.98 275.094 117.386 274.494 116.954 273.714C116.534 272.934 116.324 272.022 116.324 270.978ZM134.009 265.848C135.161 265.848 136.085 266.232 136.781 267C137.477 267.756 137.825 268.8 137.825 270.132V276H134.765V270.546C134.765 269.874 134.591 269.352 134.243 268.98C133.895 268.608 133.427 268.422 132.839 268.422C132.251 268.422 131.783 268.608 131.435 268.98C131.087 269.352 130.913 269.874 130.913 270.546V276H127.835V262.68H130.913V267.306C131.225 266.862 131.651 266.508 132.191 266.244C132.731 265.98 133.337 265.848 134.009 265.848ZM148.35 276.144C147.366 276.144 146.478 275.934 145.686 275.514C144.906 275.094 144.288 274.494 143.832 273.714C143.388 272.934 143.166 272.022 143.166 270.978C143.166 269.946 143.394 269.04 143.85 268.26C144.306 267.468 144.93 266.862 145.722 266.442C146.514 266.022 147.402 265.812 148.386 265.812C149.37 265.812 150.258 266.022 151.05 266.442C151.842 266.862 152.466 267.468 152.922 268.26C153.378 269.04 153.606 269.946 153.606 270.978C153.606 272.01 153.372 272.922 152.904 273.714C152.448 274.494 151.818 275.094 151.014 275.514C150.222 275.934 149.334 276.144 148.35 276.144ZM148.35 273.48C148.938 273.48 149.436 273.264 149.844 272.832C150.264 272.4 150.474 271.782 150.474 270.978C150.474 270.174 150.27 269.556 149.862 269.124C149.466 268.692 148.974 268.476 148.386 268.476C147.786 268.476 147.288 268.692 146.892 269.124C146.496 269.544 146.298 270.162 146.298 270.978C146.298 271.782 146.49 272.4 146.874 272.832C147.27 273.264 147.762 273.48 148.35 273.48ZM158.317 267.63C158.677 267.078 159.127 266.646 159.667 266.334C160.207 266.01 160.807 265.848 161.467 265.848V269.106H160.621C159.853 269.106 159.277 269.274 158.893 269.61C158.509 269.934 158.317 270.51 158.317 271.338V276H155.239V265.956H158.317V267.63ZM172.351 273.39V276H170.785C169.669 276 168.799 275.73 168.175 275.19C167.551 274.638 167.239 273.744 167.239 272.508V268.512H166.015V265.956H167.239V263.508H170.317V265.956H172.333V268.512H170.317V272.544C170.317 272.844 170.389 273.06 170.533 273.192C170.677 273.324 170.917 273.39 171.253 273.39H172.351ZM177.143 267.63C177.503 267.078 177.953 266.646 178.493 266.334C179.033 266.01 179.633 265.848 180.293 265.848V269.106H179.447C178.679 269.106 178.103 269.274 177.719 269.61C177.335 269.934 177.143 270.51 177.143 271.338V276H174.065V265.956H177.143V267.63ZM191.232 270.816C191.232 271.104 191.214 271.404 191.178 271.716H184.212C184.26 272.34 184.458 272.82 184.806 273.156C185.166 273.48 185.604 273.642 186.12 273.642C186.888 273.642 187.422 273.318 187.722 272.67H190.998C190.83 273.33 190.524 273.924 190.08 274.452C189.648 274.98 189.102 275.394 188.442 275.694C187.782 275.994 187.044 276.144 186.228 276.144C185.244 276.144 184.368 275.934 183.6 275.514C182.832 275.094 182.232 274.494 181.8 273.714C181.368 272.934 181.152 272.022 181.152 270.978C181.152 269.934 181.362 269.022 181.782 268.242C182.214 267.462 182.814 266.862 183.582 266.442C184.35 266.022 185.232 265.812 186.228 265.812C187.2 265.812 188.064 266.016 188.82 266.424C189.576 266.832 190.164 267.414 190.584 268.17C191.016 268.926 191.232 269.808 191.232 270.816ZM188.082 270.006C188.082 269.478 187.902 269.058 187.542 268.746C187.182 268.434 186.732 268.278 186.192 268.278C185.676 268.278 185.238 268.428 184.878 268.728C184.53 269.028 184.314 269.454 184.23 270.006H188.082ZM198.976 265.848C200.152 265.848 201.088 266.232 201.784 267C202.492 267.756 202.846 268.8 202.846 270.132V276H199.786V270.546C199.786 269.874 199.612 269.352 199.264 268.98C198.916 268.608 198.448 268.422 197.86 268.422C197.272 268.422 196.804 268.608 196.456 268.98C196.108 269.352 195.934 269.874 195.934 270.546V276H192.856V265.956H195.934V267.288C196.246 266.844 196.666 266.496 197.194 266.244C197.722 265.98 198.316 265.848 198.976 265.848ZM204.373 270.96C204.373 269.928 204.565 269.022 204.949 268.242C205.345 267.462 205.879 266.862 206.551 266.442C207.223 266.022 207.973 265.812 208.801 265.812C209.461 265.812 210.061 265.95 210.601 266.226C211.153 266.502 211.585 266.874 211.897 267.342V262.68H214.975V276H211.897V274.56C211.609 275.04 211.195 275.424 210.655 275.712C210.127 276 209.509 276.144 208.801 276.144C207.973 276.144 207.223 275.934 206.551 275.514C205.879 275.082 205.345 274.476 204.949 273.696C204.565 272.904 204.373 271.992 204.373 270.96ZM211.897 270.978C211.897 270.21 211.681 269.604 211.249 269.16C210.829 268.716 210.313 268.494 209.701 268.494C209.089 268.494 208.567 268.716 208.135 269.16C207.715 269.592 207.505 270.192 207.505 270.96C207.505 271.728 207.715 272.34 208.135 272.796C208.567 273.24 209.089 273.462 209.701 273.462C210.313 273.462 210.829 273.24 211.249 272.796C211.681 272.352 211.897 271.746 211.897 270.978ZM218.75 264.912C218.21 264.912 217.766 264.756 217.418 264.444C217.082 264.12 216.914 263.724 216.914 263.256C216.914 262.776 217.082 262.38 217.418 262.068C217.766 261.744 218.21 261.582 218.75 261.582C219.278 261.582 219.71 261.744 220.046 262.068C220.394 262.38 220.568 262.776 220.568 263.256C220.568 263.724 220.394 264.12 220.046 264.444C219.71 264.756 219.278 264.912 218.75 264.912ZM220.28 265.956V276H217.202V265.956H220.28ZM228.631 265.848C229.807 265.848 230.743 266.232 231.439 267C232.147 267.756 232.501 268.8 232.501 270.132V276H229.441V270.546C229.441 269.874 229.267 269.352 228.919 268.98C228.571 268.608 228.103 268.422 227.515 268.422C226.927 268.422 226.459 268.608 226.111 268.98C225.763 269.352 225.589 269.874 225.589 270.546V276H222.511V265.956H225.589V267.288C225.901 266.844 226.321 266.496 226.849 266.244C227.377 265.98 227.971 265.848 228.631 265.848ZM238.455 265.812C239.163 265.812 239.781 265.956 240.309 266.244C240.849 266.532 241.263 266.91 241.551 267.378V265.956H244.629V275.982C244.629 276.906 244.443 277.74 244.071 278.484C243.711 279.24 243.153 279.84 242.397 280.284C241.653 280.728 240.723 280.95 239.607 280.95C238.119 280.95 236.913 280.596 235.989 279.888C235.065 279.192 234.537 278.244 234.405 277.044H237.447C237.543 277.428 237.771 277.728 238.131 277.944C238.491 278.172 238.935 278.286 239.463 278.286C240.099 278.286 240.603 278.1 240.975 277.728C241.359 277.368 241.551 276.786 241.551 275.982V274.56C241.251 275.028 240.837 275.412 240.309 275.712C239.781 276 239.163 276.144 238.455 276.144C237.627 276.144 236.877 275.934 236.205 275.514C235.533 275.082 234.999 274.476 234.603 273.696C234.219 272.904 234.027 271.992 234.027 270.96C234.027 269.928 234.219 269.022 234.603 268.242C234.999 267.462 235.533 266.862 236.205 266.442C236.877 266.022 237.627 265.812 238.455 265.812ZM241.551 270.978C241.551 270.21 241.335 269.604 240.903 269.16C240.483 268.716 239.967 268.494 239.355 268.494C238.743 268.494 238.221 268.716 237.789 269.16C237.369 269.592 237.159 270.192 237.159 270.96C237.159 271.728 237.369 272.34 237.789 272.796C238.221 273.24 238.743 273.462 239.355 273.462C239.967 273.462 240.483 273.24 240.903 272.796C241.335 272.352 241.551 271.746 241.551 270.978Z" fill="#505050"/>
<path d="M44.9572 194.981L40.5652 211.829H35.5972L32.9092 200.741L30.1252 211.829H25.1572L20.8852 194.981H25.2772L27.7012 207.245L30.7012 194.981H35.2132L38.0932 207.245L40.5412 194.981H44.9572ZM53.1113 212.021C51.7993 212.021 50.6153 211.741 49.5593 211.181C48.5193 210.621 47.6953 209.821 47.0873 208.781C46.4953 207.741 46.1993 206.525 46.1993 205.133C46.1993 203.757 46.5033 202.549 47.1113 201.509C47.7193 200.453 48.5513 199.645 49.6073 199.085C50.6633 198.525 51.8473 198.245 53.1593 198.245C54.4713 198.245 55.6553 198.525 56.7113 199.085C57.7673 199.645 58.5993 200.453 59.2073 201.509C59.8153 202.549 60.1193 203.757 60.1193 205.133C60.1193 206.509 59.8073 207.725 59.1833 208.781C58.5753 209.821 57.7353 210.621 56.6633 211.181C55.6073 211.741 54.4233 212.021 53.1113 212.021ZM53.1113 208.469C53.8953 208.469 54.5593 208.181 55.1033 207.605C55.6633 207.029 55.9433 206.205 55.9433 205.133C55.9433 204.061 55.6713 203.237 55.1273 202.661C54.5993 202.085 53.9433 201.797 53.1593 201.797C52.3593 201.797 51.6953 202.085 51.1673 202.661C50.6393 203.221 50.3753 204.045 50.3753 205.133C50.3753 206.205 50.6313 207.029 51.1433 207.605C51.6713 208.181 52.3273 208.469 53.1113 208.469ZM81.5206 198.437L77.8966 211.829H73.3606L71.2486 203.141L69.0646 211.829H64.5526L60.9046 198.437H65.0086L66.9046 208.013L69.1606 198.437H73.5046L75.7846 207.965L77.6566 198.437H81.5206ZM87.5017 208.037L84.8377 214.925H82.2217L83.6137 208.037H87.5017ZM100.51 212.021C99.3422 212.021 98.3022 211.821 97.3902 211.421C96.4782 211.021 95.7582 210.477 95.2302 209.789C94.7022 209.085 94.4062 208.301 94.3422 207.437H98.3982C98.4462 207.901 98.6622 208.277 99.0462 208.565C99.4302 208.853 99.9022 208.997 100.462 208.997C100.974 208.997 101.366 208.901 101.638 208.709C101.926 208.501 102.07 208.237 102.07 207.917C102.07 207.533 101.87 207.253 101.47 207.077C101.07 206.885 100.422 206.677 99.5262 206.453C98.5662 206.229 97.7662 205.997 97.1262 205.757C96.4862 205.501 95.9342 205.109 95.4702 204.581C95.0062 204.037 94.7742 203.309 94.7742 202.397C94.7742 201.629 94.9822 200.933 95.3982 200.309C95.8302 199.669 96.4542 199.165 97.2702 198.797C98.1022 198.429 99.0862 198.245 100.222 198.245C101.902 198.245 103.222 198.661 104.182 199.493C105.158 200.325 105.718 201.429 105.862 202.805H102.07C102.006 202.341 101.798 201.973 101.446 201.701C101.11 201.429 100.662 201.293 100.102 201.293C99.6222 201.293 99.2542 201.389 98.9982 201.581C98.7422 201.757 98.6142 202.005 98.6142 202.325C98.6142 202.709 98.8142 202.997 99.2142 203.189C99.6302 203.381 100.27 203.573 101.134 203.765C102.126 204.021 102.934 204.277 103.558 204.533C104.182 204.773 104.726 205.173 105.19 205.733C105.67 206.277 105.918 207.013 105.934 207.941C105.934 208.725 105.71 209.429 105.262 210.053C104.83 210.661 104.198 211.141 103.366 211.493C102.55 211.845 101.598 212.021 100.51 212.021ZM121.669 198.437V211.829H117.565V210.005C117.149 210.597 116.581 211.077 115.861 211.445C115.157 211.797 114.373 211.973 113.509 211.973C112.485 211.973 111.581 211.749 110.797 211.301C110.013 210.837 109.405 210.173 108.973 209.309C108.541 208.445 108.325 207.429 108.325 206.261V198.437H112.405V205.709C112.405 206.605 112.637 207.301 113.101 207.797C113.565 208.293 114.189 208.541 114.973 208.541C115.773 208.541 116.405 208.293 116.869 207.797C117.333 207.301 117.565 206.605 117.565 205.709V198.437H121.669ZM123.801 205.133C123.801 203.741 124.081 202.525 124.641 201.485C125.217 200.445 126.009 199.645 127.017 199.085C128.041 198.525 129.209 198.245 130.521 198.245C132.201 198.245 133.601 198.685 134.721 199.565C135.857 200.445 136.601 201.685 136.953 203.285H132.585C132.217 202.261 131.505 201.749 130.449 201.749C129.697 201.749 129.097 202.045 128.649 202.637C128.201 203.213 127.977 204.045 127.977 205.133C127.977 206.221 128.201 207.061 128.649 207.653C129.097 208.229 129.697 208.517 130.449 208.517C131.505 208.517 132.217 208.005 132.585 206.981H136.953C136.601 208.549 135.857 209.781 134.721 210.677C133.585 211.573 132.185 212.021 130.521 212.021C129.209 212.021 128.041 211.741 127.017 211.181C126.009 210.621 125.217 209.821 124.641 208.781C124.081 207.741 123.801 206.525 123.801 205.133ZM147.38 198.293C148.916 198.293 150.148 198.805 151.076 199.829C152.004 200.837 152.468 202.229 152.468 204.005V211.829H148.388V204.557C148.388 203.661 148.156 202.965 147.692 202.469C147.228 201.973 146.604 201.725 145.82 201.725C145.036 201.725 144.412 201.973 143.948 202.469C143.484 202.965 143.252 203.661 143.252 204.557V211.829H139.148V194.069H143.252V200.237C143.668 199.645 144.236 199.173 144.956 198.821C145.676 198.469 146.484 198.293 147.38 198.293ZM173.03 204.917C173.03 205.301 173.006 205.701 172.958 206.117H163.67C163.734 206.949 163.998 207.589 164.462 208.037C164.942 208.469 165.526 208.685 166.214 208.685C167.238 208.685 167.95 208.253 168.35 207.389H172.718C172.494 208.269 172.086 209.061 171.494 209.765C170.918 210.469 170.19 211.021 169.31 211.421C168.43 211.821 167.446 212.021 166.358 212.021C165.046 212.021 163.878 211.741 162.854 211.181C161.83 210.621 161.03 209.821 160.454 208.781C159.878 207.741 159.59 206.525 159.59 205.133C159.59 203.741 159.87 202.525 160.43 201.485C161.006 200.445 161.806 199.645 162.83 199.085C163.854 198.525 165.03 198.245 166.358 198.245C167.654 198.245 168.806 198.517 169.814 199.061C170.822 199.605 171.606 200.381 172.166 201.389C172.742 202.397 173.03 203.573 173.03 204.917ZM168.83 203.837C168.83 203.133 168.59 202.573 168.11 202.157C167.63 201.741 167.03 201.533 166.31 201.533C165.622 201.533 165.038 201.733 164.558 202.133C164.094 202.533 163.806 203.101 163.694 203.837H168.83ZM192.283 198.293C193.947 198.293 195.267 198.797 196.243 199.805C197.235 200.813 197.731 202.213 197.731 204.005V211.829H193.651V204.557C193.651 203.693 193.419 203.029 192.955 202.565C192.507 202.085 191.883 201.845 191.083 201.845C190.283 201.845 189.651 202.085 189.187 202.565C188.739 203.029 188.515 203.693 188.515 204.557V211.829H184.435V204.557C184.435 203.693 184.203 203.029 183.739 202.565C183.291 202.085 182.667 201.845 181.867 201.845C181.067 201.845 180.435 202.085 179.971 202.565C179.523 203.029 179.299 203.693 179.299 204.557V211.829H175.195V198.437H179.299V200.117C179.715 199.557 180.259 199.117 180.931 198.797C181.603 198.461 182.363 198.293 183.211 198.293C184.219 198.293 185.115 198.509 185.899 198.941C186.699 199.373 187.323 199.989 187.771 200.789C188.235 200.053 188.867 199.453 189.667 198.989C190.467 198.525 191.339 198.293 192.283 198.293ZM204.705 200.333C205.105 199.709 205.657 199.205 206.361 198.821C207.065 198.437 207.889 198.245 208.833 198.245C209.937 198.245 210.937 198.525 211.833 199.085C212.729 199.645 213.433 200.445 213.945 201.485C214.473 202.525 214.737 203.733 214.737 205.109C214.737 206.485 214.473 207.701 213.945 208.757C213.433 209.797 212.729 210.605 211.833 211.181C210.937 211.741 209.937 212.021 208.833 212.021C207.905 212.021 207.081 211.829 206.361 211.445C205.657 211.061 205.105 210.565 204.705 209.957V218.213H200.601V198.437H204.705V200.333ZM210.561 205.109C210.561 204.085 210.273 203.285 209.697 202.709C209.137 202.117 208.441 201.821 207.609 201.821C206.793 201.821 206.097 202.117 205.521 202.709C204.961 203.301 204.681 204.109 204.681 205.133C204.681 206.157 204.961 206.965 205.521 207.557C206.097 208.149 206.793 208.445 207.609 208.445C208.425 208.445 209.121 208.149 209.697 207.557C210.273 206.949 210.561 206.133 210.561 205.109ZM224.354 208.349V211.829H222.266C220.778 211.829 219.618 211.469 218.786 210.749C217.954 210.013 217.538 208.821 217.538 207.173V201.845H215.906V198.437H217.538V195.173H221.642V198.437H224.33V201.845H221.642V207.221C221.642 207.621 221.738 207.909 221.93 208.085C222.122 208.261 222.442 208.349 222.89 208.349H224.354ZM240.32 198.437L231.92 218.189H227.504L230.576 211.373L225.128 198.437H229.712L232.808 206.813L235.88 198.437H240.32ZM247.204 194.381L246.724 205.877H243.244L242.764 194.381H247.204ZM245.044 212.021C244.324 212.021 243.732 211.813 243.268 211.397C242.82 210.965 242.596 210.437 242.596 209.813C242.596 209.173 242.82 208.637 243.268 208.205C243.732 207.773 244.324 207.557 245.044 207.557C245.748 207.557 246.324 207.773 246.772 208.205C247.236 208.637 247.468 209.173 247.468 209.813C247.468 210.437 247.236 210.965 246.772 211.397C246.324 211.813 245.748 212.021 245.044 212.021Z" fill="black"/>
</svg>
