<svg width="272" height="312" viewBox="0 0 272 312" fill="none" xmlns="http://www.w3.org/2000/svg">
<path d="M29.1796 236.364V238.83H25.8316V249H22.7536V238.83H19.4056V236.364H29.1796ZM33.8024 240.63C34.1624 240.078 34.6124 239.646 35.1524 239.334C35.6924 239.01 36.2924 238.848 36.9524 238.848V242.106H36.1064C35.3384 242.106 34.7624 242.274 34.3784 242.61C33.9944 242.934 33.8024 243.51 33.8024 244.338V249H30.7244V238.956H33.8024V240.63ZM48.6836 238.956L42.3836 253.77H39.0716L41.3756 248.658L37.2896 238.956H40.7276L43.0496 245.238L45.3536 238.956H48.6836ZM58.6511 241.512H56.9951V249H53.9171V241.512H52.8011V238.956H53.9171V238.668C53.9171 237.432 54.2711 236.496 54.9791 235.86C55.6871 235.212 56.7251 234.888 58.0931 234.888C58.3211 234.888 58.4891 234.894 58.5971 234.906V237.516C58.0091 237.48 57.5951 237.564 57.3551 237.768C57.1151 237.972 56.9951 238.338 56.9951 238.866V238.956H58.6511V241.512ZM64.6694 249.144C63.6854 249.144 62.7974 248.934 62.0054 248.514C61.2254 248.094 60.6074 247.494 60.1514 246.714C59.7074 245.934 59.4854 245.022 59.4854 243.978C59.4854 242.946 59.7134 242.04 60.1694 241.26C60.6254 240.468 61.2494 239.862 62.0414 239.442C62.8334 239.022 63.7214 238.812 64.7054 238.812C65.6894 238.812 66.5774 239.022 67.3694 239.442C68.1614 239.862 68.7854 240.468 69.2414 241.26C69.6974 242.04 69.9254 242.946 69.9254 243.978C69.9254 245.01 69.6914 245.922 69.2234 246.714C68.7674 247.494 68.1374 248.094 67.3334 248.514C66.5414 248.934 65.6534 249.144 64.6694 249.144ZM64.6694 246.48C65.2574 246.48 65.7554 246.264 66.1634 245.832C66.5834 245.4 66.7934 244.782 66.7934 243.978C66.7934 243.174 66.5894 242.556 66.1814 242.124C65.7854 241.692 65.2934 241.476 64.7054 241.476C64.1054 241.476 63.6074 241.692 63.2114 242.124C62.8154 242.544 62.6174 243.162 62.6174 243.978C62.6174 244.782 62.8094 245.4 63.1934 245.832C63.5894 246.264 64.0814 246.48 64.6694 246.48ZM74.6364 235.68V249H71.5584V235.68H74.6364ZM79.945 235.68V249H76.867V235.68H79.945ZM86.7476 249.144C85.7636 249.144 84.8756 248.934 84.0836 248.514C83.3036 248.094 82.6856 247.494 82.2296 246.714C81.7856 245.934 81.5636 245.022 81.5636 243.978C81.5636 242.946 81.7916 242.04 82.2476 241.26C82.7036 240.468 83.3276 239.862 84.1196 239.442C84.9116 239.022 85.7996 238.812 86.7836 238.812C87.7676 238.812 88.6556 239.022 89.4476 239.442C90.2396 239.862 90.8636 240.468 91.3196 241.26C91.7756 242.04 92.0036 242.946 92.0036 243.978C92.0036 245.01 91.7696 245.922 91.3016 246.714C90.8456 247.494 90.2156 248.094 89.4116 248.514C88.6196 248.934 87.7316 249.144 86.7476 249.144ZM86.7476 246.48C87.3356 246.48 87.8336 246.264 88.2416 245.832C88.6616 245.4 88.8716 244.782 88.8716 243.978C88.8716 243.174 88.6676 242.556 88.2596 242.124C87.8636 241.692 87.3716 241.476 86.7836 241.476C86.1836 241.476 85.6856 241.692 85.2896 242.124C84.8936 242.544 84.6956 243.162 84.6956 243.978C84.6956 244.782 84.8876 245.4 85.2716 245.832C85.6676 246.264 86.1596 246.48 86.7476 246.48ZM108.055 238.956L105.337 249H101.935L100.351 242.484L98.7125 249H95.3285L92.5925 238.956H95.6705L97.0925 246.138L98.7845 238.956H102.043L103.753 246.102L105.157 238.956H108.055ZM110.776 237.912C110.236 237.912 109.792 237.756 109.444 237.444C109.108 237.12 108.94 236.724 108.94 236.256C108.94 235.776 109.108 235.38 109.444 235.068C109.792 234.744 110.236 234.582 110.776 234.582C111.304 234.582 111.736 234.744 112.072 235.068C112.42 235.38 112.594 235.776 112.594 236.256C112.594 236.724 112.42 237.12 112.072 237.444C111.736 237.756 111.304 237.912 110.776 237.912ZM112.306 238.956V249H109.228V238.956H112.306ZM120.657 238.848C121.833 238.848 122.769 239.232 123.465 240C124.173 240.756 124.527 241.8 124.527 243.132V249H121.467V243.546C121.467 242.874 121.293 242.352 120.945 241.98C120.597 241.608 120.129 241.422 119.541 241.422C118.953 241.422 118.485 241.608 118.137 241.98C117.789 242.352 117.615 242.874 117.615 243.546V249H114.537V238.956H117.615V240.288C117.927 239.844 118.347 239.496 118.875 239.244C119.403 238.98 119.997 238.848 120.657 238.848ZM130.482 238.812C131.19 238.812 131.808 238.956 132.336 239.244C132.876 239.532 133.29 239.91 133.578 240.378V238.956H136.656V248.982C136.656 249.906 136.47 250.74 136.098 251.484C135.738 252.24 135.18 252.84 134.424 253.284C133.68 253.728 132.75 253.95 131.634 253.95C130.146 253.95 128.94 253.596 128.016 252.888C127.092 252.192 126.564 251.244 126.432 250.044H129.474C129.57 250.428 129.798 250.728 130.158 250.944C130.518 251.172 130.962 251.286 131.49 251.286C132.126 251.286 132.63 251.1 133.002 250.728C133.386 250.368 133.578 249.786 133.578 248.982V247.56C133.278 248.028 132.864 248.412 132.336 248.712C131.808 249 131.19 249.144 130.482 249.144C129.654 249.144 128.904 248.934 128.232 248.514C127.56 248.082 127.026 247.476 126.63 246.696C126.246 245.904 126.054 244.992 126.054 243.96C126.054 242.928 126.246 242.022 126.63 241.242C127.026 240.462 127.56 239.862 128.232 239.442C128.904 239.022 129.654 238.812 130.482 238.812ZM133.578 243.978C133.578 243.21 133.362 242.604 132.93 242.16C132.51 241.716 131.994 241.494 131.382 241.494C130.77 241.494 130.248 241.716 129.816 242.16C129.396 242.592 129.186 243.192 129.186 243.96C129.186 244.728 129.396 245.34 129.816 245.796C130.248 246.24 130.77 246.462 131.382 246.462C131.994 246.462 132.51 246.24 132.93 245.796C133.362 245.352 133.578 244.746 133.578 243.978ZM152.957 238.956L146.657 253.77H143.345L145.649 248.658L141.563 238.956H145.001L147.323 245.238L149.627 238.956H152.957ZM158.642 249.144C157.658 249.144 156.77 248.934 155.978 248.514C155.198 248.094 154.58 247.494 154.124 246.714C153.68 245.934 153.458 245.022 153.458 243.978C153.458 242.946 153.686 242.04 154.142 241.26C154.598 240.468 155.222 239.862 156.014 239.442C156.806 239.022 157.694 238.812 158.678 238.812C159.662 238.812 160.55 239.022 161.342 239.442C162.134 239.862 162.758 240.468 163.214 241.26C163.67 242.04 163.898 242.946 163.898 243.978C163.898 245.01 163.664 245.922 163.196 246.714C162.74 247.494 162.11 248.094 161.306 248.514C160.514 248.934 159.626 249.144 158.642 249.144ZM158.642 246.48C159.23 246.48 159.728 246.264 160.136 245.832C160.556 245.4 160.766 244.782 160.766 243.978C160.766 243.174 160.562 242.556 160.154 242.124C159.758 241.692 159.266 241.476 158.678 241.476C158.078 241.476 157.58 241.692 157.184 242.124C156.788 242.544 156.59 243.162 156.59 243.978C156.59 244.782 156.782 245.4 157.166 245.832C157.562 246.264 158.054 246.48 158.642 246.48ZM175.449 238.956V249H172.371V247.632C172.059 248.076 171.633 248.436 171.093 248.712C170.565 248.976 169.977 249.108 169.329 249.108C168.561 249.108 167.883 248.94 167.295 248.604C166.707 248.256 166.251 247.758 165.927 247.11C165.603 246.462 165.441 245.7 165.441 244.824V238.956H168.501V244.41C168.501 245.082 168.675 245.604 169.023 245.976C169.371 246.348 169.839 246.534 170.427 246.534C171.027 246.534 171.501 246.348 171.849 245.976C172.197 245.604 172.371 245.082 172.371 244.41V238.956H175.449ZM180.738 240.63C181.098 240.078 181.548 239.646 182.088 239.334C182.628 239.01 183.228 238.848 183.888 238.848V242.106H183.042C182.274 242.106 181.698 242.274 181.314 242.61C180.93 242.934 180.738 243.51 180.738 244.338V249H177.66V238.956H180.738V240.63ZM194.214 241.512H192.558V249H189.48V241.512H188.364V238.956H189.48V238.668C189.48 237.432 189.834 236.496 190.542 235.86C191.25 235.212 192.288 234.888 193.656 234.888C193.884 234.888 194.052 234.894 194.16 234.906V237.516C193.572 237.48 193.158 237.564 192.918 237.768C192.678 237.972 192.558 238.338 192.558 238.866V238.956H194.214V241.512ZM198.738 240.63C199.098 240.078 199.548 239.646 200.088 239.334C200.628 239.01 201.228 238.848 201.888 238.848V242.106H201.042C200.274 242.106 199.698 242.274 199.314 242.61C198.93 242.934 198.738 243.51 198.738 244.338V249H195.66V238.956H198.738V240.63ZM204.907 237.912C204.367 237.912 203.923 237.756 203.575 237.444C203.239 237.12 203.071 236.724 203.071 236.256C203.071 235.776 203.239 235.38 203.575 235.068C203.923 234.744 204.367 234.582 204.907 234.582C205.435 234.582 205.867 234.744 206.203 235.068C206.551 235.38 206.725 235.776 206.725 236.256C206.725 236.724 206.551 237.12 206.203 237.444C205.867 237.756 205.435 237.912 204.907 237.912ZM206.437 238.956V249H203.359V238.956H206.437ZM218.136 243.816C218.136 244.104 218.118 244.404 218.082 244.716H211.116C211.164 245.34 211.362 245.82 211.71 246.156C212.07 246.48 212.508 246.642 213.024 246.642C213.792 246.642 214.326 246.318 214.626 245.67H217.902C217.734 246.33 217.428 246.924 216.984 247.452C216.552 247.98 216.006 248.394 215.346 248.694C214.686 248.994 213.948 249.144 213.132 249.144C212.148 249.144 211.272 248.934 210.504 248.514C209.736 248.094 209.136 247.494 208.704 246.714C208.272 245.934 208.056 245.022 208.056 243.978C208.056 242.934 208.266 242.022 208.686 241.242C209.118 240.462 209.718 239.862 210.486 239.442C211.254 239.022 212.136 238.812 213.132 238.812C214.104 238.812 214.968 239.016 215.724 239.424C216.48 239.832 217.068 240.414 217.488 241.17C217.92 241.926 218.136 242.808 218.136 243.816ZM214.986 243.006C214.986 242.478 214.806 242.058 214.446 241.746C214.086 241.434 213.636 241.278 213.096 241.278C212.58 241.278 212.142 241.428 211.782 241.728C211.434 242.028 211.218 242.454 211.134 243.006H214.986ZM225.88 238.848C227.056 238.848 227.992 239.232 228.688 240C229.396 240.756 229.75 241.8 229.75 243.132V249H226.69V243.546C226.69 242.874 226.516 242.352 226.168 241.98C225.82 241.608 225.352 241.422 224.764 241.422C224.176 241.422 223.708 241.608 223.36 241.98C223.012 242.352 222.838 242.874 222.838 243.546V249H219.76V238.956H222.838V240.288C223.15 239.844 223.57 239.496 224.098 239.244C224.626 238.98 225.22 238.848 225.88 238.848ZM231.276 243.96C231.276 242.928 231.468 242.022 231.852 241.242C232.248 240.462 232.782 239.862 233.454 239.442C234.126 239.022 234.876 238.812 235.704 238.812C236.364 238.812 236.964 238.95 237.504 239.226C238.056 239.502 238.488 239.874 238.8 240.342V235.68H241.878V249H238.8V247.56C238.512 248.04 238.098 248.424 237.558 248.712C237.03 249 236.412 249.144 235.704 249.144C234.876 249.144 234.126 248.934 233.454 248.514C232.782 248.082 232.248 247.476 231.852 246.696C231.468 245.904 231.276 244.992 231.276 243.96ZM238.8 243.978C238.8 243.21 238.584 242.604 238.152 242.16C237.732 241.716 237.216 241.494 236.604 241.494C235.992 241.494 235.47 241.716 235.038 242.16C234.618 242.592 234.408 243.192 234.408 243.96C234.408 244.728 234.618 245.34 235.038 245.796C235.47 246.24 235.992 246.462 236.604 246.462C237.216 246.462 237.732 246.24 238.152 245.796C238.584 245.352 238.8 244.746 238.8 243.978ZM248.191 249.144C247.315 249.144 246.535 248.994 245.851 248.694C245.167 248.394 244.627 247.986 244.231 247.47C243.835 246.942 243.613 246.354 243.565 245.706H246.607C246.643 246.054 246.805 246.336 247.093 246.552C247.381 246.768 247.735 246.876 248.155 246.876C248.539 246.876 248.833 246.804 249.037 246.66C249.253 246.504 249.361 246.306 249.361 246.066C249.361 245.778 249.211 245.568 248.911 245.436C248.611 245.292 248.125 245.136 247.453 244.968C246.733 244.8 246.133 244.626 245.653 244.446C245.173 244.254 244.759 243.96 244.411 243.564C244.063 243.156 243.889 242.61 243.889 241.926C243.889 241.35 244.045 240.828 244.357 240.36C244.681 239.88 245.149 239.502 245.761 239.226C246.385 238.95 247.123 238.812 247.975 238.812C249.235 238.812 250.225 239.124 250.945 239.748C251.677 240.372 252.097 241.2 252.205 242.232H249.361C249.313 241.884 249.157 241.608 248.893 241.404C248.641 241.2 248.305 241.098 247.885 241.098C247.525 241.098 247.249 241.17 247.057 241.314C246.865 241.446 246.769 241.632 246.769 241.872C246.769 242.16 246.919 242.376 247.219 242.52C247.531 242.664 248.011 242.808 248.659 242.952C249.403 243.144 250.009 243.336 250.477 243.528C250.945 243.708 251.353 244.008 251.701 244.428C252.061 244.836 252.247 245.388 252.259 246.084C252.259 246.672 252.091 247.2 251.755 247.668C251.431 248.124 250.957 248.484 250.333 248.748C249.721 249.012 249.007 249.144 248.191 249.144ZM32.4158 268.512H30.7598V276H27.6818V268.512H26.5658V265.956H27.6818V265.668C27.6818 264.432 28.0358 263.496 28.7438 262.86C29.4518 262.212 30.4898 261.888 31.8578 261.888C32.0858 261.888 32.2538 261.894 32.3618 261.906V264.516C31.7738 264.48 31.3598 264.564 31.1198 264.768C30.8798 264.972 30.7598 265.338 30.7598 265.866V265.956H32.4158V268.512ZM36.9401 267.63C37.3001 267.078 37.7501 266.646 38.2901 266.334C38.8301 266.01 39.4301 265.848 40.0901 265.848V269.106H39.2441C38.4761 269.106 37.9001 269.274 37.5161 269.61C37.1321 269.934 36.9401 270.51 36.9401 271.338V276H33.8621V265.956H36.9401V267.63ZM46.1333 276.144C45.1493 276.144 44.2613 275.934 43.4693 275.514C42.6893 275.094 42.0713 274.494 41.6153 273.714C41.1713 272.934 40.9493 272.022 40.9493 270.978C40.9493 269.946 41.1773 269.04 41.6333 268.26C42.0893 267.468 42.7133 266.862 43.5053 266.442C44.2973 266.022 45.1853 265.812 46.1693 265.812C47.1533 265.812 48.0413 266.022 48.8333 266.442C49.6253 266.862 50.2493 267.468 50.7053 268.26C51.1613 269.04 51.3893 269.946 51.3893 270.978C51.3893 272.01 51.1553 272.922 50.6873 273.714C50.2313 274.494 49.6013 275.094 48.7973 275.514C48.0053 275.934 47.1173 276.144 46.1333 276.144ZM46.1333 273.48C46.7213 273.48 47.2193 273.264 47.6273 272.832C48.0473 272.4 48.2573 271.782 48.2573 270.978C48.2573 270.174 48.0533 269.556 47.6453 269.124C47.2493 268.692 46.7573 268.476 46.1693 268.476C45.5693 268.476 45.0713 268.692 44.6753 269.124C44.2793 269.544 44.0813 270.162 44.0813 270.978C44.0813 271.782 44.2733 272.4 44.6573 272.832C45.0533 273.264 45.5453 273.48 46.1333 273.48ZM65.8383 265.848C67.0863 265.848 68.0763 266.226 68.8083 266.982C69.5523 267.738 69.9243 268.788 69.9243 270.132V276H66.8643V270.546C66.8643 269.898 66.6903 269.4 66.3423 269.052C66.0063 268.692 65.5383 268.512 64.9383 268.512C64.3383 268.512 63.8643 268.692 63.5163 269.052C63.1803 269.4 63.0123 269.898 63.0123 270.546V276H59.9523V270.546C59.9523 269.898 59.7783 269.4 59.4303 269.052C59.0943 268.692 58.6263 268.512 58.0263 268.512C57.4263 268.512 56.9523 268.692 56.6043 269.052C56.2683 269.4 56.1003 269.898 56.1003 270.546V276H53.0223V265.956H56.1003V267.216C56.4123 266.796 56.8203 266.466 57.3243 266.226C57.8283 265.974 58.3983 265.848 59.0343 265.848C59.7903 265.848 60.4623 266.01 61.0503 266.334C61.6503 266.658 62.1183 267.12 62.4543 267.72C62.8023 267.168 63.2763 266.718 63.8763 266.37C64.4763 266.022 65.1303 265.848 65.8383 265.848ZM79.9774 276.144C79.1014 276.144 78.3214 275.994 77.6374 275.694C76.9534 275.394 76.4134 274.986 76.0174 274.47C75.6214 273.942 75.3994 273.354 75.3514 272.706H78.3934C78.4294 273.054 78.5914 273.336 78.8794 273.552C79.1674 273.768 79.5214 273.876 79.9414 273.876C80.3254 273.876 80.6194 273.804 80.8234 273.66C81.0394 273.504 81.1474 273.306 81.1474 273.066C81.1474 272.778 80.9974 272.568 80.6974 272.436C80.3974 272.292 79.9114 272.136 79.2394 271.968C78.5194 271.8 77.9194 271.626 77.4394 271.446C76.9594 271.254 76.5454 270.96 76.1974 270.564C75.8494 270.156 75.6754 269.61 75.6754 268.926C75.6754 268.35 75.8314 267.828 76.1434 267.36C76.4674 266.88 76.9354 266.502 77.5474 266.226C78.1714 265.95 78.9094 265.812 79.7614 265.812C81.0214 265.812 82.0114 266.124 82.7314 266.748C83.4634 267.372 83.8834 268.2 83.9914 269.232H81.1474C81.0994 268.884 80.9434 268.608 80.6794 268.404C80.4274 268.2 80.0914 268.098 79.6714 268.098C79.3114 268.098 79.0354 268.17 78.8434 268.314C78.6514 268.446 78.5554 268.632 78.5554 268.872C78.5554 269.16 78.7054 269.376 79.0054 269.52C79.3174 269.664 79.7974 269.808 80.4454 269.952C81.1894 270.144 81.7954 270.336 82.2634 270.528C82.7314 270.708 83.1394 271.008 83.4874 271.428C83.8474 271.836 84.0334 272.388 84.0454 273.084C84.0454 273.672 83.8774 274.2 83.5414 274.668C83.2174 275.124 82.7434 275.484 82.1194 275.748C81.5074 276.012 80.7934 276.144 79.9774 276.144ZM95.3965 270.816C95.3965 271.104 95.3785 271.404 95.3425 271.716H88.3765C88.4245 272.34 88.6225 272.82 88.9705 273.156C89.3305 273.48 89.7685 273.642 90.2845 273.642C91.0525 273.642 91.5865 273.318 91.8865 272.67H95.1625C94.9945 273.33 94.6885 273.924 94.2445 274.452C93.8125 274.98 93.2665 275.394 92.6065 275.694C91.9465 275.994 91.2085 276.144 90.3925 276.144C89.4085 276.144 88.5325 275.934 87.7645 275.514C86.9965 275.094 86.3965 274.494 85.9645 273.714C85.5325 272.934 85.3165 272.022 85.3165 270.978C85.3165 269.934 85.5265 269.022 85.9465 268.242C86.3785 267.462 86.9785 266.862 87.7465 266.442C88.5145 266.022 89.3965 265.812 90.3925 265.812C91.3645 265.812 92.2285 266.016 92.9845 266.424C93.7405 266.832 94.3285 267.414 94.7485 268.17C95.1805 268.926 95.3965 269.808 95.3965 270.816ZM92.2465 270.006C92.2465 269.478 92.0665 269.058 91.7065 268.746C91.3465 268.434 90.8965 268.278 90.3565 268.278C89.8405 268.278 89.4025 268.428 89.0425 268.728C88.6945 269.028 88.4785 269.454 88.3945 270.006H92.2465ZM96.4083 270.96C96.4083 269.928 96.6003 269.022 96.9843 268.242C97.3803 267.462 97.9143 266.862 98.5863 266.442C99.2583 266.022 100.008 265.812 100.836 265.812C101.544 265.812 102.162 265.956 102.69 266.244C103.23 266.532 103.644 266.91 103.932 267.378V265.956H107.01V276H103.932V274.578C103.632 275.046 103.212 275.424 102.672 275.712C102.144 276 101.526 276.144 100.818 276.144C100.002 276.144 99.2583 275.934 98.5863 275.514C97.9143 275.082 97.3803 274.476 96.9843 273.696C96.6003 272.904 96.4083 271.992 96.4083 270.96ZM103.932 270.978C103.932 270.21 103.716 269.604 103.284 269.16C102.864 268.716 102.348 268.494 101.736 268.494C101.124 268.494 100.602 268.716 100.17 269.16C99.7503 269.592 99.5403 270.192 99.5403 270.96C99.5403 271.728 99.7503 272.34 100.17 272.796C100.602 273.24 101.124 273.462 101.736 273.462C102.348 273.462 102.864 273.24 103.284 272.796C103.716 272.352 103.932 271.746 103.932 270.978ZM112.315 267.63C112.675 267.078 113.125 266.646 113.665 266.334C114.205 266.01 114.805 265.848 115.465 265.848V269.106H114.619C113.851 269.106 113.275 269.274 112.891 269.61C112.507 269.934 112.315 270.51 112.315 271.338V276H109.237V265.956H112.315V267.63ZM116.324 270.978C116.324 269.934 116.534 269.022 116.954 268.242C117.386 267.462 117.98 266.862 118.736 266.442C119.504 266.022 120.38 265.812 121.364 265.812C122.624 265.812 123.674 266.142 124.514 266.802C125.366 267.462 125.924 268.392 126.188 269.592H122.912C122.636 268.824 122.102 268.44 121.31 268.44C120.746 268.44 120.296 268.662 119.96 269.106C119.624 269.538 119.456 270.162 119.456 270.978C119.456 271.794 119.624 272.424 119.96 272.868C120.296 273.3 120.746 273.516 121.31 273.516C122.102 273.516 122.636 273.132 122.912 272.364H126.188C125.924 273.54 125.366 274.464 124.514 275.136C123.662 275.808 122.612 276.144 121.364 276.144C120.38 276.144 119.504 275.934 118.736 275.514C117.98 275.094 117.386 274.494 116.954 273.714C116.534 272.934 116.324 272.022 116.324 270.978ZM134.009 265.848C135.161 265.848 136.085 266.232 136.781 267C137.477 267.756 137.825 268.8 137.825 270.132V276H134.765V270.546C134.765 269.874 134.591 269.352 134.243 268.98C133.895 268.608 133.427 268.422 132.839 268.422C132.251 268.422 131.783 268.608 131.435 268.98C131.087 269.352 130.913 269.874 130.913 270.546V276H127.835V262.68H130.913V267.306C131.225 266.862 131.651 266.508 132.191 266.244C132.731 265.98 133.337 265.848 134.009 265.848ZM148.35 276.144C147.366 276.144 146.478 275.934 145.686 275.514C144.906 275.094 144.288 274.494 143.832 273.714C143.388 272.934 143.166 272.022 143.166 270.978C143.166 269.946 143.394 269.04 143.85 268.26C144.306 267.468 144.93 266.862 145.722 266.442C146.514 266.022 147.402 265.812 148.386 265.812C149.37 265.812 150.258 266.022 151.05 266.442C151.842 266.862 152.466 267.468 152.922 268.26C153.378 269.04 153.606 269.946 153.606 270.978C153.606 272.01 153.372 272.922 152.904 273.714C152.448 274.494 151.818 275.094 151.014 275.514C150.222 275.934 149.334 276.144 148.35 276.144ZM148.35 273.48C148.938 273.48 149.436 273.264 149.844 272.832C150.264 272.4 150.474 271.782 150.474 270.978C150.474 270.174 150.27 269.556 149.862 269.124C149.466 268.692 148.974 268.476 148.386 268.476C147.786 268.476 147.288 268.692 146.892 269.124C146.496 269.544 146.298 270.162 146.298 270.978C146.298 271.782 146.49 272.4 146.874 272.832C147.27 273.264 147.762 273.48 148.35 273.48ZM158.317 267.63C158.677 267.078 159.127 266.646 159.667 266.334C160.207 266.01 160.807 265.848 161.467 265.848V269.106H160.621C159.853 269.106 159.277 269.274 158.893 269.61C158.509 269.934 158.317 270.51 158.317 271.338V276H155.239V265.956H158.317V267.63ZM172.351 273.39V276H170.785C169.669 276 168.799 275.73 168.175 275.19C167.551 274.638 167.239 273.744 167.239 272.508V268.512H166.015V265.956H167.239V263.508H170.317V265.956H172.333V268.512H170.317V272.544C170.317 272.844 170.389 273.06 170.533 273.192C170.677 273.324 170.917 273.39 171.253 273.39H172.351ZM177.143 267.63C177.503 267.078 177.953 266.646 178.493 266.334C179.033 266.01 179.633 265.848 180.293 265.848V269.106H179.447C178.679 269.106 178.103 269.274 177.719 269.61C177.335 269.934 177.143 270.51 177.143 271.338V276H174.065V265.956H177.143V267.63ZM191.232 270.816C191.232 271.104 191.214 271.404 191.178 271.716H184.212C184.26 272.34 184.458 272.82 184.806 273.156C185.166 273.48 185.604 273.642 186.12 273.642C186.888 273.642 187.422 273.318 187.722 272.67H190.998C190.83 273.33 190.524 273.924 190.08 274.452C189.648 274.98 189.102 275.394 188.442 275.694C187.782 275.994 187.044 276.144 186.228 276.144C185.244 276.144 184.368 275.934 183.6 275.514C182.832 275.094 182.232 274.494 181.8 273.714C181.368 272.934 181.152 272.022 181.152 270.978C181.152 269.934 181.362 269.022 181.782 268.242C182.214 267.462 182.814 266.862 183.582 266.442C184.35 266.022 185.232 265.812 186.228 265.812C187.2 265.812 188.064 266.016 188.82 266.424C189.576 266.832 190.164 267.414 190.584 268.17C191.016 268.926 191.232 269.808 191.232 270.816ZM188.082 270.006C188.082 269.478 187.902 269.058 187.542 268.746C187.182 268.434 186.732 268.278 186.192 268.278C185.676 268.278 185.238 268.428 184.878 268.728C184.53 269.028 184.314 269.454 184.23 270.006H188.082ZM198.976 265.848C200.152 265.848 201.088 266.232 201.784 267C202.492 267.756 202.846 268.8 202.846 270.132V276H199.786V270.546C199.786 269.874 199.612 269.352 199.264 268.98C198.916 268.608 198.448 268.422 197.86 268.422C197.272 268.422 196.804 268.608 196.456 268.98C196.108 269.352 195.934 269.874 195.934 270.546V276H192.856V265.956H195.934V267.288C196.246 266.844 196.666 266.496 197.194 266.244C197.722 265.98 198.316 265.848 198.976 265.848ZM204.373 270.96C204.373 269.928 204.565 269.022 204.949 268.242C205.345 267.462 205.879 266.862 206.551 266.442C207.223 266.022 207.973 265.812 208.801 265.812C209.461 265.812 210.061 265.95 210.601 266.226C211.153 266.502 211.585 266.874 211.897 267.342V262.68H214.975V276H211.897V274.56C211.609 275.04 211.195 275.424 210.655 275.712C210.127 276 209.509 276.144 208.801 276.144C207.973 276.144 207.223 275.934 206.551 275.514C205.879 275.082 205.345 274.476 204.949 273.696C204.565 272.904 204.373 271.992 204.373 270.96ZM211.897 270.978C211.897 270.21 211.681 269.604 211.249 269.16C210.829 268.716 210.313 268.494 209.701 268.494C209.089 268.494 208.567 268.716 208.135 269.16C207.715 269.592 207.505 270.192 207.505 270.96C207.505 271.728 207.715 272.34 208.135 272.796C208.567 273.24 209.089 273.462 209.701 273.462C210.313 273.462 210.829 273.24 211.249 272.796C211.681 272.352 211.897 271.746 211.897 270.978ZM218.75 264.912C218.21 264.912 217.766 264.756 217.418 264.444C217.082 264.12 216.914 263.724 216.914 263.256C216.914 262.776 217.082 262.38 217.418 262.068C217.766 261.744 218.21 261.582 218.75 261.582C219.278 261.582 219.71 261.744 220.046 262.068C220.394 262.38 220.568 262.776 220.568 263.256C220.568 263.724 220.394 264.12 220.046 264.444C219.71 264.756 219.278 264.912 218.75 264.912ZM220.28 265.956V276H217.202V265.956H220.28ZM228.631 265.848C229.807 265.848 230.743 266.232 231.439 267C232.147 267.756 232.501 268.8 232.501 270.132V276H229.441V270.546C229.441 269.874 229.267 269.352 228.919 268.98C228.571 268.608 228.103 268.422 227.515 268.422C226.927 268.422 226.459 268.608 226.111 268.98C225.763 269.352 225.589 269.874 225.589 270.546V276H222.511V265.956H225.589V267.288C225.901 266.844 226.321 266.496 226.849 266.244C227.377 265.98 227.971 265.848 228.631 265.848ZM238.455 265.812C239.163 265.812 239.781 265.956 240.309 266.244C240.849 266.532 241.263 266.91 241.551 267.378V265.956H244.629V275.982C244.629 276.906 244.443 277.74 244.071 278.484C243.711 279.24 243.153 279.84 242.397 280.284C241.653 280.728 240.723 280.95 239.607 280.95C238.119 280.95 236.913 280.596 235.989 279.888C235.065 279.192 234.537 278.244 234.405 277.044H237.447C237.543 277.428 237.771 277.728 238.131 277.944C238.491 278.172 238.935 278.286 239.463 278.286C240.099 278.286 240.603 278.1 240.975 277.728C241.359 277.368 241.551 276.786 241.551 275.982V274.56C241.251 275.028 240.837 275.412 240.309 275.712C239.781 276 239.163 276.144 238.455 276.144C237.627 276.144 236.877 275.934 236.205 275.514C235.533 275.082 234.999 274.476 234.603 273.696C234.219 272.904 234.027 271.992 234.027 270.96C234.027 269.928 234.219 269.022 234.603 268.242C234.999 267.462 235.533 266.862 236.205 266.442C236.877 266.022 237.627 265.812 238.455 265.812ZM241.551 270.978C241.551 270.21 241.335 269.604 240.903 269.16C240.483 268.716 239.967 268.494 239.355 268.494C238.743 268.494 238.221 268.716 237.789 269.16C237.369 269.592 237.159 270.192 237.159 270.96C237.159 271.728 237.369 272.34 237.789 272.796C238.221 273.24 238.743 273.462 239.355 273.462C239.967 273.462 240.483 273.24 240.903 272.796C241.335 272.352 241.551 271.746 241.551 270.978Z" fill="#505050"/>
</svg>
