<svg width="254" height="304" viewBox="0 0 254 304" fill="none" xmlns="http://www.w3.org/2000/svg">
<path d="M28.9771 243.126C28.0531 243.126 27.2251 242.976 26.4931 242.676C25.7611 242.376 25.1731 241.932 24.7291 241.344C24.2971 240.756 24.0691 240.048 24.0451 239.22H27.3211C27.3691 239.688 27.5311 240.048 27.8071 240.3C28.0831 240.54 28.4431 240.66 28.8871 240.66C29.3431 240.66 29.7031 240.558 29.9671 240.354C30.2311 240.138 30.3631 239.844 30.3631 239.472C30.3631 239.16 30.2551 238.902 30.0391 238.698C29.8351 238.494 29.5771 238.326 29.2651 238.194C28.9651 238.062 28.5331 237.912 27.9691 237.744C27.1531 237.492 26.4871 237.24 25.9711 236.988C25.4551 236.736 25.0111 236.364 24.6391 235.872C24.2671 235.38 24.0811 234.738 24.0811 233.946C24.0811 232.77 24.5071 231.852 25.3591 231.192C26.2111 230.52 27.3211 230.184 28.6891 230.184C30.0811 230.184 31.2031 230.52 32.0551 231.192C32.9071 231.852 33.3631 232.776 33.4231 233.964H30.0931C30.0691 233.556 29.9191 233.238 29.6431 233.01C29.3671 232.77 29.0131 232.65 28.5811 232.65C28.2091 232.65 27.9091 232.752 27.6811 232.956C27.4531 233.148 27.3391 233.43 27.3391 233.802C27.3391 234.21 27.5311 234.528 27.9151 234.756C28.2991 234.984 28.8991 235.23 29.7151 235.494C30.5311 235.77 31.1911 236.034 31.6951 236.286C32.2111 236.538 32.6551 236.904 33.0271 237.384C33.3991 237.864 33.5851 238.482 33.5851 239.238C33.5851 239.958 33.3991 240.612 33.0271 241.2C32.6671 241.788 32.1391 242.256 31.4431 242.604C30.7471 242.952 29.9251 243.126 28.9771 243.126ZM44.9473 237.816C44.9473 238.104 44.9293 238.404 44.8933 238.716H37.9273C37.9753 239.34 38.1733 239.82 38.5213 240.156C38.8813 240.48 39.3193 240.642 39.8353 240.642C40.6033 240.642 41.1373 240.318 41.4373 239.67H44.7133C44.5453 240.33 44.2393 240.924 43.7953 241.452C43.3633 241.98 42.8173 242.394 42.1573 242.694C41.4973 242.994 40.7593 243.144 39.9433 243.144C38.9593 243.144 38.0833 242.934 37.3153 242.514C36.5473 242.094 35.9473 241.494 35.5153 240.714C35.0833 239.934 34.8673 239.022 34.8673 237.978C34.8673 236.934 35.0773 236.022 35.4973 235.242C35.9293 234.462 36.5293 233.862 37.2973 233.442C38.0653 233.022 38.9473 232.812 39.9433 232.812C40.9153 232.812 41.7793 233.016 42.5353 233.424C43.2913 233.832 43.8793 234.414 44.2993 235.17C44.7313 235.926 44.9473 236.808 44.9473 237.816ZM41.7973 237.006C41.7973 236.478 41.6173 236.058 41.2573 235.746C40.8973 235.434 40.4473 235.278 39.9073 235.278C39.3913 235.278 38.9533 235.428 38.5933 235.728C38.2453 236.028 38.0293 236.454 37.9453 237.006H41.7973ZM56.0391 237.816C56.0391 238.104 56.0211 238.404 55.9851 238.716H49.0191C49.0671 239.34 49.2651 239.82 49.6131 240.156C49.9731 240.48 50.4111 240.642 50.9271 240.642C51.6951 240.642 52.2291 240.318 52.5291 239.67H55.8051C55.6371 240.33 55.3311 240.924 54.8871 241.452C54.4551 241.98 53.9091 242.394 53.2491 242.694C52.5891 242.994 51.8511 243.144 51.0351 243.144C50.0511 243.144 49.1751 242.934 48.4071 242.514C47.6391 242.094 47.0391 241.494 46.6071 240.714C46.1751 239.934 45.9591 239.022 45.9591 237.978C45.9591 236.934 46.1691 236.022 46.5891 235.242C47.0211 234.462 47.6211 233.862 48.3891 233.442C49.1571 233.022 50.0391 232.812 51.0351 232.812C52.0071 232.812 52.8711 233.016 53.6271 233.424C54.3831 233.832 54.9711 234.414 55.3911 235.17C55.8231 235.926 56.0391 236.808 56.0391 237.816ZM52.8891 237.006C52.8891 236.478 52.7091 236.058 52.3491 235.746C51.9891 235.434 51.5391 235.278 50.9991 235.278C50.4831 235.278 50.0451 235.428 49.6851 235.728C49.3371 236.028 49.1211 236.454 49.0371 237.006H52.8891ZM70.4789 232.848C71.7269 232.848 72.7169 233.226 73.4489 233.982C74.1929 234.738 74.5649 235.788 74.5649 237.132V243H71.5049V237.546C71.5049 236.898 71.3309 236.4 70.9829 236.052C70.6469 235.692 70.1789 235.512 69.5789 235.512C68.9789 235.512 68.5049 235.692 68.1569 236.052C67.8209 236.4 67.6529 236.898 67.6529 237.546V243H64.5929V237.546C64.5929 236.898 64.4189 236.4 64.0709 236.052C63.7349 235.692 63.2669 235.512 62.6669 235.512C62.0669 235.512 61.5929 235.692 61.2449 236.052C60.9089 236.4 60.7409 236.898 60.7409 237.546V243H57.6629V232.956H60.7409V234.216C61.0529 233.796 61.4609 233.466 61.9649 233.226C62.4689 232.974 63.0389 232.848 63.6749 232.848C64.4309 232.848 65.1029 233.01 65.6909 233.334C66.2909 233.658 66.7589 234.12 67.0949 234.72C67.4429 234.168 67.9169 233.718 68.5169 233.37C69.1169 233.022 69.7709 232.848 70.4789 232.848ZM80.8036 243.144C79.9276 243.144 79.1476 242.994 78.4636 242.694C77.7796 242.394 77.2396 241.986 76.8436 241.47C76.4476 240.942 76.2256 240.354 76.1776 239.706H79.2196C79.2556 240.054 79.4176 240.336 79.7056 240.552C79.9936 240.768 80.3476 240.876 80.7676 240.876C81.1516 240.876 81.4456 240.804 81.6496 240.66C81.8656 240.504 81.9736 240.306 81.9736 240.066C81.9736 239.778 81.8236 239.568 81.5236 239.436C81.2236 239.292 80.7376 239.136 80.0656 238.968C79.3456 238.8 78.7456 238.626 78.2656 238.446C77.7856 238.254 77.3716 237.96 77.0236 237.564C76.6756 237.156 76.5016 236.61 76.5016 235.926C76.5016 235.35 76.6576 234.828 76.9696 234.36C77.2936 233.88 77.7616 233.502 78.3736 233.226C78.9976 232.95 79.7356 232.812 80.5876 232.812C81.8476 232.812 82.8376 233.124 83.5576 233.748C84.2896 234.372 84.7096 235.2 84.8176 236.232H81.9736C81.9256 235.884 81.7696 235.608 81.5056 235.404C81.2536 235.2 80.9176 235.098 80.4976 235.098C80.1376 235.098 79.8616 235.17 79.6696 235.314C79.4776 235.446 79.3816 235.632 79.3816 235.872C79.3816 236.16 79.5316 236.376 79.8316 236.52C80.1436 236.664 80.6236 236.808 81.2716 236.952C82.0156 237.144 82.6216 237.336 83.0896 237.528C83.5576 237.708 83.9656 238.008 84.3136 238.428C84.6736 238.836 84.8596 239.388 84.8716 240.084C84.8716 240.672 84.7036 241.2 84.3676 241.668C84.0436 242.124 83.5696 242.484 82.9456 242.748C82.3336 243.012 81.6196 243.144 80.8036 243.144ZM93.6471 229.68V243H90.5691V229.68H93.6471ZM97.4257 231.912C96.8857 231.912 96.4417 231.756 96.0937 231.444C95.7577 231.12 95.5897 230.724 95.5897 230.256C95.5897 229.776 95.7577 229.38 96.0937 229.068C96.4417 228.744 96.8857 228.582 97.4257 228.582C97.9537 228.582 98.3857 228.744 98.7217 229.068C99.0697 229.38 99.2437 229.776 99.2437 230.256C99.2437 230.724 99.0697 231.12 98.7217 231.444C98.3857 231.756 97.9537 231.912 97.4257 231.912ZM98.9557 232.956V243H95.8777V232.956H98.9557ZM107.324 243L104.264 238.788V243H101.186V229.68H104.264V237.042L107.306 232.956H111.104L106.928 237.996L111.14 243H107.324ZM121.781 237.816C121.781 238.104 121.763 238.404 121.727 238.716H114.761C114.809 239.34 115.007 239.82 115.355 240.156C115.715 240.48 116.153 240.642 116.669 240.642C117.437 240.642 117.971 240.318 118.271 239.67H121.547C121.379 240.33 121.073 240.924 120.629 241.452C120.197 241.98 119.651 242.394 118.991 242.694C118.331 242.994 117.593 243.144 116.777 243.144C115.793 243.144 114.917 242.934 114.149 242.514C113.381 242.094 112.781 241.494 112.349 240.714C111.917 239.934 111.701 239.022 111.701 237.978C111.701 236.934 111.911 236.022 112.331 235.242C112.763 234.462 113.363 233.862 114.131 233.442C114.899 233.022 115.781 232.812 116.777 232.812C117.749 232.812 118.613 233.016 119.369 233.424C120.125 233.832 120.713 234.414 121.133 235.17C121.565 235.926 121.781 236.808 121.781 237.816ZM118.631 237.006C118.631 236.478 118.451 236.058 118.091 235.746C117.731 235.434 117.281 235.278 116.741 235.278C116.225 235.278 115.787 235.428 115.427 235.728C115.079 236.028 114.863 236.454 114.779 237.006H118.631ZM141.638 232.956L138.92 243H135.518L133.934 236.484L132.296 243H128.912L126.176 232.956H129.254L130.676 240.138L132.368 232.956H135.626L137.336 240.102L138.74 232.956H141.638ZM152.279 237.816C152.279 238.104 152.261 238.404 152.225 238.716H145.259C145.307 239.34 145.505 239.82 145.853 240.156C146.213 240.48 146.651 240.642 147.167 240.642C147.935 240.642 148.469 240.318 148.769 239.67H152.045C151.877 240.33 151.571 240.924 151.127 241.452C150.695 241.98 150.149 242.394 149.489 242.694C148.829 242.994 148.091 243.144 147.275 243.144C146.291 243.144 145.415 242.934 144.647 242.514C143.879 242.094 143.279 241.494 142.847 240.714C142.415 239.934 142.199 239.022 142.199 237.978C142.199 236.934 142.409 236.022 142.829 235.242C143.261 234.462 143.861 233.862 144.629 233.442C145.397 233.022 146.279 232.812 147.275 232.812C148.247 232.812 149.111 233.016 149.867 233.424C150.623 233.832 151.211 234.414 151.631 235.17C152.063 235.926 152.279 236.808 152.279 237.816ZM149.129 237.006C149.129 236.478 148.949 236.058 148.589 235.746C148.229 235.434 147.779 235.278 147.239 235.278C146.723 235.278 146.285 235.428 145.925 235.728C145.577 236.028 145.361 236.454 145.277 237.006H149.129ZM163.892 232.848C165.044 232.848 165.968 233.232 166.664 234C167.36 234.756 167.708 235.8 167.708 237.132V243H164.648V237.546C164.648 236.874 164.474 236.352 164.126 235.98C163.778 235.608 163.31 235.422 162.722 235.422C162.134 235.422 161.666 235.608 161.318 235.98C160.97 236.352 160.796 236.874 160.796 237.546V243H157.718V229.68H160.796V234.306C161.108 233.862 161.534 233.508 162.074 233.244C162.614 232.98 163.22 232.848 163.892 232.848ZM169.234 237.96C169.234 236.928 169.426 236.022 169.81 235.242C170.206 234.462 170.74 233.862 171.412 233.442C172.084 233.022 172.834 232.812 173.662 232.812C174.37 232.812 174.988 232.956 175.516 233.244C176.056 233.532 176.47 233.91 176.758 234.378V232.956H179.836V243H176.758V241.578C176.458 242.046 176.038 242.424 175.498 242.712C174.97 243 174.352 243.144 173.644 243.144C172.828 243.144 172.084 242.934 171.412 242.514C170.74 242.082 170.206 241.476 169.81 240.696C169.426 239.904 169.234 238.992 169.234 237.96ZM176.758 237.978C176.758 237.21 176.542 236.604 176.11 236.16C175.69 235.716 175.174 235.494 174.562 235.494C173.95 235.494 173.428 235.716 172.996 236.16C172.576 236.592 172.366 237.192 172.366 237.96C172.366 238.728 172.576 239.34 172.996 239.796C173.428 240.24 173.95 240.462 174.562 240.462C175.174 240.462 175.69 240.24 176.11 239.796C176.542 239.352 176.758 238.746 176.758 237.978ZM186.581 240.12L188.759 232.956H192.035L188.471 243H184.673L181.109 232.956H184.403L186.581 240.12ZM202.799 237.816C202.799 238.104 202.781 238.404 202.745 238.716H195.779C195.827 239.34 196.025 239.82 196.373 240.156C196.733 240.48 197.171 240.642 197.687 240.642C198.455 240.642 198.989 240.318 199.289 239.67H202.565C202.397 240.33 202.091 240.924 201.647 241.452C201.215 241.98 200.669 242.394 200.009 242.694C199.349 242.994 198.611 243.144 197.795 243.144C196.811 243.144 195.935 242.934 195.167 242.514C194.399 242.094 193.799 241.494 193.367 240.714C192.935 239.934 192.719 239.022 192.719 237.978C192.719 236.934 192.929 236.022 193.349 235.242C193.781 234.462 194.381 233.862 195.149 233.442C195.917 233.022 196.799 232.812 197.795 232.812C198.767 232.812 199.631 233.016 200.387 233.424C201.143 233.832 201.731 234.414 202.151 235.17C202.583 235.926 202.799 236.808 202.799 237.816ZM199.649 237.006C199.649 236.478 199.469 236.058 199.109 235.746C198.749 235.434 198.299 235.278 197.759 235.278C197.243 235.278 196.805 235.428 196.445 235.728C196.097 236.028 195.881 236.454 195.797 237.006H199.649ZM214.357 232.848C215.533 232.848 216.469 233.232 217.165 234C217.873 234.756 218.227 235.8 218.227 237.132V243H215.167V237.546C215.167 236.874 214.993 236.352 214.645 235.98C214.297 235.608 213.829 235.422 213.241 235.422C212.653 235.422 212.185 235.608 211.837 235.98C211.489 236.352 211.315 236.874 211.315 237.546V243H208.237V232.956H211.315V234.288C211.627 233.844 212.047 233.496 212.575 233.244C213.103 232.98 213.697 232.848 214.357 232.848ZM224.938 243.144C223.954 243.144 223.066 242.934 222.274 242.514C221.494 242.094 220.876 241.494 220.42 240.714C219.976 239.934 219.754 239.022 219.754 237.978C219.754 236.946 219.982 236.04 220.438 235.26C220.894 234.468 221.518 233.862 222.31 233.442C223.102 233.022 223.99 232.812 224.974 232.812C225.958 232.812 226.846 233.022 227.638 233.442C228.43 233.862 229.054 234.468 229.51 235.26C229.966 236.04 230.194 236.946 230.194 237.978C230.194 239.01 229.96 239.922 229.492 240.714C229.036 241.494 228.406 242.094 227.602 242.514C226.81 242.934 225.922 243.144 224.938 243.144ZM224.938 240.48C225.526 240.48 226.024 240.264 226.432 239.832C226.852 239.4 227.062 238.782 227.062 237.978C227.062 237.174 226.858 236.556 226.45 236.124C226.054 235.692 225.562 235.476 224.974 235.476C224.374 235.476 223.876 235.692 223.48 236.124C223.084 236.544 222.886 237.162 222.886 237.978C222.886 238.782 223.078 239.4 223.462 239.832C223.858 240.264 224.35 240.48 224.938 240.48ZM32.2731 261.63C32.6331 261.078 33.0831 260.646 33.6231 260.334C34.1631 260.01 34.7631 259.848 35.4231 259.848V263.106H34.5771C33.8091 263.106 33.2331 263.274 32.8491 263.61C32.4651 263.934 32.2731 264.51 32.2731 265.338V270H29.1951V259.956H32.2731V261.63ZM46.3623 264.816C46.3623 265.104 46.3443 265.404 46.3083 265.716H39.3423C39.3903 266.34 39.5883 266.82 39.9363 267.156C40.2963 267.48 40.7343 267.642 41.2503 267.642C42.0183 267.642 42.5523 267.318 42.8523 266.67H46.1283C45.9603 267.33 45.6543 267.924 45.2103 268.452C44.7783 268.98 44.2323 269.394 43.5723 269.694C42.9123 269.994 42.1743 270.144 41.3583 270.144C40.3743 270.144 39.4983 269.934 38.7303 269.514C37.9623 269.094 37.3623 268.494 36.9303 267.714C36.4983 266.934 36.2823 266.022 36.2823 264.978C36.2823 263.934 36.4923 263.022 36.9123 262.242C37.3443 261.462 37.9443 260.862 38.7123 260.442C39.4803 260.022 40.3623 259.812 41.3583 259.812C42.3303 259.812 43.1943 260.016 43.9503 260.424C44.7063 260.832 45.2943 261.414 45.7143 262.17C46.1463 262.926 46.3623 263.808 46.3623 264.816ZM43.2123 264.006C43.2123 263.478 43.0323 263.058 42.6723 262.746C42.3123 262.434 41.8623 262.278 41.3223 262.278C40.8063 262.278 40.3683 262.428 40.0083 262.728C39.6603 263.028 39.4443 263.454 39.3603 264.006H43.2123ZM47.3741 264.978C47.3741 263.934 47.5841 263.022 48.0041 262.242C48.4361 261.462 49.0301 260.862 49.7861 260.442C50.5541 260.022 51.4301 259.812 52.4141 259.812C53.6741 259.812 54.7241 260.142 55.5641 260.802C56.4161 261.462 56.9741 262.392 57.2381 263.592H53.9621C53.6861 262.824 53.1521 262.44 52.3601 262.44C51.7961 262.44 51.3461 262.662 51.0101 263.106C50.6741 263.538 50.5061 264.162 50.5061 264.978C50.5061 265.794 50.6741 266.424 51.0101 266.868C51.3461 267.3 51.7961 267.516 52.3601 267.516C53.1521 267.516 53.6861 267.132 53.9621 266.364H57.2381C56.9741 267.54 56.4161 268.464 55.5641 269.136C54.7121 269.808 53.6621 270.144 52.4141 270.144C51.4301 270.144 50.5541 269.934 49.7861 269.514C49.0301 269.094 48.4361 268.494 48.0041 267.714C47.5841 266.934 47.3741 266.022 47.3741 264.978ZM63.4566 270.144C62.4726 270.144 61.5846 269.934 60.7926 269.514C60.0126 269.094 59.3946 268.494 58.9386 267.714C58.4946 266.934 58.2726 266.022 58.2726 264.978C58.2726 263.946 58.5006 263.04 58.9566 262.26C59.4126 261.468 60.0366 260.862 60.8286 260.442C61.6206 260.022 62.5086 259.812 63.4926 259.812C64.4766 259.812 65.3646 260.022 66.1566 260.442C66.9486 260.862 67.5726 261.468 68.0286 262.26C68.4846 263.04 68.7126 263.946 68.7126 264.978C68.7126 266.01 68.4786 266.922 68.0106 267.714C67.5546 268.494 66.9246 269.094 66.1206 269.514C65.3286 269.934 64.4406 270.144 63.4566 270.144ZM63.4566 267.48C64.0446 267.48 64.5426 267.264 64.9506 266.832C65.3706 266.4 65.5806 265.782 65.5806 264.978C65.5806 264.174 65.3766 263.556 64.9686 263.124C64.5726 262.692 64.0806 262.476 63.4926 262.476C62.8926 262.476 62.3946 262.692 61.9986 263.124C61.6026 263.544 61.4046 264.162 61.4046 264.978C61.4046 265.782 61.5966 266.4 61.9806 266.832C62.3766 267.264 62.8686 267.48 63.4566 267.48ZM73.4235 261.63C73.7835 261.078 74.2335 260.646 74.7735 260.334C75.3135 260.01 75.9135 259.848 76.5735 259.848V263.106H75.7275C74.9595 263.106 74.3835 263.274 73.9995 263.61C73.6155 263.934 73.4235 264.51 73.4235 265.338V270H70.3455V259.956H73.4235V261.63ZM77.4327 264.96C77.4327 263.928 77.6247 263.022 78.0087 262.242C78.4047 261.462 78.9387 260.862 79.6107 260.442C80.2827 260.022 81.0327 259.812 81.8607 259.812C82.5207 259.812 83.1207 259.95 83.6607 260.226C84.2127 260.502 84.6447 260.874 84.9567 261.342V256.68H88.0347V270H84.9567V268.56C84.6687 269.04 84.2547 269.424 83.7147 269.712C83.1867 270 82.5687 270.144 81.8607 270.144C81.0327 270.144 80.2827 269.934 79.6107 269.514C78.9387 269.082 78.4047 268.476 78.0087 267.696C77.6247 266.904 77.4327 265.992 77.4327 264.96ZM84.9567 264.978C84.9567 264.21 84.7407 263.604 84.3087 263.16C83.8887 262.716 83.3727 262.494 82.7607 262.494C82.1487 262.494 81.6267 262.716 81.1947 263.16C80.7747 263.592 80.5647 264.192 80.5647 264.96C80.5647 265.728 80.7747 266.34 81.1947 266.796C81.6267 267.24 82.1487 267.462 82.7607 267.462C83.3727 267.462 83.8887 267.24 84.3087 266.796C84.7407 266.352 84.9567 265.746 84.9567 264.978ZM99.116 262.512H97.46V270H94.382V262.512H93.266V259.956H94.382V259.668C94.382 258.432 94.736 257.496 95.444 256.86C96.152 256.212 97.19 255.888 98.558 255.888C98.786 255.888 98.954 255.894 99.062 255.906V258.516C98.474 258.48 98.06 258.564 97.82 258.768C97.58 258.972 97.46 259.338 97.46 259.866V259.956H99.116V262.512ZM105.134 270.144C104.15 270.144 103.262 269.934 102.47 269.514C101.69 269.094 101.072 268.494 100.616 267.714C100.172 266.934 99.9503 266.022 99.9503 264.978C99.9503 263.946 100.178 263.04 100.634 262.26C101.09 261.468 101.714 260.862 102.506 260.442C103.298 260.022 104.186 259.812 105.17 259.812C106.154 259.812 107.042 260.022 107.834 260.442C108.626 260.862 109.25 261.468 109.706 262.26C110.162 263.04 110.39 263.946 110.39 264.978C110.39 266.01 110.156 266.922 109.688 267.714C109.232 268.494 108.602 269.094 107.798 269.514C107.006 269.934 106.118 270.144 105.134 270.144ZM105.134 267.48C105.722 267.48 106.22 267.264 106.628 266.832C107.048 266.4 107.258 265.782 107.258 264.978C107.258 264.174 107.054 263.556 106.646 263.124C106.25 262.692 105.758 262.476 105.17 262.476C104.57 262.476 104.072 262.692 103.676 263.124C103.28 263.544 103.082 264.162 103.082 264.978C103.082 265.782 103.274 266.4 103.658 266.832C104.054 267.264 104.546 267.48 105.134 267.48ZM115.101 261.63C115.461 261.078 115.911 260.646 116.451 260.334C116.991 260.01 117.591 259.848 118.251 259.848V263.106H117.405C116.637 263.106 116.061 263.274 115.677 263.61C115.293 263.934 115.101 264.51 115.101 265.338V270H112.023V259.956H115.101V261.63ZM129.135 267.39V270H127.569C126.453 270 125.583 269.73 124.959 269.19C124.335 268.638 124.023 267.744 124.023 266.508V262.512H122.799V259.956H124.023V257.508H127.101V259.956H129.117V262.512H127.101V266.544C127.101 266.844 127.173 267.06 127.317 267.192C127.461 267.324 127.701 267.39 128.037 267.39H129.135ZM137.023 259.848C138.175 259.848 139.099 260.232 139.795 261C140.491 261.756 140.839 262.8 140.839 264.132V270H137.779V264.546C137.779 263.874 137.605 263.352 137.257 262.98C136.909 262.608 136.441 262.422 135.853 262.422C135.265 262.422 134.797 262.608 134.449 262.98C134.101 263.352 133.927 263.874 133.927 264.546V270H130.849V256.68H133.927V261.306C134.239 260.862 134.665 260.508 135.205 260.244C135.745 259.98 136.351 259.848 137.023 259.848ZM152.446 264.816C152.446 265.104 152.428 265.404 152.392 265.716H145.426C145.474 266.34 145.672 266.82 146.02 267.156C146.38 267.48 146.818 267.642 147.334 267.642C148.102 267.642 148.636 267.318 148.936 266.67H152.212C152.044 267.33 151.738 267.924 151.294 268.452C150.862 268.98 150.316 269.394 149.656 269.694C148.996 269.994 148.258 270.144 147.442 270.144C146.458 270.144 145.582 269.934 144.814 269.514C144.046 269.094 143.446 268.494 143.014 267.714C142.582 266.934 142.366 266.022 142.366 264.978C142.366 263.934 142.576 263.022 142.996 262.242C143.428 261.462 144.028 260.862 144.796 260.442C145.564 260.022 146.446 259.812 147.442 259.812C148.414 259.812 149.278 260.016 150.034 260.424C150.79 260.832 151.378 261.414 151.798 262.17C152.23 262.926 152.446 263.808 152.446 264.816ZM149.296 264.006C149.296 263.478 149.116 263.058 148.756 262.746C148.396 262.434 147.946 262.278 147.406 262.278C146.89 262.278 146.452 262.428 146.092 262.728C145.744 263.028 145.528 263.454 145.444 264.006H149.296ZM161.971 270.144C161.095 270.144 160.315 269.994 159.631 269.694C158.947 269.394 158.407 268.986 158.011 268.47C157.615 267.942 157.393 267.354 157.345 266.706H160.387C160.423 267.054 160.585 267.336 160.873 267.552C161.161 267.768 161.515 267.876 161.935 267.876C162.319 267.876 162.613 267.804 162.817 267.66C163.033 267.504 163.141 267.306 163.141 267.066C163.141 266.778 162.991 266.568 162.691 266.436C162.391 266.292 161.905 266.136 161.233 265.968C160.513 265.8 159.913 265.626 159.433 265.446C158.953 265.254 158.539 264.96 158.191 264.564C157.843 264.156 157.669 263.61 157.669 262.926C157.669 262.35 157.825 261.828 158.137 261.36C158.461 260.88 158.929 260.502 159.541 260.226C160.165 259.95 160.903 259.812 161.755 259.812C163.015 259.812 164.005 260.124 164.725 260.748C165.457 261.372 165.877 262.2 165.985 263.232H163.141C163.093 262.884 162.937 262.608 162.673 262.404C162.421 262.2 162.085 262.098 161.665 262.098C161.305 262.098 161.029 262.17 160.837 262.314C160.645 262.446 160.549 262.632 160.549 262.872C160.549 263.16 160.699 263.376 160.999 263.52C161.311 263.664 161.791 263.808 162.439 263.952C163.183 264.144 163.789 264.336 164.257 264.528C164.725 264.708 165.133 265.008 165.481 265.428C165.841 265.836 166.027 266.388 166.039 267.084C166.039 267.672 165.871 268.2 165.535 268.668C165.211 269.124 164.737 269.484 164.113 269.748C163.501 270.012 162.787 270.144 161.971 270.144ZM177.39 264.816C177.39 265.104 177.372 265.404 177.336 265.716H170.37C170.418 266.34 170.616 266.82 170.964 267.156C171.324 267.48 171.762 267.642 172.278 267.642C173.046 267.642 173.58 267.318 173.88 266.67H177.156C176.988 267.33 176.682 267.924 176.238 268.452C175.806 268.98 175.26 269.394 174.6 269.694C173.94 269.994 173.202 270.144 172.386 270.144C171.402 270.144 170.526 269.934 169.758 269.514C168.99 269.094 168.39 268.494 167.958 267.714C167.526 266.934 167.31 266.022 167.31 264.978C167.31 263.934 167.52 263.022 167.94 262.242C168.372 261.462 168.972 260.862 169.74 260.442C170.508 260.022 171.39 259.812 172.386 259.812C173.358 259.812 174.222 260.016 174.978 260.424C175.734 260.832 176.322 261.414 176.742 262.17C177.174 262.926 177.39 263.808 177.39 264.816ZM174.24 264.006C174.24 263.478 174.06 263.058 173.7 262.746C173.34 262.434 172.89 262.278 172.35 262.278C171.834 262.278 171.396 262.428 171.036 262.728C170.688 263.028 170.472 263.454 170.388 264.006H174.24ZM178.401 264.96C178.401 263.928 178.593 263.022 178.977 262.242C179.373 261.462 179.907 260.862 180.579 260.442C181.251 260.022 182.001 259.812 182.829 259.812C183.537 259.812 184.155 259.956 184.683 260.244C185.223 260.532 185.637 260.91 185.925 261.378V259.956H189.003V270H185.925V268.578C185.625 269.046 185.205 269.424 184.665 269.712C184.137 270 183.519 270.144 182.811 270.144C181.995 270.144 181.251 269.934 180.579 269.514C179.907 269.082 179.373 268.476 178.977 267.696C178.593 266.904 178.401 265.992 178.401 264.96ZM185.925 264.978C185.925 264.21 185.709 263.604 185.277 263.16C184.857 262.716 184.341 262.494 183.729 262.494C183.117 262.494 182.595 262.716 182.163 263.16C181.743 263.592 181.533 264.192 181.533 264.96C181.533 265.728 181.743 266.34 182.163 266.796C182.595 267.24 183.117 267.462 183.729 267.462C184.341 267.462 184.857 267.24 185.277 266.796C185.709 266.352 185.925 265.746 185.925 264.978ZM194.308 261.63C194.668 261.078 195.118 260.646 195.658 260.334C196.198 260.01 196.798 259.848 197.458 259.848V263.106H196.612C195.844 263.106 195.268 263.274 194.884 263.61C194.5 263.934 194.308 264.51 194.308 265.338V270H191.23V259.956H194.308V261.63ZM198.317 264.978C198.317 263.934 198.527 263.022 198.947 262.242C199.379 261.462 199.973 260.862 200.729 260.442C201.497 260.022 202.373 259.812 203.357 259.812C204.617 259.812 205.667 260.142 206.507 260.802C207.359 261.462 207.917 262.392 208.181 263.592H204.905C204.629 262.824 204.095 262.44 203.303 262.44C202.739 262.44 202.289 262.662 201.953 263.106C201.617 263.538 201.449 264.162 201.449 264.978C201.449 265.794 201.617 266.424 201.953 266.868C202.289 267.3 202.739 267.516 203.303 267.516C204.095 267.516 204.629 267.132 204.905 266.364H208.181C207.917 267.54 207.359 268.464 206.507 269.136C205.655 269.808 204.605 270.144 203.357 270.144C202.373 270.144 201.497 269.934 200.729 269.514C199.973 269.094 199.379 268.494 198.947 267.714C198.527 266.934 198.317 266.022 198.317 264.978ZM216.002 259.848C217.154 259.848 218.078 260.232 218.774 261C219.47 261.756 219.818 262.8 219.818 264.132V270H216.758V264.546C216.758 263.874 216.584 263.352 216.236 262.98C215.888 262.608 215.42 262.422 214.832 262.422C214.244 262.422 213.776 262.608 213.428 262.98C213.08 263.352 212.906 263.874 212.906 264.546V270H209.828V256.68H212.906V261.306C213.218 260.862 213.644 260.508 214.184 260.244C214.724 259.98 215.33 259.848 216.002 259.848ZM223.397 270.144C222.857 270.144 222.413 269.988 222.065 269.676C221.729 269.352 221.561 268.956 221.561 268.488C221.561 268.008 221.729 267.606 222.065 267.282C222.413 266.958 222.857 266.796 223.397 266.796C223.925 266.796 224.357 266.958 224.693 267.282C225.041 267.606 225.215 268.008 225.215 268.488C225.215 268.956 225.041 269.352 224.693 269.676C224.357 269.988 223.925 270.144 223.397 270.144ZM20.663 284.364V286.83H17.315V297H14.237V286.83H10.889V284.364H20.663ZM25.2858 288.63C25.6458 288.078 26.0958 287.646 26.6358 287.334C27.1758 287.01 27.7758 286.848 28.4358 286.848V290.106H27.5898C26.8218 290.106 26.2458 290.274 25.8618 290.61C25.4778 290.934 25.2858 291.51 25.2858 292.338V297H22.2078V286.956H25.2858V288.63ZM40.167 286.956L33.867 301.77H30.555L32.859 296.658L28.773 286.956H32.211L34.533 293.238L36.837 286.956H40.167ZM49.1805 297.144C48.3045 297.144 47.5245 296.994 46.8405 296.694C46.1565 296.394 45.6165 295.986 45.2205 295.47C44.8245 294.942 44.6025 294.354 44.5545 293.706H47.5965C47.6325 294.054 47.7945 294.336 48.0825 294.552C48.3705 294.768 48.7245 294.876 49.1445 294.876C49.5285 294.876 49.8225 294.804 50.0265 294.66C50.2425 294.504 50.3505 294.306 50.3505 294.066C50.3505 293.778 50.2005 293.568 49.9005 293.436C49.6005 293.292 49.1145 293.136 48.4425 292.968C47.7225 292.8 47.1225 292.626 46.6425 292.446C46.1625 292.254 45.7485 291.96 45.4005 291.564C45.0525 291.156 44.8785 290.61 44.8785 289.926C44.8785 289.35 45.0345 288.828 45.3465 288.36C45.6705 287.88 46.1385 287.502 46.7505 287.226C47.3745 286.95 48.1125 286.812 48.9645 286.812C50.2245 286.812 51.2145 287.124 51.9345 287.748C52.6665 288.372 53.0865 289.2 53.1945 290.232H50.3505C50.3025 289.884 50.1465 289.608 49.8825 289.404C49.6305 289.2 49.2945 289.098 48.8745 289.098C48.5145 289.098 48.2385 289.17 48.0465 289.314C47.8545 289.446 47.7585 289.632 47.7585 289.872C47.7585 290.16 47.9085 290.376 48.2085 290.52C48.5205 290.664 49.0005 290.808 49.6485 290.952C50.3925 291.144 50.9985 291.336 51.4665 291.528C51.9345 291.708 52.3425 292.008 52.6905 292.428C53.0505 292.836 53.2365 293.388 53.2485 294.084C53.2485 294.672 53.0805 295.2 52.7445 295.668C52.4205 296.124 51.9465 296.484 51.3225 296.748C50.7105 297.012 49.9965 297.144 49.1805 297.144ZM59.7036 297.144C58.7196 297.144 57.8316 296.934 57.0396 296.514C56.2596 296.094 55.6416 295.494 55.1856 294.714C54.7416 293.934 54.5196 293.022 54.5196 291.978C54.5196 290.946 54.7476 290.04 55.2036 289.26C55.6596 288.468 56.2836 287.862 57.0756 287.442C57.8676 287.022 58.7556 286.812 59.7396 286.812C60.7236 286.812 61.6116 287.022 62.4036 287.442C63.1956 287.862 63.8196 288.468 64.2756 289.26C64.7316 290.04 64.9596 290.946 64.9596 291.978C64.9596 293.01 64.7256 293.922 64.2576 294.714C63.8016 295.494 63.1716 296.094 62.3676 296.514C61.5756 296.934 60.6876 297.144 59.7036 297.144ZM59.7036 294.48C60.2916 294.48 60.7896 294.264 61.1976 293.832C61.6176 293.4 61.8276 292.782 61.8276 291.978C61.8276 291.174 61.6236 290.556 61.2156 290.124C60.8196 289.692 60.3276 289.476 59.7396 289.476C59.1396 289.476 58.6416 289.692 58.2456 290.124C57.8496 290.544 57.6516 291.162 57.6516 291.978C57.6516 292.782 57.8436 293.4 58.2276 293.832C58.6236 294.264 59.1156 294.48 59.7036 294.48ZM79.4086 286.848C80.6566 286.848 81.6466 287.226 82.3786 287.982C83.1226 288.738 83.4946 289.788 83.4946 291.132V297H80.4346V291.546C80.4346 290.898 80.2606 290.4 79.9126 290.052C79.5766 289.692 79.1086 289.512 78.5086 289.512C77.9086 289.512 77.4346 289.692 77.0866 290.052C76.7506 290.4 76.5826 290.898 76.5826 291.546V297H73.5226V291.546C73.5226 290.898 73.3486 290.4 73.0006 290.052C72.6646 289.692 72.1966 289.512 71.5966 289.512C70.9966 289.512 70.5226 289.692 70.1746 290.052C69.8386 290.4 69.6706 290.898 69.6706 291.546V297H66.5926V286.956H69.6706V288.216C69.9826 287.796 70.3906 287.466 70.8946 287.226C71.3986 286.974 71.9686 286.848 72.6046 286.848C73.3606 286.848 74.0326 287.01 74.6206 287.334C75.2206 287.658 75.6886 288.12 76.0246 288.72C76.3726 288.168 76.8466 287.718 77.4466 287.37C78.0466 287.022 78.7006 286.848 79.4086 286.848ZM95.1152 291.816C95.1152 292.104 95.0973 292.404 95.0613 292.716H88.0953C88.1433 293.34 88.3413 293.82 88.6893 294.156C89.0493 294.48 89.4873 294.642 90.0033 294.642C90.7713 294.642 91.3053 294.318 91.6053 293.67H94.8813C94.7133 294.33 94.4073 294.924 93.9633 295.452C93.5313 295.98 92.9853 296.394 92.3253 296.694C91.6653 296.994 90.9273 297.144 90.1113 297.144C89.1273 297.144 88.2513 296.934 87.4833 296.514C86.7153 296.094 86.1153 295.494 85.6833 294.714C85.2513 293.934 85.0353 293.022 85.0353 291.978C85.0353 290.934 85.2453 290.022 85.6653 289.242C86.0973 288.462 86.6973 287.862 87.4653 287.442C88.2333 287.022 89.1153 286.812 90.1113 286.812C91.0833 286.812 91.9473 287.016 92.7033 287.424C93.4593 287.832 94.0473 288.414 94.4673 289.17C94.8993 289.926 95.1152 290.808 95.1152 291.816ZM91.9653 291.006C91.9653 290.478 91.7853 290.058 91.4253 289.746C91.0653 289.434 90.6153 289.278 90.0753 289.278C89.5593 289.278 89.1213 289.428 88.7613 289.728C88.4133 290.028 88.1973 290.454 88.1133 291.006H91.9653ZM105.126 297.144C104.142 297.144 103.254 296.934 102.462 296.514C101.682 296.094 101.064 295.494 100.608 294.714C100.164 293.934 99.9415 293.022 99.9415 291.978C99.9415 290.946 100.17 290.04 100.625 289.26C101.082 288.468 101.706 287.862 102.498 287.442C103.29 287.022 104.178 286.812 105.162 286.812C106.146 286.812 107.034 287.022 107.826 287.442C108.618 287.862 109.242 288.468 109.698 289.26C110.154 290.04 110.382 290.946 110.382 291.978C110.382 293.01 110.148 293.922 109.68 294.714C109.224 295.494 108.594 296.094 107.79 296.514C106.998 296.934 106.11 297.144 105.126 297.144ZM105.126 294.48C105.714 294.48 106.212 294.264 106.62 293.832C107.04 293.4 107.25 292.782 107.25 291.978C107.25 291.174 107.046 290.556 106.638 290.124C106.242 289.692 105.75 289.476 105.162 289.476C104.562 289.476 104.064 289.692 103.668 290.124C103.272 290.544 103.074 291.162 103.074 291.978C103.074 292.782 103.266 293.4 103.65 293.832C104.046 294.264 104.538 294.48 105.126 294.48ZM117.612 294.39V297H116.046C114.93 297 114.06 296.73 113.436 296.19C112.812 295.638 112.5 294.744 112.5 293.508V289.512H111.276V286.956H112.5V284.508H115.578V286.956H117.594V289.512H115.578V293.544C115.578 293.844 115.65 294.06 115.794 294.192C115.938 294.324 116.178 294.39 116.514 294.39H117.612ZM125.501 286.848C126.653 286.848 127.577 287.232 128.273 288C128.969 288.756 129.317 289.8 129.317 291.132V297H126.257V291.546C126.257 290.874 126.083 290.352 125.735 289.98C125.387 289.608 124.919 289.422 124.331 289.422C123.743 289.422 123.275 289.608 122.927 289.98C122.579 290.352 122.405 290.874 122.405 291.546V297H119.327V283.68H122.405V288.306C122.717 287.862 123.143 287.508 123.683 287.244C124.223 286.98 124.829 286.848 125.501 286.848ZM140.924 291.816C140.924 292.104 140.906 292.404 140.87 292.716H133.904C133.952 293.34 134.15 293.82 134.498 294.156C134.858 294.48 135.296 294.642 135.812 294.642C136.58 294.642 137.114 294.318 137.414 293.67H140.69C140.522 294.33 140.216 294.924 139.772 295.452C139.34 295.98 138.794 296.394 138.134 296.694C137.474 296.994 136.736 297.144 135.92 297.144C134.936 297.144 134.06 296.934 133.292 296.514C132.524 296.094 131.924 295.494 131.492 294.714C131.06 293.934 130.844 293.022 130.844 291.978C130.844 290.934 131.054 290.022 131.474 289.242C131.906 288.462 132.506 287.862 133.274 287.442C134.042 287.022 134.924 286.812 135.92 286.812C136.892 286.812 137.756 287.016 138.512 287.424C139.268 287.832 139.856 288.414 140.276 289.17C140.708 289.926 140.924 290.808 140.924 291.816ZM137.774 291.006C137.774 290.478 137.594 290.058 137.234 289.746C136.874 289.434 136.424 289.278 135.884 289.278C135.368 289.278 134.93 289.428 134.57 289.728C134.222 290.028 134.006 290.454 133.922 291.006H137.774ZM145.626 288.63C145.986 288.078 146.436 287.646 146.976 287.334C147.516 287.01 148.116 286.848 148.776 286.848V290.106H147.93C147.162 290.106 146.586 290.274 146.202 290.61C145.818 290.934 145.626 291.51 145.626 292.338V297H142.548V286.956H145.626V288.63ZM160.199 297L157.139 292.788V297H154.061V283.68H157.139V291.042L160.181 286.956H163.979L159.803 291.996L164.015 297H160.199ZM174.656 291.816C174.656 292.104 174.638 292.404 174.602 292.716H167.636C167.684 293.34 167.882 293.82 168.23 294.156C168.59 294.48 169.028 294.642 169.544 294.642C170.312 294.642 170.846 294.318 171.146 293.67H174.422C174.254 294.33 173.948 294.924 173.504 295.452C173.072 295.98 172.526 296.394 171.866 296.694C171.206 296.994 170.468 297.144 169.652 297.144C168.668 297.144 167.792 296.934 167.024 296.514C166.256 296.094 165.656 295.494 165.224 294.714C164.792 293.934 164.576 293.022 164.576 291.978C164.576 290.934 164.786 290.022 165.206 289.242C165.638 288.462 166.238 287.862 167.006 287.442C167.774 287.022 168.656 286.812 169.652 286.812C170.624 286.812 171.488 287.016 172.244 287.424C173 287.832 173.588 288.414 174.008 289.17C174.44 289.926 174.656 290.808 174.656 291.816ZM171.506 291.006C171.506 290.478 171.326 290.058 170.966 289.746C170.606 289.434 170.156 289.278 169.616 289.278C169.1 289.278 168.662 289.428 168.302 289.728C167.954 290.028 167.738 290.454 167.654 291.006H171.506ZM186.54 286.956L180.24 301.77H176.928L179.232 296.658L175.146 286.956H178.584L180.906 293.238L183.21 286.956H186.54ZM202.071 286.956L199.353 297H195.951L194.367 290.484L192.729 297H189.345L186.609 286.956H189.687L191.109 294.138L192.801 286.956H196.059L197.769 294.102L199.173 286.956H202.071ZM207.817 297.144C206.833 297.144 205.945 296.934 205.153 296.514C204.373 296.094 203.755 295.494 203.299 294.714C202.855 293.934 202.633 293.022 202.633 291.978C202.633 290.946 202.861 290.04 203.317 289.26C203.773 288.468 204.397 287.862 205.189 287.442C205.981 287.022 206.869 286.812 207.853 286.812C208.837 286.812 209.725 287.022 210.517 287.442C211.309 287.862 211.933 288.468 212.389 289.26C212.845 290.04 213.073 290.946 213.073 291.978C213.073 293.01 212.839 293.922 212.371 294.714C211.915 295.494 211.285 296.094 210.481 296.514C209.689 296.934 208.801 297.144 207.817 297.144ZM207.817 294.48C208.405 294.48 208.903 294.264 209.311 293.832C209.731 293.4 209.941 292.782 209.941 291.978C209.941 291.174 209.737 290.556 209.329 290.124C208.933 289.692 208.441 289.476 207.853 289.476C207.253 289.476 206.755 289.692 206.359 290.124C205.963 290.544 205.765 291.162 205.765 291.978C205.765 292.782 205.957 293.4 206.341 293.832C206.737 294.264 207.229 294.48 207.817 294.48ZM217.784 288.63C218.144 288.078 218.594 287.646 219.134 287.334C219.674 287.01 220.274 286.848 220.934 286.848V290.106H220.088C219.32 290.106 218.744 290.274 218.36 290.61C217.976 290.934 217.784 291.51 217.784 292.338V297H214.706V286.956H217.784V288.63ZM221.793 291.96C221.793 290.928 221.985 290.022 222.369 289.242C222.765 288.462 223.299 287.862 223.971 287.442C224.643 287.022 225.393 286.812 226.221 286.812C226.881 286.812 227.481 286.95 228.021 287.226C228.573 287.502 229.005 287.874 229.317 288.342V283.68H232.395V297H229.317V295.56C229.029 296.04 228.615 296.424 228.075 296.712C227.547 297 226.929 297.144 226.221 297.144C225.393 297.144 224.643 296.934 223.971 296.514C223.299 296.082 222.765 295.476 222.369 294.696C221.985 293.904 221.793 292.992 221.793 291.96ZM229.317 291.978C229.317 291.21 229.101 290.604 228.669 290.16C228.249 289.716 227.733 289.494 227.121 289.494C226.509 289.494 225.987 289.716 225.555 290.16C225.135 290.592 224.925 291.192 224.925 291.96C224.925 292.728 225.135 293.34 225.555 293.796C225.987 294.24 226.509 294.462 227.121 294.462C227.733 294.462 228.249 294.24 228.669 293.796C229.101 293.352 229.317 292.746 229.317 291.978ZM238.708 297.144C237.832 297.144 237.052 296.994 236.368 296.694C235.684 296.394 235.144 295.986 234.748 295.47C234.352 294.942 234.13 294.354 234.082 293.706H237.124C237.16 294.054 237.322 294.336 237.61 294.552C237.898 294.768 238.252 294.876 238.672 294.876C239.056 294.876 239.35 294.804 239.554 294.66C239.77 294.504 239.878 294.306 239.878 294.066C239.878 293.778 239.728 293.568 239.428 293.436C239.128 293.292 238.642 293.136 237.97 292.968C237.25 292.8 236.65 292.626 236.17 292.446C235.69 292.254 235.276 291.96 234.928 291.564C234.58 291.156 234.406 290.61 234.406 289.926C234.406 289.35 234.562 288.828 234.874 288.36C235.198 287.88 235.666 287.502 236.278 287.226C236.902 286.95 237.64 286.812 238.492 286.812C239.752 286.812 240.742 287.124 241.462 287.748C242.194 288.372 242.614 289.2 242.722 290.232H239.878C239.83 289.884 239.674 289.608 239.41 289.404C239.158 289.2 238.822 289.098 238.402 289.098C238.042 289.098 237.766 289.17 237.574 289.314C237.382 289.446 237.286 289.632 237.286 289.872C237.286 290.16 237.436 290.376 237.736 290.52C238.048 290.664 238.528 290.808 239.176 290.952C239.92 291.144 240.526 291.336 240.994 291.528C241.462 291.708 241.87 292.008 242.218 292.428C242.578 292.836 242.764 293.388 242.776 294.084C242.776 294.672 242.608 295.2 242.272 295.668C241.948 296.124 241.474 296.484 240.85 296.748C240.238 297.012 239.524 297.144 238.708 297.144Z" fill="#505050"/>
<path d="M95.8466 212.168C94.2626 212.168 92.8066 211.8 91.4786 211.064C90.1666 210.328 89.1186 209.304 88.3346 207.992C87.5666 206.664 87.1826 205.176 87.1826 203.528C87.1826 201.88 87.5666 200.4 88.3346 199.088C89.1186 197.776 90.1666 196.752 91.4786 196.016C92.8066 195.28 94.2626 194.912 95.8466 194.912C97.4306 194.912 98.8786 195.28 100.191 196.016C101.519 196.752 102.559 197.776 103.311 199.088C104.079 200.4 104.463 201.88 104.463 203.528C104.463 205.176 104.079 206.664 103.311 207.992C102.543 209.304 101.503 210.328 100.191 211.064C98.8786 211.8 97.4306 212.168 95.8466 212.168ZM95.8466 208.424C97.1906 208.424 98.2626 207.976 99.0626 207.08C99.8786 206.184 100.287 205 100.287 203.528C100.287 202.04 99.8786 200.856 99.0626 199.976C98.2626 199.08 97.1906 198.632 95.8466 198.632C94.4866 198.632 93.3986 199.072 92.5826 199.952C91.7826 200.832 91.3826 202.024 91.3826 203.528C91.3826 205.016 91.7826 206.208 92.5826 207.104C93.3986 207.984 94.4866 208.424 95.8466 208.424ZM112.842 212.192C111.53 212.192 110.346 211.912 109.29 211.352C108.25 210.792 107.426 209.992 106.818 208.952C106.226 207.912 105.93 206.696 105.93 205.304C105.93 203.928 106.234 202.72 106.842 201.68C107.45 200.624 108.282 199.816 109.338 199.256C110.394 198.696 111.578 198.416 112.89 198.416C114.202 198.416 115.386 198.696 116.442 199.256C117.498 199.816 118.33 200.624 118.938 201.68C119.546 202.72 119.85 203.928 119.85 205.304C119.85 206.68 119.538 207.896 118.914 208.952C118.306 209.992 117.466 210.792 116.394 211.352C115.338 211.912 114.154 212.192 112.842 212.192ZM112.842 208.64C113.626 208.64 114.29 208.352 114.834 207.776C115.394 207.2 115.674 206.376 115.674 205.304C115.674 204.232 115.402 203.408 114.858 202.832C114.33 202.256 113.674 201.968 112.89 201.968C112.09 201.968 111.426 202.256 110.898 202.832C110.37 203.392 110.106 204.216 110.106 205.304C110.106 206.376 110.362 207.2 110.874 207.776C111.402 208.352 112.058 208.64 112.842 208.64ZM126.131 200.504C126.531 199.88 127.083 199.376 127.787 198.992C128.491 198.608 129.315 198.416 130.259 198.416C131.363 198.416 132.363 198.696 133.259 199.256C134.155 199.816 134.859 200.616 135.371 201.656C135.899 202.696 136.163 203.904 136.163 205.28C136.163 206.656 135.899 207.872 135.371 208.928C134.859 209.968 134.155 210.776 133.259 211.352C132.363 211.912 131.363 212.192 130.259 212.192C129.331 212.192 128.507 212 127.787 211.616C127.083 211.232 126.531 210.736 126.131 210.128V218.384H122.027V198.608H126.131V200.504ZM131.987 205.28C131.987 204.256 131.699 203.456 131.123 202.88C130.563 202.288 129.867 201.992 129.035 201.992C128.219 201.992 127.523 202.288 126.947 202.88C126.387 203.472 126.107 204.28 126.107 205.304C126.107 206.328 126.387 207.136 126.947 207.728C127.523 208.32 128.219 208.616 129.035 208.616C129.851 208.616 130.547 208.32 131.123 207.728C131.699 207.12 131.987 206.304 131.987 205.28ZM143.764 212.192C142.596 212.192 141.556 211.992 140.644 211.592C139.732 211.192 139.012 210.648 138.484 209.96C137.956 209.256 137.66 208.472 137.596 207.608H141.652C141.7 208.072 141.916 208.448 142.3 208.736C142.684 209.024 143.156 209.168 143.716 209.168C144.228 209.168 144.62 209.072 144.892 208.88C145.18 208.672 145.324 208.408 145.324 208.088C145.324 207.704 145.124 207.424 144.724 207.248C144.324 207.056 143.676 206.848 142.78 206.624C141.82 206.4 141.02 206.168 140.38 205.928C139.74 205.672 139.188 205.28 138.724 204.752C138.26 204.208 138.028 203.48 138.028 202.568C138.028 201.8 138.236 201.104 138.652 200.48C139.084 199.84 139.708 199.336 140.524 198.968C141.356 198.6 142.34 198.416 143.476 198.416C145.156 198.416 146.476 198.832 147.436 199.664C148.412 200.496 148.972 201.6 149.116 202.976H145.324C145.26 202.512 145.052 202.144 144.7 201.872C144.364 201.6 143.916 201.464 143.356 201.464C142.876 201.464 142.508 201.56 142.252 201.752C141.996 201.928 141.868 202.176 141.868 202.496C141.868 202.88 142.068 203.168 142.468 203.36C142.884 203.552 143.524 203.744 144.388 203.936C145.38 204.192 146.188 204.448 146.812 204.704C147.436 204.944 147.98 205.344 148.444 205.904C148.924 206.448 149.172 207.184 149.188 208.112C149.188 208.896 148.964 209.6 148.516 210.224C148.084 210.832 147.452 211.312 146.62 211.664C145.804 212.016 144.852 212.192 143.764 212.192ZM157.099 194.552L156.619 206.048H153.139L152.659 194.552H157.099ZM154.939 212.192C154.219 212.192 153.627 211.984 153.163 211.568C152.715 211.136 152.491 210.608 152.491 209.984C152.491 209.344 152.715 208.808 153.163 208.376C153.627 207.944 154.219 207.728 154.939 207.728C155.643 207.728 156.219 207.944 156.667 208.376C157.131 208.808 157.363 209.344 157.363 209.984C157.363 210.608 157.131 211.136 156.667 211.568C156.219 211.984 155.643 212.192 154.939 212.192Z" fill="black"/>
<path d="M146.105 104.963L71.7558 124.101C69.2338 124.748 66.5583 124.367 64.3164 123.044C62.0745 121.721 60.4492 119.563 59.7971 117.043L37.3119 29.7593C36.6655 27.2383 37.0459 24.5639 38.3696 22.3228C39.6933 20.0818 41.8523 18.4571 44.3728 17.8052L113.543 0L131.247 7.92257L153.166 93.0088C153.812 95.5298 153.432 98.2042 152.108 100.445C150.785 102.686 148.626 104.311 146.105 104.963Z" fill="#F2F2F2"/>
<path d="M45.0772 20.5419C43.2823 21.0061 41.7449 22.163 40.8022 23.759C39.8596 25.3549 39.5887 27.2594 40.049 29.0547L62.5342 116.338C62.9986 118.133 64.156 119.67 65.7525 120.612C67.349 121.554 69.2542 121.825 71.0502 121.365L145.4 102.226C147.194 101.762 148.732 100.605 149.675 99.0092C150.617 97.4133 150.888 95.5088 150.428 93.7135L128.848 9.94571L113.29 2.98315L45.0772 20.5419Z" fill="white"/>
<path d="M131.058 8.37284L119.551 11.3348C118.711 11.551 117.819 11.4248 117.073 10.984C116.326 10.5431 115.784 9.82371 115.568 8.98402L113.38 0.488686C113.37 0.451493 113.371 0.412354 113.383 0.375757C113.394 0.33916 113.416 0.306588 113.446 0.281774C113.475 0.25696 113.511 0.240909 113.549 0.235463C113.587 0.230017 113.625 0.235395 113.661 0.250982L131.09 7.98822C131.128 8.00544 131.161 8.0343 131.182 8.07079C131.204 8.10729 131.214 8.14961 131.21 8.19189C131.207 8.23417 131.19 8.2743 131.163 8.30673C131.135 8.33915 131.099 8.36226 131.058 8.37284Z" fill="#F2F2F2"/>
<path d="M125.004 82.9114L91.1538 91.6249C90.9459 91.6785 90.7294 91.6905 90.5168 91.6604C90.3041 91.6303 90.0995 91.5587 89.9146 91.4495C89.7297 91.3404 89.568 91.1959 89.439 91.0243C89.3099 90.8527 89.2159 90.6574 89.1624 90.4495C89.1088 90.2417 89.0968 90.0253 89.1269 89.8127C89.157 89.6002 89.2287 89.3956 89.3379 89.2108C89.447 89.0259 89.5916 88.8644 89.7632 88.7354C89.9349 88.6063 90.1302 88.5124 90.3382 88.4589L124.188 79.7454C124.396 79.6918 124.613 79.6798 124.825 79.7099C125.038 79.74 125.243 79.8116 125.428 79.9208C125.613 80.0299 125.774 80.1744 125.903 80.346C126.032 80.5176 126.126 80.7129 126.18 80.9207C126.233 81.1286 126.245 81.345 126.215 81.5576C126.185 81.7701 126.114 81.9747 126.004 82.1595C125.895 82.3444 125.751 82.5059 125.579 82.6349C125.407 82.7639 125.212 82.8579 125.004 82.9114Z" fill="#CCCCCC"/>
<path d="M132.913 86.5725L92.5301 96.9675C92.1101 97.0756 91.6643 97.0125 91.2909 96.7921C90.9174 96.5716 90.6468 96.2119 90.5387 95.7921C90.4305 95.3722 90.4936 94.9267 90.7141 94.5533C90.9347 94.18 91.2945 93.9095 91.7145 93.8014L132.097 83.4064C132.517 83.2987 132.963 83.3621 133.336 83.5825C133.709 83.803 133.979 84.1625 134.087 84.5821C134.195 85.0017 134.132 85.4471 133.912 85.8203C133.692 86.1935 133.332 86.464 132.913 86.5725Z" fill="#CCCCCC"/>
<path d="M77.338 102.119C80.5302 102.119 83.1179 99.5326 83.1179 96.3416C83.1179 93.1507 80.5302 90.564 77.338 90.564C74.1459 90.564 71.5582 93.1507 71.5582 96.3416C71.5582 99.5326 74.1459 102.119 77.338 102.119Z" fill="#E6E6E6"/>
<path d="M121.405 67.7907L76.4483 79.3588C75.149 79.6915 73.7708 79.4955 72.6159 78.8138C71.4611 78.132 70.6239 77.0202 70.2881 75.7222L60.8669 39.137C60.534 37.8383 60.73 36.4606 61.4121 35.3061C62.0941 34.1517 63.2064 33.3149 64.5049 32.9792L109.461 21.4111C110.761 21.0784 112.139 21.2744 113.294 21.9561C114.449 22.6379 115.286 23.7497 115.622 25.0477L125.043 61.6329C125.376 62.9316 125.18 64.3093 124.498 65.4637C123.815 66.6182 122.703 67.455 121.405 67.7907Z" fill="white"/>
<path d="M121.405 67.7907L76.4483 79.3588C75.149 79.6915 73.7708 79.4955 72.6159 78.8138C71.4611 78.132 70.6239 77.0202 70.2881 75.7222L60.8669 39.137C60.534 37.8383 60.73 36.4606 61.4121 35.3061C62.0941 34.1517 63.2064 33.3149 64.5049 32.9792L109.461 21.4111C110.761 21.0784 112.139 21.2744 113.294 21.9561C114.449 22.6379 115.286 23.7497 115.622 25.0477L125.043 61.6329C125.376 62.9316 125.18 64.3093 124.498 65.4637C123.815 66.6182 122.703 67.455 121.405 67.7907ZM64.6532 33.5553C63.5075 33.8515 62.5261 34.5899 61.9243 35.6085C61.3225 36.6271 61.1495 37.8428 61.4432 38.9887L70.8644 75.5739C71.1608 76.7192 71.8994 77.7002 72.9184 78.3017C73.9374 78.9033 75.1535 79.0762 76.2999 78.7826L121.256 67.2146C122.402 66.9184 123.384 66.18 123.985 65.1614C124.587 64.1428 124.76 62.9271 124.466 61.7812L115.045 25.196C114.749 24.0507 114.01 23.0697 112.991 22.4681C111.972 21.8666 110.756 21.6937 109.61 21.9873L64.6532 33.5553Z" fill="#E6E6E6"/>
<path d="M107.181 33.7125L84.4916 39.5508C84.2933 39.6061 84.0813 39.5841 83.8985 39.4892C83.7158 39.3943 83.5759 39.2336 83.5071 39.0396C83.4751 38.9382 83.4641 38.8314 83.4748 38.7256C83.4854 38.6198 83.5175 38.5173 83.5691 38.4244C83.6207 38.3314 83.6907 38.25 83.7749 38.185C83.859 38.12 83.9555 38.0727 84.0585 38.0462L107.154 32.1033C108.087 32.5758 107.842 33.5423 107.18 33.7126L107.181 33.7125Z" fill="#F2F2F2"/>
<path d="M108.205 37.6909L85.5161 43.5292C85.3177 43.5845 85.1058 43.5625 84.923 43.4676C84.7402 43.3727 84.6003 43.212 84.5316 43.018C84.4996 42.9166 84.4886 42.8098 84.4992 42.704C84.5099 42.5982 84.542 42.4957 84.5936 42.4028C84.6452 42.3098 84.7152 42.2284 84.7993 42.1634C84.8835 42.0983 84.98 42.0512 85.0829 42.0246L108.179 36.0817C109.112 36.5542 108.866 37.5207 108.205 37.691L108.205 37.6909Z" fill="#F2F2F2"/>
<path d="M81.1947 47.0563L74.2702 48.838C74.0441 48.896 73.8041 48.8619 73.6031 48.7432C73.4021 48.6246 73.2564 48.431 73.198 48.2051L71.0945 40.0368C71.0365 39.8107 71.0707 39.5709 71.1894 39.37C71.3081 39.169 71.5017 39.0234 71.7277 38.965L78.6522 37.1832C78.8783 37.1253 79.1182 37.1594 79.3192 37.2781C79.5202 37.3968 79.6659 37.5903 79.7244 37.8162L81.8279 45.9844C81.8858 46.2105 81.8517 46.4503 81.733 46.6513C81.6143 46.8522 81.4207 46.9979 81.1947 47.0563V47.0563Z" fill="#E6E6E6"/>
<path d="M110.237 45.8533L75.6092 54.7636C75.4108 54.8189 75.1988 54.7969 75.0161 54.702C74.8333 54.6071 74.6934 54.4464 74.6247 54.2524C74.5927 54.151 74.5817 54.0442 74.5923 53.9384C74.603 53.8326 74.6351 53.7302 74.6867 53.6372C74.7383 53.5443 74.8083 53.4628 74.8924 53.3978C74.9765 53.3328 75.073 53.2856 75.176 53.2591L110.211 44.244C111.144 44.7166 110.898 45.6831 110.237 45.8533L110.237 45.8533Z" fill="#F2F2F2"/>
<path d="M111.261 49.8328L76.6339 58.7431C76.4356 58.7984 76.2236 58.7764 76.0408 58.6815C75.8581 58.5866 75.7181 58.4259 75.6494 58.2319C75.6174 58.1305 75.6064 58.0237 75.617 57.9179C75.6277 57.8121 75.6598 57.7097 75.7114 57.6167C75.763 57.5238 75.833 57.4423 75.9171 57.3773C76.0013 57.3123 76.0978 57.2651 76.2008 57.2386L111.236 48.2235C112.168 48.6961 111.923 49.6626 111.261 49.8328V49.8328Z" fill="#F2F2F2"/>
<path d="M112.285 53.8096L77.658 62.7199C77.4597 62.7752 77.2477 62.7532 77.0649 62.6584C76.8822 62.5635 76.7423 62.4027 76.6735 62.2087C76.6415 62.1073 76.6305 62.0005 76.6412 61.8947C76.6518 61.789 76.6839 61.6865 76.7355 61.5935C76.7871 61.5006 76.8571 61.4191 76.9412 61.3541C77.0254 61.2891 77.1219 61.2419 77.2249 61.2154L112.26 52.2003C113.193 52.6729 112.947 53.6394 112.285 53.8096Z" fill="#F2F2F2"/>
<path d="M113.31 57.7887L78.6827 66.699C78.4844 66.7543 78.2724 66.7323 78.0896 66.6374C77.9069 66.5425 77.767 66.3818 77.6982 66.1878C77.6662 66.0864 77.6552 65.9796 77.6659 65.8738C77.6765 65.768 77.7086 65.6656 77.7602 65.5726C77.8118 65.4797 77.8818 65.3982 77.966 65.3332C78.0501 65.2682 78.1466 65.221 78.2496 65.1945L113.284 56.1794C114.217 56.652 113.972 57.6185 113.31 57.7888L113.31 57.7887Z" fill="#F2F2F2"/>
<path d="M114.334 61.7658L79.7068 70.676C79.5085 70.7314 79.2965 70.7094 79.1137 70.6145C78.931 70.5196 78.7911 70.3589 78.7223 70.1648C78.6903 70.0635 78.6793 69.9566 78.69 69.8509C78.7006 69.7451 78.7328 69.6426 78.7843 69.5497C78.8359 69.4567 78.9059 69.3753 78.9901 69.3103C79.0742 69.2452 79.1707 69.198 79.2737 69.1715L114.308 60.1565C115.241 60.629 114.996 61.5956 114.334 61.7658Z" fill="#F2F2F2"/>
<path d="M77.7645 98.3669C77.6386 98.3996 77.5055 98.3904 77.3853 98.3408L77.3779 98.3377L75.8033 97.6705C75.7303 97.6395 75.664 97.5945 75.6083 97.538C75.5527 97.4814 75.5087 97.4145 75.479 97.3409C75.4493 97.2674 75.4343 97.1887 75.435 97.1094C75.4357 97.0301 75.4521 96.9517 75.4831 96.8787C75.5142 96.8057 75.5593 96.7395 75.616 96.684C75.6726 96.6284 75.7397 96.5846 75.8133 96.555C75.8869 96.5254 75.9656 96.5106 76.045 96.5114C76.1243 96.5122 76.2027 96.5287 76.2757 96.5599L77.296 96.9937L78.633 93.8497C78.664 93.7768 78.7091 93.7107 78.7656 93.6552C78.8222 93.5998 78.8891 93.556 78.9626 93.5263C79.0361 93.4967 79.1147 93.4818 79.1939 93.4826C79.2732 93.4833 79.3515 93.4996 79.4244 93.5306L79.4246 93.5307L79.4166 93.5513L79.4249 93.5306C79.5721 93.5934 79.6883 93.712 79.7482 93.8603C79.808 94.0087 79.8065 94.1747 79.744 94.3219L78.1711 98.0185C78.1346 98.1038 78.079 98.1795 78.0085 98.2397C77.9381 98.3 77.8547 98.3433 77.7648 98.3661L77.7645 98.3669Z" fill="white"/>
<path d="M174.622 138.225H97.8472C95.2437 138.222 92.7476 137.186 90.9066 135.346C89.0657 133.506 88.0301 131.011 88.0272 128.408V38.2769C88.0301 35.6743 89.0657 33.1792 90.9066 31.3389C92.7476 29.4987 95.2437 28.4635 97.8472 28.4606H169.274L184.442 40.5462V128.408C184.439 131.011 183.404 133.506 181.563 135.346C179.722 137.186 177.226 138.222 174.622 138.225Z" fill="#E6E6E6"/>
<path d="M97.8471 31.2865C95.9931 31.2886 94.2156 32.0257 92.9046 33.3362C91.5936 34.6467 90.8562 36.4236 90.8541 38.2769V128.408C90.8562 130.262 91.5936 132.038 92.9046 133.349C94.2156 134.659 95.9931 135.397 97.8471 135.399H174.622C176.476 135.397 178.254 134.659 179.565 133.349C180.876 132.038 181.613 130.262 181.615 128.408V41.9076L168.285 31.2865H97.8471Z" fill="white"/>
<path d="M159.689 57.4942H124.735C124.301 57.4942 123.885 57.322 123.578 57.0154C123.272 56.7088 123.099 56.2931 123.099 55.8595C123.099 55.426 123.272 55.0102 123.578 54.7036C123.885 54.3971 124.301 54.2249 124.735 54.2249H159.689C160.123 54.2249 160.539 54.3971 160.846 54.7036C161.152 55.0102 161.325 55.426 161.325 55.8595C161.325 56.2931 161.152 56.7088 160.846 57.0154C160.539 57.322 160.123 57.4942 159.689 57.4942Z" fill="#6C63FF"/>
<path d="M166.435 63.0112H124.735C124.302 63.0106 123.886 62.8381 123.58 62.5316C123.274 62.2251 123.102 61.8096 123.102 61.3765C123.102 60.9433 123.274 60.5279 123.58 60.2214C123.886 59.9149 124.302 59.7424 124.735 59.7418H166.435C166.65 59.7415 166.863 59.7836 167.061 59.8656C167.26 59.9476 167.441 60.068 167.593 60.2198C167.745 60.3716 167.865 60.5519 167.948 60.7504C168.03 60.9489 168.072 61.1616 168.072 61.3765C168.072 61.5913 168.03 61.8041 167.948 62.0026C167.865 62.201 167.745 62.3813 167.593 62.5332C167.441 62.685 167.26 62.8053 167.061 62.8874C166.863 62.9694 166.65 63.0115 166.435 63.0112Z" fill="#6C63FF"/>
<path d="M159.69 78.9484H124.736C124.302 78.9484 123.887 79.1206 123.58 79.4271C123.273 79.7337 123.101 80.1494 123.101 80.5829C123.101 81.0164 123.273 81.4322 123.58 81.7387C123.887 82.0453 124.302 82.2175 124.736 82.2175H159.69C160.123 82.2175 160.539 82.0453 160.846 81.7387C161.152 81.4322 161.325 81.0164 161.325 80.5829C161.325 80.1494 161.152 79.7337 160.846 79.4271C160.539 79.1206 160.123 78.9484 159.69 78.9484Z" fill="#CCCCCC"/>
<path d="M166.436 84.4663H124.736C124.302 84.4663 123.887 84.6385 123.58 84.9451C123.273 85.2516 123.101 85.6674 123.101 86.1009C123.101 86.5344 123.273 86.9501 123.58 87.2567C123.887 87.5632 124.302 87.7354 124.736 87.7354H166.436C166.869 87.7354 167.285 87.5632 167.592 87.2567C167.899 86.9501 168.071 86.5344 168.071 86.1009C168.071 85.6674 167.899 85.2516 167.592 84.9451C167.285 84.6385 166.869 84.4663 166.436 84.4663Z" fill="#CCCCCC"/>
<path d="M159.689 106.943H124.735C124.301 106.943 123.885 106.771 123.578 106.464C123.272 106.158 123.099 105.742 123.099 105.308C123.099 104.875 123.272 104.459 123.578 104.152C123.885 103.846 124.301 103.674 124.735 103.674H159.689C160.123 103.674 160.539 103.846 160.846 104.152C161.152 104.459 161.325 104.875 161.325 105.308C161.325 105.742 161.152 106.158 160.846 106.464C160.539 106.771 160.123 106.943 159.689 106.943Z" fill="#CCCCCC"/>
<path d="M166.435 112.46H124.735C124.302 112.46 123.886 112.287 123.58 111.981C123.274 111.674 123.102 111.259 123.102 110.825C123.102 110.392 123.274 109.977 123.58 109.67C123.886 109.364 124.302 109.191 124.735 109.191H166.435C166.65 109.191 166.863 109.233 167.061 109.315C167.26 109.397 167.441 109.517 167.593 109.669C167.745 109.821 167.865 110.001 167.948 110.199C168.03 110.398 168.072 110.611 168.072 110.825C168.072 111.04 168.03 111.253 167.948 111.452C167.865 111.65 167.745 111.83 167.593 111.982C167.441 112.134 167.26 112.254 167.061 112.336C166.863 112.418 166.65 112.46 166.435 112.46Z" fill="#CCCCCC"/>
<path d="M110.179 64.3958C113.371 64.3958 115.959 61.8091 115.959 58.6181C115.959 55.4272 113.371 52.8405 110.179 52.8405C106.987 52.8405 104.399 55.4272 104.399 58.6181C104.399 61.8091 106.987 64.3958 110.179 64.3958Z" fill="#6C63FF"/>
<path d="M109.606 60.8221C109.476 60.8223 109.35 60.7802 109.246 60.7023L109.239 60.6974L107.881 59.6587C107.818 59.6106 107.765 59.5505 107.725 59.4818C107.685 59.4132 107.659 59.3374 107.649 59.2587C107.638 59.1801 107.643 59.1001 107.664 59.0234C107.684 58.9468 107.72 58.8749 107.768 58.8119C107.816 58.7489 107.876 58.6961 107.945 58.6565C108.014 58.6168 108.09 58.5911 108.169 58.5808C108.247 58.5704 108.327 58.5758 108.404 58.5964C108.481 58.617 108.552 58.6526 108.615 58.701L109.495 59.3754L111.574 56.664C111.622 56.6012 111.682 56.5484 111.751 56.5088C111.82 56.4692 111.895 56.4434 111.974 56.4331C112.053 56.4227 112.132 56.4279 112.209 56.4483C112.285 56.4688 112.357 56.5042 112.42 56.5523L112.42 56.5525L112.407 56.5704L112.421 56.5525C112.548 56.6499 112.631 56.7937 112.651 56.9523C112.672 57.1109 112.63 57.2713 112.532 57.3983L110.087 60.586C110.03 60.6595 109.958 60.7189 109.874 60.7597C109.791 60.8005 109.699 60.8216 109.607 60.8214L109.606 60.8221Z" fill="white"/>
<path d="M116.553 83.3419C116.553 84.1007 116.404 84.8522 116.114 85.5533C115.823 86.2545 115.398 86.8916 114.861 87.4283C114.324 87.965 113.687 88.3908 112.986 88.6813C112.285 88.9719 111.533 89.1215 110.774 89.1216C110.724 89.1226 110.675 89.1206 110.625 89.1156C109.489 89.0865 108.386 88.723 107.455 88.0705C106.524 87.4181 105.807 86.5058 105.392 85.4477C104.977 84.3895 104.884 83.2327 105.124 82.1218C105.363 81.011 105.926 79.9955 106.74 79.2024C107.554 78.4093 108.584 77.8739 109.701 77.6631C110.818 77.4523 111.973 77.5756 113.02 78.0174C114.068 78.4592 114.962 79.2 115.59 80.1471C116.218 81.0942 116.553 82.2055 116.553 83.3419Z" fill="#CCCCCC"/>
<path d="M110.179 113.845C113.371 113.845 115.959 111.258 115.959 108.067C115.959 104.876 113.371 102.289 110.179 102.289C106.987 102.289 104.399 104.876 104.399 108.067C104.399 111.258 106.987 113.845 110.179 113.845Z" fill="#CCCCCC"/>
<path d="M184.147 40.9351H172.265C171.397 40.9351 170.566 40.5907 169.952 39.9776C169.339 39.3644 168.994 38.5329 168.994 37.6658V28.8933C168.994 28.8549 169.005 28.8173 169.026 28.7847C169.046 28.7522 169.075 28.7261 169.11 28.7093C169.144 28.6926 169.183 28.686 169.221 28.6902C169.259 28.6944 169.295 28.7093 169.326 28.7331L184.274 40.5706C184.307 40.597 184.331 40.633 184.343 40.6737C184.355 40.7145 184.354 40.7579 184.34 40.798C184.326 40.838 184.3 40.8728 184.265 40.8974C184.231 40.9219 184.189 40.9351 184.147 40.9351Z" fill="#CCCCCC"/>
<path d="M116.553 83.3419C116.553 84.1008 116.404 84.8522 116.114 85.5534C115.823 86.2545 115.398 86.8917 114.861 87.4284C114.324 87.9651 113.687 88.3909 112.986 88.6814C112.285 88.9719 111.533 89.1215 110.774 89.1216C110.724 89.1226 110.675 89.1206 110.625 89.1157C109.878 87.254 109.591 85.24 109.786 83.2438C109.981 81.2475 110.654 79.3274 111.747 77.6455C113.091 77.8759 114.311 78.574 115.191 79.6164C116.07 80.6587 116.553 81.9783 116.553 83.3419Z" fill="#6C63FF"/>
<path d="M123.099 80.5844C123.1 80.1507 123.273 79.7351 123.58 79.4284C123.886 79.1218 124.302 78.9491 124.736 78.9484H133.446C133.955 79.9827 134.316 81.0831 134.52 82.2175H124.736C124.303 82.2174 123.887 82.0454 123.58 81.7392C123.273 81.4331 123.1 81.0178 123.099 80.5844Z" fill="#6C63FF"/>
<path d="M134.723 84.4663C134.723 85.5704 134.577 86.6698 134.288 87.7354H124.736C124.302 87.7354 123.887 87.5632 123.58 87.2567C123.273 86.9501 123.101 86.5344 123.101 86.1009C123.101 85.6674 123.273 85.2516 123.58 84.9451C123.887 84.6385 124.302 84.4663 124.736 84.4663H134.723Z" fill="#6C63FF"/>
<path d="M156.274 104.628C156.027 105.032 155.63 105.321 155.17 105.433C154.71 105.544 154.224 105.468 153.82 105.222L132.988 92.5201C132.788 92.3981 132.614 92.2378 132.475 92.0485C132.337 91.8592 132.238 91.6445 132.182 91.4167C132.127 91.1889 132.117 90.9525 132.154 90.7209C132.19 90.4893 132.271 90.2671 132.393 90.0671C132.516 89.867 132.676 89.6929 132.865 89.5547C133.055 89.4165 133.269 89.317 133.497 89.2618C133.725 89.2067 133.962 89.1969 134.193 89.2331C134.425 89.2693 134.647 89.3507 134.847 89.4728L155.679 102.175C156.084 102.421 156.373 102.818 156.485 103.278C156.596 103.738 156.52 104.223 156.274 104.628Z" fill="#3F3D56"/>
<path d="M135.442 91.9259C133.971 94.3368 131.818 96.2575 129.255 97.4451C126.692 98.6326 123.834 99.0338 121.043 98.5978C118.251 98.1618 115.652 96.9082 113.574 94.9956C111.495 93.083 110.031 90.5972 109.366 87.8526C108.701 85.1081 108.864 82.228 109.837 79.5765C110.809 76.9251 112.546 74.6214 114.828 72.9568C117.11 71.2922 119.835 70.3414 122.658 70.2247C125.48 70.108 128.274 70.8306 130.686 72.3012C133.917 74.2761 136.232 77.4514 137.123 81.1305C138.015 84.8095 137.41 88.692 135.442 91.9259ZM114.102 78.9144C112.999 80.7225 112.457 82.8171 112.544 84.9333C112.632 87.0495 113.345 89.0922 114.594 90.8031C115.843 92.514 117.571 93.8162 119.561 94.5452C121.55 95.2741 123.711 95.3971 125.77 94.8984C127.829 94.3997 129.694 93.3018 131.129 91.7436C132.564 90.1853 133.505 88.2367 133.832 86.1441C134.159 84.0515 133.858 81.909 132.967 79.9874C132.076 78.0658 130.635 76.4515 128.826 75.3486C126.4 73.8729 123.487 73.4195 120.727 74.088C117.966 74.7565 115.584 76.4922 114.102 78.9144Z" fill="#3F3D56"/>
<path d="M181.207 86.78C185.243 86.78 188.516 83.509 188.516 79.474C188.516 75.439 185.243 72.168 181.207 72.168C177.17 72.168 173.898 75.439 173.898 79.474C173.898 83.509 177.17 86.78 181.207 86.78Z" fill="#A0616A"/>
<path d="M180.734 120.432C180.593 119.993 180.547 119.529 180.598 119.071C180.649 118.613 180.796 118.17 181.03 117.773C181.263 117.375 181.579 117.032 181.955 116.765C182.331 116.498 182.759 116.313 183.211 116.223C183.354 116.195 183.499 116.177 183.645 116.169L191.344 103.817L184.312 97.1344C184.043 96.8791 183.827 96.573 183.678 96.234C183.528 95.895 183.447 95.5296 183.439 95.1591C183.432 94.7886 183.497 94.4202 183.633 94.0753C183.768 93.7303 183.971 93.4156 184.229 93.1493C184.487 92.8831 184.795 92.6705 185.135 92.5239C185.476 92.3774 185.842 92.2997 186.213 92.2954C186.583 92.291 186.951 92.3602 187.295 92.4988C187.639 92.6374 187.952 92.8428 188.216 93.1029L197.926 102.673L197.945 102.697C198.246 103.154 198.391 103.696 198.359 104.241C198.327 104.787 198.12 105.308 197.768 105.727L186.981 118.48C187.013 118.582 187.04 118.686 187.062 118.791C187.152 119.243 187.145 119.709 187.043 120.159C186.94 120.609 186.744 121.031 186.466 121.4C186.189 121.768 185.837 122.074 185.433 122.297C185.029 122.519 184.583 122.654 184.123 122.693C184.03 122.701 183.938 122.705 183.846 122.705C183.154 122.702 182.48 122.481 181.922 122.073C181.363 121.664 180.947 121.09 180.734 120.432Z" fill="#A0616A"/>
<path d="M169.169 181.155L165.521 181.155L163.785 167.089L169.17 167.089L169.169 181.155Z" fill="#A0616A"/>
<path d="M170.1 184.69L158.336 184.69V184.541C158.336 183.94 158.455 183.345 158.685 182.79C158.915 182.235 159.252 181.73 159.677 181.305C160.102 180.88 160.607 180.543 161.163 180.313C161.718 180.083 162.314 179.964 162.915 179.964H162.915L170.1 179.965L170.1 184.69Z" fill="#2F2E41"/>
<path d="M205.431 176.113L202.296 177.979L193.605 166.781L198.232 164.027L205.431 176.113Z" fill="#A0616A"/>
<path d="M208.039 178.675L197.932 184.69L197.856 184.563C197.548 184.046 197.345 183.474 197.259 182.88C197.172 182.285 197.204 181.679 197.352 181.096C197.499 180.513 197.761 179.966 198.12 179.484C198.48 179.002 198.931 178.596 199.447 178.289L199.448 178.288L205.621 174.614L208.039 178.675Z" fill="#2F2E41"/>
<path d="M163.325 174.96C160.881 146.194 159.427 119.47 168.361 108.569L168.431 108.484L183.466 114.496L183.491 114.55C183.541 114.66 188.542 125.655 187.375 133.05L191.084 150.103L203.176 170.343C203.273 170.506 203.335 170.688 203.357 170.876C203.379 171.065 203.36 171.256 203.302 171.437C203.245 171.617 203.149 171.784 203.022 171.925C202.895 172.066 202.74 172.179 202.566 172.255L197.311 174.566C197.014 174.695 196.681 174.713 196.373 174.617C196.064 174.52 195.8 174.316 195.63 174.041L182.476 152.6L175.046 136.154C175.006 136.065 174.937 135.992 174.851 135.945C174.764 135.899 174.665 135.882 174.569 135.898C174.472 135.913 174.383 135.96 174.315 136.031C174.248 136.102 174.206 136.193 174.195 136.291L170.077 174.99C170.042 175.319 169.887 175.623 169.641 175.844C169.395 176.065 169.076 176.187 168.745 176.187H164.66C164.325 176.185 164.002 176.058 163.756 175.832C163.509 175.605 163.355 175.294 163.325 174.96Z" fill="#2F2E41"/>
<path d="M168.412 108.797L168.341 108.763L168.329 108.684C167.768 104.754 168.433 100.388 170.305 95.7071C171.228 93.4159 172.944 91.5325 175.14 90.3999C177.336 89.2673 179.866 88.961 182.268 89.5367C183.653 89.8777 184.951 90.5022 186.081 91.3708C187.211 92.2395 188.148 93.3332 188.833 94.5829C189.509 95.8197 189.921 97.1834 190.043 98.5877C190.164 99.992 189.993 101.406 189.539 102.741C187.178 109.642 184.116 116.099 184.085 116.163L184.021 116.298L168.412 108.797Z" fill="#6C63FF"/>
<path d="M152.008 99.0092C152.37 98.7235 152.788 98.5175 153.235 98.4047C153.683 98.2918 154.149 98.2747 154.603 98.3545C155.057 98.4342 155.49 98.609 155.872 98.8675C156.254 99.1259 156.577 99.4621 156.82 99.854C156.896 99.9784 156.964 100.108 157.022 100.242L171.292 103.125L175.091 94.2C175.237 93.859 175.448 93.5501 175.713 93.2911C175.978 93.0322 176.292 92.8284 176.637 92.6914C176.981 92.5545 177.35 92.4871 177.72 92.4932C178.091 92.4993 178.457 92.5787 178.797 92.7269C179.136 92.8751 179.443 93.0892 179.7 93.3567C179.957 93.6242 180.158 93.9398 180.291 94.2854C180.425 94.631 180.489 94.9997 180.48 95.3702C180.47 95.7407 180.388 96.1056 180.236 96.4439L174.669 108.887L174.653 108.914C174.33 109.355 173.874 109.68 173.351 109.841C172.829 110.003 172.268 109.991 171.752 109.809L156.025 104.175C155.94 104.241 155.852 104.302 155.761 104.359C155.369 104.602 154.93 104.759 154.473 104.82C154.016 104.882 153.551 104.846 153.108 104.715C152.666 104.584 152.256 104.361 151.906 104.061C151.556 103.761 151.273 103.391 151.076 102.974C151.036 102.89 151 102.804 150.968 102.718C150.728 102.069 150.7 101.361 150.886 100.695C151.073 100.029 151.466 99.4391 152.008 99.0092Z" fill="#A0616A"/>
<path d="M207.61 87.2981C206.906 86.0512 205.881 84.9092 204.525 84.4482C202.774 83.853 200.877 84.4868 199.077 84.9099C197.69 85.2359 196.241 85.4355 194.842 85.1604C193.444 84.8853 192.095 84.0719 191.459 82.7973C190.523 80.9222 191.312 78.6862 191.255 76.5915C191.226 75.4512 190.938 74.3324 190.413 73.3195C189.888 72.3066 189.141 71.4259 188.226 70.7439C187.311 70.062 186.254 69.5964 185.133 69.3825C184.012 69.1685 182.857 69.2116 181.755 69.5087C180.031 69.0113 178.47 68.9653 177.404 70.2902C176.062 70.2902 174.776 70.8229 173.827 71.7713C172.878 72.7196 172.345 74.0059 172.345 75.347H177.182C176.953 76.58 177.215 77.8537 177.913 78.8961C178.767 80.1501 180.251 81.0573 180.537 82.5472C180.814 83.9909 179.832 85.3608 178.803 86.4102C177.773 87.4597 176.578 88.4996 176.257 89.9341C176.06 91.023 176.283 92.1462 176.883 93.0767C177.481 93.9959 178.223 94.813 179.081 95.4968C182.945 98.806 187.537 101.154 192.483 102.35C195.966 103.189 199.775 103.406 203.008 101.864C204.302 101.247 205.454 100.371 206.395 99.29C207.335 98.2091 208.043 96.9464 208.475 95.5804C208.906 94.2143 209.052 92.7742 208.904 91.3495C208.755 89.9247 208.315 88.5457 207.61 87.2981Z" fill="#2F2E41"/>
<path d="M208.702 185H152.163C152.084 185 152.008 184.969 151.952 184.913C151.897 184.857 151.865 184.781 151.865 184.702C151.865 184.624 151.897 184.548 151.952 184.492C152.008 184.436 152.084 184.405 152.163 184.405H208.702C208.781 184.405 208.857 184.436 208.913 184.492C208.969 184.548 209 184.624 209 184.702C209 184.781 208.969 184.857 208.913 184.913C208.857 184.969 208.781 185 208.702 185Z" fill="#CCCCCC"/>
</svg>
