<svg width="272" height="312" viewBox="0 0 272 312" fill="none" xmlns="http://www.w3.org/2000/svg">
<g clip-path="url(#clip0)">
<path d="M40.1392 249.126C39.2152 249.126 38.3872 248.976 37.6552 248.676C36.9232 248.376 36.3352 247.932 35.8912 247.344C35.4592 246.756 35.2312 246.048 35.2072 245.22H38.4832C38.5312 245.688 38.6932 246.048 38.9692 246.3C39.2452 246.54 39.6052 246.66 40.0492 246.66C40.5052 246.66 40.8652 246.558 41.1292 246.354C41.3932 246.138 41.5252 245.844 41.5252 245.472C41.5252 245.16 41.4172 244.902 41.2012 244.698C40.9972 244.494 40.7392 244.326 40.4272 244.194C40.1272 244.062 39.6952 243.912 39.1312 243.744C38.3152 243.492 37.6492 243.24 37.1332 242.988C36.6172 242.736 36.1732 242.364 35.8012 241.872C35.4292 241.38 35.2432 240.738 35.2432 239.946C35.2432 238.77 35.6692 237.852 36.5212 237.192C37.3732 236.52 38.4832 236.184 39.8512 236.184C41.2432 236.184 42.3652 236.52 43.2172 237.192C44.0692 237.852 44.5252 238.776 44.5852 239.964H41.2552C41.2312 239.556 41.0812 239.238 40.8052 239.01C40.5292 238.77 40.1752 238.65 39.7432 238.65C39.3712 238.65 39.0712 238.752 38.8432 238.956C38.6152 239.148 38.5012 239.43 38.5012 239.802C38.5012 240.21 38.6932 240.528 39.0772 240.756C39.4612 240.984 40.0612 241.23 40.8772 241.494C41.6932 241.77 42.3532 242.034 42.8572 242.286C43.3732 242.538 43.8172 242.904 44.1892 243.384C44.5612 243.864 44.7472 244.482 44.7472 245.238C44.7472 245.958 44.5612 246.612 44.1892 247.2C43.8292 247.788 43.3012 248.256 42.6052 248.604C41.9092 248.952 41.0872 249.126 40.1392 249.126ZM56.1094 243.816C56.1094 244.104 56.0914 244.404 56.0554 244.716H49.0894C49.1374 245.34 49.3354 245.82 49.6834 246.156C50.0434 246.48 50.4814 246.642 50.9974 246.642C51.7654 246.642 52.2994 246.318 52.5994 245.67H55.8754C55.7074 246.33 55.4014 246.924 54.9574 247.452C54.5254 247.98 53.9794 248.394 53.3194 248.694C52.6594 248.994 51.9214 249.144 51.1054 249.144C50.1214 249.144 49.2454 248.934 48.4774 248.514C47.7094 248.094 47.1094 247.494 46.6774 246.714C46.2454 245.934 46.0294 245.022 46.0294 243.978C46.0294 242.934 46.2394 242.022 46.6594 241.242C47.0914 240.462 47.6914 239.862 48.4594 239.442C49.2274 239.022 50.1094 238.812 51.1054 238.812C52.0774 238.812 52.9414 239.016 53.6974 239.424C54.4534 239.832 55.0414 240.414 55.4614 241.17C55.8934 241.926 56.1094 242.808 56.1094 243.816ZM52.9594 243.006C52.9594 242.478 52.7794 242.058 52.4194 241.746C52.0594 241.434 51.6094 241.278 51.0694 241.278C50.5534 241.278 50.1154 241.428 49.7554 241.728C49.4074 242.028 49.1914 242.454 49.1074 243.006H52.9594ZM67.2012 243.816C67.2012 244.104 67.1832 244.404 67.1472 244.716H60.1812C60.2292 245.34 60.4272 245.82 60.7752 246.156C61.1352 246.48 61.5732 246.642 62.0892 246.642C62.8572 246.642 63.3912 246.318 63.6912 245.67H66.9672C66.7992 246.33 66.4932 246.924 66.0492 247.452C65.6172 247.98 65.0712 248.394 64.4112 248.694C63.7512 248.994 63.0132 249.144 62.1972 249.144C61.2132 249.144 60.3372 248.934 59.5692 248.514C58.8012 248.094 58.2012 247.494 57.7692 246.714C57.3372 245.934 57.1212 245.022 57.1212 243.978C57.1212 242.934 57.3312 242.022 57.7512 241.242C58.1832 240.462 58.7832 239.862 59.5512 239.442C60.3192 239.022 61.2012 238.812 62.1972 238.812C63.1692 238.812 64.0332 239.016 64.7892 239.424C65.5452 239.832 66.1332 240.414 66.5532 241.17C66.9852 241.926 67.2012 242.808 67.2012 243.816ZM64.0512 243.006C64.0512 242.478 63.8712 242.058 63.5112 241.746C63.1512 241.434 62.7012 241.278 62.1612 241.278C61.6452 241.278 61.2072 241.428 60.8472 241.728C60.4992 242.028 60.2832 242.454 60.1992 243.006H64.0512ZM81.641 238.848C82.889 238.848 83.879 239.226 84.611 239.982C85.355 240.738 85.727 241.788 85.727 243.132V249H82.667V243.546C82.667 242.898 82.493 242.4 82.145 242.052C81.809 241.692 81.341 241.512 80.741 241.512C80.141 241.512 79.667 241.692 79.319 242.052C78.983 242.4 78.815 242.898 78.815 243.546V249H75.755V243.546C75.755 242.898 75.581 242.4 75.233 242.052C74.897 241.692 74.429 241.512 73.829 241.512C73.229 241.512 72.755 241.692 72.407 242.052C72.071 242.4 71.903 242.898 71.903 243.546V249H68.825V238.956H71.903V240.216C72.215 239.796 72.623 239.466 73.127 239.226C73.631 238.974 74.201 238.848 74.837 238.848C75.593 238.848 76.265 239.01 76.853 239.334C77.453 239.658 77.921 240.12 78.257 240.72C78.605 240.168 79.079 239.718 79.679 239.37C80.279 239.022 80.933 238.848 81.641 238.848ZM91.9657 249.144C91.0897 249.144 90.3097 248.994 89.6257 248.694C88.9417 248.394 88.4017 247.986 88.0057 247.47C87.6097 246.942 87.3877 246.354 87.3397 245.706H90.3817C90.4177 246.054 90.5797 246.336 90.8677 246.552C91.1557 246.768 91.5097 246.876 91.9297 246.876C92.3137 246.876 92.6077 246.804 92.8117 246.66C93.0277 246.504 93.1357 246.306 93.1357 246.066C93.1357 245.778 92.9857 245.568 92.6857 245.436C92.3857 245.292 91.8997 245.136 91.2277 244.968C90.5077 244.8 89.9077 244.626 89.4277 244.446C88.9477 244.254 88.5337 243.96 88.1857 243.564C87.8377 243.156 87.6637 242.61 87.6637 241.926C87.6637 241.35 87.8197 240.828 88.1317 240.36C88.4557 239.88 88.9237 239.502 89.5357 239.226C90.1597 238.95 90.8977 238.812 91.7497 238.812C93.0097 238.812 93.9997 239.124 94.7197 239.748C95.4517 240.372 95.8717 241.2 95.9797 242.232H93.1357C93.0877 241.884 92.9317 241.608 92.6677 241.404C92.4157 241.2 92.0797 241.098 91.6597 241.098C91.2997 241.098 91.0237 241.17 90.8317 241.314C90.6397 241.446 90.5437 241.632 90.5437 241.872C90.5437 242.16 90.6937 242.376 90.9937 242.52C91.3057 242.664 91.7857 242.808 92.4337 242.952C93.1777 243.144 93.7837 243.336 94.2517 243.528C94.7197 243.708 95.1277 244.008 95.4757 244.428C95.8357 244.836 96.0217 245.388 96.0337 246.084C96.0337 246.672 95.8657 247.2 95.5297 247.668C95.2057 248.124 94.7317 248.484 94.1077 248.748C93.4957 249.012 92.7817 249.144 91.9657 249.144ZM104.809 235.68V249H101.731V235.68H104.809ZM108.588 237.912C108.048 237.912 107.604 237.756 107.256 237.444C106.92 237.12 106.752 236.724 106.752 236.256C106.752 235.776 106.92 235.38 107.256 235.068C107.604 234.744 108.048 234.582 108.588 234.582C109.116 234.582 109.548 234.744 109.884 235.068C110.232 235.38 110.406 235.776 110.406 236.256C110.406 236.724 110.232 237.12 109.884 237.444C109.548 237.756 109.116 237.912 108.588 237.912ZM110.118 238.956V249H107.04V238.956H110.118ZM118.486 249L115.426 244.788V249H112.348V235.68H115.426V243.042L118.468 238.956H122.266L118.09 243.996L122.302 249H118.486ZM132.943 243.816C132.943 244.104 132.925 244.404 132.889 244.716H125.923C125.971 245.34 126.169 245.82 126.517 246.156C126.877 246.48 127.315 246.642 127.831 246.642C128.599 246.642 129.133 246.318 129.433 245.67H132.709C132.541 246.33 132.235 246.924 131.791 247.452C131.359 247.98 130.813 248.394 130.153 248.694C129.493 248.994 128.755 249.144 127.939 249.144C126.955 249.144 126.079 248.934 125.311 248.514C124.543 248.094 123.943 247.494 123.511 246.714C123.079 245.934 122.863 245.022 122.863 243.978C122.863 242.934 123.073 242.022 123.493 241.242C123.925 240.462 124.525 239.862 125.293 239.442C126.061 239.022 126.943 238.812 127.939 238.812C128.911 238.812 129.775 239.016 130.531 239.424C131.287 239.832 131.875 240.414 132.295 241.17C132.727 241.926 132.943 242.808 132.943 243.816ZM129.793 243.006C129.793 242.478 129.613 242.058 129.253 241.746C128.893 241.434 128.443 241.278 127.903 241.278C127.387 241.278 126.949 241.428 126.589 241.728C126.241 242.028 126.025 242.454 125.941 243.006H129.793ZM144.502 238.848C145.678 238.848 146.614 239.232 147.31 240C148.018 240.756 148.372 241.8 148.372 243.132V249H145.312V243.546C145.312 242.874 145.138 242.352 144.79 241.98C144.442 241.608 143.974 241.422 143.386 241.422C142.798 241.422 142.33 241.608 141.982 241.98C141.634 242.352 141.46 242.874 141.46 243.546V249H138.382V238.956H141.46V240.288C141.772 239.844 142.192 239.496 142.72 239.244C143.248 238.98 143.842 238.848 144.502 238.848ZM155.083 249.144C154.099 249.144 153.211 248.934 152.419 248.514C151.639 248.094 151.021 247.494 150.565 246.714C150.121 245.934 149.899 245.022 149.899 243.978C149.899 242.946 150.127 242.04 150.583 241.26C151.039 240.468 151.663 239.862 152.455 239.442C153.247 239.022 154.135 238.812 155.119 238.812C156.103 238.812 156.991 239.022 157.783 239.442C158.575 239.862 159.199 240.468 159.655 241.26C160.111 242.04 160.339 242.946 160.339 243.978C160.339 245.01 160.105 245.922 159.637 246.714C159.181 247.494 158.551 248.094 157.747 248.514C156.955 248.934 156.067 249.144 155.083 249.144ZM155.083 246.48C155.671 246.48 156.169 246.264 156.577 245.832C156.997 245.4 157.207 244.782 157.207 243.978C157.207 243.174 157.003 242.556 156.595 242.124C156.199 241.692 155.707 241.476 155.119 241.476C154.519 241.476 154.021 241.692 153.625 242.124C153.229 242.544 153.031 243.162 153.031 243.978C153.031 244.782 153.223 245.4 153.607 245.832C154.003 246.264 154.495 246.48 155.083 246.48ZM170.358 249.144C169.374 249.144 168.486 248.934 167.694 248.514C166.914 248.094 166.296 247.494 165.84 246.714C165.396 245.934 165.174 245.022 165.174 243.978C165.174 242.946 165.402 242.04 165.858 241.26C166.314 240.468 166.938 239.862 167.73 239.442C168.522 239.022 169.41 238.812 170.394 238.812C171.378 238.812 172.266 239.022 173.058 239.442C173.85 239.862 174.474 240.468 174.93 241.26C175.386 242.04 175.614 242.946 175.614 243.978C175.614 245.01 175.38 245.922 174.912 246.714C174.456 247.494 173.826 248.094 173.022 248.514C172.23 248.934 171.342 249.144 170.358 249.144ZM170.358 246.48C170.946 246.48 171.444 246.264 171.852 245.832C172.272 245.4 172.482 244.782 172.482 243.978C172.482 243.174 172.278 242.556 171.87 242.124C171.474 241.692 170.982 241.476 170.394 241.476C169.794 241.476 169.296 241.692 168.9 242.124C168.504 242.544 168.306 243.162 168.306 243.978C168.306 244.782 168.498 245.4 168.882 245.832C169.278 246.264 169.77 246.48 170.358 246.48ZM183.367 238.848C184.543 238.848 185.479 239.232 186.175 240C186.883 240.756 187.237 241.8 187.237 243.132V249H184.177V243.546C184.177 242.874 184.003 242.352 183.655 241.98C183.307 241.608 182.839 241.422 182.251 241.422C181.663 241.422 181.195 241.608 180.847 241.98C180.499 242.352 180.325 242.874 180.325 243.546V249H177.247V238.956H180.325V240.288C180.637 239.844 181.057 239.496 181.585 239.244C182.113 238.98 182.707 238.848 183.367 238.848ZM198.844 243.816C198.844 244.104 198.826 244.404 198.79 244.716H191.824C191.872 245.34 192.07 245.82 192.418 246.156C192.778 246.48 193.216 246.642 193.732 246.642C194.5 246.642 195.034 246.318 195.334 245.67H198.61C198.442 246.33 198.136 246.924 197.692 247.452C197.26 247.98 196.714 248.394 196.054 248.694C195.394 248.994 194.656 249.144 193.84 249.144C192.856 249.144 191.98 248.934 191.212 248.514C190.444 248.094 189.844 247.494 189.412 246.714C188.98 245.934 188.764 245.022 188.764 243.978C188.764 242.934 188.974 242.022 189.394 241.242C189.826 240.462 190.426 239.862 191.194 239.442C191.962 239.022 192.844 238.812 193.84 238.812C194.812 238.812 195.676 239.016 196.432 239.424C197.188 239.832 197.776 240.414 198.196 241.17C198.628 241.926 198.844 242.808 198.844 243.816ZM195.694 243.006C195.694 242.478 195.514 242.058 195.154 241.746C194.794 241.434 194.344 241.278 193.804 241.278C193.288 241.278 192.85 241.428 192.49 241.728C192.142 242.028 191.926 242.454 191.842 243.006H195.694ZM210.456 238.848C211.608 238.848 212.532 239.232 213.228 240C213.924 240.756 214.272 241.8 214.272 243.132V249H211.212V243.546C211.212 242.874 211.038 242.352 210.69 241.98C210.342 241.608 209.874 241.422 209.286 241.422C208.698 241.422 208.23 241.608 207.882 241.98C207.534 242.352 207.36 242.874 207.36 243.546V249H204.282V235.68H207.36V240.306C207.672 239.862 208.098 239.508 208.638 239.244C209.178 238.98 209.784 238.848 210.456 238.848ZM215.799 243.96C215.799 242.928 215.991 242.022 216.375 241.242C216.771 240.462 217.305 239.862 217.977 239.442C218.649 239.022 219.399 238.812 220.227 238.812C220.935 238.812 221.553 238.956 222.081 239.244C222.621 239.532 223.035 239.91 223.323 240.378V238.956H226.401V249H223.323V247.578C223.023 248.046 222.603 248.424 222.063 248.712C221.535 249 220.917 249.144 220.209 249.144C219.393 249.144 218.649 248.934 217.977 248.514C217.305 248.082 216.771 247.476 216.375 246.696C215.991 245.904 215.799 244.992 215.799 243.96ZM223.323 243.978C223.323 243.21 223.107 242.604 222.675 242.16C222.255 241.716 221.739 241.494 221.127 241.494C220.515 241.494 219.993 241.716 219.561 242.16C219.141 242.592 218.931 243.192 218.931 243.96C218.931 244.728 219.141 245.34 219.561 245.796C219.993 246.24 220.515 246.462 221.127 246.462C221.739 246.462 222.255 246.24 222.675 245.796C223.107 245.352 223.323 244.746 223.323 243.978ZM232.714 249.144C231.838 249.144 231.058 248.994 230.374 248.694C229.69 248.394 229.15 247.986 228.754 247.47C228.358 246.942 228.136 246.354 228.088 245.706H231.13C231.166 246.054 231.328 246.336 231.616 246.552C231.904 246.768 232.258 246.876 232.678 246.876C233.062 246.876 233.356 246.804 233.56 246.66C233.776 246.504 233.884 246.306 233.884 246.066C233.884 245.778 233.734 245.568 233.434 245.436C233.134 245.292 232.648 245.136 231.976 244.968C231.256 244.8 230.656 244.626 230.176 244.446C229.696 244.254 229.282 243.96 228.934 243.564C228.586 243.156 228.412 242.61 228.412 241.926C228.412 241.35 228.568 240.828 228.88 240.36C229.204 239.88 229.672 239.502 230.284 239.226C230.908 238.95 231.646 238.812 232.498 238.812C233.758 238.812 234.748 239.124 235.468 239.748C236.2 240.372 236.62 241.2 236.728 242.232H233.884C233.836 241.884 233.68 241.608 233.416 241.404C233.164 241.2 232.828 241.098 232.408 241.098C232.048 241.098 231.772 241.17 231.58 241.314C231.388 241.446 231.292 241.632 231.292 241.872C231.292 242.16 231.442 242.376 231.742 242.52C232.054 242.664 232.534 242.808 233.182 242.952C233.926 243.144 234.532 243.336 235 243.528C235.468 243.708 235.876 244.008 236.224 244.428C236.584 244.836 236.77 245.388 236.782 246.084C236.782 246.672 236.614 247.2 236.278 247.668C235.954 248.124 235.48 248.484 234.856 248.748C234.244 249.012 233.53 249.144 232.714 249.144ZM58.6579 267.378C58.9579 266.91 59.3719 266.532 59.8999 266.244C60.4279 265.956 61.0459 265.812 61.7539 265.812C62.5819 265.812 63.3319 266.022 64.0039 266.442C64.6759 266.862 65.2039 267.462 65.5879 268.242C65.9839 269.022 66.1819 269.928 66.1819 270.96C66.1819 271.992 65.9839 272.904 65.5879 273.696C65.2039 274.476 64.6759 275.082 64.0039 275.514C63.3319 275.934 62.5819 276.144 61.7539 276.144C61.0579 276.144 60.4399 276 59.8999 275.712C59.3719 275.424 58.9579 275.052 58.6579 274.596V280.788H55.5799V265.956H58.6579V267.378ZM63.0499 270.96C63.0499 270.192 62.8339 269.592 62.4019 269.16C61.9819 268.716 61.4599 268.494 60.8359 268.494C60.2239 268.494 59.7019 268.716 59.2699 269.16C58.8499 269.604 58.6399 270.21 58.6399 270.978C58.6399 271.746 58.8499 272.352 59.2699 272.796C59.7019 273.24 60.2239 273.462 60.8359 273.462C61.4479 273.462 61.9699 273.24 62.4019 272.796C62.8339 272.34 63.0499 271.728 63.0499 270.96ZM72.3687 276.144C71.3847 276.144 70.4967 275.934 69.7047 275.514C68.9247 275.094 68.3067 274.494 67.8507 273.714C67.4067 272.934 67.1847 272.022 67.1847 270.978C67.1847 269.946 67.4127 269.04 67.8687 268.26C68.3247 267.468 68.9487 266.862 69.7407 266.442C70.5327 266.022 71.4207 265.812 72.4047 265.812C73.3887 265.812 74.2767 266.022 75.0687 266.442C75.8607 266.862 76.4847 267.468 76.9407 268.26C77.3967 269.04 77.6247 269.946 77.6247 270.978C77.6247 272.01 77.3907 272.922 76.9227 273.714C76.4667 274.494 75.8367 275.094 75.0327 275.514C74.2407 275.934 73.3527 276.144 72.3687 276.144ZM72.3687 273.48C72.9567 273.48 73.4547 273.264 73.8627 272.832C74.2827 272.4 74.4927 271.782 74.4927 270.978C74.4927 270.174 74.2887 269.556 73.8807 269.124C73.4847 268.692 72.9927 268.476 72.4047 268.476C71.8047 268.476 71.3067 268.692 70.9107 269.124C70.5147 269.544 70.3167 270.162 70.3167 270.978C70.3167 271.782 70.5087 272.4 70.8927 272.832C71.2887 273.264 71.7807 273.48 72.3687 273.48ZM83.3436 276.144C82.4676 276.144 81.6876 275.994 81.0036 275.694C80.3196 275.394 79.7796 274.986 79.3836 274.47C78.9876 273.942 78.7656 273.354 78.7176 272.706H81.7596C81.7956 273.054 81.9576 273.336 82.2456 273.552C82.5336 273.768 82.8876 273.876 83.3076 273.876C83.6916 273.876 83.9856 273.804 84.1896 273.66C84.4056 273.504 84.5136 273.306 84.5136 273.066C84.5136 272.778 84.3636 272.568 84.0636 272.436C83.7636 272.292 83.2776 272.136 82.6056 271.968C81.8856 271.8 81.2856 271.626 80.8056 271.446C80.3256 271.254 79.9116 270.96 79.5636 270.564C79.2156 270.156 79.0416 269.61 79.0416 268.926C79.0416 268.35 79.1976 267.828 79.5096 267.36C79.8336 266.88 80.3016 266.502 80.9136 266.226C81.5376 265.95 82.2756 265.812 83.1276 265.812C84.3876 265.812 85.3776 266.124 86.0976 266.748C86.8296 267.372 87.2496 268.2 87.3576 269.232H84.5136C84.4656 268.884 84.3096 268.608 84.0456 268.404C83.7936 268.2 83.4576 268.098 83.0376 268.098C82.6776 268.098 82.4016 268.17 82.2096 268.314C82.0176 268.446 81.9216 268.632 81.9216 268.872C81.9216 269.16 82.0716 269.376 82.3716 269.52C82.6836 269.664 83.1636 269.808 83.8116 269.952C84.5556 270.144 85.1616 270.336 85.6296 270.528C86.0976 270.708 86.5056 271.008 86.8536 271.428C87.2136 271.836 87.3996 272.388 87.4116 273.084C87.4116 273.672 87.2436 274.2 86.9076 274.668C86.5836 275.124 86.1096 275.484 85.4856 275.748C84.8736 276.012 84.1596 276.144 83.3436 276.144ZM94.8927 273.39V276H93.3267C92.2107 276 91.3407 275.73 90.7167 275.19C90.0927 274.638 89.7807 273.744 89.7807 272.508V268.512H88.5567V265.956H89.7807V263.508H92.8587V265.956H94.8747V268.512H92.8587V272.544C92.8587 272.844 92.9307 273.06 93.0747 273.192C93.2187 273.324 93.4587 273.39 93.7947 273.39H94.8927ZM106.075 270.816C106.075 271.104 106.057 271.404 106.021 271.716H99.0552C99.1032 272.34 99.3012 272.82 99.6492 273.156C100.009 273.48 100.447 273.642 100.963 273.642C101.731 273.642 102.265 273.318 102.565 272.67H105.841C105.673 273.33 105.367 273.924 104.923 274.452C104.491 274.98 103.945 275.394 103.285 275.694C102.625 275.994 101.887 276.144 101.071 276.144C100.087 276.144 99.2112 275.934 98.4432 275.514C97.6752 275.094 97.0752 274.494 96.6432 273.714C96.2112 272.934 95.9952 272.022 95.9952 270.978C95.9952 269.934 96.2052 269.022 96.6252 268.242C97.0572 267.462 97.6572 266.862 98.4252 266.442C99.1932 266.022 100.075 265.812 101.071 265.812C102.043 265.812 102.907 266.016 103.663 266.424C104.419 266.832 105.007 267.414 105.427 268.17C105.859 268.926 106.075 269.808 106.075 270.816ZM102.925 270.006C102.925 269.478 102.745 269.058 102.385 268.746C102.025 268.434 101.575 268.278 101.035 268.278C100.519 268.278 100.081 268.428 99.7212 268.728C99.3732 269.028 99.1572 269.454 99.0732 270.006H102.925ZM107.087 270.96C107.087 269.928 107.279 269.022 107.663 268.242C108.059 267.462 108.593 266.862 109.265 266.442C109.937 266.022 110.687 265.812 111.515 265.812C112.175 265.812 112.775 265.95 113.315 266.226C113.867 266.502 114.299 266.874 114.611 267.342V262.68H117.689V276H114.611V274.56C114.323 275.04 113.909 275.424 113.369 275.712C112.841 276 112.223 276.144 111.515 276.144C110.687 276.144 109.937 275.934 109.265 275.514C108.593 275.082 108.059 274.476 107.663 273.696C107.279 272.904 107.087 271.992 107.087 270.96ZM114.611 270.978C114.611 270.21 114.395 269.604 113.963 269.16C113.543 268.716 113.027 268.494 112.415 268.494C111.803 268.494 111.281 268.716 110.849 269.16C110.429 269.592 110.219 270.192 110.219 270.96C110.219 271.728 110.429 272.34 110.849 272.796C111.281 273.24 111.803 273.462 112.415 273.462C113.027 273.462 113.543 273.24 113.963 272.796C114.395 272.352 114.611 271.746 114.611 270.978ZM128.77 268.512H127.114V276H124.036V268.512H122.92V265.956H124.036V265.668C124.036 264.432 124.39 263.496 125.098 262.86C125.806 262.212 126.844 261.888 128.212 261.888C128.44 261.888 128.608 261.894 128.716 261.906V264.516C128.128 264.48 127.714 264.564 127.474 264.768C127.234 264.972 127.114 265.338 127.114 265.866V265.956H128.77V268.512ZM134.789 276.144C133.805 276.144 132.917 275.934 132.125 275.514C131.345 275.094 130.727 274.494 130.271 273.714C129.827 272.934 129.605 272.022 129.605 270.978C129.605 269.946 129.833 269.04 130.289 268.26C130.745 267.468 131.369 266.862 132.161 266.442C132.953 266.022 133.841 265.812 134.825 265.812C135.809 265.812 136.697 266.022 137.489 266.442C138.281 266.862 138.905 267.468 139.361 268.26C139.817 269.04 140.045 269.946 140.045 270.978C140.045 272.01 139.811 272.922 139.343 273.714C138.887 274.494 138.257 275.094 137.453 275.514C136.661 275.934 135.773 276.144 134.789 276.144ZM134.789 273.48C135.377 273.48 135.875 273.264 136.283 272.832C136.703 272.4 136.913 271.782 136.913 270.978C136.913 270.174 136.709 269.556 136.301 269.124C135.905 268.692 135.413 268.476 134.825 268.476C134.225 268.476 133.727 268.692 133.331 269.124C132.935 269.544 132.737 270.162 132.737 270.978C132.737 271.782 132.929 272.4 133.313 272.832C133.709 273.264 134.201 273.48 134.789 273.48ZM144.756 267.63C145.116 267.078 145.566 266.646 146.106 266.334C146.646 266.01 147.246 265.848 147.906 265.848V269.106H147.06C146.292 269.106 145.716 269.274 145.332 269.61C144.948 269.934 144.756 270.51 144.756 271.338V276H141.678V265.956H144.756V267.63ZM152.579 270.96C152.579 269.928 152.771 269.022 153.155 268.242C153.551 267.462 154.085 266.862 154.757 266.442C155.429 266.022 156.179 265.812 157.007 265.812C157.715 265.812 158.333 265.956 158.861 266.244C159.401 266.532 159.815 266.91 160.103 267.378V265.956H163.181V276H160.103V274.578C159.803 275.046 159.383 275.424 158.843 275.712C158.315 276 157.697 276.144 156.989 276.144C156.173 276.144 155.429 275.934 154.757 275.514C154.085 275.082 153.551 274.476 153.155 273.696C152.771 272.904 152.579 271.992 152.579 270.96ZM160.103 270.978C160.103 270.21 159.887 269.604 159.455 269.16C159.035 268.716 158.519 268.494 157.907 268.494C157.295 268.494 156.773 268.716 156.341 269.16C155.921 269.592 155.711 270.192 155.711 270.96C155.711 271.728 155.921 272.34 156.341 272.796C156.773 273.24 157.295 273.462 157.907 273.462C158.519 273.462 159.035 273.24 159.455 272.796C159.887 272.352 160.103 271.746 160.103 270.978ZM183.64 265.956L180.922 276H177.52L175.936 269.484L174.298 276H170.914L168.178 265.956H171.256L172.678 273.138L174.37 265.956H177.628L179.338 273.102L180.742 265.956H183.64ZM190.988 265.848C192.14 265.848 193.064 266.232 193.76 267C194.456 267.756 194.804 268.8 194.804 270.132V276H191.744V270.546C191.744 269.874 191.57 269.352 191.222 268.98C190.874 268.608 190.406 268.422 189.818 268.422C189.23 268.422 188.762 268.608 188.414 268.98C188.066 269.352 187.892 269.874 187.892 270.546V276H184.814V262.68H187.892V267.306C188.204 266.862 188.63 266.508 189.17 266.244C189.71 265.98 190.316 265.848 190.988 265.848ZM198.491 264.912C197.951 264.912 197.507 264.756 197.159 264.444C196.823 264.12 196.655 263.724 196.655 263.256C196.655 262.776 196.823 262.38 197.159 262.068C197.507 261.744 197.951 261.582 198.491 261.582C199.019 261.582 199.451 261.744 199.787 262.068C200.135 262.38 200.309 262.776 200.309 263.256C200.309 263.724 200.135 264.12 199.787 264.444C199.451 264.756 199.019 264.912 198.491 264.912ZM200.021 265.956V276H196.943V265.956H200.021ZM205.33 262.68V276H202.252V262.68H205.33ZM217.028 270.816C217.028 271.104 217.01 271.404 216.974 271.716H210.008C210.056 272.34 210.254 272.82 210.602 273.156C210.962 273.48 211.4 273.642 211.916 273.642C212.684 273.642 213.218 273.318 213.518 272.67H216.794C216.626 273.33 216.32 273.924 215.876 274.452C215.444 274.98 214.898 275.394 214.238 275.694C213.578 275.994 212.84 276.144 212.024 276.144C211.04 276.144 210.164 275.934 209.396 275.514C208.628 275.094 208.028 274.494 207.596 273.714C207.164 272.934 206.948 272.022 206.948 270.978C206.948 269.934 207.158 269.022 207.578 268.242C208.01 267.462 208.61 266.862 209.378 266.442C210.146 266.022 211.028 265.812 212.024 265.812C212.996 265.812 213.86 266.016 214.616 266.424C215.372 266.832 215.96 267.414 216.38 268.17C216.812 268.926 217.028 269.808 217.028 270.816ZM213.878 270.006C213.878 269.478 213.698 269.058 213.338 268.746C212.978 268.434 212.528 268.278 211.988 268.278C211.472 268.278 211.034 268.428 210.674 268.728C210.326 269.028 210.11 269.454 210.026 270.006H213.878Z" fill="#505050"/>
<path d="M41.9572 201.152L37.5652 218H32.5972L29.9092 206.912L27.1252 218H22.1572L17.8852 201.152H22.2772L24.7012 213.416L27.7012 201.152H32.2132L35.0932 213.416L37.5412 201.152H41.9572ZM50.1113 218.192C48.7993 218.192 47.6153 217.912 46.5593 217.352C45.5193 216.792 44.6953 215.992 44.0873 214.952C43.4953 213.912 43.1993 212.696 43.1993 211.304C43.1993 209.928 43.5033 208.72 44.1113 207.68C44.7193 206.624 45.5513 205.816 46.6073 205.256C47.6633 204.696 48.8473 204.416 50.1593 204.416C51.4713 204.416 52.6553 204.696 53.7113 205.256C54.7673 205.816 55.5993 206.624 56.2073 207.68C56.8153 208.72 57.1193 209.928 57.1193 211.304C57.1193 212.68 56.8073 213.896 56.1833 214.952C55.5753 215.992 54.7353 216.792 53.6633 217.352C52.6073 217.912 51.4233 218.192 50.1113 218.192ZM50.1113 214.64C50.8953 214.64 51.5593 214.352 52.1033 213.776C52.6633 213.2 52.9433 212.376 52.9433 211.304C52.9433 210.232 52.6713 209.408 52.1273 208.832C51.5993 208.256 50.9433 207.968 50.1593 207.968C49.3593 207.968 48.6953 208.256 48.1673 208.832C47.6393 209.392 47.3753 210.216 47.3753 211.304C47.3753 212.376 47.6313 213.2 48.1433 213.776C48.6713 214.352 49.3273 214.64 50.1113 214.64ZM78.5206 204.608L74.8966 218H70.3606L68.2486 209.312L66.0646 218H61.5526L57.9046 204.608H62.0086L63.9046 214.184L66.1606 204.608H70.5046L72.7846 214.136L74.6566 204.608H78.5206ZM84.5017 214.208L81.8377 221.096H79.2217L80.6137 214.208H84.5017ZM97.5102 218.192C96.3422 218.192 95.3022 217.992 94.3902 217.592C93.4782 217.192 92.7582 216.648 92.2302 215.96C91.7022 215.256 91.4062 214.472 91.3422 213.608H95.3982C95.4462 214.072 95.6622 214.448 96.0462 214.736C96.4302 215.024 96.9022 215.168 97.4622 215.168C97.9742 215.168 98.3662 215.072 98.6382 214.88C98.9262 214.672 99.0702 214.408 99.0702 214.088C99.0702 213.704 98.8702 213.424 98.4702 213.248C98.0702 213.056 97.4222 212.848 96.5262 212.624C95.5662 212.4 94.7662 212.168 94.1262 211.928C93.4862 211.672 92.9342 211.28 92.4702 210.752C92.0062 210.208 91.7742 209.48 91.7742 208.568C91.7742 207.8 91.9822 207.104 92.3982 206.48C92.8302 205.84 93.4542 205.336 94.2702 204.968C95.1022 204.6 96.0862 204.416 97.2222 204.416C98.9022 204.416 100.222 204.832 101.182 205.664C102.158 206.496 102.718 207.6 102.862 208.976H99.0702C99.0062 208.512 98.7982 208.144 98.4462 207.872C98.1102 207.6 97.6622 207.464 97.1022 207.464C96.6222 207.464 96.2542 207.56 95.9982 207.752C95.7422 207.928 95.6142 208.176 95.6142 208.496C95.6142 208.88 95.8142 209.168 96.2142 209.36C96.6302 209.552 97.2702 209.744 98.1342 209.936C99.1262 210.192 99.9342 210.448 100.558 210.704C101.182 210.944 101.726 211.344 102.19 211.904C102.67 212.448 102.918 213.184 102.934 214.112C102.934 214.896 102.71 215.6 102.262 216.224C101.83 216.832 101.198 217.312 100.366 217.664C99.5502 218.016 98.5982 218.192 97.5102 218.192ZM118.669 204.608V218H114.565V216.176C114.149 216.768 113.581 217.248 112.861 217.616C112.157 217.968 111.373 218.144 110.509 218.144C109.485 218.144 108.581 217.92 107.797 217.472C107.013 217.008 106.405 216.344 105.973 215.48C105.541 214.616 105.325 213.6 105.325 212.432V204.608H109.405V211.88C109.405 212.776 109.637 213.472 110.101 213.968C110.565 214.464 111.189 214.712 111.973 214.712C112.773 214.712 113.405 214.464 113.869 213.968C114.333 213.472 114.565 212.776 114.565 211.88V204.608H118.669ZM120.801 211.304C120.801 209.912 121.081 208.696 121.641 207.656C122.217 206.616 123.009 205.816 124.017 205.256C125.041 204.696 126.209 204.416 127.521 204.416C129.201 204.416 130.601 204.856 131.721 205.736C132.857 206.616 133.601 207.856 133.953 209.456H129.585C129.217 208.432 128.505 207.92 127.449 207.92C126.697 207.92 126.097 208.216 125.649 208.808C125.201 209.384 124.977 210.216 124.977 211.304C124.977 212.392 125.201 213.232 125.649 213.824C126.097 214.4 126.697 214.688 127.449 214.688C128.505 214.688 129.217 214.176 129.585 213.152H133.953C133.601 214.72 132.857 215.952 131.721 216.848C130.585 217.744 129.185 218.192 127.521 218.192C126.209 218.192 125.041 217.912 124.017 217.352C123.009 216.792 122.217 215.992 121.641 214.952C121.081 213.912 120.801 212.696 120.801 211.304ZM144.38 204.464C145.916 204.464 147.148 204.976 148.076 206C149.004 207.008 149.468 208.4 149.468 210.176V218H145.388V210.728C145.388 209.832 145.156 209.136 144.692 208.64C144.228 208.144 143.604 207.896 142.82 207.896C142.036 207.896 141.412 208.144 140.948 208.64C140.484 209.136 140.252 209.832 140.252 210.728V218H136.148V200.24H140.252V206.408C140.668 205.816 141.236 205.344 141.956 204.992C142.676 204.64 143.484 204.464 144.38 204.464ZM170.03 211.088C170.03 211.472 170.006 211.872 169.958 212.288H160.67C160.734 213.12 160.998 213.76 161.462 214.208C161.942 214.64 162.526 214.856 163.214 214.856C164.238 214.856 164.95 214.424 165.35 213.56H169.718C169.494 214.44 169.086 215.232 168.494 215.936C167.918 216.64 167.19 217.192 166.31 217.592C165.43 217.992 164.446 218.192 163.358 218.192C162.046 218.192 160.878 217.912 159.854 217.352C158.83 216.792 158.03 215.992 157.454 214.952C156.878 213.912 156.59 212.696 156.59 211.304C156.59 209.912 156.87 208.696 157.43 207.656C158.006 206.616 158.806 205.816 159.83 205.256C160.854 204.696 162.03 204.416 163.358 204.416C164.654 204.416 165.806 204.688 166.814 205.232C167.822 205.776 168.606 206.552 169.166 207.56C169.742 208.568 170.03 209.744 170.03 211.088ZM165.83 210.008C165.83 209.304 165.59 208.744 165.11 208.328C164.63 207.912 164.03 207.704 163.31 207.704C162.622 207.704 162.038 207.904 161.558 208.304C161.094 208.704 160.806 209.272 160.694 210.008H165.83ZM189.283 204.464C190.947 204.464 192.267 204.968 193.243 205.976C194.235 206.984 194.731 208.384 194.731 210.176V218H190.651V210.728C190.651 209.864 190.419 209.2 189.955 208.736C189.507 208.256 188.883 208.016 188.083 208.016C187.283 208.016 186.651 208.256 186.187 208.736C185.739 209.2 185.515 209.864 185.515 210.728V218H181.435V210.728C181.435 209.864 181.203 209.2 180.739 208.736C180.291 208.256 179.667 208.016 178.867 208.016C178.067 208.016 177.435 208.256 176.971 208.736C176.523 209.2 176.299 209.864 176.299 210.728V218H172.195V204.608H176.299V206.288C176.715 205.728 177.259 205.288 177.931 204.968C178.603 204.632 179.363 204.464 180.211 204.464C181.219 204.464 182.115 204.68 182.899 205.112C183.699 205.544 184.323 206.16 184.771 206.96C185.235 206.224 185.867 205.624 186.667 205.16C187.467 204.696 188.339 204.464 189.283 204.464ZM201.705 206.504C202.105 205.88 202.657 205.376 203.361 204.992C204.065 204.608 204.889 204.416 205.833 204.416C206.937 204.416 207.937 204.696 208.833 205.256C209.729 205.816 210.433 206.616 210.945 207.656C211.473 208.696 211.737 209.904 211.737 211.28C211.737 212.656 211.473 213.872 210.945 214.928C210.433 215.968 209.729 216.776 208.833 217.352C207.937 217.912 206.937 218.192 205.833 218.192C204.905 218.192 204.081 218 203.361 217.616C202.657 217.232 202.105 216.736 201.705 216.128V224.384H197.601V204.608H201.705V206.504ZM207.561 211.28C207.561 210.256 207.273 209.456 206.697 208.88C206.137 208.288 205.441 207.992 204.609 207.992C203.793 207.992 203.097 208.288 202.521 208.88C201.961 209.472 201.681 210.28 201.681 211.304C201.681 212.328 201.961 213.136 202.521 213.728C203.097 214.32 203.793 214.616 204.609 214.616C205.425 214.616 206.121 214.32 206.697 213.728C207.273 213.12 207.561 212.304 207.561 211.28ZM221.354 214.52V218H219.266C217.778 218 216.618 217.64 215.786 216.92C214.954 216.184 214.538 214.992 214.538 213.344V208.016H212.906V204.608H214.538V201.344H218.642V204.608H221.33V208.016H218.642V213.392C218.642 213.792 218.738 214.08 218.93 214.256C219.122 214.432 219.442 214.52 219.89 214.52H221.354ZM237.32 204.608L228.92 224.36H224.504L227.576 217.544L222.128 204.608H226.712L229.808 212.984L232.88 204.608H237.32ZM244.204 200.552L243.724 212.048H240.244L239.764 200.552H244.204ZM242.044 218.192C241.324 218.192 240.732 217.984 240.268 217.568C239.82 217.136 239.596 216.608 239.596 215.984C239.596 215.344 239.82 214.808 240.268 214.376C240.732 213.944 241.324 213.728 242.044 213.728C242.748 213.728 243.324 213.944 243.772 214.376C244.236 214.808 244.468 215.344 244.468 215.984C244.468 216.608 244.236 217.136 243.772 217.568C243.324 217.984 242.748 218.192 242.044 218.192Z" fill="black"/>
<path fill-rule="evenodd" clip-rule="evenodd" d="M99.8577 134.531C99.8896 132.171 99.9574 129.81 100.046 127.451C104.066 127.089 108.087 126.726 112.107 126.363C113.133 126.271 114.16 126.178 115.186 126.086C116.3 125.985 117.414 125.885 118.529 125.784C118.645 125.774 118.801 125.771 118.975 125.768C119.53 125.759 120.264 125.747 120.429 125.468C120.67 125.06 120.547 123.985 120.453 123.17C120.416 122.845 120.384 122.562 120.381 122.379C120.365 121.363 120.349 120.347 120.333 119.331C120.317 118.315 120.301 117.3 120.285 116.284L120.284 116.268C120.167 108.798 120.051 101.328 119.933 93.8585C120.896 93.8901 121.858 93.9189 122.821 93.9458C123.445 93.9634 124.069 93.9824 124.694 94.0013C128.262 94.1085 131.841 94.2163 135.405 94.1067C137.506 94.0422 139.496 93.4747 141.479 92.8052C142.534 92.4494 143.577 92.0618 144.613 91.6542C144.708 91.6169 144.857 91.5389 145.029 91.4487C145.446 91.2295 146 90.9388 146.25 90.987C146.672 91.0691 147.298 91.9766 147.758 92.6427C147.927 92.8876 148.073 93.1001 148.179 93.2265C149.427 94.7234 150.674 96.2203 151.922 97.7172L151.976 97.782C152.134 97.9719 152.315 98.1647 152.498 98.3616C152.903 98.7949 153.326 99.2478 153.574 99.7313C153.763 100.099 153.867 100.561 153.967 101.002C154.014 101.209 154.06 101.412 154.113 101.599C156.171 108.803 158.184 116.053 159.683 123.398C160.006 124.979 160.312 126.57 160.491 128.175C160.505 128.297 160.522 128.429 160.54 128.566C160.638 129.318 160.759 130.252 160.467 130.9C160.103 131.712 158.977 132.077 158.168 132.341C158.115 132.358 158.064 132.375 158.014 132.391C156.432 132.913 154.776 133.223 153.137 133.501C149.189 134.173 145.191 134.562 141.201 134.877C140.747 134.913 140.287 134.936 139.827 134.958C139.053 134.996 138.275 135.033 137.515 135.136C137.194 135.18 137.105 135.151 137.058 135.184C137.02 135.21 137.009 135.275 136.928 135.448C136.752 135.823 136.779 136.48 136.802 137.045C136.812 137.295 136.822 137.527 136.812 137.708C136.777 138.402 136.741 139.096 136.706 139.789C136.67 140.483 136.635 141.177 136.6 141.871C136.406 145.656 136.212 149.44 136.019 153.225C135.953 154.504 135.888 155.783 135.822 157.062C135.692 159.62 135.561 162.179 135.43 164.737C135.394 165.445 135.358 166.153 135.321 166.86C135.283 167.606 135.245 168.352 135.207 169.099C135.194 169.351 135.198 169.626 135.202 169.909C135.21 170.5 135.218 171.123 135.077 171.631C135 171.91 135.023 172.012 134.984 172.048C134.944 172.085 134.838 172.049 134.482 172.067C133.404 172.119 132.299 172.049 131.203 171.979C130.659 171.945 130.117 171.91 129.582 171.891C128.698 171.86 127.815 171.828 126.932 171.796C125.984 171.762 125.036 171.728 124.089 171.694C123.961 171.69 123.829 171.695 123.7 171.701C123.302 171.717 122.93 171.732 122.771 171.449C122.589 171.126 122.633 170.405 122.669 169.829C122.683 169.589 122.697 169.374 122.691 169.224L122.539 164.957L122.12 153.243C122.029 150.675 121.937 148.108 121.845 145.54C121.747 142.782 121.648 140.024 121.549 137.266C119.515 137.676 117.48 138.086 115.445 138.496L115.441 138.497C112.432 139.103 109.423 139.71 106.414 140.315C106.042 140.391 105.651 140.492 105.251 140.595C104.166 140.875 103.011 141.173 101.97 141.024C100.555 140.82 99.97 140.215 99.8906 138.87C99.8142 137.579 99.8329 136.278 99.8515 134.984C99.8536 134.833 99.8557 134.682 99.8577 134.531ZM140.916 111.671L140.411 110.697L140.192 111.772L138.052 122.248L137.95 122.748L138.458 122.714L145.779 122.228L146.371 122.189L146.098 121.661L140.916 111.671ZM138.915 121.905L140.733 113.003L145.135 121.492L138.915 121.905Z" fill="#6C63FF"/>
<path fill-rule="evenodd" clip-rule="evenodd" d="M201.717 26.8847C201.568 28.0499 201.674 29.3204 200.361 29.6277C199.145 29.9122 197.811 29.8324 196.571 29.9319C195.178 30.0441 193.789 30.1969 192.399 30.3351C190.646 30.5089 190.896 29.8344 190.513 28.3357C190.163 26.9671 189.604 25.6013 189.139 24.2666C188.923 23.6463 188.665 23.0754 188.371 22.4909C188.104 21.9615 188.231 21.2417 187.943 20.7968C186.962 19.2789 182.176 23.4294 181.732 22.6114C182.542 21.9802 183.943 21.2738 184.191 20.1938C184.484 18.9244 183.678 18.5453 182.666 19.0094C180.175 20.1521 177.3 21.045 174.583 21.4614C175.462 20.8735 183.409 16.2387 180.742 14.8639C180.141 14.554 179.338 15.1373 178.796 15.3579C177.935 15.7082 177.037 15.9431 176.139 16.1726C175.192 16.4144 174.244 16.6471 173.292 16.867C172.625 17.0213 171.435 17.5693 170.785 17.4341C170.124 17.2966 171.294 16.8863 171.485 16.7896C172.32 16.3684 173.142 15.9158 173.957 15.4575C175.403 14.6442 176.739 13.7022 177.839 12.4448C178.669 11.4961 180.039 9.42427 179.462 8.1124C179.127 7.35195 178.393 6.64913 177.962 5.92872C177.458 5.08724 177.052 4.19034 176.615 3.31365C177.347 3.63578 178.168 3.71824 178.915 4.00733C179.662 4.29666 180.42 4.53077 181.197 4.74583C182.756 5.17718 184.31 5.25385 185.855 5.60371C187.603 5.99958 189.425 6.44226 191.202 6.67108C192.749 6.87 194.139 7.29386 195.465 8.13821C198.171 9.86308 200.048 12.3409 200.998 15.4052C201.554 17.2002 201.69 19.0732 201.755 20.9409C201.824 22.9099 201.969 24.9242 201.717 26.8847ZM186.529 27.0295C184.639 28.4091 182.436 29.487 180.407 30.6605C179.247 31.3316 178.061 31.9592 176.878 32.5883C176.038 33.0348 175.017 33.8567 174.092 34.0857C173.507 34.2306 173.551 34.2417 173.181 33.7077C172.827 33.1978 172.518 32.6487 172.187 32.1235C171.576 31.1552 170.96 30.1905 170.344 29.2258C168.962 27.0635 167.583 24.9014 166.131 22.785C164.675 20.6613 163.278 18.4984 161.867 16.3448C161.211 15.3434 160.559 14.3383 159.863 13.3644C159.332 12.6209 157.97 11.4867 158.617 10.6112C159.217 9.79799 160.586 9.12241 161.396 8.50685C162.386 7.75534 163.381 7.01153 164.368 6.25613C166.489 4.63229 168.555 2.93778 170.674 1.31176C172.473 4.4705 174.589 7.43176 176.723 10.3684C174.793 11.6017 172.843 12.774 170.809 13.8298C169.307 14.6095 167.009 15.6632 166.06 17.1423C165.125 18.599 166.043 20.2793 167.71 20.306C168.706 20.3221 169.699 20.0578 170.676 19.907C171.381 19.7979 172.669 19.289 173.305 19.6476C172.162 20.3778 168.016 22.5054 170.251 24.371C171.848 25.7044 174.549 23.7585 176.275 24.1591C175.749 25.1699 175.202 26.7821 176.662 27.3317C177.877 27.7893 179.467 26.9365 180.561 26.4844C181.351 26.1576 182.136 25.8197 182.913 25.4632C183.531 25.1795 184.271 24.6045 184.931 24.4822C185.701 24.3391 187.269 26.4885 186.529 27.0295ZM151.395 101.525C152.476 101.327 153.032 100.88 153.372 102.194C153.677 103.372 153.98 104.506 154.373 105.661C152.684 105.808 151.194 106.615 149.962 107.751C149.085 108.56 147.34 110.492 147.773 111.847C148.823 115.141 154.13 107.752 154.761 106.963C155.533 108.092 155.816 109.571 156.2 110.863C156.473 111.783 157.487 113.545 156.147 113.768C154.266 114.082 150.737 114.784 150.961 117.451C151.224 120.599 155.224 120.581 157.468 120.723C158.733 120.802 158.739 121.817 158.919 122.953C158.999 123.461 159.251 124.147 158.82 124.519C158.438 124.849 157.266 124.859 156.769 124.966C155.317 125.277 153.867 125.595 152.416 125.907C150.768 126.261 149.897 125.765 148.357 125.313C147.787 125.146 147.214 125.217 147.172 124.578C147.147 124.186 147.53 123.579 147.656 123.191C148.152 121.656 148.576 120.076 148.718 118.465C148.926 116.123 148.667 112.611 145.787 112.154C144.417 111.937 144.153 111.866 143.535 110.579C142.866 109.186 141.803 107.897 142.06 106.293C142.246 105.131 141.932 102.932 142.673 101.968C143.016 101.522 143.683 101.257 144.139 100.93C144.72 100.512 145.279 100.066 145.82 99.599C146.275 99.2064 146.83 98.4389 147.346 98.1554C147.977 97.8087 147.996 98.0451 148.449 98.5863C149.117 99.386 150.18 101.747 151.395 101.525ZM154.451 106.728C154.077 107.485 153.21 108.189 152.659 108.821C152.104 109.457 151.579 110.129 150.96 110.705C150.279 111.339 147.86 112.872 148.393 110.809C148.807 109.205 150.359 107.906 151.726 107.106C151.99 106.951 155.085 105.446 154.451 106.728ZM157.098 114.364C157.338 115.438 157.467 116.544 157.672 117.626C157.777 118.179 158.357 119.514 158.12 120.046C157.72 120.947 154.11 119.88 153.362 119.57C151.581 118.832 150.763 116.937 152.406 115.587C153.029 115.076 156.858 113.291 157.098 114.364ZM159.464 127.258C159.665 128.283 160.253 129.234 159.281 130.008C158.474 130.652 157.151 131.091 156.157 131.32C154.8 131.632 154.365 130.871 153.647 129.893C152.875 128.841 152.054 127.824 151.201 126.836C153.878 126.236 156.555 125.636 159.232 125.036C159.23 125.783 159.32 126.527 159.464 127.258ZM153.051 132.015C151.655 131.943 150.153 132.363 148.737 132.474C146.969 132.612 145.206 132.814 143.437 132.932C143.89 131.484 144.704 130.192 145.341 128.824C145.98 127.451 146.429 127.303 147.899 127.197C149.261 127.099 150.222 126.63 151.227 127.787C152.273 128.99 153.22 130.298 154.175 131.573C153.85 131.791 153.462 132.037 153.051 132.015ZM143.072 132.311C142.728 132.562 141.666 131.848 141.308 131.709C140.612 131.44 140.457 131.353 140.094 130.673C139.782 130.089 139.285 129.424 139.187 128.757C139.058 127.877 139.447 126.719 139.589 125.845C139.966 126.755 141.203 126.861 142.039 127.009C142.671 127.122 144.544 126.943 145.021 127.393C145.547 127.891 144.578 129.281 144.325 129.804C144.024 130.428 143.651 131.889 143.072 132.311ZM142.397 133.033C141.983 133.1 140.79 133.512 140.814 132.755C140.841 131.889 142.482 132.823 142.397 133.033ZM140.296 132.987C140.22 133.716 138.653 133.656 138.617 133.014C138.556 131.931 140.416 131.823 140.296 132.987ZM138.504 113.326C138.103 114.468 135.663 114.877 134.726 115.228C133.87 115.55 131.314 117.032 130.432 116.495C133.419 114.439 136.479 112.425 139.01 109.8C139.114 110.449 138.956 110.99 138.765 111.604C138.593 112.158 138.681 112.82 138.504 113.326ZM137.761 117.491C137.331 120.29 136.909 123.125 136.328 125.895C135.219 125.556 134.305 124.869 133.141 124.629C132.078 124.411 130.981 124.406 129.909 124.565C127.626 124.905 125.591 126.036 123.599 127.138C123.415 125.219 123.034 123.165 123.079 121.239C123.116 119.64 125.85 119.166 127.09 118.505C127.841 118.105 128.519 117.543 129.374 117.404C130.253 117.26 131.102 117.265 131.971 116.996C134.025 116.362 135.958 115.355 137.971 114.606C138.136 115.566 137.907 116.545 137.761 117.491ZM135.842 129.334C135.75 129.97 135.865 131.105 135.381 131.59C134.925 132.047 133.952 132.062 133.35 132.186C131.519 132.563 129.689 132.944 127.861 133.333C127.043 133.507 126.224 133.674 125.403 133.829C125.011 133.903 124.028 134.279 123.698 133.967C123.385 133.671 123.618 132.724 123.635 132.326C123.669 131.533 123.713 130.736 123.663 129.942C123.568 128.419 123.653 127.836 125.069 127.048C126.573 126.211 128.126 125.638 129.819 125.327C131.533 125.013 133.166 125.185 134.798 125.844C135.252 126.027 135.932 126.253 136.144 126.743C136.431 127.41 135.938 128.658 135.842 129.334ZM133.78 153.884C133.109 154.306 131.648 154.234 130.876 154.32C129.631 154.457 128.378 154.379 127.141 154.186C126.21 154.042 124.821 153.841 124.107 153.186C123.093 152.256 124.263 152.214 125.039 152.279C127.295 152.469 129.579 152.337 131.833 152.173C132.272 152.141 133.451 151.756 133.875 151.936C134.416 152.167 134.25 153.589 133.78 153.884ZM132.501 168.914C128.297 168.505 125.861 165.02 124.336 161.457C123.518 159.545 123.813 157.538 123.732 155.515C123.718 155.146 123.486 154.229 123.865 153.953C124.222 153.694 125.664 154.495 126.054 154.591C128.053 155.082 130.264 155.129 132.267 154.652C133.135 154.445 133.621 154.062 133.897 154.923C134.119 155.617 133.755 156.895 133.715 157.622C133.647 158.879 133.843 169.044 132.501 168.914ZM124.104 168.918C124.088 168.307 123.78 162.139 124.079 162.12C124.965 164.035 125.876 165.749 127.491 167.158C128.315 167.878 129.243 168.527 130.274 168.913C130.661 169.058 132.857 169.168 132.965 169.65C133.153 170.492 131.654 170.152 131.21 170.084C130.853 170.029 130.532 169.876 130.182 169.813C129.515 169.692 128.885 169.855 128.216 169.868C127.198 169.889 126.199 169.782 125.181 169.87C124.251 169.95 124.129 169.843 124.104 168.918ZM124.725 141.249C128.323 140.084 131.33 142.29 133.229 145.176C134.312 146.822 134.554 147.973 134.364 149.922C134.297 150.62 134.422 151.093 133.781 151.377C133.147 151.658 131.706 151.45 131.02 151.482C129.047 151.574 127.081 151.697 125.108 151.579C123.826 151.504 123.645 151.286 123.667 150.04C123.694 148.541 123.569 147.048 123.484 145.546C123.393 143.921 122.835 141.86 124.725 141.249ZM123.547 139.089C123.549 137.987 123.483 136.856 123.55 135.756C123.617 134.665 124.081 134.719 125.109 134.533C127.336 134.13 129.561 133.679 131.758 133.133C132.627 132.916 133.609 132.502 134.514 132.498C135.464 132.495 135.413 132.984 135.35 133.826C135.209 135.691 134.868 137.529 134.764 139.385C134.652 141.387 134.593 143.416 134.602 145.421C134.605 146.098 134.77 146.599 134.193 145.965C133.617 145.331 133.334 144.32 132.819 143.607C131.764 142.147 130.196 140.973 128.455 140.478C127.493 140.205 126.481 140.157 125.5 140.355C125.203 140.415 123.712 141.128 123.522 140.987C123.394 140.892 123.547 139.133 123.547 139.089ZM136.711 177.278C138.138 178.302 139.718 179.128 141.318 179.846C142.218 180.25 145.782 181.1 145.896 182.009C145.956 182.494 145.366 183.037 144.979 183.094C144.488 183.167 143.68 182.847 143.18 182.786C141.363 182.565 139.549 182.563 137.776 182.057C134.235 181.045 130.564 180.76 126.987 179.878C126.136 179.668 125.283 179.472 124.427 179.282C123.615 179.101 123.251 179.132 123.222 178.263C123.159 176.354 123.705 174.399 123.71 172.467C126.604 172.798 129.508 172.794 132.41 173.066C133.653 173.182 133.624 173.418 134.169 174.506C134.735 175.635 135.697 176.552 136.711 177.278ZM122.6 115.279C122.564 114.572 122.535 113.864 122.471 113.16C122.428 112.686 121.996 111.364 122.24 110.995C122.529 110.557 122.821 110.824 123.338 110.812C124.02 110.796 124.592 110.521 125.154 110.162C126.22 109.481 127.012 108.586 127.703 107.54C128.312 106.62 128.199 105.363 128.191 104.262C128.172 101.413 128.379 98.6345 128.206 95.7731C128.126 94.4589 129.246 95.265 130.151 95.4353C131.631 95.7135 133.24 95.5208 134.744 95.5244C134.688 95.8747 131.612 96.7443 131.115 97.0754C129.843 97.9225 129.101 99.2777 129.217 100.823C129.451 103.931 132.87 104.451 135.368 104.457C133.295 106.292 131.26 108.041 129.631 110.305C128.43 111.974 126.314 115.265 128.278 117.112C126.542 118.099 124.822 119.197 122.858 119.672C122.77 118.208 122.676 116.744 122.6 115.279ZM121.812 58.5384C122.519 58.9929 122.816 58.3503 123.354 58.0176C124.111 57.5486 124.362 57.5947 124.458 56.5476C124.636 54.6055 123.82 52.8474 122.795 51.2583C122.33 50.5359 121.865 49.6756 121.208 49.111C120.609 48.5962 120.003 48.7734 119.448 48.2412C119.23 48.0321 119.277 47.7367 118.916 47.745C118.679 47.7507 118.102 48.4865 117.906 48.649C117.287 49.1621 116.53 49.5525 115.719 49.1294C114.538 48.5138 114.917 46.2786 115.835 45.5547C116.541 44.9971 117.376 45.0833 118.18 44.9932C118.783 44.9261 118.909 44.9522 118.661 44.2612C118.487 43.7774 118.086 43.3999 117.888 42.9265C117.507 42.0177 117.59 40.9134 117.426 39.9516C117.278 39.0898 116.933 38.1577 116.946 37.2824C116.962 36.168 117.326 35.8786 118.29 35.5661C119.224 35.2634 119.998 34.5962 120.794 34.0357C121.694 33.4012 122.681 32.9822 123.607 32.4028C124.235 32.0092 124.64 31.2137 125.331 31.5853C126.153 32.0268 127.021 33.305 127.719 33.958C126.697 34.6073 126.46 34.8913 126.6 36.1625C126.73 37.3278 126.967 38.3663 127.856 39.1781C128.198 39.4901 128.836 39.7399 129.101 40.0995C129.41 40.5185 129.209 40.1493 129.17 40.6222C129.149 40.8774 128.947 41.0443 128.991 41.3391C129.187 42.6487 130.69 41.8758 131.309 41.4208C133.522 39.7953 129.39 38.5044 128.409 37.9123C127.732 37.5029 127.397 36.1973 128.47 36.5442C129.185 36.7748 130.798 38.7311 130.961 36.9479C132.732 37.9779 133.825 40.1659 135.31 41.5493C136.38 42.5471 137.818 43.6538 136.969 45.2471C135.886 47.2783 133.738 48.2002 131.778 49.0765C129.876 49.9264 130.271 52.3318 131.287 53.8041C131.875 54.655 132.645 55.1538 133.571 55.5674C134.517 55.99 134.714 56.4865 134.921 57.4667C135.15 58.5542 134.906 58.9923 133.966 59.5541C133.048 60.1029 132.088 60.6344 131.108 61.0637C128.988 61.9924 126.789 62.0512 124.534 62.3676C123.744 62.4785 122.987 62.7096 122.555 61.9253C122.071 61.0425 122.035 59.5225 121.812 58.5384ZM121.471 54.3143C120.941 54.0342 119.66 54.9642 118.989 55.0051C117.904 55.0709 117.192 55.046 116.229 55.6223C114.408 56.7116 112.897 58.114 111.437 59.635C109.793 61.348 108.158 63.07 106.519 64.7882C105.776 65.5663 105.029 66.3406 104.275 67.107C103.68 67.7113 103.099 68.5609 102.363 68.9921C102.401 68.4801 102.715 68.1176 102.826 67.6429C102.89 67.3654 102.777 67.1298 102.819 66.864C102.833 66.7777 103.064 66.4779 103.1 66.3794C103.194 66.1198 103.308 65.8633 103.42 65.5936C103.524 65.3419 103.509 65.081 103.614 64.8183C103.723 64.5472 104.02 64.3679 104.123 64.1011C104.425 63.3198 103.925 62.9576 103.125 62.976C103.438 61.413 103.575 60.6483 105.207 60.0972C106.767 59.5707 108.29 58.9794 109.723 58.1564C110.994 57.426 112.056 56.373 113.278 55.5588C114.373 54.8297 115.736 54.0658 115.724 52.5707C116.345 52.9923 116.927 53.347 117.637 52.9273C118.236 52.573 118.315 52.2878 119.008 52.2209C119.574 52.1668 119.924 52.1522 120.429 52.4012C121.023 52.694 121.104 52.8977 121.45 52.0356C121.843 52.3668 122.836 53.7466 122.803 54.2928C122.785 54.5936 122.739 54.7294 122.367 54.8087C121.839 54.9211 121.859 54.519 121.471 54.3143ZM118.997 135.976C118.739 136.372 117.651 136.299 117.23 136.293C115.949 136.277 115.501 135.2 114.939 134.16C114.053 132.519 112.728 129.112 114.182 127.391C115.33 126.032 117.565 127.744 118.348 128.77C119.024 129.657 118.823 130.986 118.886 132.05C118.939 132.947 119.507 135.194 118.997 135.976ZM115.497 136.57C114.984 137.082 113.322 136.974 112.643 137.084C111.432 137.28 110.227 137.516 109.052 137.875C108.177 138.141 107.312 138.859 107.081 137.638C106.887 136.611 106.984 135.38 107.002 134.343C107.022 133.225 107.139 132.121 107.236 131.009C107.302 130.256 107.137 128.871 107.751 128.293C108.28 127.796 109.566 127.748 110.253 127.583C111.38 127.312 112.558 126.956 113.73 127.078C113.046 128.936 112.988 130.884 113.721 132.736C113.93 133.265 115.813 136.253 115.497 136.57ZM106.881 129.167C106.595 131.962 106.308 134.775 106.583 137.584C106.599 137.752 106.8 138.519 106.713 138.639C106.623 138.764 105.911 138.828 105.75 138.866C105.108 139.018 104.467 139.18 103.822 139.315C102.565 139.578 102.401 138.783 102.154 137.617C101.626 135.118 102.65 132.409 103.271 130.01C103.573 128.841 103.797 128.706 104.945 128.609C105.743 128.542 107.002 127.979 106.881 129.167ZM102.028 139.595C101.548 140.033 101.068 137.969 101.025 137.759C100.857 136.923 100.951 136.076 100.953 135.228C100.957 133.903 100.856 132.585 100.854 131.266C100.853 130.553 100.319 129.094 101.162 128.717C101.41 128.606 102.392 128.652 102.615 128.798C103.078 129.101 102.896 129.297 102.759 129.824C102.451 131.007 102.186 132.195 101.918 133.387C101.656 134.556 101.397 135.68 101.522 136.888C101.563 137.287 102.334 139.316 102.028 139.595ZM117.344 126.572C118.515 126.241 118.578 127.139 118.575 127.999C118.397 127.862 116.733 126.744 117.344 126.572ZM101.684 63.4774C101.397 63.9508 99.5801 64.0801 99.0609 64.2047C98.0395 64.4496 97.0175 64.6929 95.9987 64.9481C94.0901 65.4259 92.2284 65.9649 90.2717 66.2149C91.3462 64.4926 91.6805 63.0053 91.4805 60.8556C91.2284 58.1417 90.9078 55.4554 90.2838 52.799C89.6687 50.1793 88.9565 47.5773 88.2705 44.9753C87.9335 43.6968 87.5691 42.443 87.1209 41.199C86.7617 40.2021 86.2004 38.947 86.8104 37.925C88.3579 39.0556 89.5993 40.2737 90.4821 41.9911C91.4277 43.8321 92.2535 45.7221 93.351 47.4835C93.8528 48.2888 94.439 49.0232 94.9757 49.8026C95.295 50.2664 95.5277 50.9357 95.9345 51.327C96.4034 51.7778 96.9034 51.9906 97.1715 51.2295C97.459 50.4128 96.5416 48.797 96.2709 48.03C95.617 46.1786 94.9687 44.3309 94.4643 42.4318C94.0565 40.8966 93.3821 39.0405 93.6207 37.4208C93.8569 35.8171 94.9436 36.965 95.4935 37.7105C96.627 39.2476 97.3058 41.0391 98.0506 42.7816C98.7351 44.3824 99.5335 45.9089 100.291 47.4726C100.554 48.0168 100.902 49.4225 101.592 49.5842C102.595 49.8197 102.51 48.4049 102.414 47.831C101.778 44.0254 100.119 40.3817 99.7742 36.5103C99.7576 36.3253 99.5177 34.8869 99.7108 34.7667C100.085 34.5337 100.589 35.9931 100.751 36.3507C101.59 38.2103 102.174 40.1708 102.711 42.1351C103.167 43.8059 103.58 45.4891 104.092 47.1441C104.373 48.0536 104.695 48.948 105.013 49.8453C105.301 50.6582 105.593 52.047 106.343 52.5826C107.407 53.3424 111.214 51.5361 111.6 53.1509C111.875 54.2987 108.344 55.2233 107.592 55.5718C106.602 56.0307 105.631 56.5331 104.641 56.9925C103.891 57.34 102.814 57.4825 102.271 58.1362C101.697 58.8288 101.605 59.8016 101.587 60.6608C101.574 61.3112 102.024 62.9161 101.684 63.4774ZM99.2775 76.0118C99.2273 76.3725 98.9409 76.8503 98.812 77.1936C98.5498 77.8929 98.3267 78.7286 97.9619 79.3821C97.6482 79.9449 97.185 80.4481 96.8817 81.0191C96.5942 81.5612 96.5559 82.1862 96.22 82.7288C95.8354 83.3491 95.2001 83.7951 94.8183 84.4112C94.6302 84.7154 94.4359 85.0626 94.1701 85.3863C93.2286 86.5334 92.2939 87.6154 91.5366 88.8442C91.3431 89.1587 90.3972 90.5318 90.0209 90.6061C89.2339 90.7608 90.1498 89.6409 90.3038 89.4093C91.4186 87.7341 92.4088 85.9703 93.4848 84.269C94.5272 82.6218 95.5939 80.9873 96.597 79.3152C97.4153 77.952 97.981 75.9949 99.3107 75.0346C99.3156 75.3611 99.305 75.6868 99.2775 76.0118ZM135.631 60.6154C136.278 63.2812 137.053 65.8643 137.783 68.5063C138.461 70.9575 139.362 73.5807 139.643 76.1079C139.921 78.6112 140.56 81.1441 141.42 83.5201C141.817 84.6196 142.226 85.7231 142.657 86.8098C142.894 87.4068 143.159 87.9904 143.428 88.5734C143.637 89.0263 144.189 89.7599 144.21 90.2397C144.227 90.6243 144.36 90.4706 143.981 90.7595C143.589 91.0585 142.909 90.95 142.453 91.0026C141.261 91.1407 140.099 91.5895 138.937 91.8802C136.696 92.4409 134.026 92.8861 131.73 92.4958C130.764 92.3316 129.761 92.1893 128.806 91.9756C127.631 91.7123 127.389 91.2254 127.148 90.0692C126.621 87.5411 126.167 85.0196 125.731 82.4749C125.213 79.4476 124.653 76.424 124.253 73.3781C123.85 70.2967 123.559 67.2122 122.927 64.1643C125.478 64.5916 127.881 65.074 130.44 64.3742C132.706 63.7543 134.341 62.5427 135.631 60.6154ZM145.618 93.6181C146.188 94.795 144.814 95.8532 144.147 96.7598C143.269 97.9549 142.448 99.2033 141.426 100.284C141.12 99.0559 140.851 97.6737 140.033 96.665C138.988 95.377 137.769 95.9032 136.489 95.2938C137.831 94.64 139.545 94.8896 140.969 94.3065C142.373 93.7316 143.791 93.2802 145.098 92.5332C145.272 92.8946 145.443 93.2571 145.618 93.6181ZM140.64 121.08C139.782 121.127 140.356 119.316 140.412 118.866C140.565 117.628 140.72 116.391 140.854 115.152C141.562 117.021 142.269 118.889 142.977 120.758C142.199 120.869 141.427 121.036 140.64 121.08ZM139.245 130.038C139.362 130.299 139.907 131.166 139.477 131.327C138.886 131.546 138.815 130.108 139.245 130.038ZM138.221 109.906C135.488 112.09 132.774 114.281 129.818 116.162C129.17 116.574 128.517 116.746 128.088 115.929C127.751 115.286 128.107 114.562 128.324 113.933C128.876 112.33 129.837 110.936 130.903 109.631C133.031 107.024 135.565 104.798 138.797 103.77C139.326 103.602 140.143 103.095 140.328 103.796C140.437 104.208 139.975 105.237 139.882 105.623C139.496 107.221 139.58 108.82 138.221 109.906ZM146.088 125.838C146.148 127.693 141.083 126.197 140.452 125.865C141.114 125.643 146.061 125.004 146.088 125.838ZM147.968 125.85C148.269 125.93 149.423 126.032 148.992 126.427C148.607 126.781 146.859 126.639 146.396 126.682C146.707 125.659 146.944 125.577 147.968 125.85ZM147.03 123.365C146.917 123.778 146.871 124.407 146.502 124.69C146.041 125.043 145.063 124.828 144.542 124.831C143.658 124.836 142.774 124.881 141.893 124.969C141.556 125.003 140.192 125.415 139.876 125.134C139.644 124.927 139.73 123.959 139.899 123.742C140.246 123.294 141.045 123.449 141.545 123.432C143.377 123.366 145.198 123.361 147.03 123.365ZM145.854 116.508C145.596 116.123 145.55 116.128 145.44 115.547C145.322 114.925 145.022 114.393 144.846 113.792C144.458 112.47 145.697 112.587 146.606 113.072C148.964 114.33 148.395 118.725 147.812 120.783C146.964 120.158 146.651 119.875 146.359 118.869C146.249 118.486 146.124 118.11 146.009 117.73C145.924 117.449 145.983 116.7 145.854 116.508ZM146.059 95.1176C146.717 95.038 147.319 97.0832 147.131 97.5258C146.746 98.4311 145.275 99.2398 144.526 99.8177C144.028 100.202 143.532 100.643 142.999 100.979C142.504 101.29 142.22 101.116 141.759 101.265C141.093 101.481 140.932 102.186 140.251 102.49C139.292 102.916 138.129 103.036 137.128 103.421C135.912 103.889 134.798 103.901 133.524 103.68C131.691 103.361 129.543 102.451 129.709 100.221C130 96.2875 137.802 94.2718 139.93 97.6074C140.484 98.4754 140.475 99.4875 140.835 100.42C141.224 101.429 141.602 101.033 142.188 100.29C142.954 99.3168 143.666 98.292 144.402 97.2962C144.641 96.9744 145.583 95.1756 146.059 95.1176ZM98.2414 133.419C98.2038 134.088 98.2439 134.767 98.0115 135.405C97.7773 136.049 97.3027 136.569 97.0294 137.195C96.4751 138.463 96.4793 139.997 96.5015 141.356C96.553 144.517 97.3006 147.587 97.6961 150.711C96.3799 150.708 95.0192 150.722 93.7436 150.346C92.6042 150.009 92.4222 149.175 92.1 148.124C91.195 145.173 90.2179 142.235 89.9257 139.145C89.7867 137.672 89.7282 136.187 89.6617 134.71C89.6037 133.413 89.8944 132.848 91.0628 132.206C93.6028 130.811 96.2357 129.65 98.7496 128.189C98.4926 129.922 98.3392 131.67 98.2414 133.419ZM206.673 29.8464C206.054 29.7326 205.43 29.6616 204.806 29.587C204.48 29.5481 203.466 29.6023 203.222 29.3898C202.932 29.1369 203.434 27.2246 203.46 26.8142C203.617 24.3467 203.434 21.8027 203.208 19.3444C202.799 14.894 201.401 10.7711 198.176 7.56655C196.571 5.97139 194.766 4.70582 192.574 4.09509C191.297 3.73922 189.981 3.54947 188.701 3.20444C187.668 2.92573 186.705 2.60674 185.632 2.4963C183.492 2.27595 181.536 1.46655 179.449 0.998309C177.912 0.65379 175.442 -0.163328 174.446 1.57336C173.662 0.652806 172.874 -0.038434 171.885 -0.725114C170.938 -1.38285 170.783 -2.03986 169.623 -1.28037C167.37 0.195443 165.26 1.99577 163.155 3.67483C161.19 5.24299 159.288 6.88518 157.228 8.32724C155.127 9.79823 155.526 12.2944 156.514 14.3638C158.373 18.259 161.239 21.5889 163.749 24.9276C165.321 27.0192 166.898 29.1136 168.464 31.2093C169.961 33.2123 171.255 35.5306 173.004 37.3301C174.107 38.4645 175.423 36.9811 176.418 36.2957C177.654 35.4443 178.867 34.5612 180.104 33.7124C182.68 31.9442 185.435 30.2879 188.154 28.7488C188.352 29.31 188.549 29.8712 188.747 30.4327C188.15 30.4776 187.343 30.3439 187.04 30.9867C186.605 31.9048 187.671 32.0253 187.857 32.5518C188.024 33.0218 187.34 34.2635 187.138 34.6871C186.683 35.6417 186.048 36.4647 185.348 37.2503C182.579 40.3599 179.075 42.5842 175.52 44.7043C171.715 46.9725 167.638 48.3575 163.473 49.8192C161.355 50.5623 159.157 50.9077 156.971 51.3834C154.866 51.8421 152.761 52.4445 150.61 52.6176C146.207 52.9713 141.535 53.2364 137.186 52.2857C136.71 52.1818 136.206 51.9563 135.722 51.9136C135.333 51.8791 135.046 52.0421 134.679 52.0631C133.892 52.1082 133.441 51.4034 132.816 52.0582C132.503 52.3857 132.497 52.9355 132.061 52.3243C131.507 51.5467 132.924 51.3964 133.45 51.1749C135.218 50.4289 136.64 48.9273 137.764 47.4091C138.887 45.8923 139.048 44.2723 138.365 42.4963C137.681 40.7211 136.126 39.5178 134.959 38.0761C134.395 37.378 133.875 36.6396 133.255 35.9879C132.924 35.6399 132.391 35.3067 132.37 34.9556C132.346 34.5475 132.59 34.3449 132.444 33.8489C132.406 33.7199 132.245 33.6465 132.21 33.5048C132.156 33.2789 132.24 33.085 132.212 32.8648C132.146 32.36 131.948 32.0429 131.668 31.6293C131.494 31.3707 131.239 30.8533 130.999 30.6597C130.579 30.3203 130.005 30.4587 129.578 30.1145C128.901 29.5704 128.663 28.4238 128.065 27.7631C127.222 26.8334 127.043 27.7727 126.15 27.4765C125.387 27.2228 125.396 26.0729 124.779 25.6839C123.91 25.1362 123.179 26.1441 122.407 26.3685C121.392 26.6639 121.782 25.5173 120.877 25.4129C120.061 25.3186 118.929 26.9777 118.522 27.5669C118.107 27.0826 117.653 26.2574 116.906 26.553C116.122 26.8634 115.982 28.3083 115.409 28.8236C115.21 29.0029 115.252 29.1351 115.006 29.2178C114.689 29.324 114.266 28.863 113.856 29.0035C113.029 29.2872 113.13 30.3926 113.128 31.1088C112.152 30.966 111.471 30.8932 111.144 31.9465C110.824 32.9775 110.703 32.5225 109.674 32.8575C108.787 33.1459 108.663 33.9896 108.516 34.8146C108.425 35.3277 108.509 35.5373 108.647 36.005C108.821 36.5942 108.821 36.587 108.538 37.1493C108.044 38.1308 108.014 39.2118 107.935 40.2918C107.851 41.4441 107.65 42.4932 107.977 43.6188C108.179 44.3153 108.195 45.2632 108.876 45.6531C109.146 45.8078 109.605 45.7231 109.835 45.8765C110.274 46.1693 110.141 46.6147 110.433 47.0422C110.652 47.3622 111.006 47.3931 111.251 47.6525C111.518 47.9349 111.534 48.2787 111.686 48.6234C112.135 49.6438 112.559 50.1374 111.092 50.1957C110.188 50.2317 109.223 50.5032 108.321 50.4198C107.258 50.3219 106.994 49.7267 106.655 48.8205C104.95 44.2544 104.033 39.3053 101.787 34.9634C101.294 34.0098 99.269 30.1151 98.4132 32.9529C97.6917 35.3463 98.6383 38.2673 99.0014 40.6496C97.8625 39.622 97.4412 37.7706 96.5763 36.5157C95.9376 35.5886 93.9374 33.312 92.7649 34.6167C91.841 35.6448 92.0718 37.8253 92.2424 39.0545C92.5118 40.9994 93.1326 42.8736 93.5759 44.7812C93.0177 44.05 92.7423 43.1573 92.3549 42.3341C91.8692 41.3018 91.2631 40.3224 90.5724 39.4152C89.9689 38.6226 89.294 37.8857 88.5621 37.2099C88.0029 36.6929 87.0014 35.5617 86.2071 35.5005C84.163 35.3435 84.8058 39.0978 85.1171 40.171C85.7625 42.3958 86.462 44.5591 86.9631 46.8285C87.9423 51.2624 89.1283 55.5941 89.8499 60.0845C90.0095 61.08 90.2018 61.8747 89.8087 62.8319C89.4619 63.6751 89.1025 64.6833 88.463 65.3316C87.0156 66.7997 85.8138 68.3674 84.7318 70.1363C83.5729 72.031 82.3799 73.9477 81.434 75.9589C80.999 76.8842 80.6432 77.8852 80.1432 78.7752C79.6919 79.5785 79.1494 80.2133 78.8285 81.1028C77.2955 85.3528 76.1604 89.5285 75.6408 94.0288C75.214 97.7235 75.6115 102.638 80.0669 103.503C82.1136 103.9 83.9513 102.991 85.797 102.241C87.7058 101.466 89.0862 100.205 90.643 98.8644C92.5777 97.1993 94.5865 95.6371 96.5416 93.9998C98.4978 92.3614 100.305 90.5445 102.25 88.8887C104.172 87.2527 105.91 85.5153 107.572 83.6157C109.221 81.7312 110.56 79.6435 112.156 77.7325C112.15 80.2066 111.783 82.6581 111.68 85.1287C111.586 87.3939 111.584 89.6567 111.675 91.9209C111.766 94.1837 111.169 96.3375 111.164 98.5954C111.159 100.798 111.072 102.988 111.024 105.188C111.002 106.175 110.809 107.282 111.177 108.234C111.453 108.945 112.317 109.168 113.054 109.359C114.194 109.655 117.623 109.085 118.132 110.304C118.41 110.969 118.13 112.18 118.152 112.915C118.188 114.127 118.232 115.338 118.273 116.549C118.316 117.8 118.358 119.051 118.404 120.301C118.444 121.403 118.658 122.631 118.525 123.722C118.412 124.657 117.867 124.535 117.004 124.583C115.702 124.655 114.399 124.713 113.096 124.769C111.184 124.853 109.189 124.815 107.357 125.041C106.587 125.136 105.746 125.095 104.934 125.25C103.916 125.444 102.975 125.493 101.943 125.544C101.11 125.586 100.04 125.525 99.3855 126.141C99.1588 126.355 99.1078 126.61 98.9471 126.848C98.6456 127.294 98.8133 127.177 98.3187 127.277C96.3876 127.669 94.5536 128.11 92.6652 128.769C91.7199 129.099 90.8428 129.542 89.8931 129.852C89.0608 130.124 88.4508 130.459 88.0394 131.277C87.3044 132.738 87.4905 134.852 87.5438 136.427C87.6276 138.884 88.1726 141.222 88.7604 143.598C89.3719 146.07 89.8514 148.608 91.0411 150.878C91.4318 151.625 91.8539 152.577 92.6523 152.965C93.683 153.467 95.2684 153.163 96.3933 153.165C97.1482 153.166 99.1707 153.426 99.7351 152.792C100.281 152.178 99.7317 150.447 99.6546 149.685C99.3842 147.016 98.8974 144.322 98.9039 141.634C99.5198 142.545 100.588 144.118 101.656 142.722C101.919 142.379 101.817 142.219 102.284 142.02C102.542 141.91 103.087 141.842 103.368 141.861C103.751 141.887 103.892 142.041 104.244 141.965C104.555 141.899 104.905 141.62 105.262 141.535C109.686 140.482 114.083 139.347 118.526 138.41C119.701 138.161 119.534 139.064 119.611 140.081C119.697 141.206 119.533 142.341 119.689 143.454C119.825 144.421 119.93 145.364 119.739 146.337C119.514 147.485 119.659 148.443 119.884 149.58C120.748 153.964 120.593 158.719 120.788 163.175C120.89 165.495 120.672 167.865 120.89 170.173C120.972 171.045 121.458 171.526 121.655 172.319C121.881 173.23 121.265 174.389 121.077 175.272C120.7 177.042 120.038 179.577 121.249 181.117C121.903 181.95 122.761 182.07 123.729 182.352C124.888 182.688 126.031 183.081 127.195 183.4C131.449 184.566 136.047 184.794 140.407 185.437C141.475 185.594 142.466 185.579 143.54 185.505C144.203 185.459 145.834 185.677 146.385 185.28C146.68 185.068 146.53 184.802 146.68 184.542C146.893 184.173 147.151 184.023 147.514 183.794C148.115 183.413 148.809 183.191 148.911 182.407C149.159 180.485 146.76 179.467 145.478 178.636C143.838 177.574 141.859 177.164 140.119 176.297C139.16 175.818 138.234 175.276 137.309 174.733C136.908 174.498 136.095 174.232 135.816 173.861C135.531 173.483 135.81 172.943 135.928 172.403C136.416 170.171 136.251 167.888 136.503 165.632C136.755 163.372 136.687 161.099 136.77 158.827C136.855 156.488 137.048 154.155 137.196 151.82C137.333 149.663 137.47 147.471 137.493 145.311C137.514 143.309 137.787 141.344 137.852 139.329C137.874 138.645 137.751 137.404 138.205 136.825C138.602 136.317 139.92 136.38 140.534 136.291C142.19 136.051 143.766 135.84 145.403 135.694C149.299 135.349 153.635 135.095 157.318 133.736C158.838 133.175 160.86 132.409 161.364 130.662C161.943 128.654 161.187 126.186 161.162 124.133C161.135 121.941 160.5 119.803 160.024 117.679C159.512 115.392 159.189 113.067 158.635 110.789C158.127 108.699 157.303 106.848 156.524 104.863C156.208 104.059 154.407 101.285 154.966 100.601C155.267 100.233 156.35 100.14 156.79 99.971C157.737 99.6083 158.686 99.1955 159.56 98.6786C160.726 97.9883 163.281 96.8464 163.398 95.3127C163.511 93.8469 162.072 92.3655 161.341 91.2143C160.163 89.3593 158.676 87.7377 157.554 85.8459C155.286 82.023 153.483 77.8357 151.83 73.7158C150.965 71.5604 150.682 69.5308 150.54 67.2301C153.052 67.2361 155.608 67.5455 158.103 67.1938C160.819 66.8111 163.539 66.1664 166.231 65.6353C171.134 64.6677 175.841 63.5753 180.383 61.3967C184.636 59.3567 188.951 57.1239 192.473 53.8855C194.294 52.2111 196.151 50.5045 197.723 48.5897C199.338 46.6227 200.553 44.3879 201.8 42.1797C203.175 39.7422 204.27 37.1806 205.135 34.5146C205.31 33.9785 205.311 33.296 205.534 32.7896C205.785 32.218 206.242 32.203 206.72 31.9019C207.392 31.4783 207.839 30.0607 206.673 29.8464Z" fill="black"/>
<path fill-rule="evenodd" clip-rule="evenodd" d="M148.2 2.56154C148.774 3.05539 151.249 4.79495 152.048 4.37197C153.034 3.84981 151.473 2.27688 151.053 1.88909C150.518 1.39573 148.606 -0.0967946 147.874 0.041754C146.411 0.318851 147.684 2.11705 148.2 2.56154Z" fill="black"/>
<path fill-rule="evenodd" clip-rule="evenodd" d="M149.422 20.4151C149.747 19.7759 150.61 19.5409 151.008 18.9223C151.488 18.1787 151.709 17.5279 151.532 16.616C150.303 17.03 148.906 18.2834 148.084 19.2633C147.397 20.0824 146.421 21.7939 148.214 21.7983C148.198 21.5547 148.182 21.3106 148.167 21.0673C148.704 21.1456 149.178 20.8968 149.422 20.4151Z" fill="black"/>
<path fill-rule="evenodd" clip-rule="evenodd" d="M143.57 9.77996C144.362 10.0079 145.015 9.97562 145.825 9.99345C146.412 10.0066 147.214 10.3297 147.69 9.96547C147.268 9.7206 147.802 9.70708 147.697 9.4683C147.609 9.26925 147.443 9.33447 147.307 9.17332C146.824 8.5992 146.403 8.6062 145.637 8.4868C145.043 8.39383 144.169 8.17944 143.599 8.47506C142.998 8.78629 142.765 9.54842 143.57 9.77996Z" fill="black"/>
<path fill-rule="evenodd" clip-rule="evenodd" d="M154.844 27.3896C155.356 26.9595 155.915 25.7142 156.018 25.0716C156.059 24.8197 155.878 24.627 155.899 24.4417C155.94 24.0885 156.665 23.406 155.906 23.1163C155.242 22.8627 154.618 24.833 154.449 25.2628C154.276 25.7026 153.804 26.5592 153.949 26.9844C154.069 27.3373 154.498 27.6799 154.844 27.3896Z" fill="black"/>
<path fill-rule="evenodd" clip-rule="evenodd" d="M160.972 0.72251C161.435 0.291836 161.729 -0.196621 161.68 -0.788879C161.642 -1.25541 161.293 -2.86389 160.901 -2.81661C159.597 -2.65901 160.183 1.45593 160.972 0.72251Z" fill="black"/>
<path fill-rule="evenodd" clip-rule="evenodd" d="M133.443 72.6358C133.335 72.2425 132.945 69.8379 132.271 70.0016C131.758 70.126 132.29 72.2422 132.314 72.5207C132.364 73.1032 131.246 73.0841 130.726 73.0053C129.902 72.8806 129.968 72.3971 129.845 71.647C129.799 71.3635 129.62 70.0822 129.03 70.5515C128.631 70.8686 128.916 72.4484 128.949 72.8089C129.064 74.0575 129.2 76.1895 129.941 77.3232C130.236 77.7756 130.502 77.9987 130.813 77.4188C131.127 76.8319 130.416 75.0432 130.291 74.4431C130.878 74.5004 132.567 74.3099 132.92 74.9201C133.243 75.477 132.727 77.0682 133.762 77.1972C134.376 77.2739 134.265 76.5616 134.206 76.0139C134.082 74.8644 133.745 73.7458 133.443 72.6358Z" fill="black"/>
<path fill-rule="evenodd" clip-rule="evenodd" d="M135.016 72.0794C134.336 72.3869 135.189 76.8717 136.184 76.7271C137.346 76.5579 135.664 71.7863 135.016 72.0794Z" fill="black"/>
<path fill-rule="evenodd" clip-rule="evenodd" d="M134.258 70.5945C134.174 71.6042 135.484 71.9805 135.547 70.8831C135.594 70.0366 134.346 69.5329 134.258 70.5945Z" fill="black"/>
<path fill-rule="evenodd" clip-rule="evenodd" d="M127.064 43.822C127.662 46.0545 133.108 47.0042 132.375 43.9933C132.007 42.4857 130.473 43.8251 129.401 43.6497C128.708 43.5362 126.643 42.2476 127.064 43.822Z" fill="black"/>
<path fill-rule="evenodd" clip-rule="evenodd" d="M125.696 39.8396C125.952 38.6451 123.343 37.3265 122.395 37.6553C121.01 38.1367 121.016 41.2137 122.073 42.0317C122.212 42.1393 122.638 42.396 122.847 42.1913C123.176 41.8677 122.816 41.9561 122.74 41.6329C122.617 41.1191 122.218 40.4594 122.616 39.8746C123.367 38.7702 125.33 41.5513 125.696 39.8396Z" fill="black"/>
<path fill-rule="evenodd" clip-rule="evenodd" d="M117.738 45.6381C116.797 45.5853 116.026 47.0477 117.41 46.9251C117.675 46.9016 118.245 46.8347 118.399 46.5559C118.653 46.0939 118.152 45.6614 117.738 45.6381Z" fill="black"/>
<path fill-rule="evenodd" clip-rule="evenodd" d="M163.389 10.7762C163.066 10.3097 162.391 9.55903 161.81 10.0269C161.295 10.4418 161.385 11.4659 161.583 11.9748C162.114 13.3448 163.37 14.5652 164.791 13.7759C164.297 12.7858 164.019 11.6894 163.389 10.7762Z" fill="black"/>
</g>
<defs>
<clipPath id="clip0">
<rect width="272" height="312" fill="white"/>
</clipPath>
</defs>
</svg>
