<?xml version="1.0" encoding="UTF-8" standalone="no"?>
<!DOCTYPE svg PUBLIC "-//W3C//DTD SVG 20010904//EN"
              "http://www.w3.org/TR/2001/REC-SVG-20010904/DTD/svg10.dtd">

<svg xmlns="http://www.w3.org/2000/svg"
     width="404.233mm" height="404.233mm"
     viewBox="0 0 1146 1146">
  <path id="Selection"
        fill="none" stroke="black" stroke-width="1"
        d="M 457.00,0.11
           C 457.00,0.11 500.00,0.11 500.00,0.11
             500.00,0.11 581.00,0.11 581.00,0.11
             581.00,0.11 681.00,0.11 681.00,0.11
             681.00,0.11 728.00,4.28 728.00,4.28
             728.00,4.28 759.00,10.20 759.00,10.20
             759.00,10.20 800.00,19.91 800.00,19.91
             800.00,19.91 844.00,35.99 844.00,35.99
             895.98,57.44 939.50,84.32 982.00,121.29
             994.08,131.80 1005.20,143.29 1016.09,155.00
             1058.56,200.66 1090.42,252.18 1113.55,310.00
             1113.55,310.00 1122.35,336.00 1122.35,336.00
             1122.35,336.00 1126.28,347.00 1126.28,347.00
             1126.28,347.00 1135.01,383.00 1135.01,383.00
             1135.01,383.00 1141.72,417.00 1141.72,417.00
             1141.72,417.00 1145.09,454.00 1145.09,454.00
             1145.09,454.00 1146.00,466.00 1146.00,466.00
             1146.00,466.00 1146.00,511.00 1146.00,511.00
             1146.00,511.00 1146.00,580.00 1146.00,580.00
             1146.00,580.00 1146.00,642.00 1146.00,642.00
             1146.00,642.00 1146.00,680.00 1146.00,680.00
             1146.00,680.00 1141.72,729.00 1141.72,729.00
             1141.72,729.00 1135.42,761.00 1135.42,761.00
             1135.42,761.00 1126.28,799.00 1126.28,799.00
             1126.28,799.00 1122.35,810.00 1122.35,810.00
             1122.35,810.00 1116.95,827.00 1116.95,827.00
             1097.06,881.24 1067.06,932.35 1029.29,976.00
             1019.24,987.61 1009.26,999.42 998.00,1009.91
             942.86,1061.28 883.04,1099.11 811.00,1122.03
             811.00,1122.03 791.00,1128.58 791.00,1128.58
             791.00,1128.58 758.00,1136.00 758.00,1136.00
             734.62,1140.84 715.82,1143.45 692.00,1145.09
             692.00,1145.09 680.00,1146.00 680.00,1146.00
             680.00,1146.00 464.00,1146.00 464.00,1146.00
             464.00,1146.00 454.00,1145.09 454.00,1145.09
             428.80,1143.36 411.71,1140.82 387.00,1135.80
             387.00,1135.80 347.00,1126.28 347.00,1126.28
             347.00,1126.28 334.00,1121.67 334.00,1121.67
             238.62,1090.27 155.52,1030.72 95.48,950.00
             58.41,900.16 30.97,842.02 15.15,782.00
             15.15,782.00 9.60,756.00 9.60,756.00
             9.60,756.00 1.04,701.00 1.04,701.00
             1.04,701.00 1.04,691.00 1.04,691.00
             1.04,691.00 0.00,679.00 0.00,679.00
             0.00,679.00 0.00,610.00 0.00,610.00
             0.00,610.00 0.00,464.00 0.00,464.00
             0.00,464.00 1.04,454.00 1.04,454.00
             1.04,454.00 1.04,445.00 1.04,445.00
             1.04,445.00 9.20,392.00 9.20,392.00
             9.20,392.00 15.88,361.00 15.88,361.00
             25.04,326.15 38.84,292.03 55.26,260.00
             55.26,260.00 75.95,225.00 75.95,225.00
             139.34,124.92 232.73,56.09 345.00,20.22
             360.13,15.38 401.94,6.45 418.00,4.28
             418.00,4.28 446.00,1.17 446.00,1.17
             446.00,1.17 457.00,0.11 457.00,0.11 Z" />
</svg>
